<svg width="346" height="99" viewBox="0 0 346 99" fill="none" xmlns="http://www.w3.org/2000/svg">
<path d="M343.537 87.583C343.537 92.8588 339.15 97.1323 333.723 97.1323H12.5381C7.11368 97.1323 2.71069 92.8588 2.71069 87.583V11.43C2.71069 6.15665 7.11368 1.86816 12.5381 1.86816H333.72C339.15 1.86816 343.535 6.15665 343.535 11.43L343.537 87.583Z" fill="black"/>
<path d="M332.687 1.9831C338.597 1.9831 343.407 6.64539 343.407 12.375V86.625C343.407 92.3546 338.597 97.0169 332.687 97.0169H13.5609C7.65073 97.0169 2.8415 92.3546 2.8415 86.625V12.375C2.8415 6.64539 7.65073 1.9831 13.5609 1.9831H332.687ZM332.687 7.62939e-06H13.5609C6.54336 7.62939e-06 0.795898 5.57185 0.795898 12.375V86.625C0.795898 93.4282 6.54336 99 13.5609 99H332.687C339.705 99 345.452 93.4282 345.452 86.625V12.375C345.452 5.57185 339.705 7.62939e-06 332.687 7.62939e-06Z" fill="#A6A6A6"/>
<path d="M77.7131 48.9655C77.639 40.9886 84.4505 37.1078 84.7619 36.9271C80.9043 31.4747 74.9252 30.7297 72.8241 30.6703C67.8023 30.158 62.9312 33.5834 60.373 33.5834C57.7639 33.5834 53.8246 30.7198 49.5789 30.804C44.1155 30.8857 39.0043 33.9522 36.2011 38.7141C30.416 48.4235 34.7306 62.6919 40.2732 70.5401C43.0458 74.3838 46.2855 78.6754 50.5261 78.5244C54.6747 78.3586 56.2244 75.9603 61.2309 75.9603C66.1913 75.9603 67.6466 78.5244 71.9714 78.4279C76.4238 78.3586 79.227 74.5669 81.9026 70.6886C85.1066 66.2831 86.3933 61.9444 86.4444 61.7217C86.3397 61.687 77.7973 58.5265 77.7131 48.9655Z" fill="white"/>
<path d="M69.5434 25.5075C71.7748 22.8023 73.3015 19.122 72.8777 15.3872C69.6481 15.5258 65.6093 17.5528 63.2835 20.1986C61.2257 22.5301 59.3876 26.3515 59.8624 29.9452C63.4903 30.2075 67.2151 28.1706 69.5434 25.5075Z" fill="white"/>
<path d="M126.021 24.7723C126.021 27.6853 125.12 29.8782 123.32 31.3508C121.653 32.7096 119.284 33.3902 116.215 33.3902C114.693 33.3902 113.391 33.3259 112.301 33.1972V17.2804C113.723 17.0577 115.255 16.9438 116.909 16.9438C119.833 16.9438 122.036 17.5601 123.522 18.7927C125.186 20.1861 126.021 22.1785 126.021 24.7723ZM123.2 24.844C123.2 22.9556 122.684 21.5077 121.653 20.4979C120.622 19.4906 119.115 18.9857 117.132 18.9857C116.289 18.9857 115.572 19.0402 114.977 19.154V31.2543C115.306 31.3038 115.909 31.3261 116.784 31.3261C118.832 31.3261 120.412 30.7741 121.525 29.6703C122.638 28.5664 123.2 26.9577 123.2 24.844Z" fill="white"/>
<path d="M140.979 27.3164C140.979 29.1108 140.451 30.581 139.394 31.7343C138.286 32.9198 136.818 33.5114 134.985 33.5114C133.218 33.5114 131.811 32.9446 130.762 31.8061C129.715 30.6701 129.192 29.237 129.192 27.5095C129.192 25.7027 129.731 24.2202 130.813 23.0693C131.896 21.9185 133.351 21.3418 135.184 21.3418C136.951 21.3418 138.37 21.9086 139.445 23.0446C140.466 24.1484 140.979 25.574 140.979 27.3164ZM138.204 27.4006C138.204 26.324 137.964 25.4008 137.487 24.6311C136.925 23.7005 136.126 23.2352 135.087 23.2352C134.012 23.2352 133.195 23.7005 132.633 24.6311C132.153 25.4008 131.916 26.3388 131.916 27.4476C131.916 28.5242 132.156 29.4474 132.633 30.2171C133.213 31.1477 134.02 31.613 135.061 31.613C136.082 31.613 136.884 31.1403 137.461 30.1924C137.956 29.4078 138.204 28.4772 138.204 27.4006Z" fill="white"/>
<path d="M161.036 21.5796L157.27 33.2467H154.819L153.259 28.1804C152.864 26.9157 152.542 25.6584 152.292 24.411H152.243C152.011 25.693 151.689 26.9479 151.276 28.1804L149.619 33.2467H147.14L143.599 21.5796H146.348L147.709 27.1261C148.038 28.4378 148.309 29.6877 148.526 30.8707H148.574C148.774 29.8956 149.103 28.6531 149.568 27.1508L151.276 21.5821H153.456L155.092 27.032C155.488 28.3611 155.81 29.6407 156.057 30.8732H156.131C156.313 29.6728 156.586 28.3933 156.948 27.032L158.409 21.5821H161.036V21.5796Z" fill="white"/>
<path d="M174.906 33.2467H172.231V26.5641C172.231 24.5049 171.424 23.4753 169.805 23.4753C169.011 23.4753 168.371 23.7575 167.873 24.3243C167.38 24.891 167.13 25.5593 167.13 26.3241V33.2442H164.454V24.9133C164.454 23.8887 164.421 22.7774 164.357 21.5745H166.708L166.834 23.3986H166.908C167.219 22.8318 167.684 22.3641 168.294 21.9903C169.019 21.5547 169.831 21.3345 170.719 21.3345C171.843 21.3345 172.777 21.6859 173.52 22.3913C174.444 23.2551 174.906 24.5445 174.906 26.2573V33.2467Z" fill="white"/>
<path d="M182.284 33.2467H179.611V16.2261H182.284V33.2467Z" fill="white"/>
<path d="M198.037 27.3164C198.037 29.1108 197.508 30.581 196.451 31.7343C195.343 32.9198 193.873 33.5114 192.042 33.5114C190.273 33.5114 188.866 32.9446 187.819 31.8061C186.773 30.6701 186.249 29.237 186.249 27.5095C186.249 25.7027 186.788 24.2202 187.87 23.0693C188.953 21.9185 190.408 21.3418 192.239 21.3418C194.008 21.3418 195.425 21.9086 196.502 23.0446C197.523 24.1484 198.037 25.574 198.037 27.3164ZM195.259 27.4006C195.259 26.324 195.019 25.4008 194.541 24.6311C193.982 23.7005 193.181 23.2352 192.144 23.2352C191.067 23.2352 190.25 23.7005 189.691 24.6311C189.211 25.4008 188.973 26.3388 188.973 27.4476C188.973 28.5242 189.213 29.4474 189.691 30.2171C190.27 31.1477 191.077 31.613 192.119 31.613C193.14 31.613 193.939 31.1403 194.516 30.1924C195.014 29.4078 195.259 28.4772 195.259 27.4006Z" fill="white"/>
<path d="M210.985 33.2465H208.583L208.384 31.9026H208.31C207.488 32.9743 206.316 33.5114 204.794 33.5114C203.658 33.5114 202.739 33.1574 202.047 32.4545C201.419 31.816 201.105 31.0215 201.105 30.0785C201.105 28.6529 201.718 27.5664 202.951 26.814C204.182 26.0616 205.913 25.6928 208.141 25.7102V25.4924C208.141 23.9554 207.309 23.1881 205.642 23.1881C204.455 23.1881 203.408 23.4777 202.504 24.0519L201.96 22.3491C203.079 21.6784 204.46 21.3418 206.089 21.3418C209.234 21.3418 210.812 22.9505 210.812 26.168V30.4646C210.812 31.6304 210.87 32.5585 210.985 33.2465ZM208.208 29.237V27.4377C205.256 27.3882 203.781 28.1728 203.781 29.789C203.781 30.3978 203.949 30.8532 204.294 31.1576C204.639 31.4621 205.078 31.613 205.601 31.613C206.188 31.613 206.737 31.4324 207.238 31.0735C207.74 30.7121 208.049 30.2543 208.164 29.6924C208.192 29.5662 208.208 29.4128 208.208 29.237Z" fill="white"/>
<path d="M226.188 33.2466H223.814L223.689 31.3731H223.615C222.857 32.7987 221.565 33.5115 219.75 33.5115C218.3 33.5115 217.092 32.9596 216.135 31.8557C215.177 30.7519 214.7 29.3188 214.7 27.5591C214.7 25.6707 215.218 24.1411 216.26 22.9729C217.268 21.8839 218.504 21.3394 219.974 21.3394C221.59 21.3394 222.721 21.8666 223.365 22.9234H223.416V16.2261H226.094V30.1034C226.094 31.2394 226.125 32.2863 226.188 33.2466ZM223.416 28.3263V26.381C223.416 26.0444 223.39 25.7722 223.342 25.5642C223.191 24.9405 222.867 24.4158 222.374 23.9926C221.876 23.5694 221.276 23.3565 220.585 23.3565C219.586 23.3565 218.805 23.7402 218.231 24.5099C217.661 25.2796 217.373 26.2622 217.373 27.4626C217.373 28.6159 217.646 29.5515 218.195 30.2717C218.775 31.0389 219.556 31.4226 220.534 31.4226C221.412 31.4226 222.114 31.1033 222.647 30.4623C223.163 29.8707 223.416 29.1579 223.416 28.3263Z" fill="white"/>
<path d="M249.071 27.3164C249.071 29.1108 248.543 30.581 247.486 31.7343C246.378 32.9198 244.912 33.5114 243.077 33.5114C241.313 33.5114 239.906 32.9446 238.854 31.8061C237.807 30.6701 237.284 29.237 237.284 27.5095C237.284 25.7027 237.823 24.2202 238.905 23.0693C239.988 21.9185 241.443 21.3418 243.278 21.3418C245.043 21.3418 246.465 21.9086 247.537 23.0446C248.558 24.1484 249.071 25.574 249.071 27.3164ZM246.299 27.4006C246.299 26.324 246.059 25.4008 245.581 24.6311C245.017 23.7005 244.22 23.2352 243.179 23.2352C242.107 23.2352 241.29 23.7005 240.725 24.6311C240.245 25.4008 240.008 26.3388 240.008 27.4476C240.008 28.5242 240.248 29.4474 240.725 30.2171C241.305 31.1477 242.112 31.613 243.153 31.613C244.175 31.613 244.979 31.1403 245.556 30.1924C246.048 29.4078 246.299 28.4772 246.299 27.4006Z" fill="white"/>
<path d="M263.457 33.2467H260.784V26.5641C260.784 24.5049 259.978 23.4753 258.356 23.4753C257.562 23.4753 256.922 23.7575 256.426 24.3243C255.931 24.891 255.683 25.5593 255.683 26.3241V33.2442H253.005V24.9133C253.005 23.8887 252.975 22.7774 252.911 21.5745H255.26L255.385 23.3986H255.459C255.773 22.8318 256.237 22.3641 256.845 21.9903C257.573 21.5547 258.382 21.3345 259.273 21.3345C260.394 21.3345 261.328 21.6859 262.071 22.3913C262.998 23.2551 263.457 24.5445 263.457 26.2573V33.2467Z" fill="white"/>
<path d="M281.464 23.5224H278.518V29.1901C278.518 30.6306 279.041 31.3508 280.077 31.3508C280.557 31.3508 280.956 31.3112 281.27 31.2295L281.339 33.1971C280.81 33.3902 280.116 33.4867 279.26 33.4867C278.204 33.4867 277.381 33.1749 276.787 32.5512C276.189 31.9275 275.893 30.878 275.893 29.4054V23.5224H274.134V21.5795H275.893V19.4411L278.515 18.6738V21.577H281.461V23.5224H281.464Z" fill="white"/>
<path d="M295.628 33.2467H292.95V26.6137C292.95 24.5223 292.143 23.4753 290.527 23.4753C289.286 23.4753 288.439 24.0817 287.974 25.2945C287.895 25.5494 287.849 25.8613 287.849 26.2276V33.2442H285.176V16.2261H287.849V23.2576H287.9C288.742 21.978 289.95 21.3394 291.515 21.3394C292.623 21.3394 293.539 21.6909 294.267 22.3962C295.173 23.2749 295.628 24.5817 295.628 26.3092V33.2467Z" fill="white"/>
<path d="M310.239 26.8613C310.239 27.3266 310.203 27.7177 310.139 28.037H302.115C302.151 29.1903 302.534 30.0689 303.277 30.6778C303.956 31.2223 304.831 31.4945 305.904 31.4945C307.091 31.4945 308.173 31.3114 309.149 30.9426L309.567 32.7444C308.426 33.2246 307.083 33.4646 305.528 33.4646C303.665 33.4646 302.197 32.9325 301.135 31.8683C300.068 30.804 299.539 29.3759 299.539 27.584C299.539 25.8243 300.032 24.3591 301.025 23.1909C302.061 21.9435 303.463 21.3198 305.232 21.3198C306.963 21.3198 308.278 21.9435 309.166 23.1909C309.884 24.1809 310.239 25.406 310.239 26.8613ZM307.686 26.1906C307.706 25.4209 307.53 24.7576 307.167 24.1982C306.703 23.478 305.996 23.1167 305.038 23.1167C304.165 23.1167 303.453 23.4681 302.909 24.1735C302.465 24.7353 302.202 25.406 302.115 26.1906H307.686Z" fill="white"/>
<path d="M137.752 77.972H131.954L128.778 68.2972H117.739L114.714 77.972H109.069L120.006 45.0347H126.761L137.752 77.972ZM127.821 64.2382L124.949 55.6376C124.645 54.7589 124.076 52.6898 123.236 49.4327H123.134C122.799 50.8336 122.26 52.9027 121.52 55.6376L118.699 64.2382H127.821Z" fill="white"/>
<path d="M165.879 65.8049C165.879 69.8441 164.753 73.0369 162.501 75.3807C160.484 77.4672 157.98 78.5091 154.99 78.5091C151.763 78.5091 149.445 77.3855 148.033 75.1382H147.931V87.6493H142.488V62.0405C142.488 59.5011 142.419 56.895 142.286 54.222H147.073L147.377 57.9864H147.479C149.294 55.1501 152.049 53.7344 155.746 53.7344C158.636 53.7344 161.048 54.8407 162.979 57.0558C164.914 59.2734 165.879 62.189 165.879 65.8049ZM160.334 65.998C160.334 63.6864 159.797 61.7806 158.72 60.2808C157.543 58.7166 155.963 57.9345 153.982 57.9345C152.639 57.9345 151.418 58.37 150.328 59.2289C149.236 60.0951 148.521 61.2262 148.186 62.6271C148.018 63.2805 147.934 63.8151 147.934 64.2358V68.1958C147.934 69.9234 148.48 71.3811 149.573 72.5716C150.665 73.7621 152.085 74.3561 153.831 74.3561C155.881 74.3561 157.477 73.5888 158.618 72.0593C159.762 70.5272 160.334 68.5077 160.334 65.998Z" fill="white"/>
<path d="M194.056 65.8049C194.056 69.8441 192.93 73.0369 190.676 75.3807C188.662 77.4672 186.157 78.5091 183.168 78.5091C179.941 78.5091 177.622 77.3855 176.213 75.1382H176.111V87.6493H170.668V62.0405C170.668 59.5011 170.599 56.895 170.466 54.222H175.253L175.557 57.9864H175.659C177.472 55.1501 180.226 53.7344 183.926 53.7344C186.813 53.7344 189.226 54.8407 191.161 57.0558C193.089 59.2734 194.056 62.189 194.056 65.8049ZM188.511 65.998C188.511 63.6864 187.972 61.7806 186.895 60.2808C185.718 58.7166 184.143 57.9345 182.159 57.9345C180.814 57.9345 179.596 58.37 178.503 59.2289C177.411 60.0951 176.698 61.2262 176.364 62.6271C176.198 63.2805 176.111 63.8151 176.111 64.2358V68.1958C176.111 69.9234 176.657 71.3811 177.745 72.5716C178.838 73.7596 180.257 74.3561 182.008 74.3561C184.059 74.3561 185.654 73.5888 186.795 72.0593C187.939 70.5272 188.511 68.5077 188.511 65.998Z" fill="white"/>
<path d="M225.56 68.7355C225.56 71.5372 224.557 73.8166 222.543 75.5764C220.329 77.4994 217.248 78.4598 213.288 78.4598C209.632 78.4598 206.701 77.7766 204.483 76.408L205.744 72.0099C208.133 73.4107 210.755 74.1136 213.612 74.1136C215.662 74.1136 217.258 73.6632 218.404 72.7672C219.545 71.8713 220.115 70.6684 220.115 69.1686C220.115 67.8321 219.645 66.706 218.703 65.7927C217.766 64.8794 216.201 64.0305 214.016 63.2459C208.067 61.0951 205.095 57.9445 205.095 53.8013C205.095 51.0937 206.137 48.8736 208.223 47.146C210.301 45.416 213.074 44.5522 216.541 44.5522C219.632 44.5522 222.201 45.0745 224.251 46.1164L222.89 50.418C220.975 49.4082 218.81 48.9033 216.387 48.9033C214.473 48.9033 212.977 49.3612 211.904 50.272C210.998 51.0862 210.544 52.0787 210.544 53.2543C210.544 54.5562 211.062 55.6328 212.103 56.4793C213.01 57.2614 214.656 58.1078 217.046 59.0211C219.969 60.1621 222.116 61.4961 223.497 63.0256C224.874 64.5502 225.56 66.4585 225.56 68.7355Z" fill="white"/>
<path d="M243.556 58.1819H237.557V69.7129C237.557 72.6458 238.614 74.111 240.733 74.111C241.706 74.111 242.512 74.0293 243.151 73.866L243.301 77.873C242.229 78.2616 240.817 78.4571 239.068 78.4571C236.919 78.4571 235.239 77.821 234.026 76.5514C232.819 75.2792 232.211 73.1458 232.211 70.1485V58.177H228.637V54.217H232.211V49.8684L237.557 48.3042V54.217H243.556V58.1819Z" fill="white"/>
<path d="M270.626 65.9014C270.626 69.5521 269.549 72.5493 267.399 74.8931C265.145 77.3062 262.153 78.5091 258.423 78.5091C254.828 78.5091 251.966 77.3533 249.832 75.0416C247.698 72.73 246.63 69.8119 246.63 66.295C246.63 62.6146 247.728 59.6001 249.931 57.2563C252.13 54.91 255.096 53.7368 258.826 53.7368C262.421 53.7368 265.313 54.8926 267.496 57.2068C269.584 59.4516 270.626 62.3498 270.626 65.9014ZM264.979 66.0722C264.979 63.8818 264.496 62.0033 263.519 60.4366C262.377 58.5408 260.746 57.5953 258.632 57.5953C256.444 57.5953 254.782 58.5433 253.641 60.4366C252.663 62.0058 252.181 63.914 252.181 66.1712C252.181 68.3616 252.663 70.2401 253.641 71.8043C254.818 73.7002 256.462 74.6456 258.584 74.6456C260.662 74.6456 262.293 73.6804 263.47 71.7548C264.473 70.1584 264.979 68.2601 264.979 66.0722Z" fill="white"/>
<path d="M288.318 58.8626C287.78 58.7661 287.205 58.7166 286.603 58.7166C284.688 58.7166 283.207 59.417 282.166 60.8203C281.259 62.0578 280.805 63.622 280.805 65.5104V77.972H275.364L275.415 61.7014C275.415 58.9641 275.346 56.4717 275.211 54.2244H279.952L280.151 58.7685H280.302C280.876 57.2068 281.783 55.9495 283.023 55.0065C284.236 54.1576 285.546 53.7344 286.958 53.7344C287.461 53.7344 287.915 53.769 288.318 53.8309V58.8626Z" fill="white"/>
<path d="M312.661 64.9735C312.661 65.9189 312.598 66.7159 312.462 67.3668H296.133C296.197 69.7131 296.986 71.5075 298.502 72.745C299.879 73.8513 301.658 74.4057 303.843 74.4057C306.261 74.4057 308.467 74.032 310.451 73.282L311.303 76.945C308.985 77.9251 306.248 78.4127 303.09 78.4127C299.291 78.4127 296.309 77.3287 294.139 75.163C291.974 72.9974 290.889 70.0893 290.889 66.4411C290.889 62.8598 291.898 59.8774 293.917 57.499C296.031 54.9596 298.888 53.6899 302.483 53.6899C306.013 53.6899 308.686 54.9596 310.502 57.499C311.939 59.5161 312.661 62.0109 312.661 64.9735ZM307.471 63.6048C307.507 62.0406 307.152 60.6892 306.414 59.5483C305.472 58.0806 304.025 57.348 302.077 57.348C300.297 57.348 298.85 58.0633 297.744 59.4988C296.838 60.6397 296.299 62.0084 296.133 63.6023H307.471V63.6048Z" fill="white"/>
</svg>
