<svg width="1313" height="1208" viewBox="0 0 1313 1208" fill="none" xmlns="http://www.w3.org/2000/svg">
<path d="M972.268 693.153C956.541 638.11 934.13 584.639 909.754 536.673C830.727 380.979 732.829 214.669 587.75 111.659C473.732 30.667 315.679 1.57271 186.327 67.2316C39.2825 141.54 -40.9236 349.525 21.1968 502.467C88.0352 637.717 305.456 647.546 338.482 800.488C351.064 858.677 335.337 924.729 351.457 984.097C364.431 1031.28 393.526 1076.1 428.125 1109.91C500.074 1179.5 603.87 1205.06 701.769 1188.15C798.094 1171.24 888.13 1116.2 941.993 1034.03C1008.83 932.199 1004.9 808.351 972.268 693.153Z" fill="url(#paint0_linear_143_478)"/>
<path opacity="0.56" d="M1198.34 646.366C1193.23 618.058 1196.77 588.571 1219.18 554.365C1243.55 517.014 1277.37 486.347 1297.02 446.244C1329.66 379.799 1309.21 296.055 1263.6 240.618C1162.56 118.736 961.652 130.138 824.437 167.882C684.863 206.412 551.186 283.473 443.065 379.406C365.611 447.817 291.696 521.339 224.857 599.973C184.361 647.546 56.1891 783.188 117.523 852.386C136.002 873.224 167.062 879.514 193.798 882.266C234.294 886.984 266.14 891.309 302.705 912.147C364.432 947.532 413.971 993.533 487.886 1000.22C565.34 1006.9 642.008 982.917 719.462 982.131C780.402 981.345 840.164 995.498 897.566 1014.76C951.43 1032.85 997.431 1060.76 1055.23 1053.29C1121.67 1044.64 1183.4 1001 1220.36 945.959C1251.81 898.779 1265.57 837.052 1250.24 781.616C1234.9 730.897 1206.2 690.008 1198.34 646.366Z" fill="#FFDD95"/>
<path d="M388.413 212.703C478.841 184.788 572.808 231.968 663.629 212.703C781.579 187.541 757.596 22.0173 870.435 0C1114.59 6.68384 1161.77 349.919 1135.43 533.134C1128.75 578.348 1114.98 614.913 1077.24 644.007C960.47 732.863 805.956 679.785 675.817 725C617.629 745.444 583.816 787.906 570.449 846.881C555.508 912.54 555.115 990.78 496.533 1035.21C402.96 1105.98 300.736 1007.29 280.685 913.327C239.795 805.599 311.745 716.35 357.745 625.922C433.627 487.527 173.35 279.148 388.413 212.703Z" fill="url(#paint1_linear_143_478)"/>
<path d="M739.119 57.4024C736.76 46.3937 724.572 37.3509 713.564 37.744C691.939 38.5304 678.965 58.5819 661.666 69.1974C643.58 80.2061 626.674 90.4284 605.443 94.7532C587.357 98.6849 568.878 98.6848 550.792 93.9668C526.809 87.6762 506.365 73.5222 481.202 72.3427C458.005 71.5563 437.561 97.1122 445.424 119.523C467.835 184.395 565.34 197.37 623.528 181.643C651.836 173.78 682.897 158.446 703.341 137.215C722.607 117.95 745.017 86.1036 739.119 57.4024Z" fill="url(#paint2_linear_143_478)"/>
<path d="M756.814 753.701C709.241 734.829 649.48 772.966 624.317 811.103C595.223 854.745 579.496 931.412 617.24 974.267C638.471 998.644 672.283 981.738 682.505 956.968C689.189 940.848 685.651 923.549 687.224 906.643C688.796 890.523 692.728 873.223 700.985 859.069C707.668 847.274 716.318 835.479 726.147 826.043C737.156 816.214 751.31 811.103 763.498 802.847C783.942 789.479 778.438 762.35 756.814 753.701Z" fill="url(#paint3_linear_143_478)"/>
<path d="M329.834 478.877C329.834 477.305 329.441 476.125 329.441 474.552C326.689 459.219 312.142 447.817 297.201 447.424C277.543 446.638 262.209 463.544 261.423 482.809C260.637 503.647 278.722 520.946 299.167 520.946C305.065 520.946 312.142 519.373 317.646 516.228C327.082 510.724 331.8 500.894 332.193 490.279C331.8 485.954 331.407 482.416 329.834 478.877Z" fill="url(#paint4_linear_143_478)"/>
<path d="M283.439 569.699C275.969 566.553 268.106 565.374 261.029 565.767C249.627 563.408 237.045 565.374 226.037 571.664C212.669 579.135 203.233 591.716 198.908 605.477C194.583 617.272 193.797 630.246 197.729 642.435C206.772 673.102 239.798 692.367 270.858 684.11C292.089 678.213 309.388 658.947 314.499 637.716C320.397 611.374 309.781 581.1 283.439 569.699Z" fill="url(#paint5_linear_143_478)"/>
<path d="M229.966 480.45C225.641 474.159 220.137 469.048 212.667 467.082C206.376 465.51 202.445 465.903 196.547 467.082C190.256 468.262 183.179 472.586 178.855 477.304C174.137 482.416 172.564 485.954 169.812 492.245C168.632 495.783 168.239 499.322 168.239 502.86C168.239 506.792 169.025 510.724 170.598 514.262C171.778 517.801 173.743 520.946 176.889 523.698C179.641 526.45 182.786 528.809 186.325 529.989C189.863 531.955 193.795 532.741 197.727 532.348C205.197 531.955 213.06 529.596 218.564 524.091C219.351 523.698 220.137 522.912 220.923 522.519C222.103 521.339 223.675 520.553 224.462 519.373C226.035 517.801 228.001 515.048 229.18 513.083C229.966 511.51 230.753 509.937 231.146 508.758C231.932 507.185 232.325 506.006 232.718 504.04C234.684 496.176 234.684 487.527 229.966 480.45Z" fill="url(#paint6_linear_143_478)"/>
<path d="M1105.94 731.684C1104.76 726.572 1102.41 722.247 1098.87 718.316C1096.11 713.991 1092.58 710.846 1087.86 708.487C1086.29 707.7 1084.71 706.914 1083.14 706.128C1079.99 703.769 1076.46 702.196 1072.52 701.017C1065.45 699.051 1057.58 699.051 1050.11 701.017C1041.07 703.376 1033.99 708.487 1028.49 715.957C1026.52 718.709 1025.74 719.888 1024.56 721.461C1018.27 730.897 1017.48 742.692 1019.84 753.701C1021.81 762.351 1028.49 769.821 1035.96 774.539C1039.11 776.504 1041.86 777.291 1045.79 778.864C1046.58 779.257 1047.36 779.257 1048.15 779.65C1051.29 780.436 1055.62 781.223 1059.16 781.223C1061.12 781.223 1063.09 781.223 1065.05 780.829C1069.38 781.223 1073.7 780.829 1078.42 779.65C1081.57 778.47 1084.71 776.898 1087.86 775.718C1093.76 772.18 1098.47 767.462 1101.62 761.957C1104.37 757.633 1105.94 752.521 1106.34 747.41C1107.52 741.906 1107.52 736.795 1105.94 731.684Z" fill="url(#paint7_linear_143_478)"/>
<path d="M1172 684.897C1171.21 682.144 1170.03 679.392 1168.06 677.427C1166.49 675.068 1164.53 673.102 1161.77 671.529C1158.24 669.563 1154.3 668.384 1150.37 668.384C1149.19 668.384 1148.41 668.777 1147.23 668.777C1146.05 668.777 1145.26 669.17 1144.08 669.17C1144.08 669.17 1144.08 669.17 1143.69 669.17C1141.72 669.956 1140.15 670.743 1138.18 671.529H1137.79C1135.83 672.709 1134.25 673.888 1132.68 675.461C1129.14 678.999 1128.35 681.358 1126.39 686.076C1125.6 689.221 1125.21 692.367 1126 695.119C1126 698.264 1127.18 701.016 1128.75 703.769C1130.32 706.521 1132.29 708.487 1134.65 710.452C1137 712.418 1139.36 713.991 1142.51 714.777C1144.47 715.171 1146.44 715.17 1148.8 715.564C1153.12 715.564 1157.06 714.384 1160.59 712.418C1161.38 711.632 1162.17 711.239 1163.35 710.452C1163.35 710.452 1163.74 710.453 1163.74 710.059C1164.13 709.666 1164.92 709.273 1165.31 708.88C1166.89 707.307 1168.06 705.735 1168.85 704.162C1170.42 702.196 1171.21 699.837 1171.6 697.478C1173.18 692.76 1173.18 688.828 1172 684.897Z" fill="url(#paint8_linear_143_478)"/>
<path d="M1172.78 758.419C1171.6 754.094 1169.64 750.556 1166.49 747.41C1164.92 746.231 1162.95 744.658 1161.38 743.479C1157.45 741.12 1153.12 739.94 1148.8 739.94C1145.26 739.94 1142.12 740.333 1139.36 741.906C1136.22 743.085 1133.47 744.658 1131.5 747.017C1129.14 749.376 1127.18 752.128 1126.39 754.88C1124.82 758.026 1124.03 761.171 1124.42 764.316L1125.21 771C1126.39 775.325 1128.36 778.864 1131.5 782.009C1133.07 783.188 1135.04 784.761 1136.61 785.941C1140.54 788.3 1144.87 789.479 1149.19 789.479C1152.73 789.479 1155.88 789.086 1158.63 787.513C1161.77 786.334 1164.53 784.761 1166.49 782.402C1168.85 780.043 1170.82 777.291 1171.6 774.539C1173.18 771.393 1173.96 768.248 1173.57 765.103C1173.57 762.744 1173.18 760.385 1172.78 758.419Z" fill="url(#paint9_linear_143_478)"/>
<path d="M1289.95 536.673C1234.51 525.271 1216.82 619.238 1246.7 651.477C1262.42 668.384 1288.37 658.161 1295.06 638.896C1300.56 623.169 1298.2 606.263 1303.31 590.143C1306.07 581.494 1310 574.417 1309.6 564.981C1309.21 553.186 1302.13 539.032 1289.95 536.673Z" fill="url(#paint10_linear_143_478)"/>
<path d="M1205.02 128.172C1183.4 101.437 1129.54 95.1464 1098.47 104.189C1080 109.694 1083.93 136.429 1102.8 137.215C1117.74 138.002 1131.89 138.002 1146.44 143.113C1160.2 148.224 1171.21 157.66 1184.97 162.378C1206.2 170.241 1216.42 142.326 1205.02 128.172Z" fill="url(#paint11_linear_143_478)"/>
<path d="M1122.46 60.9409C1116.56 51.5049 1105.55 54.6502 1098.08 59.7613C1088.64 66.4452 1079.6 73.5222 1070.56 80.5992C1060.34 88.0694 1068.99 103.403 1080.78 97.8986C1090.61 93.1806 1100.44 88.4625 1110.66 83.7445C1118.52 79.8129 1128.75 71.1632 1122.46 60.9409Z" fill="url(#paint12_linear_143_478)"/>
<path d="M263.781 918.044C263.388 918.044 263.388 917.651 263.781 918.044C263.388 916.865 262.602 915.686 262.208 914.899V914.506C261.815 913.72 261.029 912.54 260.243 911.754C258.277 909.002 255.918 906.643 253.166 905.07C251.2 904.284 249.234 903.497 247.268 902.318C243.73 901.138 240.585 901.138 237.046 901.925C235.473 901.925 234.294 902.318 233.114 902.711C232.721 902.711 231.935 902.711 231.542 903.104C231.149 903.104 231.148 903.104 230.755 903.497C227.61 904.284 224.858 905.856 222.499 907.822C219.747 909.395 217.781 911.754 216.208 914.506C215.029 916.472 214.242 918.438 213.456 920.797C212.67 923.156 212.67 925.908 212.276 928.66C211.883 931.805 212.67 935.344 213.456 938.489C214.242 940.455 215.029 942.421 215.815 944.387C217.388 947.139 219.353 949.498 222.106 951.071C223.678 952.643 225.251 953.43 227.61 954.216C229.576 955.002 231.149 955.789 233.508 956.182C238.226 957.754 243.336 958.148 248.448 956.575C251.986 955.789 254.738 954.216 257.491 951.857C260.243 949.891 262.602 947.532 264.174 944.387C266.533 940.455 267.713 935.737 267.713 931.019C267.32 926.301 266.14 921.976 263.781 918.044Z" fill="url(#paint13_linear_143_478)"/>
<path d="M261.421 1012.4C261.421 1010.83 261.421 1009.65 261.028 1008.08C260.242 1005.33 259.062 1003.36 257.096 1001.4C255.131 999.43 252.771 997.857 250.019 997.464C248.447 997.071 247.267 996.678 245.694 997.071C244.908 997.071 242.156 997.464 241.37 997.857C239.404 998.251 237.438 999.43 235.865 1000.61C234.686 1001.4 233.9 1002.18 233.113 1003.36C231.541 1004.93 230.754 1006.9 230.361 1008.87C230.361 1010.44 229.968 1011.62 229.968 1013.19C229.968 1014.76 230.361 1015.94 230.361 1017.52C230.754 1019.48 231.934 1021.45 233.113 1023.02C233.9 1024.2 234.686 1024.99 235.865 1025.77C237.438 1027.34 239.404 1028.13 241.37 1028.52C244.122 1029.31 246.874 1029.31 250.019 1028.52C251.985 1028.13 253.951 1026.95 255.524 1025.77C256.703 1024.99 257.489 1024.2 258.276 1023.02C259.848 1021.45 260.635 1019.48 261.028 1017.52C261.028 1015.55 261.028 1013.98 261.421 1012.4Z" fill="url(#paint14_linear_143_478)"/>
<path d="M185.148 953.43C180.823 949.498 176.105 947.139 170.208 947.139C167.455 947.139 164.703 947.532 161.951 949.105C159.199 949.891 157.233 951.464 155.267 953.43C153.301 955.395 151.729 957.754 150.942 960.113C149.763 962.472 148.977 965.225 148.977 968.37C149.37 973.874 150.942 979.379 155.267 983.31C159.592 987.242 164.31 989.601 170.208 989.601C172.96 989.601 175.712 989.208 178.464 987.635C181.216 986.849 183.182 985.276 185.148 983.31C187.114 981.345 188.686 978.985 189.472 976.626C190.652 974.267 191.438 971.515 191.438 968.37C191.045 962.866 189.079 956.968 185.148 953.43Z" fill="url(#paint15_linear_143_478)"/>
<path d="M982.882 1090.64C981.703 1086.71 979.737 1083.57 976.985 1080.42C974.626 1078.06 971.087 1076.1 967.942 1074.92C967.549 1074.92 967.549 1074.92 967.156 1074.53C965.583 1074.13 963.617 1074.13 962.044 1073.74H961.651C954.967 1074.13 947.891 1077.28 944.745 1083.57C943.566 1085.93 942.386 1088.29 941.993 1091.04C941.206 1095.36 940.027 1100.08 941.993 1104.01C942.779 1105.59 943.172 1107.16 943.959 1108.73C945.138 1110.3 945.925 1111.48 947.104 1113.06C948.677 1114.23 949.856 1115.02 951.429 1116.2C953.788 1117.77 956.147 1118.56 958.899 1118.56C960.865 1118.95 962.438 1118.95 964.404 1118.56C966.369 1118.56 967.942 1118.17 969.514 1116.99C971.087 1116.59 972.66 1115.81 973.839 1114.23C974.626 1113.84 975.019 1113.45 975.412 1112.66C977.378 1111.48 979.344 1109.52 980.523 1107.55C981.31 1105.98 982.096 1104.41 982.096 1102.44C982.096 1102.05 982.489 1101.65 982.489 1101.26C982.489 1100.87 982.489 1100.87 982.882 1100.47C983.275 1099.29 983.668 1096.94 983.668 1095.36C983.275 1094.58 983.275 1092.22 982.882 1090.64Z" fill="url(#paint16_linear_143_478)"/>
<path d="M1065.45 1120.53C1064.66 1117.38 1063.09 1114.63 1060.73 1112.27C1059.55 1111.09 1057.98 1109.91 1056.8 1109.12C1054.44 1107.16 1052.08 1105.59 1048.93 1104.8C1048.15 1104.41 1046.97 1104.41 1045.79 1104.41C1044.61 1104.01 1043.82 1104.01 1042.64 1104.01C1040.68 1104.41 1039.1 1104.41 1037.14 1104.8H1036.74C1033.21 1105.59 1029.67 1107.94 1026.92 1110.7C1025.74 1112.27 1024.56 1113.45 1023.77 1115.02C1023.38 1115.81 1022.98 1116.99 1022.59 1117.77C1022.2 1118.56 1021.8 1119.35 1021.41 1120.53C1021.02 1122.49 1021.02 1124.06 1020.63 1126.03C1020.63 1127.21 1020.62 1128 1021.02 1129.18C1021.02 1130.35 1021.02 1131.14 1021.41 1132.32C1022.2 1133.89 1022.98 1135.86 1023.38 1137.43C1023.77 1138.22 1024.56 1139 1024.95 1139.79C1026.92 1142.54 1027.31 1143.33 1030.85 1145.3C1032.42 1146.47 1034.39 1147.26 1036.35 1147.65H1036.74C1038.71 1148.05 1040.68 1148.05 1042.25 1148.44C1043.43 1148.44 1044.22 1148.44 1045.39 1148.05C1046.57 1148.05 1047.36 1147.65 1048.54 1147.65C1050.11 1146.87 1052.08 1146.08 1053.65 1145.69C1054.44 1145.3 1055.22 1144.9 1055.62 1144.12C1056.8 1143.33 1058.76 1141.76 1059.55 1140.97C1060.33 1140.18 1060.73 1139.4 1061.51 1138.61C1063.48 1136.25 1064.66 1134.68 1065.45 1131.14C1066.23 1127.21 1066.23 1123.67 1065.45 1120.53Z" fill="url(#paint17_linear_143_478)"/>
<path d="M1005.29 1159.06C1002.93 1156.7 1000.18 1154.73 997.036 1153.55C993.891 1151.98 990.745 1151.19 987.207 1151.19C980.916 1150.41 974.626 1151.59 969.121 1154.73C962.831 1158.27 958.505 1164.17 956.146 1171.24C955.36 1174.39 955.36 1175.96 955.36 1178.32C955.36 1180.29 955.754 1183.04 956.54 1185.4C956.933 1186.97 957.72 1188.54 958.506 1190.12C959.292 1192.48 960.472 1194.44 962.438 1196.41C962.831 1197.59 963.617 1198.37 964.403 1199.16C965.19 1199.95 966.369 1200.73 967.155 1201.12C968.728 1202.7 970.694 1203.88 973.053 1204.66C976.591 1206.24 978.95 1207.02 983.668 1207.02C985.634 1207.02 989.173 1206.63 991.138 1206.24C991.532 1206.24 991.532 1206.24 991.925 1206.24H992.318C993.891 1205.84 997.429 1204.27 999.002 1203.48C999.002 1203.48 999.395 1203.48 999.395 1203.09C1000.97 1202.3 1003.72 1199.95 1004.9 1198.77L1005.29 1198.37C1006.08 1197.59 1008.83 1193.65 1009.62 1192.87L1010.01 1192.48C1010.8 1191.3 1012.37 1187.36 1012.76 1186.18C1013.16 1185 1013.16 1183.04 1013.16 1182.25C1013.16 1181.07 1013.55 1179.5 1013.55 1178.32C1012.76 1170.85 1010.4 1163.77 1005.29 1159.06Z" fill="url(#paint18_linear_143_478)"/>
<defs>
<linearGradient id="paint0_linear_143_478" x1="0.477693" y1="612.388" x2="995.176" y2="612.388" gradientUnits="userSpaceOnUse">
<stop stop-color="#FC887B"/>
<stop offset="0.9959" stop-color="#FFDD95"/>
</linearGradient>
<linearGradient id="paint1_linear_143_478" x1="840.072" y1="880.425" x2="506.51" y2="156.125" gradientUnits="userSpaceOnUse">
<stop stop-color="#86E3CE"/>
<stop offset="1" stop-color="#D0E6A5"/>
</linearGradient>
<linearGradient id="paint2_linear_143_478" x1="443.836" y1="112.91" x2="740.192" y2="112.91" gradientUnits="userSpaceOnUse">
<stop stop-color="#86E3CE"/>
<stop offset="1" stop-color="#D0E6A5"/>
</linearGradient>
<linearGradient id="paint3_linear_143_478" x1="594.968" y1="867.38" x2="776.2" y2="867.38" gradientUnits="userSpaceOnUse">
<stop stop-color="#86E3CE"/>
<stop offset="1" stop-color="#D0E6A5"/>
</linearGradient>
<linearGradient id="paint4_linear_143_478" x1="261.186" y1="483.793" x2="331.751" y2="483.793" gradientUnits="userSpaceOnUse">
<stop stop-color="#86E3CE"/>
<stop offset="1" stop-color="#D0E6A5"/>
</linearGradient>
<linearGradient id="paint5_linear_143_478" x1="195.111" y1="625.653" x2="315.836" y2="625.653" gradientUnits="userSpaceOnUse">
<stop stop-color="#86E3CE"/>
<stop offset="1" stop-color="#D0E6A5"/>
</linearGradient>
<linearGradient id="paint6_linear_143_478" x1="168.331" y1="499.248" x2="234.148" y2="499.248" gradientUnits="userSpaceOnUse">
<stop stop-color="#86E3CE"/>
<stop offset="1" stop-color="#D0E6A5"/>
</linearGradient>
<linearGradient id="paint7_linear_143_478" x1="1019.07" y1="740.096" x2="1107.26" y2="740.096" gradientUnits="userSpaceOnUse">
<stop stop-color="#FC887B"/>
<stop offset="0.9959" stop-color="#FFDD95"/>
</linearGradient>
<linearGradient id="paint8_linear_143_478" x1="1125.79" y1="691.786" x2="1172.76" y2="691.786" gradientUnits="userSpaceOnUse">
<stop stop-color="#FC887B"/>
<stop offset="0.9959" stop-color="#FFDD95"/>
</linearGradient>
<linearGradient id="paint9_linear_143_478" x1="1123.75" y1="764.958" x2="1173.76" y2="764.958" gradientUnits="userSpaceOnUse">
<stop stop-color="#FC887B"/>
<stop offset="0.9959" stop-color="#FFDD95"/>
</linearGradient>
<linearGradient id="paint10_linear_143_478" x1="1232.24" y1="597.783" x2="1309.78" y2="597.783" gradientUnits="userSpaceOnUse">
<stop stop-color="#FC887B"/>
<stop offset="0.9959" stop-color="#FFDD95"/>
</linearGradient>
<linearGradient id="paint11_linear_143_478" x1="1086.38" y1="132.024" x2="1209.76" y2="132.024" gradientUnits="userSpaceOnUse">
<stop stop-color="#FC887B"/>
<stop offset="0.9959" stop-color="#FFDD95"/>
</linearGradient>
<linearGradient id="paint12_linear_143_478" x1="1065.85" y1="76.9494" x2="1124.36" y2="76.9494" gradientUnits="userSpaceOnUse">
<stop stop-color="#FC887B"/>
<stop offset="0.9959" stop-color="#FFDD95"/>
</linearGradient>
<linearGradient id="paint13_linear_143_478" x1="211.989" y1="929.652" x2="267.19" y2="929.652" gradientUnits="userSpaceOnUse">
<stop stop-color="#FC887B"/>
<stop offset="0.9959" stop-color="#FFDD95"/>
</linearGradient>
<linearGradient id="paint14_linear_143_478" x1="229.429" y1="1012.47" x2="261.374" y2="1012.47" gradientUnits="userSpaceOnUse">
<stop stop-color="#FC887B"/>
<stop offset="0.9959" stop-color="#FFDD95"/>
</linearGradient>
<linearGradient id="paint15_linear_143_478" x1="148.804" y1="968.256" x2="191.189" y2="968.256" gradientUnits="userSpaceOnUse">
<stop stop-color="#FC887B"/>
<stop offset="0.9959" stop-color="#FFDD95"/>
</linearGradient>
<linearGradient id="paint16_linear_143_478" x1="940.442" y1="1096.76" x2="983.43" y2="1096.76" gradientUnits="userSpaceOnUse">
<stop stop-color="#86E3CE"/>
<stop offset="1" stop-color="#D0E6A5"/>
</linearGradient>
<linearGradient id="paint17_linear_143_478" x1="1020.35" y1="1125.78" x2="1065.99" y2="1125.78" gradientUnits="userSpaceOnUse">
<stop stop-color="#86E3CE"/>
<stop offset="1" stop-color="#D0E6A5"/>
</linearGradient>
<linearGradient id="paint18_linear_143_478" x1="955.135" y1="1179.25" x2="1013.01" y2="1179.25" gradientUnits="userSpaceOnUse">
<stop stop-color="#86E3CE"/>
<stop offset="1" stop-color="#D0E6A5"/>
</linearGradient>
</defs>
</svg>
