<svg width="349" height="99" viewBox="0 0 349 99" fill="none" xmlns="http://www.w3.org/2000/svg">
<path d="M335.598 99H13.6729C6.59378 99 0.795898 93.4282 0.795898 86.625V12.375C0.795898 5.57186 6.59378 1.33514e-05 13.6729 1.33514e-05H335.598C342.678 1.33514e-05 348.475 5.57186 348.475 12.375V86.625C348.475 93.4282 342.678 99 335.598 99Z" fill="black"/>
<path d="M335.598 1.9831C341.561 1.9831 346.412 6.64539 346.412 12.375V86.625C346.412 92.3546 341.561 97.0169 335.598 97.0169H13.6729C7.71086 97.0169 2.85944 92.3546 2.85944 86.625V12.375C2.85944 6.64539 7.71086 1.9831 13.6729 1.9831H335.598ZM335.598 1.33514e-05H13.6729C6.59378 1.33514e-05 0.795898 5.57186 0.795898 12.375V86.625C0.795898 93.4282 6.59378 99 13.6729 99H335.598C342.678 99 348.475 93.4282 348.475 86.625V12.375C348.475 5.57186 342.678 1.33514e-05 335.598 1.33514e-05Z" fill="#A6A6A6"/>
<path d="M27.6702 18.6584C26.9136 19.4194 26.4758 20.6043 26.4758 22.1388V76.8735C26.4758 78.408 26.9136 79.5929 27.6702 80.3539L27.8569 80.521L59.7726 49.8619V49.138L27.8569 18.4789L27.6702 18.6584Z" fill="url(#paint0_linear_89_248)"/>
<path d="M70.3992 60.0869L59.7725 49.8621V49.1381L70.4121 38.9133L70.6503 39.0463L83.2505 45.9361C86.8464 47.8914 86.8464 51.1089 83.2505 53.0765L70.6503 59.9539L70.3992 60.0869Z" fill="url(#paint1_linear_89_248)"/>
<path d="M70.6504 59.9539L59.7726 49.5001L27.6702 80.3541C28.8645 81.5606 30.8122 81.706 33.027 80.4995L70.6504 59.9539Z" fill="url(#paint2_linear_89_248)"/>
<path d="M70.6504 39.0462L33.027 18.5006C30.8122 17.3064 28.8645 17.4518 27.6702 18.6584L59.7726 49.5L70.6504 39.0462Z" fill="url(#paint3_linear_89_248)"/>
<path d="M122.915 25.3536C122.915 27.4202 122.271 29.0754 121.003 30.3098C119.545 31.7732 117.645 32.5095 115.318 32.5095C113.093 32.5095 111.194 31.7608 109.636 30.2851C108.074 28.7877 107.295 26.95 107.295 24.7503C107.295 22.5507 108.074 20.713 109.636 19.228C111.194 17.7399 113.093 16.9912 115.318 16.9912C116.425 16.9912 117.481 17.2109 118.489 17.6192C119.493 18.0307 120.311 18.5876 120.903 19.2744L119.558 20.58C118.524 19.4074 117.117 18.8289 115.318 18.8289C113.695 18.8289 112.288 19.3734 111.094 20.4717C109.913 21.5731 109.32 22.9993 109.32 24.7503C109.32 26.5014 109.913 27.94 111.094 29.0414C112.288 30.1273 113.695 30.6841 115.318 30.6841C117.04 30.6841 118.489 30.1273 119.632 29.029C120.385 28.302 120.813 27.2996 120.926 26.0188H115.318V24.2306H122.799C122.889 24.6173 122.915 24.9916 122.915 25.3536Z" fill="white" stroke="white" stroke-width="0.16" stroke-miterlimit="10"/>
<path d="M134.785 19.1538H127.757V23.8563H134.093V25.6444H127.757V30.3469H134.785V32.1692H125.768V17.3315H134.785V19.1538Z" fill="white" stroke="white" stroke-width="0.16" stroke-miterlimit="10"/>
<path d="M143.161 32.1692H141.172V19.1538H136.861V17.3315H147.475V19.1538H143.161V32.1692Z" fill="white" stroke="white" stroke-width="0.16" stroke-miterlimit="10"/>
<path d="M155.156 32.1692V17.3315H157.142V32.1692H155.156Z" fill="white" stroke="white" stroke-width="0.16" stroke-miterlimit="10"/>
<path d="M165.947 32.1692H163.974V19.1538H159.647V17.3315H170.274V19.1538H165.947V32.1692Z" fill="white" stroke="white" stroke-width="0.16" stroke-miterlimit="10"/>
<path d="M190.368 30.2603C188.846 31.7608 186.959 32.5095 184.709 32.5095C182.446 32.5095 180.559 31.7608 179.037 30.2603C177.517 28.7629 176.76 26.9252 176.76 24.7503C176.76 22.5754 177.517 20.7377 179.037 19.2404C180.559 17.7399 182.446 16.9912 184.709 16.9912C186.946 16.9912 188.833 17.7399 190.355 19.2527C191.888 20.7625 192.644 22.5878 192.644 24.7503C192.644 26.9252 191.888 28.7629 190.368 30.2603ZM180.508 29.0166C181.654 30.1273 183.048 30.6841 184.709 30.6841C186.357 30.6841 187.764 30.1273 188.897 29.0166C190.04 27.906 190.619 26.4797 190.619 24.7503C190.619 23.0209 190.04 21.5947 188.897 20.4841C187.764 19.3734 186.357 18.8165 184.709 18.8165C183.048 18.8165 181.654 19.3734 180.508 20.4841C179.365 21.5947 178.785 23.0209 178.785 24.7503C178.785 26.4797 179.365 27.906 180.508 29.0166Z" fill="white" stroke="white" stroke-width="0.16" stroke-miterlimit="10"/>
<path d="M195.435 32.1692V17.3315H197.85L205.357 28.8712H205.444L205.357 26.0188V17.3315H207.343V32.1692H205.27L197.409 20.0602H197.322L197.409 22.925V32.1692H195.435Z" fill="white" stroke="white" stroke-width="0.16" stroke-miterlimit="10"/>
<path d="M176.271 53.8374C170.222 53.8374 165.28 58.2615 165.28 64.3655C165.28 70.4199 170.222 74.8904 176.271 74.8904C182.333 74.8904 187.274 70.4199 187.274 64.3655C187.274 58.2615 182.333 53.8374 176.271 53.8374ZM176.271 70.7448C172.952 70.7448 170.096 68.112 170.096 64.3655C170.096 60.5694 172.952 57.9831 176.271 57.9831C179.59 57.9831 182.458 60.5694 182.458 64.3655C182.458 68.112 179.59 70.7448 176.271 70.7448ZM152.291 53.8374C146.229 53.8374 141.3 58.2615 141.3 64.3655C141.3 70.4199 146.229 74.8904 152.291 74.8904C158.349 74.8904 163.281 70.4199 163.281 64.3655C163.281 58.2615 158.349 53.8374 152.291 53.8374ZM152.291 70.7448C148.969 70.7448 146.103 68.112 146.103 64.3655C146.103 60.5694 148.969 57.9831 152.291 57.9831C155.61 57.9831 158.465 60.5694 158.465 64.3655C158.465 68.112 155.61 70.7448 152.291 70.7448ZM123.755 57.0642V61.5378H134.871C134.546 64.0375 133.677 65.8752 132.344 67.156C130.722 68.7029 128.195 70.4199 123.755 70.4199C116.914 70.4199 111.558 65.1141 111.558 58.5399C111.558 51.9657 116.914 46.6599 123.755 46.6599C127.454 46.6599 130.146 48.049 132.132 49.8496L135.412 46.6971C132.634 44.1478 128.938 42.1895 123.755 42.1895C114.374 42.1895 106.49 49.5247 106.49 58.5399C106.49 67.5551 114.374 74.8904 123.755 74.8904C128.826 74.8904 132.634 73.294 135.628 70.2993C138.696 67.3509 139.652 63.2053 139.652 59.8579C139.652 58.8184 139.562 57.8624 139.401 57.0642H123.755ZM240.44 60.5323C239.536 58.178 236.745 53.8374 231.06 53.8374C225.426 53.8374 220.735 58.1037 220.735 64.3655C220.735 70.2621 225.378 74.8904 231.6 74.8904C236.632 74.8904 239.536 71.942 240.73 70.225L236.996 67.8336C235.75 69.5846 234.053 70.7448 231.6 70.7448C229.163 70.7448 227.415 69.6712 226.295 67.5551L240.946 61.7296L240.44 60.5323ZM225.503 64.0375C225.378 59.9785 228.784 57.8995 231.224 57.8995C233.136 57.8995 234.758 58.8184 235.299 60.1332L225.503 64.0375ZM213.595 74.25H218.411V43.3125H213.595V74.25ZM205.708 56.1825H205.547C204.465 54.9512 202.402 53.8374 199.788 53.8374C194.302 53.8374 189.286 58.4657 189.286 64.3995C189.286 70.2993 194.302 74.8904 199.788 74.8904C202.402 74.8904 204.465 73.7674 205.547 72.4989H205.708V74.0087C205.708 78.0336 203.47 80.1962 199.862 80.1962C196.919 80.1962 195.094 78.1543 194.341 76.4373L190.152 78.1172C191.36 80.9077 194.556 84.3418 199.862 84.3418C205.508 84.3418 210.273 81.149 210.273 73.3806V54.4778H205.708V56.1825ZM200.2 70.7448C196.881 70.7448 194.102 68.0749 194.102 64.3995C194.102 60.6901 196.881 57.9831 200.2 57.9831C203.471 57.9831 206.049 60.6901 206.049 64.3995C206.049 68.0749 203.471 70.7448 200.2 70.7448ZM262.988 43.3125H251.47V74.25H256.273V62.5278H262.988C268.322 62.5278 273.554 58.8184 273.554 52.9186C273.554 47.0219 268.309 43.3125 262.988 43.3125ZM263.114 58.2244H256.273V47.6159H263.114C266.7 47.6159 268.747 50.4776 268.747 52.9186C268.747 55.3131 266.7 58.2244 263.114 58.2244ZM292.805 53.7786C289.334 53.7786 285.726 55.2513 284.242 58.5152L288.504 60.2322C289.421 58.5152 291.108 57.9583 292.892 57.9583C295.383 57.9583 297.911 59.3969 297.949 61.9369V62.2617C297.08 61.7791 295.219 61.0644 292.93 61.0644C288.34 61.0644 283.662 63.493 283.662 68.0254C283.662 72.171 287.422 74.8409 291.649 74.8409C294.881 74.8409 296.665 73.4394 297.785 71.809H297.949V74.2005H302.588V62.3329C302.588 56.8477 298.326 53.7786 292.805 53.7786ZM292.225 70.7324C290.654 70.7324 288.465 69.9837 288.465 68.112C288.465 65.7174 291.195 64.7986 293.558 64.7986C295.673 64.7986 296.665 65.2472 297.949 65.8381C297.573 68.7029 295.007 70.7324 292.225 70.7324ZM319.489 54.4562L313.968 67.8676H313.804L308.096 54.4562H302.916L311.493 73.1981L306.599 83.6271H311.618L324.833 54.4562H319.489ZM276.193 74.25H281.009V43.3125H276.193V74.25Z" fill="white"/>
<defs>
<linearGradient id="paint0_linear_89_248" x1="56.9389" y1="77.4435" x2="15.4352" y2="34.2562" gradientUnits="userSpaceOnUse">
<stop stop-color="#00A0FF"/>
<stop offset="0.0066" stop-color="#00A1FF"/>
<stop offset="0.2601" stop-color="#00BEFF"/>
<stop offset="0.5122" stop-color="#00D2FF"/>
<stop offset="0.7604" stop-color="#00DFFF"/>
<stop offset="1" stop-color="#00E3FF"/>
</linearGradient>
<linearGradient id="paint1_linear_89_248" x1="87.933" y1="49.4966" x2="25.6162" y2="49.4966" gradientUnits="userSpaceOnUse">
<stop stop-color="#FFE000"/>
<stop offset="0.4087" stop-color="#FFBD00"/>
<stop offset="0.7754" stop-color="#FFA500"/>
<stop offset="1" stop-color="#FF9C00"/>
</linearGradient>
<linearGradient id="paint2_linear_89_248" x1="64.7354" y1="43.8172" x2="8.4531" y2="-14.7483" gradientUnits="userSpaceOnUse">
<stop stop-color="#FF3A44"/>
<stop offset="1" stop-color="#C31162"/>
</linearGradient>
<linearGradient id="paint3_linear_89_248" x1="19.5893" y1="98.5639" x2="44.7219" y2="72.412" gradientUnits="userSpaceOnUse">
<stop stop-color="#32A071"/>
<stop offset="0.0685" stop-color="#2DA771"/>
<stop offset="0.4762" stop-color="#15CF74"/>
<stop offset="0.8009" stop-color="#06E775"/>
<stop offset="1" stop-color="#00F076"/>
</linearGradient>
</defs>
</svg>
