<svg xmlns="http://www.w3.org/2000/svg" width="1440" viewBox="0 0 1440 810" height="810" version="1.0"><path fill="#FB0" d="M 1399.101562 50.882812 L 1399.101562 43.671875 L 1416.839844 43.671875 L 1416.839844 41.667969 L 1399.101562 41.667969 L 1399.101562 23.839844 L 1397.097656 23.839844 L 1397.097656 41.667969 L 43.1875 41.667969 L 43.1875 23.839844 L 41.183594 23.839844 L 41.183594 41.667969 L 23.34375 41.667969 L 23.34375 43.671875 L 41.183594 43.671875 L 41.183594 766.007812 L 23.34375 766.007812 L 23.34375 768.011719 L 41.183594 768.011719 L 41.183594 785.839844 L 43.1875 785.839844 L 43.1875 768.011719 L 1397.097656 768.011719 L 1397.097656 785.839844 L 1399.101562 785.839844 L 1399.101562 768.011719 L 1416.839844 768.011719 L 1416.839844 766.007812 L 1399.101562 766.007812 L 1399.101562 50.882812 M 1397.097656 50.882812 L 1397.097656 766.007812 L 43.1875 766.007812 L 43.1875 43.671875 L 1397.097656 43.671875 L 1397.097656 50.882812"/><path fill="#4E1A3D" d="M 783.277344 526.539062 C 794.996094 550.148438 811.171875 574.132812 830.882812 593.839844 C 850.589844 613.550781 872.898438 629.167969 896.324219 640.699219 C 896.882812 640.886719 897.253906 641.257812 897.8125 641.445312 C 987.230469 683.292969 1098.378906 668.824219 1173.5 595.5625 L 1679.21875 89.847656 L 1334.6875 -254.679688 L 829.355469 250.652344 C 755.339844 326.527344 740.128906 436.933594 783.277344 526.539062"/><path fill="#FFF" d="M 843.285156 580.957031 C 801.546875 539.214844 778.492188 483.667969 778.554688 424.621094 C 778.492188 365.570312 801.546875 310.023438 843.285156 268.285156 C 885.027344 226.542969 940.574219 203.488281 999.625 203.550781 C 1058.671875 203.488281 1114.21875 226.542969 1155.960938 268.285156 C 1197.699219 310.023438 1220.753906 365.570312 1220.691406 424.621094 C 1220.691406 483.730469 1197.699219 539.214844 1155.960938 580.957031 C 1114.21875 622.695312 1058.671875 645.75 999.625 645.6875 C 940.574219 645.75 885.027344 622.695312 843.285156 580.957031 Z M 1146.585938 277.65625 C 1107.347656 238.414062 1055.109375 216.796875 999.625 216.796875 C 944.136719 216.796875 891.898438 238.414062 852.660156 277.65625 C 813.417969 316.894531 791.800781 369.132812 791.800781 424.621094 C 791.800781 480.105469 813.417969 532.34375 852.660156 571.582031 C 891.898438 610.824219 944.136719 632.441406 999.625 632.441406 C 1055.109375 632.441406 1107.347656 610.824219 1146.585938 571.582031 C 1185.828125 532.34375 1207.445312 480.105469 1207.445312 424.621094 C 1207.445312 369.132812 1185.828125 316.894531 1146.585938 277.65625 Z M 1146.585938 277.65625"/></svg>