<svg xmlns="http://www.w3.org/2000/svg" width="750" viewBox="0 0 750 300" height="300" version="1.0"><g><g><g><path d="M 35.734375 -24.78125 C 35.734375 -21.363281 36.363281 -18.128906 37.625 -15.078125 C 38.894531 -12.023438 40.644531 -9.378906 42.875 -7.140625 C 45.101562 -4.910156 47.707031 -3.160156 50.6875 -1.890625 C 53.664062 -0.628906 56.867188 0 60.296875 0 L 5.578125 0 C 8.859375 -0.445312 12.023438 -1.488281 15.078125 -3.125 C 18.128906 -4.757812 20.992188 -6.804688 23.671875 -9.265625 C 26.347656 -11.722656 28.726562 -14.441406 30.8125 -17.421875 C 32.894531 -20.398438 34.535156 -23.453125 35.734375 -26.578125 Z M 78.609375 0 C 81.734375 0 84.410156 -1.300781 86.640625 -3.90625 C 88.878906 -6.507812 90 -9.453125 90 -12.734375 C 90 -13.328125 90 -13.921875 90 -14.515625 C 90 -15.109375 89.847656 -15.703125 89.546875 -16.296875 L 83.078125 -35.0625 L 82.625 -36.40625 L 66.765625 -82.171875 C 65.722656 -84.703125 63.863281 -85.96875 61.1875 -85.96875 C 58.65625 -85.96875 56.867188 -84.703125 55.828125 -82.171875 L 82.625 -156.3125 L 107.40625 -85.078125 C 108.445312 -82.097656 109.640625 -78.5625 110.984375 -74.46875 C 112.328125 -70.375 113.519531 -66.84375 114.5625 -63.875 L 132.875 -11.609375 C 133.914062 -8.628906 135.738281 -5.945312 138.34375 -3.5625 C 140.945312 -1.1875 143.960938 0 147.390625 0 Z M 78.609375 0" transform="translate(181.298 228.496)"/></g></g></g><g fill="#E6A645"><g><g><path d="M 32.75 -8.625 C 33.082031 -6.320312 34.519531 -4.222656 37.0625 -2.328125 C 39.613281 -0.441406 43.1875 0.660156 47.78125 0.984375 C 42.03125 0.660156 36.648438 -0.398438 31.640625 -2.203125 C 26.640625 -4.015625 22.25 -6.316406 18.46875 -9.109375 C 14.695312 -11.898438 11.703125 -15.144531 9.484375 -18.84375 C 7.265625 -22.539062 6.15625 -26.519531 6.15625 -30.78125 C 6.15625 -36.039062 8 -40.515625 11.6875 -44.203125 C 15.382812 -47.898438 19.863281 -49.75 25.125 -49.75 C 27.75 -49.75 30.25 -49.253906 32.625 -48.265625 C 35.007812 -47.285156 37.0625 -45.929688 38.78125 -44.203125 C 40.507812 -42.484375 41.863281 -40.472656 42.84375 -38.171875 C 43.832031 -35.878906 44.328125 -33.414062 44.328125 -30.78125 C 44.328125 -27.832031 43.710938 -25.082031 42.484375 -22.53125 C 41.253906 -19.988281 39.570312 -17.816406 37.4375 -16.015625 C 36.125 -14.859375 34.972656 -13.664062 33.984375 -12.4375 C 33.003906 -11.207031 32.59375 -9.9375 32.75 -8.625 Z M 99.015625 -33.25 C 99.335938 -28.320312 98.304688 -23.765625 95.921875 -19.578125 C 93.546875 -15.390625 90.179688 -11.773438 85.828125 -8.734375 C 81.484375 -5.703125 76.4375 -3.28125 70.6875 -1.46875 C 64.9375 0.332031 58.863281 1.234375 52.46875 1.234375 C 56.894531 1.234375 60.664062 -0.570312 63.78125 -4.1875 C 66.90625 -7.800781 68.46875 -11.820312 68.46875 -16.25 C 68.46875 -20.351562 66.945312 -24.332031 63.90625 -28.1875 C 60.875 -32.050781 57.015625 -35.910156 52.328125 -39.765625 C 47.648438 -43.628906 42.644531 -47.613281 37.3125 -51.71875 C 31.976562 -55.820312 26.96875 -60.09375 22.28125 -64.53125 C 17.601562 -68.96875 13.742188 -73.644531 10.703125 -78.5625 C 7.671875 -83.488281 6.15625 -88.828125 6.15625 -94.578125 C 6.15625 -99.503906 7.46875 -103.769531 10.09375 -107.375 C 12.71875 -110.988281 16.039062 -113.988281 20.0625 -116.375 C 24.09375 -118.757812 28.570312 -120.523438 33.5 -121.671875 C 38.425781 -122.816406 43.1875 -123.390625 47.78125 -123.390625 C 49.257812 -123.390625 50.613281 -123.390625 51.84375 -123.390625 C 53.070312 -123.390625 54.34375 -123.226562 55.65625 -122.90625 C 51.226562 -123.5625 47.410156 -122.535156 44.203125 -119.828125 C 41.003906 -117.117188 39.40625 -113.050781 39.40625 -107.625 C 39.40625 -103.195312 40.800781 -99.09375 43.59375 -95.3125 C 46.382812 -91.539062 49.914062 -87.847656 54.1875 -84.234375 C 58.457031 -80.617188 63.09375 -76.960938 68.09375 -73.265625 C 73.101562 -69.578125 77.820312 -65.71875 82.25 -61.6875 C 86.6875 -57.664062 90.460938 -53.316406 93.578125 -48.640625 C 96.703125 -43.960938 98.515625 -38.832031 99.015625 -33.25 Z M 90.890625 -80.046875 C 90.222656 -83.660156 89.191406 -87.722656 87.796875 -92.234375 C 86.410156 -96.753906 84.441406 -101.066406 81.890625 -105.171875 C 79.347656 -109.273438 76.144531 -112.925781 72.28125 -116.125 C 68.425781 -119.332031 63.707031 -121.507812 58.125 -122.65625 C 60.75 -122.164062 63.171875 -121.59375 65.390625 -120.9375 C 67.609375 -120.28125 69.703125 -119.617188 71.671875 -118.953125 C 73.640625 -118.296875 75.566406 -117.800781 77.453125 -117.46875 C 79.347656 -117.144531 81.363281 -117.066406 83.5 -117.234375 C 84.8125 -117.398438 86.242188 -117.726562 87.796875 -118.21875 C 89.359375 -118.71875 90.390625 -119.296875 90.890625 -119.953125 Z M 90.890625 -80.046875" transform="translate(152.36 202.209)"/></g></g></g><g><g><g><path d="M 2.265625 -1.515625 C 2.191406 -1.867188 2.15625 -2.539062 2.15625 -3.53125 C 2.15625 -4.519531 2.34375 -5.570312 2.71875 -6.6875 L 3.046875 -6.6875 C 3.023438 -6.414062 3.015625 -6.144531 3.015625 -5.875 C 3.015625 -4.363281 3.472656 -3.101562 4.390625 -2.09375 C 5.304688 -1.09375 6.519531 -0.59375 8.03125 -0.59375 C 9.582031 -0.59375 10.859375 -1.0625 11.859375 -2 C 12.867188 -2.945312 13.375 -4.128906 13.375 -5.546875 C 13.375 -6.972656 12.890625 -8.132812 11.921875 -9.03125 L 4.796875 -15.640625 C 3.453125 -16.878906 2.78125 -18.378906 2.78125 -20.140625 C 2.78125 -21.898438 3.367188 -23.40625 4.546875 -24.65625 C 5.722656 -25.90625 7.316406 -26.53125 9.328125 -26.53125 C 10.265625 -26.53125 11.328125 -26.40625 12.515625 -26.15625 L 13.96875 -26.15625 L 13.96875 -21.59375 L 13.640625 -21.59375 C 13.640625 -22.75 13.234375 -23.675781 12.421875 -24.375 C 11.617188 -25.070312 10.585938 -25.421875 9.328125 -25.421875 C 8.066406 -25.421875 7.007812 -25 6.15625 -24.15625 C 5.300781 -23.3125 4.875 -22.253906 4.875 -20.984375 C 4.875 -19.722656 5.367188 -18.632812 6.359375 -17.71875 L 13.671875 -10.96875 C 14.910156 -9.820312 15.53125 -8.257812 15.53125 -6.28125 C 15.53125 -4.300781 14.894531 -2.671875 13.625 -1.390625 C 12.363281 -0.117188 10.679688 0.515625 8.578125 0.515625 C 7.492188 0.515625 6.335938 0.347656 5.109375 0.015625 C 3.878906 -0.316406 2.929688 -0.828125 2.265625 -1.515625 Z M 2.265625 -1.515625" transform="translate(319.791 128.25)"/></g></g></g><g><g><g><path d="M 2.71875 -0.375 C 3.351562 -0.375 3.898438 -0.601562 4.359375 -1.0625 C 4.816406 -1.519531 5.0625 -2.070312 5.09375 -2.71875 L 5.09375 -23.515625 C 5.019531 -24.109375 4.757812 -24.609375 4.3125 -25.015625 C 3.863281 -25.429688 3.332031 -25.640625 2.71875 -25.640625 L 2.265625 -25.640625 L 2.234375 -26.015625 L 13.109375 -26.015625 C 13.878906 -26.015625 14.71875 -26.085938 15.625 -26.234375 C 16.53125 -26.378906 17.164062 -26.523438 17.53125 -26.671875 L 17.53125 -22 L 17.171875 -22 L 17.171875 -22.671875 C 17.171875 -23.265625 16.960938 -23.769531 16.546875 -24.1875 C 16.140625 -24.613281 15.648438 -24.835938 15.078125 -24.859375 L 7.5 -24.859375 L 7.5 -13.375 L 13.78125 -13.375 C 14.28125 -13.394531 14.703125 -13.578125 15.046875 -13.921875 C 15.390625 -14.273438 15.5625 -14.710938 15.5625 -15.234375 L 15.5625 -15.75 L 15.9375 -15.75 L 15.9375 -9.890625 L 15.5625 -9.890625 L 15.5625 -10.4375 C 15.5625 -10.9375 15.394531 -11.359375 15.0625 -11.703125 C 14.726562 -12.046875 14.316406 -12.234375 13.828125 -12.265625 L 7.5 -12.265625 L 7.5 -1.15625 L 12.8125 -1.15625 C 14.644531 -1.15625 16.046875 -1.5625 17.015625 -2.375 C 17.984375 -3.195312 18.789062 -4.410156 19.4375 -6.015625 L 19.796875 -6.015625 L 17.65625 0 L 2.234375 0 L 2.234375 -0.375 Z M 2.71875 -0.375" transform="translate(357.316 128.25)"/></g></g></g><g><g><g><path d="M 9.890625 -24.859375 L 7.5 -24.859375 L 7.5 -2.71875 C 7.5 -2.070312 7.726562 -1.519531 8.1875 -1.0625 C 8.644531 -0.601562 9.210938 -0.375 9.890625 -0.375 L 10.328125 -0.375 L 10.359375 0 L 2.234375 0 L 2.234375 -0.375 L 2.71875 -0.375 C 3.351562 -0.375 3.898438 -0.59375 4.359375 -1.03125 C 4.816406 -1.476562 5.0625 -2.023438 5.09375 -2.671875 L 5.09375 -23.296875 C 5.0625 -23.941406 4.816406 -24.492188 4.359375 -24.953125 C 3.898438 -25.410156 3.351562 -25.640625 2.71875 -25.640625 L 2.234375 -25.640625 L 2.234375 -26.015625 L 12.265625 -26.015625 C 14.515625 -26.015625 16.28125 -25.382812 17.5625 -24.125 C 18.851562 -22.875 19.5 -21.253906 19.5 -19.265625 C 19.5 -17.273438 18.882812 -15.550781 17.65625 -14.09375 C 16.4375 -12.644531 14.945312 -11.921875 13.1875 -11.921875 C 13.5625 -11.753906 14 -11.414062 14.5 -10.90625 C 15.007812 -10.394531 15.460938 -9.867188 15.859375 -9.328125 C 17.992188 -6.273438 19.382812 -4.394531 20.03125 -3.6875 C 20.675781 -2.988281 21.132812 -2.507812 21.40625 -2.25 C 21.675781 -1.988281 21.972656 -1.734375 22.296875 -1.484375 C 22.617188 -1.234375 22.941406 -1.035156 23.265625 -0.890625 C 23.984375 -0.546875 24.75 -0.375 25.5625 -0.375 L 25.5625 0 L 23.515625 0 C 22.453125 0 21.460938 -0.191406 20.546875 -0.578125 C 19.628906 -0.960938 18.941406 -1.359375 18.484375 -1.765625 C 18.023438 -2.171875 17.628906 -2.566406 17.296875 -2.953125 C 16.960938 -3.335938 16.039062 -4.617188 14.53125 -6.796875 C 13.019531 -8.972656 12.140625 -10.21875 11.890625 -10.53125 C 11.640625 -10.84375 11.378906 -11.144531 11.109375 -11.4375 C 10.316406 -12.28125 9.523438 -12.703125 8.734375 -12.703125 L 8.734375 -13.078125 C 8.929688 -13.054688 9.191406 -13.046875 9.515625 -13.046875 C 9.835938 -13.046875 10.234375 -13.054688 10.703125 -13.078125 C 13.773438 -13.148438 15.707031 -14.4375 16.5 -16.9375 C 16.644531 -17.4375 16.71875 -17.898438 16.71875 -18.328125 C 16.71875 -18.765625 16.71875 -19.046875 16.71875 -19.171875 C 16.664062 -20.828125 16.226562 -22.160156 15.40625 -23.171875 C 14.59375 -24.191406 13.492188 -24.742188 12.109375 -24.828125 C 11.515625 -24.847656 10.773438 -24.859375 9.890625 -24.859375 Z M 9.890625 -24.859375" transform="translate(398.63 128.25)"/></g></g></g><g><g><g><path d="M 27.90625 -25.640625 L 27.5625 -25.640625 C 26.71875 -25.640625 25.953125 -25.304688 25.265625 -24.640625 C 24.867188 -24.285156 24.554688 -23.847656 24.328125 -23.328125 L 15.375 -3.3125 C 14.457031 -1.300781 14 -0.0234375 14 0.515625 L 13.671875 0.515625 L 3.234375 -23.296875 C 2.878906 -24.085938 2.398438 -24.675781 1.796875 -25.0625 C 1.191406 -25.445312 0.578125 -25.640625 -0.046875 -25.640625 L -0.34375 -25.640625 L -0.34375 -26.015625 L 8.015625 -26.015625 L 8.015625 -25.640625 L 7.6875 -25.640625 C 6.945312 -25.640625 6.453125 -25.289062 6.203125 -24.59375 C 6.148438 -24.445312 6.125 -24.273438 6.125 -24.078125 C 6.125 -23.878906 6.1875 -23.628906 6.3125 -23.328125 L 14.078125 -3.859375 L 22.171875 -23.328125 C 22.273438 -23.628906 22.328125 -23.921875 22.328125 -24.203125 C 22.328125 -24.492188 22.195312 -24.804688 21.9375 -25.140625 C 21.675781 -25.472656 21.285156 -25.640625 20.765625 -25.640625 L 20.4375 -25.640625 L 20.4375 -26.015625 L 27.90625 -26.015625 Z M 27.90625 -25.640625" transform="translate(443.659 128.25)"/></g></g></g><g><g><g><path d="M 2.71875 -0.375 C 3.351562 -0.375 3.898438 -0.601562 4.359375 -1.0625 C 4.816406 -1.519531 5.0625 -2.070312 5.09375 -2.71875 L 5.09375 -23.328125 C 5.0625 -23.972656 4.816406 -24.519531 4.359375 -24.96875 C 3.898438 -25.414062 3.351562 -25.640625 2.71875 -25.640625 L 2.234375 -25.640625 L 2.234375 -26.015625 L 10.359375 -26.015625 L 10.359375 -25.640625 L 9.890625 -25.640625 C 9.242188 -25.640625 8.691406 -25.414062 8.234375 -24.96875 C 7.773438 -24.519531 7.53125 -23.972656 7.5 -23.328125 L 7.5 -2.71875 C 7.5 -2.070312 7.734375 -1.519531 8.203125 -1.0625 C 8.679688 -0.601562 9.242188 -0.375 9.890625 -0.375 L 10.359375 -0.375 L 10.359375 0 L 2.234375 0 L 2.234375 -0.375 Z M 2.71875 -0.375" transform="translate(491.028 128.25)"/></g></g></g><g><g><g><path d="M 15.5 0.515625 C 11.582031 0.492188 8.390625 -0.753906 5.921875 -3.234375 C 3.460938 -5.710938 2.234375 -8.972656 2.234375 -13.015625 C 2.234375 -17.066406 3.460938 -20.332031 5.921875 -22.8125 C 8.390625 -25.289062 11.65625 -26.53125 15.71875 -26.53125 C 19.039062 -26.53125 21.972656 -25.6875 24.515625 -24 L 25.265625 -18.765625 L 24.9375 -18.765625 C 24.382812 -20.890625 23.28125 -22.53125 21.625 -23.6875 C 19.96875 -24.84375 18 -25.421875 15.71875 -25.421875 C 12.46875 -25.421875 9.867188 -24.289062 7.921875 -22.03125 C 5.984375 -19.78125 5.015625 -16.796875 5.015625 -13.078125 C 5.015625 -9.359375 5.972656 -6.363281 7.890625 -4.09375 C 9.816406 -1.832031 12.351562 -0.664062 15.5 -0.59375 C 18.269531 -0.59375 20.582031 -1.347656 22.4375 -2.859375 C 24.445312 -4.492188 25.660156 -7.15625 26.078125 -10.84375 L 26.375 -10.84375 L 25.9375 -5.015625 C 23.675781 -1.328125 20.195312 0.515625 15.5 0.515625 Z M 15.5 0.515625" transform="translate(523.463 128.25)"/></g></g></g><g><g><g><path d="M 2.71875 -0.375 C 3.351562 -0.375 3.898438 -0.601562 4.359375 -1.0625 C 4.816406 -1.519531 5.0625 -2.070312 5.09375 -2.71875 L 5.09375 -23.515625 C 5.019531 -24.109375 4.757812 -24.609375 4.3125 -25.015625 C 3.863281 -25.429688 3.332031 -25.640625 2.71875 -25.640625 L 2.265625 -25.640625 L 2.234375 -26.015625 L 13.109375 -26.015625 C 13.878906 -26.015625 14.71875 -26.085938 15.625 -26.234375 C 16.53125 -26.378906 17.164062 -26.523438 17.53125 -26.671875 L 17.53125 -22 L 17.171875 -22 L 17.171875 -22.671875 C 17.171875 -23.265625 16.960938 -23.769531 16.546875 -24.1875 C 16.140625 -24.613281 15.648438 -24.835938 15.078125 -24.859375 L 7.5 -24.859375 L 7.5 -13.375 L 13.78125 -13.375 C 14.28125 -13.394531 14.703125 -13.578125 15.046875 -13.921875 C 15.390625 -14.273438 15.5625 -14.710938 15.5625 -15.234375 L 15.5625 -15.75 L 15.9375 -15.75 L 15.9375 -9.890625 L 15.5625 -9.890625 L 15.5625 -10.4375 C 15.5625 -10.9375 15.394531 -11.359375 15.0625 -11.703125 C 14.726562 -12.046875 14.316406 -12.234375 13.828125 -12.265625 L 7.5 -12.265625 L 7.5 -1.15625 L 12.8125 -1.15625 C 14.644531 -1.15625 16.046875 -1.5625 17.015625 -2.375 C 17.984375 -3.195312 18.789062 -4.410156 19.4375 -6.015625 L 19.796875 -6.015625 L 17.65625 0 L 2.234375 0 L 2.234375 -0.375 Z M 2.71875 -0.375" transform="translate(571.575 128.25)"/></g></g></g><g><g><g><path d="M 26.59375 -0.375 L 26.890625 -0.375 L 26.890625 0 L 18.53125 0 L 18.53125 -0.375 L 18.875 -0.375 C 19.394531 -0.375 19.785156 -0.539062 20.046875 -0.875 C 20.304688 -1.207031 20.4375 -1.519531 20.4375 -1.8125 C 20.4375 -2.113281 20.382812 -2.414062 20.28125 -2.71875 L 17.90625 -9.03125 L 7.875 -9.03125 L 5.375 -2.671875 C 5.28125 -2.378906 5.234375 -2.085938 5.234375 -1.796875 C 5.234375 -1.515625 5.363281 -1.207031 5.625 -0.875 C 5.882812 -0.539062 6.273438 -0.375 6.796875 -0.375 L 7.125 -0.375 L 7.125 0 L -0.34375 0 L -0.34375 -0.375 L 0 -0.375 C 0.613281 -0.375 1.21875 -0.570312 1.8125 -0.96875 C 2.40625 -1.363281 2.890625 -1.945312 3.265625 -2.71875 L 11.65625 -22.703125 C 12.570312 -24.710938 13.03125 -25.988281 13.03125 -26.53125 L 13.375 -26.53125 L 23.328125 -2.71875 C 23.671875 -1.945312 24.140625 -1.363281 24.734375 -0.96875 C 25.328125 -0.570312 25.945312 -0.375 26.59375 -0.375 Z M 8.3125 -10.140625 L 17.453125 -10.140625 L 13 -22.078125 Z M 8.3125 -10.140625" transform="translate(355.522 194.25)"/></g></g></g><g><g><g><path d="M 14.828125 -26.015625 C 18.785156 -26.015625 22 -24.816406 24.46875 -22.421875 C 26.9375 -20.035156 28.171875 -16.894531 28.171875 -13 C 28.171875 -9.113281 26.9375 -5.972656 24.46875 -3.578125 C 22 -1.191406 18.785156 0 14.828125 0 L 2.234375 0 L 2.234375 -0.375 L 2.71875 -0.375 C 3.351562 -0.375 3.898438 -0.601562 4.359375 -1.0625 C 4.816406 -1.519531 5.0625 -2.070312 5.09375 -2.71875 L 5.09375 -23.515625 C 5.09375 -24.109375 4.847656 -24.609375 4.359375 -25.015625 C 3.878906 -25.429688 3.332031 -25.640625 2.71875 -25.640625 L 2.265625 -25.640625 L 2.234375 -26.015625 Z M 7.5 -24.890625 L 7.5 -1.109375 L 14.828125 -1.109375 C 16.910156 -1.109375 18.75 -1.601562 20.34375 -2.59375 C 21.9375 -3.59375 23.171875 -4.988281 24.046875 -6.78125 C 24.929688 -8.570312 25.375 -10.644531 25.375 -13 C 25.375 -16.570312 24.398438 -19.445312 22.453125 -21.625 C 20.515625 -23.800781 17.972656 -24.890625 14.828125 -24.890625 Z M 7.5 -24.890625" transform="translate(401.85 194.25)"/></g></g></g><g><g><g><path d="M 2.71875 -0.375 C 3.351562 -0.375 3.898438 -0.601562 4.359375 -1.0625 C 4.816406 -1.519531 5.0625 -2.070312 5.09375 -2.71875 L 5.09375 -23.515625 C 5.019531 -24.109375 4.757812 -24.609375 4.3125 -25.015625 C 3.863281 -25.429688 3.332031 -25.640625 2.71875 -25.640625 L 2.265625 -25.640625 L 2.234375 -26.015625 L 13.109375 -26.015625 C 13.878906 -26.015625 14.71875 -26.085938 15.625 -26.234375 C 16.53125 -26.378906 17.164062 -26.523438 17.53125 -26.671875 L 17.53125 -22 L 17.171875 -22 L 17.171875 -22.671875 C 17.171875 -23.265625 16.960938 -23.769531 16.546875 -24.1875 C 16.140625 -24.613281 15.648438 -24.835938 15.078125 -24.859375 L 7.5 -24.859375 L 7.5 -13.375 L 13.78125 -13.375 C 14.28125 -13.394531 14.703125 -13.578125 15.046875 -13.921875 C 15.390625 -14.273438 15.5625 -14.710938 15.5625 -15.234375 L 15.5625 -15.75 L 15.9375 -15.75 L 15.9375 -9.890625 L 15.5625 -9.890625 L 15.5625 -10.4375 C 15.5625 -10.9375 15.394531 -11.359375 15.0625 -11.703125 C 14.726562 -12.046875 14.316406 -12.234375 13.828125 -12.265625 L 7.5 -12.265625 L 7.5 -1.15625 L 12.8125 -1.15625 C 14.644531 -1.15625 16.046875 -1.5625 17.015625 -2.375 C 17.984375 -3.195312 18.789062 -4.410156 19.4375 -6.015625 L 19.796875 -6.015625 L 17.65625 0 L 2.234375 0 L 2.234375 -0.375 Z M 2.71875 -0.375" transform="translate(451.709 194.25)"/></g></g></g><g><g><g><path d="M 19.578125 -18.84375 C 19.578125 -17.75 19.351562 -16.734375 18.90625 -15.796875 C 18.09375 -14.035156 16.660156 -12.804688 14.609375 -12.109375 C 13.890625 -11.859375 13.269531 -11.734375 12.75 -11.734375 C 11.207031 -11.734375 9.878906 -12.019531 8.765625 -12.59375 L 8.765625 -12.96875 C 10.578125 -12.570312 12.25 -12.769531 13.78125 -13.5625 C 15.144531 -14.257812 16.078125 -15.398438 16.578125 -16.984375 C 16.722656 -17.472656 16.796875 -17.941406 16.796875 -18.390625 C 16.796875 -18.835938 16.796875 -19.109375 16.796875 -19.203125 C 16.742188 -20.941406 16.285156 -22.320312 15.421875 -23.34375 C 14.554688 -24.375 13.34375 -24.890625 11.78125 -24.890625 L 7.5 -24.890625 L 7.5 -2.71875 C 7.53125 -2.070312 7.773438 -1.519531 8.234375 -1.0625 C 8.691406 -0.601562 9.242188 -0.375 9.890625 -0.375 L 10.359375 -0.375 L 10.359375 0 L 2.234375 0 L 2.234375 -0.375 L 2.71875 -0.375 C 3.351562 -0.375 3.898438 -0.601562 4.359375 -1.0625 C 4.816406 -1.519531 5.0625 -2.070312 5.09375 -2.71875 L 5.09375 -23.484375 C 5.019531 -24.097656 4.757812 -24.609375 4.3125 -25.015625 C 3.863281 -25.429688 3.332031 -25.640625 2.71875 -25.640625 L 2.265625 -25.640625 L 2.234375 -26.015625 L 11.921875 -26.015625 C 14.304688 -26.015625 16.175781 -25.375 17.53125 -24.09375 C 18.894531 -22.820312 19.578125 -21.070312 19.578125 -18.84375 Z M 19.578125 -18.84375" transform="translate(493.023 194.25)"/></g></g></g><g><g><g><path d="M 21.890625 -22.703125 C 21.890625 -23.296875 21.675781 -23.804688 21.25 -24.234375 C 20.832031 -24.671875 20.335938 -24.90625 19.765625 -24.9375 L 12.703125 -24.9375 L 12.703125 -2.671875 C 12.734375 -2.023438 12.976562 -1.476562 13.4375 -1.03125 C 13.894531 -0.59375 14.441406 -0.375 15.078125 -0.375 L 15.5625 -0.375 L 15.5625 0 L 7.4375 0 L 7.4375 -0.375 L 7.921875 -0.375 C 8.554688 -0.375 9.101562 -0.59375 9.5625 -1.03125 C 10.019531 -1.476562 10.265625 -2.015625 10.296875 -2.640625 L 10.296875 -24.9375 L 3.234375 -24.9375 C 2.640625 -24.90625 2.132812 -24.671875 1.71875 -24.234375 C 1.3125 -23.804688 1.109375 -23.296875 1.109375 -22.703125 L 1.109375 -22.078125 L 0.75 -22.03125 L 0.75 -26.71875 C 1.113281 -26.570312 1.753906 -26.421875 2.671875 -26.265625 C 3.585938 -26.117188 4.429688 -26.046875 5.203125 -26.046875 L 17.765625 -26.046875 C 18.972656 -26.046875 19.976562 -26.140625 20.78125 -26.328125 C 21.59375 -26.515625 22.082031 -26.644531 22.25 -26.71875 L 22.25 -22.03125 L 21.890625 -22.078125 Z M 21.890625 -22.703125" transform="translate(534.337 194.25)"/></g></g></g></svg>