<svg width="1686" height="3359" viewBox="0 0 1686 3359" fill="none" xmlns="http://www.w3.org/2000/svg">
<circle cx="6.50009" cy="1679.5" r="333.4" stroke="#264562" stroke-opacity="0.69" stroke-width="5"/>
<circle cx="6.50046" cy="1679.5" r="400.58" stroke="#264562" stroke-opacity="0.69" stroke-width="5"/>
<circle cx="6.50024" cy="1679.5" r="467.76" stroke="#264562" stroke-opacity="0.69" stroke-width="5"/>
<circle cx="6.49957" cy="1679.5" r="534.94" stroke="#264562" stroke-opacity="0.69" stroke-width="5"/>
<circle cx="6.49988" cy="1679.5" r="602.12" stroke="#264562" stroke-opacity="0.69" stroke-width="5"/>
<circle cx="6.49921" cy="1679.5" r="669.3" stroke="#264562" stroke-opacity="0.69" stroke-width="5"/>
<circle cx="6.50049" cy="1679.5" r="736.48" stroke="#264562" stroke-opacity="0.69" stroke-width="5"/>
<circle cx="6.49994" cy="1679.5" r="803.66" stroke="#264562" stroke-opacity="0.69" stroke-width="5"/>
<circle cx="6.50006" cy="1679.5" r="870.84" stroke="#264562" stroke-opacity="0.69" stroke-width="5"/>
<circle cx="6.49951" cy="1679.5" r="938.02" stroke="#264562" stroke-opacity="0.69" stroke-width="5"/>
<circle cx="6.50079" cy="1679.5" r="1005.2" stroke="#264562" stroke-opacity="0.69" stroke-width="5"/>
<circle cx="6.50012" cy="1679.5" r="1072.38" stroke="#264562" stroke-opacity="0.69" stroke-width="5"/>
<circle cx="6.49939" cy="1679.5" r="1139.56" stroke="#264562" stroke-opacity="0.69" stroke-width="5"/>
<circle cx="6.5" cy="1679.5" r="1206.74" stroke="#264562" stroke-opacity="0.69" stroke-width="5"/>
<circle cx="6.49951" cy="1679.5" r="1273.92" stroke="#264562" stroke-opacity="0.69" stroke-width="5"/>
<circle cx="6.49988" cy="1679.5" r="1341.1" stroke="#264562" stroke-opacity="0.69" stroke-width="5"/>
<circle cx="6.50024" cy="1679.5" r="1408.28" stroke="#264562" stroke-opacity="0.69" stroke-width="5"/>
<circle cx="6.49976" cy="1679.5" r="1475.46" stroke="#264562" stroke-opacity="0.69" stroke-width="5"/>
<circle cx="6.49927" cy="1679.5" r="1542.64" stroke="#264562" stroke-opacity="0.69" stroke-width="5"/>
<circle cx="6.50037" cy="1679.5" r="1609.82" stroke="#264562" stroke-opacity="0.69" stroke-width="5"/>
<circle cx="6.5" cy="1679.5" r="1677" stroke="#264562" stroke-opacity="0.69" stroke-width="5"/>
</svg>
