<svg xmlns="http://www.w3.org/2000/svg" width="375" viewBox="0 0 375 375" height="375" version="1.0"><defs><clipPath id="a"><path d="M 8.28125 8.28125 L 366.78125 8.28125 L 366.78125 366.78125 L 8.28125 366.78125 Z M 8.28125 8.28125"/></clipPath><clipPath id="b"><path d="M 67.695312 79 L 306.945312 79 L 306.945312 202 L 67.695312 202 Z M 67.695312 79"/></clipPath></defs><g clip-path="url(#a)"><path fill="#FB0" d="M 366.78125 187.53125 C 366.78125 190.464844 366.710938 193.398438 366.566406 196.328125 C 366.421875 199.257812 366.207031 202.183594 365.917969 205.101562 C 365.632812 208.019531 365.273438 210.929688 364.84375 213.832031 C 364.410156 216.734375 363.910156 219.625 363.335938 222.5 C 362.765625 225.378906 362.121094 228.242188 361.410156 231.085938 C 360.695312 233.933594 359.914062 236.757812 359.0625 239.566406 C 358.210938 242.371094 357.292969 245.15625 356.304688 247.917969 C 355.316406 250.679688 354.261719 253.417969 353.136719 256.128906 C 352.015625 258.839844 350.828125 261.519531 349.570312 264.171875 C 348.316406 266.824219 347 269.441406 345.617188 272.03125 C 344.234375 274.617188 342.789062 277.167969 341.28125 279.683594 C 339.773438 282.199219 338.203125 284.679688 336.574219 287.117188 C 334.941406 289.558594 333.253906 291.953125 331.507812 294.3125 C 329.757812 296.667969 327.957031 298.980469 326.09375 301.246094 C 324.234375 303.515625 322.316406 305.734375 320.347656 307.910156 C 318.378906 310.082031 316.355469 312.207031 314.28125 314.28125 C 312.207031 316.355469 310.082031 318.378906 307.910156 320.347656 C 305.734375 322.316406 303.515625 324.234375 301.246094 326.09375 C 298.980469 327.953125 296.667969 329.757812 294.3125 331.507812 C 291.953125 333.253906 289.558594 334.941406 287.117188 336.574219 C 284.679688 338.203125 282.199219 339.773438 279.683594 341.28125 C 277.167969 342.789062 274.617188 344.234375 272.03125 345.617188 C 269.441406 347 266.824219 348.316406 264.171875 349.570312 C 261.519531 350.824219 258.839844 352.015625 256.128906 353.136719 C 253.417969 354.261719 250.679688 355.316406 247.917969 356.304688 C 245.15625 357.292969 242.371094 358.210938 239.566406 359.0625 C 236.757812 359.914062 233.933594 360.695312 231.085938 361.410156 C 228.242188 362.121094 225.378906 362.765625 222.5 363.335938 C 219.625 363.910156 216.734375 364.410156 213.832031 364.839844 C 210.929688 365.273438 208.019531 365.632812 205.101562 365.917969 C 202.183594 366.207031 199.257812 366.421875 196.328125 366.566406 C 193.398438 366.710938 190.464844 366.78125 187.53125 366.78125 C 184.597656 366.78125 181.667969 366.710938 178.738281 366.566406 C 175.804688 366.421875 172.882812 366.207031 169.960938 365.917969 C 167.042969 365.632812 164.132812 365.273438 161.230469 364.839844 C 158.328125 364.410156 155.4375 363.910156 152.5625 363.335938 C 149.683594 362.765625 146.824219 362.121094 143.976562 361.410156 C 141.132812 360.695312 138.304688 359.914062 135.5 359.0625 C 132.691406 358.210938 129.90625 357.292969 127.144531 356.304688 C 124.382812 355.316406 121.644531 354.261719 118.9375 353.136719 C 116.226562 352.015625 113.542969 350.824219 110.894531 349.570312 C 108.242188 348.316406 105.621094 347 103.035156 345.617188 C 100.445312 344.234375 97.894531 342.789062 95.378906 341.28125 C 92.863281 339.773438 90.386719 338.203125 87.945312 336.574219 C 85.507812 334.941406 83.109375 333.253906 80.753906 331.507812 C 78.398438 329.757812 76.085938 327.953125 73.816406 326.09375 C 71.550781 324.234375 69.328125 322.316406 67.15625 320.347656 C 64.980469 318.378906 62.855469 316.355469 60.78125 314.28125 C 58.707031 312.207031 56.6875 310.082031 54.714844 307.910156 C 52.746094 305.734375 50.832031 303.515625 48.96875 301.246094 C 47.109375 298.980469 45.304688 296.667969 43.558594 294.3125 C 41.808594 291.953125 40.121094 289.558594 38.492188 287.117188 C 36.859375 284.679688 35.292969 282.199219 33.785156 279.683594 C 32.277344 277.167969 30.832031 274.617188 29.449219 272.03125 C 28.066406 269.441406 26.746094 266.824219 25.492188 264.171875 C 24.238281 261.519531 23.050781 258.839844 21.925781 256.128906 C 20.804688 253.417969 19.75 250.679688 18.761719 247.917969 C 17.773438 245.15625 16.851562 242.371094 16 239.566406 C 15.148438 236.757812 14.367188 233.933594 13.652344 231.085938 C 12.941406 228.242188 12.296875 225.378906 11.726562 222.5 C 11.152344 219.625 10.652344 216.734375 10.222656 213.832031 C 9.792969 210.929688 9.433594 208.019531 9.144531 205.101562 C 8.859375 202.183594 8.640625 199.257812 8.496094 196.328125 C 8.355469 193.398438 8.28125 190.464844 8.28125 187.53125 C 8.28125 184.597656 8.355469 181.667969 8.496094 178.738281 C 8.640625 175.804688 8.859375 172.882812 9.144531 169.960938 C 9.433594 167.042969 9.792969 164.132812 10.222656 161.230469 C 10.652344 158.328125 11.152344 155.4375 11.726562 152.5625 C 12.296875 149.683594 12.941406 146.824219 13.652344 143.976562 C 14.367188 141.132812 15.148438 138.304688 16 135.5 C 16.851562 132.691406 17.773438 129.90625 18.761719 127.144531 C 19.75 124.382812 20.804688 121.644531 21.925781 118.9375 C 23.050781 116.226562 24.238281 113.542969 25.492188 110.894531 C 26.746094 108.242188 28.066406 105.621094 29.449219 103.035156 C 30.832031 100.445312 32.277344 97.894531 33.785156 95.378906 C 35.292969 92.863281 36.859375 90.386719 38.492188 87.945312 C 40.121094 85.507812 41.808594 83.109375 43.558594 80.753906 C 45.304688 78.398438 47.109375 76.085938 48.96875 73.816406 C 50.832031 71.550781 52.746094 69.328125 54.714844 67.15625 C 56.6875 64.980469 58.707031 62.855469 60.78125 60.78125 C 62.855469 58.707031 64.980469 56.6875 67.15625 54.714844 C 69.328125 52.746094 71.550781 50.832031 73.816406 48.96875 C 76.085938 47.109375 78.398438 45.304688 80.753906 43.558594 C 83.109375 41.808594 85.507812 40.121094 87.945312 38.492188 C 90.386719 36.859375 92.863281 35.292969 95.378906 33.785156 C 97.894531 32.277344 100.445312 30.832031 103.035156 29.449219 C 105.621094 28.066406 108.242188 26.746094 110.894531 25.492188 C 113.542969 24.238281 116.226562 23.050781 118.9375 21.925781 C 121.644531 20.804688 124.382812 19.75 127.144531 18.761719 C 129.90625 17.773438 132.691406 16.851562 135.5 16 C 138.304688 15.148438 141.132812 14.367188 143.976562 13.652344 C 146.824219 12.941406 149.683594 12.296875 152.5625 11.726562 C 155.4375 11.152344 158.328125 10.652344 161.230469 10.222656 C 164.132812 9.792969 167.042969 9.433594 169.960938 9.144531 C 172.882812 8.859375 175.804688 8.640625 178.738281 8.496094 C 181.667969 8.355469 184.597656 8.28125 187.53125 8.28125 C 190.464844 8.28125 193.398438 8.355469 196.328125 8.496094 C 199.257812 8.640625 202.183594 8.859375 205.101562 9.144531 C 208.019531 9.433594 210.929688 9.792969 213.832031 10.222656 C 216.734375 10.652344 219.625 11.152344 222.5 11.726562 C 225.378906 12.296875 228.242188 12.941406 231.085938 13.652344 C 233.933594 14.367188 236.757812 15.148438 239.566406 16 C 242.371094 16.851562 245.15625 17.773438 247.917969 18.761719 C 250.679688 19.75 253.417969 20.804688 256.128906 21.925781 C 258.839844 23.050781 261.519531 24.238281 264.171875 25.492188 C 266.824219 26.746094 269.441406 28.066406 272.03125 29.449219 C 274.617188 30.832031 277.167969 32.277344 279.683594 33.785156 C 282.199219 35.292969 284.679688 36.859375 287.117188 38.492188 C 289.558594 40.121094 291.953125 41.808594 294.3125 43.558594 C 296.667969 45.304688 298.980469 47.109375 301.246094 48.96875 C 303.515625 50.832031 305.734375 52.746094 307.910156 54.714844 C 310.082031 56.6875 312.207031 58.707031 314.28125 60.78125 C 316.355469 62.855469 318.378906 64.980469 320.347656 67.15625 C 322.316406 69.328125 324.234375 71.550781 326.09375 73.816406 C 327.957031 76.085938 329.757812 78.398438 331.507812 80.753906 C 333.253906 83.109375 334.941406 85.507812 336.574219 87.945312 C 338.203125 90.386719 339.773438 92.863281 341.28125 95.378906 C 342.789062 97.894531 344.234375 100.445312 345.617188 103.035156 C 347 105.621094 348.316406 108.242188 349.570312 110.894531 C 350.828125 113.542969 352.015625 116.226562 353.136719 118.9375 C 354.261719 121.644531 355.316406 124.382812 356.304688 127.144531 C 357.292969 129.90625 358.210938 132.691406 359.0625 135.5 C 359.914062 138.304688 360.695312 141.132812 361.410156 143.976562 C 362.121094 146.824219 362.765625 149.683594 363.335938 152.5625 C 363.910156 155.4375 364.410156 158.328125 364.84375 161.230469 C 365.273438 164.132812 365.632812 167.042969 365.917969 169.960938 C 366.207031 172.882812 366.421875 175.804688 366.566406 178.738281 C 366.710938 181.667969 366.78125 184.597656 366.78125 187.53125 Z M 366.78125 187.53125"/></g><path fill="#FB0" d="M 194.203125 107.140625 L 189.449219 115.082031 L 189.394531 112.101562 C 189.289062 110.894531 188.464844 109.65625 187.113281 109.65625 L 180.125 109.195312 L 185.363281 101.15625 L 185.394531 104.328125 C 185.394531 105.75 186.515625 106.636719 187.824219 106.769531 Z M 194.203125 107.140625"/><path fill="#FB0" d="M 220.75 118.5 C 226.800781 120.539062 228.121094 122.511719 228.121094 123.085938 C 228.121094 123.8125 226.328125 126.203125 218.128906 128.476562 C 217.296875 128.707031 216.449219 128.925781 215.609375 129.113281 C 215.457031 129.148438 215.300781 129.183594 215.148438 129.226562 C 215.089844 129.234375 215.035156 129.246094 214.980469 129.269531 C 207.25 131.003906 197.347656 131.964844 187.089844 131.964844 C 176.820312 131.964844 167.003906 131.011719 159.300781 129.289062 C 159.070312 129.15625 158.808594 129.058594 158.523438 129.007812 C 158.332031 128.972656 158.136719 128.96875 157.957031 128.972656 C 156.984375 128.742188 156.023438 128.484375 155.070312 128.199219 C 147.667969 125.992188 146.050781 123.757812 146.050781 123.078125 C 146.050781 122.414062 147.417969 120.664062 152.585938 118.792969 C 152.59375 118.785156 152.605469 118.785156 152.613281 118.785156 C 152.65625 118.773438 152.695312 118.75 152.746094 118.730469 C 152.933594 118.648438 153.101562 118.542969 153.25 118.421875 C 153.292969 118.386719 153.335938 118.351562 153.382812 118.3125 C 153.40625 118.289062 153.433594 118.269531 153.453125 118.242188 C 153.566406 118.128906 153.664062 118.015625 153.746094 117.882812 C 153.84375 117.742188 153.929688 117.601562 153.992188 117.441406 C 154.125 117.128906 154.195312 116.792969 154.1875 116.441406 C 154.585938 98.957031 169.125 84.742188 186.644531 84.742188 C 204.289062 84.742188 218.523438 98.53125 219.082031 116.148438 C 219.082031 116.175781 219.082031 116.203125 219.089844 116.230469 C 219.089844 116.316406 219.097656 116.398438 219.109375 116.476562 C 219.144531 116.796875 219.25 117.097656 219.40625 117.371094 C 219.476562 117.503906 219.566406 117.632812 219.671875 117.75 C 219.761719 117.871094 219.875 117.972656 220 118.074219 C 220.054688 118.121094 220.113281 118.15625 220.175781 118.199219 C 220.316406 118.289062 220.460938 118.375 220.628906 118.429688 C 220.664062 118.472656 220.699219 118.484375 220.75 118.5 Z M 200.480469 106.183594 C 200.917969 105.449219 200.941406 104.539062 200.542969 103.78125 C 200.140625 103.019531 199.371094 102.535156 198.519531 102.484375 L 190.261719 102.011719 L 190.164062 93.027344 C 190.152344 91.949219 189.4375 91.003906 188.394531 90.707031 C 187.363281 90.40625 186.25 90.820312 185.664062 91.722656 L 173.730469 110.035156 C 173.253906 110.761719 173.199219 111.6875 173.589844 112.464844 C 173.976562 113.242188 174.753906 113.753906 175.613281 113.816406 L 184.527344 114.402344 L 184.6875 123.730469 C 184.710938 124.824219 185.453125 125.769531 186.503906 126.046875 C 186.710938 126.105469 186.921875 126.132812 187.132812 126.132812 C 187.980469 126.132812 188.785156 125.691406 189.234375 124.941406 Z M 200.480469 106.183594"/><path fill="#FB0" d="M 214.230469 135.96875 C 214.355469 137.375 214.417969 138.796875 214.417969 140.207031 C 214.417969 153.523438 208.929688 165.183594 200.792969 171.441406 C 200.722656 171.484375 200.652344 171.539062 200.589844 171.601562 C 196.605469 174.605469 192 176.320312 187.097656 176.320312 C 182.554688 176.320312 178.261719 174.851562 174.496094 172.246094 C 174.488281 172.238281 174.488281 172.238281 174.488281 172.238281 C 174.390625 172.164062 174.292969 172.085938 174.1875 172.03125 C 165.609375 165.929688 159.777344 153.957031 159.777344 140.21875 C 159.777344 138.828125 159.839844 137.410156 159.964844 136.027344 C 159.972656 136.019531 159.972656 136.003906 159.972656 135.996094 C 159.972656 135.984375 159.972656 135.96875 159.972656 135.949219 C 160.015625 135.464844 160.070312 134.976562 160.132812 134.484375 C 167.871094 136.046875 177.308594 136.886719 187.113281 136.886719 C 196.878906 136.886719 206.351562 136.039062 214.089844 134.484375 C 214.125 134.960938 214.1875 135.464844 214.230469 135.96875 Z M 214.230469 135.96875"/><path fill="#FB0" d="M 199.703125 177.933594 L 199.703125 186.46875 L 187.53125 200.570312 L 175.363281 186.460938 L 175.363281 178.394531 C 179.003906 180.207031 182.953125 181.203125 187.089844 181.203125 C 191.558594 181.203125 195.824219 180.039062 199.703125 177.933594 Z M 199.703125 177.933594"/><path fill="#FB0" d="M 251.535156 224.734375 L 251.535156 287.910156 C 251.535156 289.226562 250.464844 290.300781 249.148438 290.300781 L 233.480469 290.300781 L 233.480469 199.574219 C 244.304688 203.214844 251.535156 213.242188 251.535156 224.734375 Z M 251.535156 224.734375"/><path fill="#FB0" d="M 141.835938 199.492188 L 141.835938 290.300781 L 125.914062 290.300781 C 124.597656 290.300781 123.527344 289.226562 123.527344 287.910156 L 123.527344 224.734375 C 123.527344 213.160156 130.863281 203.070312 141.835938 199.492188 Z M 141.835938 199.492188"/><path fill="#FB0" d="M 172.070312 190.144531 L 183.898438 203.851562 L 172.625 211.652344 L 162.074219 193.230469 Z M 172.070312 190.144531"/><path fill="#FB0" d="M 212.992188 193.230469 L 202.4375 211.652344 L 191.164062 203.851562 L 202.992188 190.144531 Z M 212.992188 193.230469"/><path fill="#FB0" d="M 228.585938 198.054688 L 228.585938 290.304688 L 146.722656 290.304688 L 146.722656 197.980469 L 157.277344 194.714844 L 169.699219 216.402344 C 170.035156 216.996094 170.609375 217.417969 171.28125 217.570312 C 171.953125 217.71875 172.652344 217.585938 173.214844 217.191406 L 187.53125 207.292969 L 201.851562 217.191406 C 202.265625 217.480469 202.746094 217.625 203.246094 217.625 C 203.425781 217.625 203.609375 217.605469 203.789062 217.570312 C 204.457031 217.417969 205.03125 216.988281 205.371094 216.402344 L 217.792969 194.714844 Z M 228.585938 198.054688"/><g clip-path="url(#b)"><path d="M 281.3125 79.414062 L 93.328125 79.414062 C 92.488281 79.414062 91.652344 79.457031 90.816406 79.539062 C 89.980469 79.625 89.152344 79.746094 88.328125 79.910156 C 87.507812 80.074219 86.695312 80.28125 85.890625 80.523438 C 85.085938 80.769531 84.296875 81.050781 83.523438 81.375 C 82.746094 81.695312 81.988281 82.054688 81.25 82.449219 C 80.507812 82.847656 79.789062 83.277344 79.09375 83.746094 C 78.394531 84.210938 77.722656 84.710938 77.074219 85.246094 C 76.425781 85.777344 75.804688 86.34375 75.210938 86.9375 C 74.617188 87.53125 74.054688 88.152344 73.519531 88.800781 C 72.988281 89.453125 72.488281 90.125 72.023438 90.824219 C 71.554688 91.523438 71.125 92.242188 70.726562 92.984375 C 70.332031 93.722656 69.972656 94.484375 69.652344 95.257812 C 69.332031 96.035156 69.046875 96.824219 68.804688 97.628906 C 68.558594 98.433594 68.355469 99.246094 68.191406 100.070312 C 68.027344 100.894531 67.902344 101.726562 67.820312 102.5625 C 67.738281 103.398438 67.695312 104.234375 67.695312 105.074219 L 67.695312 175.726562 C 67.695312 176.566406 67.738281 177.40625 67.820312 178.242188 C 67.902344 179.078125 68.027344 179.910156 68.191406 180.730469 C 68.355469 181.554688 68.558594 182.371094 68.804688 183.175781 C 69.046875 183.976562 69.332031 184.769531 69.652344 185.542969 C 69.972656 186.320312 70.332031 187.078125 70.726562 187.820312 C 71.125 188.5625 71.554688 189.28125 72.023438 189.980469 C 72.488281 190.675781 72.988281 191.351562 73.519531 192 C 74.054688 192.652344 74.617188 193.273438 75.210938 193.867188 C 75.804688 194.460938 76.425781 195.023438 77.074219 195.558594 C 77.722656 196.089844 78.394531 196.589844 79.09375 197.058594 C 79.789062 197.523438 80.507812 197.957031 81.25 198.351562 C 81.988281 198.75 82.746094 199.109375 83.523438 199.429688 C 84.296875 199.75 85.085938 200.035156 85.890625 200.277344 C 86.695312 200.523438 87.507812 200.726562 88.328125 200.890625 C 89.152344 201.054688 89.980469 201.179688 90.816406 201.261719 C 91.652344 201.34375 92.488281 201.386719 93.328125 201.386719 L 106.144531 201.386719 C 107.085938 201.386719 108.019531 201.308594 108.945312 201.152344 C 109.875 200.996094 110.78125 200.769531 111.671875 200.460938 C 112.5625 200.15625 113.417969 199.78125 114.246094 199.335938 C 115.074219 198.886719 115.859375 198.375 116.601562 197.800781 C 117.34375 197.222656 118.035156 196.589844 118.675781 195.898438 C 119.3125 195.207031 119.890625 194.46875 120.40625 193.683594 C 120.925781 192.898438 121.375 192.074219 121.753906 191.214844 C 122.136719 190.355469 122.445312 189.46875 122.679688 188.558594 C 123.308594 182.097656 123.496094 175.625 123.234375 169.140625 C 123.238281 168.859375 123.265625 168.582031 123.320312 168.308594 C 123.375 168.03125 123.457031 167.765625 123.5625 167.507812 C 123.671875 167.246094 123.804688 167 123.960938 166.769531 C 124.117188 166.535156 124.292969 166.320312 124.492188 166.121094 C 124.6875 165.921875 124.90625 165.746094 125.136719 165.589844 C 125.371094 165.433594 125.617188 165.300781 125.875 165.191406 C 126.132812 165.085938 126.402344 165.003906 126.675781 164.949219 C 126.949219 164.894531 127.226562 164.867188 127.507812 164.863281 L 247.132812 164.863281 C 247.414062 164.867188 247.691406 164.894531 247.964844 164.949219 C 248.242188 165.003906 248.507812 165.085938 248.765625 165.195312 C 249.023438 165.300781 249.269531 165.433594 249.503906 165.589844 C 249.738281 165.746094 249.953125 165.921875 250.148438 166.121094 C 250.347656 166.320312 250.527344 166.535156 250.679688 166.769531 C 250.835938 167 250.96875 167.246094 251.078125 167.507812 C 251.183594 167.765625 251.265625 168.03125 251.320312 168.308594 C 251.375 168.582031 251.40625 168.859375 251.40625 169.140625 C 251.152344 175.625 251.335938 182.097656 251.960938 188.558594 C 252.195312 189.46875 252.503906 190.355469 252.886719 191.214844 C 253.265625 192.074219 253.714844 192.898438 254.234375 193.683594 C 254.75 194.46875 255.328125 195.207031 255.964844 195.898438 C 256.605469 196.589844 257.296875 197.222656 258.039062 197.800781 C 258.78125 198.375 259.566406 198.886719 260.394531 199.335938 C 261.222656 199.78125 262.078125 200.15625 262.96875 200.460938 C 263.859375 200.769531 264.765625 200.996094 265.695312 201.152344 C 266.621094 201.308594 267.554688 201.386719 268.496094 201.386719 L 281.3125 201.386719 C 282.152344 201.386719 282.988281 201.34375 283.824219 201.261719 C 284.660156 201.179688 285.488281 201.054688 286.3125 200.890625 C 287.132812 200.726562 287.949219 200.523438 288.75 200.277344 C 289.554688 200.035156 290.34375 199.75 291.117188 199.429688 C 291.894531 199.109375 292.652344 198.75 293.390625 198.351562 C 294.132812 197.957031 294.851562 197.523438 295.546875 197.058594 C 296.246094 196.589844 296.917969 196.089844 297.566406 195.558594 C 298.21875 195.023438 298.839844 194.460938 299.429688 193.867188 C 300.023438 193.273438 300.589844 192.648438 301.121094 192 C 301.652344 191.351562 302.152344 190.675781 302.617188 189.980469 C 303.085938 189.28125 303.515625 188.5625 303.914062 187.820312 C 304.308594 187.078125 304.667969 186.320312 304.988281 185.542969 C 305.308594 184.769531 305.59375 183.976562 305.835938 183.175781 C 306.082031 182.371094 306.285156 181.554688 306.449219 180.730469 C 306.613281 179.910156 306.738281 179.078125 306.820312 178.242188 C 306.902344 177.40625 306.945312 176.566406 306.945312 175.726562 L 306.945312 105.074219 C 306.945312 104.234375 306.902344 103.398438 306.820312 102.5625 C 306.738281 101.726562 306.613281 100.894531 306.449219 100.070312 C 306.285156 99.246094 306.082031 98.433594 305.835938 97.628906 C 305.59375 96.824219 305.308594 96.035156 304.988281 95.257812 C 304.667969 94.484375 304.308594 93.722656 303.914062 92.984375 C 303.515625 92.242188 303.085938 91.523438 302.621094 90.824219 C 302.152344 90.125 301.652344 89.453125 301.121094 88.800781 C 300.589844 88.152344 300.023438 87.53125 299.429688 86.9375 C 298.839844 86.34375 298.21875 85.777344 297.566406 85.246094 C 296.917969 84.710938 296.246094 84.210938 295.546875 83.746094 C 294.851562 83.277344 294.132812 82.847656 293.390625 82.449219 C 292.652344 82.054688 291.894531 81.695312 291.117188 81.375 C 290.34375 81.050781 289.554688 80.769531 288.75 80.523438 C 287.949219 80.28125 287.132812 80.074219 286.3125 79.910156 C 285.488281 79.746094 284.660156 79.625 283.824219 79.539062 C 282.988281 79.457031 282.152344 79.414062 281.3125 79.414062 Z M 131.78125 118.804688 C 131.777344 119.363281 131.722656 119.921875 131.613281 120.472656 C 131.5 121.019531 131.339844 121.554688 131.125 122.074219 C 130.90625 122.589844 130.644531 123.082031 130.332031 123.550781 C 130.019531 124.015625 129.667969 124.449219 129.269531 124.84375 C 128.875 125.242188 128.441406 125.597656 127.976562 125.90625 C 127.511719 126.21875 127.019531 126.484375 126.5 126.699219 C 125.984375 126.914062 125.449219 127.078125 124.902344 127.1875 C 124.351562 127.300781 123.796875 127.355469 123.234375 127.355469 L 97.601562 127.355469 C 97.042969 127.355469 96.484375 127.300781 95.9375 127.1875 C 95.386719 127.078125 94.851562 126.914062 94.335938 126.699219 C 93.816406 126.484375 93.328125 126.21875 92.859375 125.90625 C 92.394531 125.597656 91.964844 125.242188 91.566406 124.84375 C 91.171875 124.449219 90.816406 124.015625 90.503906 123.550781 C 90.191406 123.082031 89.929688 122.589844 89.714844 122.074219 C 89.5 121.554688 89.335938 121.019531 89.226562 120.472656 C 89.113281 119.921875 89.058594 119.363281 89.058594 118.804688 L 89.058594 110.25 C 89.058594 109.6875 89.113281 109.132812 89.226562 108.582031 C 89.335938 108.03125 89.5 107.5 89.714844 106.980469 C 89.929688 106.460938 90.191406 105.96875 90.503906 105.503906 C 90.816406 105.039062 91.171875 104.605469 91.566406 104.210938 C 91.964844 103.8125 92.394531 103.457031 92.859375 103.144531 C 93.328125 102.832031 93.816406 102.570312 94.335938 102.355469 C 94.851562 102.140625 95.386719 101.976562 95.9375 101.867188 C 96.484375 101.753906 97.042969 101.699219 97.601562 101.695312 L 123.234375 101.695312 C 123.796875 101.699219 124.351562 101.753906 124.902344 101.867188 C 125.449219 101.976562 125.984375 102.140625 126.5 102.355469 C 127.019531 102.570312 127.511719 102.832031 127.976562 103.144531 C 128.441406 103.457031 128.875 103.8125 129.269531 104.210938 C 129.667969 104.605469 130.019531 105.039062 130.332031 105.503906 C 130.644531 105.96875 130.90625 106.460938 131.125 106.980469 C 131.339844 107.5 131.5 108.03125 131.613281 108.582031 C 131.722656 109.132812 131.777344 109.6875 131.78125 110.25 Z M 131.78125 118.804688"/></g><path d="M 153.140625 216.417969 C 152.863281 216.417969 152.582031 216.445312 152.308594 216.5 C 152.035156 216.554688 151.765625 216.636719 151.507812 216.742188 C 151.246094 216.851562 151 216.980469 150.769531 217.136719 C 150.535156 217.292969 150.320312 217.472656 150.121094 217.671875 C 149.921875 217.867188 149.746094 218.085938 149.589844 218.320312 C 149.433594 218.550781 149.300781 218.796875 149.195312 219.058594 C 149.085938 219.316406 149.007812 219.585938 148.953125 219.859375 C 148.898438 220.136719 148.871094 220.414062 148.871094 220.695312 L 148.871094 260.433594 C 148.859375 261.183594 148.8125 261.929688 148.726562 262.671875 C 148.640625 263.414062 148.515625 264.152344 148.351562 264.882812 C 148.191406 265.613281 147.988281 266.332031 147.75 267.042969 C 147.511719 267.753906 147.238281 268.449219 146.925781 269.128906 C 146.613281 269.808594 146.269531 270.472656 145.886719 271.117188 C 145.507812 271.761719 145.09375 272.382812 144.648438 272.984375 C 144.203125 273.585938 143.726562 274.160156 143.222656 274.710938 C 142.714844 275.265625 142.183594 275.789062 141.621094 276.28125 C 141.0625 276.777344 140.476562 277.242188 139.867188 277.675781 C 139.257812 278.113281 138.628906 278.511719 137.976562 278.882812 C 137.328125 279.25 136.660156 279.582031 135.972656 279.878906 C 135.285156 280.179688 134.585938 280.441406 133.875 280.664062 C 133.160156 280.890625 132.4375 281.078125 131.703125 281.226562 C 130.972656 281.375 130.234375 281.488281 129.488281 281.558594 C 128.746094 281.628906 128 281.664062 127.25 281.65625 C 126.503906 281.652344 125.757812 281.605469 125.015625 281.519531 C 124.738281 281.523438 124.460938 281.554688 124.191406 281.613281 C 123.917969 281.671875 123.65625 281.753906 123.398438 281.863281 C 123.144531 281.972656 122.902344 282.105469 122.671875 282.261719 C 122.441406 282.421875 122.230469 282.597656 122.035156 282.796875 C 121.839844 282.992188 121.664062 283.210938 121.511719 283.441406 C 121.359375 283.671875 121.230469 283.917969 121.125 284.175781 C 121.019531 284.433594 120.941406 284.699219 120.886719 284.972656 C 120.832031 285.246094 120.804688 285.519531 120.804688 285.796875 C 120.804688 286.078125 120.832031 286.351562 120.886719 286.625 C 120.941406 286.898438 121.019531 287.164062 121.125 287.421875 C 121.230469 287.679688 121.359375 287.921875 121.511719 288.15625 C 121.664062 288.386719 121.839844 288.601562 122.035156 288.800781 C 122.230469 289 122.441406 289.175781 122.671875 289.332031 C 122.902344 289.488281 123.144531 289.621094 123.398438 289.730469 C 123.65625 289.839844 123.917969 289.925781 124.191406 289.980469 C 124.460938 290.039062 124.738281 290.070312 125.015625 290.074219 C 126.039062 290.160156 127.066406 290.191406 128.09375 290.171875 C 129.121094 290.152344 130.144531 290.078125 131.164062 289.953125 C 132.183594 289.828125 133.191406 289.648438 134.195312 289.417969 C 135.195312 289.1875 136.183594 288.90625 137.15625 288.574219 C 138.128906 288.242188 139.082031 287.863281 140.015625 287.433594 C 140.949219 287.003906 141.855469 286.523438 142.742188 286 C 143.625 285.476562 144.480469 284.910156 145.304688 284.296875 C 146.128906 283.683594 146.921875 283.03125 147.679688 282.335938 C 148.441406 281.644531 149.160156 280.914062 149.84375 280.144531 C 150.527344 279.375 151.167969 278.574219 151.769531 277.738281 C 152.371094 276.90625 152.925781 276.042969 153.4375 275.152344 C 153.949219 274.257812 154.414062 273.34375 154.832031 272.402344 C 155.25 271.464844 155.617188 270.503906 155.9375 269.527344 C 156.257812 268.550781 156.523438 267.558594 156.742188 266.550781 C 156.957031 265.546875 157.121094 264.53125 157.234375 263.511719 C 157.347656 262.488281 157.40625 261.460938 157.414062 260.433594 L 157.414062 220.695312 C 157.414062 220.414062 157.386719 220.136719 157.332031 219.859375 C 157.277344 219.585938 157.195312 219.316406 157.089844 219.058594 C 156.980469 218.796875 156.851562 218.550781 156.695312 218.320312 C 156.539062 218.085938 156.359375 217.867188 156.164062 217.671875 C 155.964844 217.472656 155.75 217.292969 155.515625 217.136719 C 155.28125 216.980469 155.035156 216.851562 154.777344 216.742188 C 154.519531 216.636719 154.25 216.554688 153.976562 216.5 C 153.699219 216.445312 153.421875 216.417969 153.140625 216.417969 Z M 153.140625 216.417969"/><path d="M 249.625 281.519531 C 248.882812 281.605469 248.136719 281.652344 247.390625 281.65625 C 246.640625 281.664062 245.894531 281.628906 245.152344 281.558594 C 244.40625 281.488281 243.667969 281.375 242.9375 281.226562 C 242.203125 281.078125 241.480469 280.890625 240.765625 280.664062 C 240.054688 280.441406 239.355469 280.179688 238.667969 279.878906 C 237.984375 279.582031 237.3125 279.25 236.664062 278.882812 C 236.011719 278.511719 235.382812 278.113281 234.773438 277.675781 C 234.164062 277.242188 233.578125 276.777344 233.019531 276.28125 C 232.457031 275.789062 231.925781 275.265625 231.417969 274.710938 C 230.914062 274.160156 230.4375 273.585938 229.992188 272.984375 C 229.546875 272.382812 229.132812 271.761719 228.753906 271.117188 C 228.371094 270.472656 228.027344 269.808594 227.714844 269.128906 C 227.40625 268.445312 227.128906 267.753906 226.890625 267.042969 C 226.652344 266.332031 226.453125 265.613281 226.289062 264.882812 C 226.125 264.152344 226 263.414062 225.914062 262.671875 C 225.828125 261.929688 225.78125 261.183594 225.773438 260.433594 L 225.769531 206.320312 C 225.765625 206.042969 225.734375 205.769531 225.679688 205.496094 C 225.621094 205.222656 225.539062 204.960938 225.429688 204.703125 C 225.320312 204.449219 225.1875 204.207031 225.03125 203.976562 C 224.871094 203.746094 224.695312 203.53125 224.496094 203.335938 C 224.300781 203.144531 224.085938 202.96875 223.851562 202.816406 C 223.621094 202.660156 223.375 202.53125 223.121094 202.425781 C 222.863281 202.320312 222.597656 202.242188 222.324219 202.1875 C 222.050781 202.132812 221.777344 202.109375 221.5 202.109375 C 221.222656 202.109375 220.945312 202.132812 220.671875 202.1875 C 220.402344 202.242188 220.136719 202.320312 219.878906 202.425781 C 219.621094 202.53125 219.378906 202.660156 219.144531 202.816406 C 218.914062 202.96875 218.699219 203.144531 218.5 203.339844 C 218.300781 203.535156 218.125 203.746094 217.96875 203.976562 C 217.8125 204.207031 217.679688 204.449219 217.570312 204.703125 C 217.460938 204.960938 217.378906 205.222656 217.320312 205.496094 C 217.261719 205.769531 217.230469 206.042969 217.226562 206.320312 L 217.226562 260.433594 C 217.234375 261.460938 217.292969 262.488281 217.40625 263.511719 C 217.519531 264.53125 217.683594 265.546875 217.898438 266.550781 C 218.117188 267.558594 218.382812 268.550781 218.703125 269.527344 C 219.023438 270.503906 219.390625 271.464844 219.808594 272.402344 C 220.226562 273.34375 220.691406 274.257812 221.203125 275.152344 C 221.714844 276.042969 222.269531 276.90625 222.871094 277.738281 C 223.472656 278.574219 224.113281 279.375 224.796875 280.144531 C 225.480469 280.914062 226.203125 281.644531 226.960938 282.335938 C 227.71875 283.03125 228.511719 283.683594 229.335938 284.296875 C 230.160156 284.910156 231.015625 285.476562 231.902344 286 C 232.785156 286.523438 233.695312 287 234.628906 287.433594 C 235.558594 287.863281 236.511719 288.242188 237.484375 288.574219 C 238.457031 288.90625 239.445312 289.1875 240.445312 289.417969 C 241.449219 289.648438 242.457031 289.828125 243.480469 289.953125 C 244.5 290.078125 245.523438 290.152344 246.550781 290.171875 C 247.578125 290.191406 248.601562 290.160156 249.625 290.074219 C 249.902344 290.070312 250.175781 290.039062 250.449219 289.980469 C 250.71875 289.921875 250.980469 289.835938 251.234375 289.726562 C 251.492188 289.617188 251.730469 289.484375 251.960938 289.324219 C 252.191406 289.167969 252.402344 288.992188 252.59375 288.792969 C 252.789062 288.597656 252.960938 288.378906 253.113281 288.148438 C 253.265625 287.917969 253.394531 287.671875 253.5 287.417969 C 253.605469 287.160156 253.683594 286.894531 253.738281 286.621094 C 253.792969 286.351562 253.816406 286.074219 253.816406 285.796875 C 253.816406 285.519531 253.792969 285.246094 253.738281 284.972656 C 253.683594 284.699219 253.605469 284.4375 253.5 284.179688 C 253.394531 283.921875 253.265625 283.679688 253.113281 283.445312 C 252.960938 283.214844 252.789062 283 252.59375 282.800781 C 252.402344 282.605469 252.1875 282.425781 251.960938 282.269531 C 251.730469 282.113281 251.492188 281.980469 251.234375 281.871094 C 250.980469 281.761719 250.71875 281.675781 250.449219 281.617188 C 250.175781 281.558594 249.902344 281.527344 249.625 281.519531 Z M 249.625 281.519531"/><path d="M 187.320312 202.042969 C 187.039062 202.042969 186.761719 202.070312 186.488281 202.125 C 186.210938 202.179688 185.945312 202.261719 185.683594 202.371094 C 185.425781 202.476562 185.179688 202.609375 184.945312 202.765625 C 184.714844 202.921875 184.496094 203.097656 184.300781 203.296875 C 184.101562 203.496094 183.925781 203.710938 183.769531 203.945312 C 183.613281 204.179688 183.480469 204.425781 183.375 204.683594 C 183.265625 204.945312 183.183594 205.210938 183.128906 205.488281 C 183.074219 205.761719 183.046875 206.039062 183.046875 206.320312 L 183.046875 290.785156 C 183.046875 291.066406 183.074219 291.347656 183.128906 291.621094 C 183.183594 291.898438 183.265625 292.164062 183.375 292.421875 C 183.480469 292.683594 183.613281 292.929688 183.769531 293.164062 C 183.925781 293.394531 184.101562 293.613281 184.300781 293.8125 C 184.496094 294.007812 184.714844 294.1875 184.945312 294.34375 C 185.179688 294.5 185.425781 294.628906 185.683594 294.738281 C 185.945312 294.84375 186.210938 294.925781 186.488281 294.980469 C 186.761719 295.035156 187.039062 295.0625 187.320312 295.0625 C 187.601562 295.0625 187.878906 295.035156 188.152344 294.980469 C 188.429688 294.925781 188.695312 294.84375 188.957031 294.738281 C 189.214844 294.628906 189.460938 294.5 189.695312 294.34375 C 189.925781 294.1875 190.144531 294.007812 190.339844 293.8125 C 190.539062 293.613281 190.71875 293.394531 190.871094 293.164062 C 191.027344 292.929688 191.160156 292.683594 191.265625 292.421875 C 191.375 292.164062 191.457031 291.898438 191.511719 291.621094 C 191.566406 291.347656 191.59375 291.066406 191.59375 290.785156 L 191.59375 206.320312 C 191.59375 206.039062 191.566406 205.761719 191.511719 205.488281 C 191.457031 205.210938 191.375 204.945312 191.265625 204.683594 C 191.160156 204.425781 191.027344 204.179688 190.871094 203.945312 C 190.71875 203.710938 190.539062 203.496094 190.339844 203.296875 C 190.144531 203.097656 189.925781 202.921875 189.695312 202.765625 C 189.460938 202.609375 189.214844 202.476562 188.957031 202.371094 C 188.695312 202.261719 188.429688 202.179688 188.152344 202.125 C 187.878906 202.070312 187.601562 202.042969 187.320312 202.042969 Z M 187.320312 202.042969"/><path d="M 153.140625 209.707031 C 153.417969 209.699219 153.691406 209.667969 153.964844 209.609375 C 154.234375 209.550781 154.496094 209.46875 154.75 209.355469 C 155.007812 209.246094 155.246094 209.113281 155.476562 208.957031 C 155.703125 208.800781 155.914062 208.621094 156.109375 208.425781 C 156.304688 208.226562 156.476562 208.011719 156.628906 207.78125 C 156.78125 207.546875 156.910156 207.304688 157.015625 207.046875 C 157.121094 206.789062 157.199219 206.527344 157.253906 206.253906 C 157.304688 205.980469 157.332031 205.707031 157.332031 205.429688 C 157.332031 205.152344 157.304688 204.878906 157.253906 204.605469 C 157.199219 204.332031 157.121094 204.070312 157.015625 203.8125 C 156.910156 203.554688 156.78125 203.3125 156.628906 203.078125 C 156.476562 202.847656 156.304688 202.632812 156.109375 202.433594 C 155.914062 202.238281 155.703125 202.058594 155.476562 201.902344 C 155.246094 201.746094 155.007812 201.613281 154.75 201.503906 C 154.496094 201.390625 154.234375 201.308594 153.964844 201.25 C 153.691406 201.191406 153.417969 201.160156 153.140625 201.152344 C 152.863281 201.160156 152.589844 201.191406 152.320312 201.25 C 152.050781 201.308594 151.785156 201.390625 151.53125 201.503906 C 151.277344 201.613281 151.035156 201.746094 150.808594 201.902344 C 150.578125 202.058594 150.367188 202.238281 150.175781 202.433594 C 149.980469 202.632812 149.808594 202.847656 149.65625 203.078125 C 149.503906 203.3125 149.375 203.554688 149.269531 203.8125 C 149.164062 204.070312 149.085938 204.332031 149.03125 204.605469 C 148.980469 204.878906 148.953125 205.152344 148.953125 205.429688 C 148.953125 205.707031 148.980469 205.980469 149.03125 206.253906 C 149.085938 206.527344 149.164062 206.789062 149.269531 207.046875 C 149.375 207.304688 149.503906 207.546875 149.65625 207.78125 C 149.808594 208.011719 149.980469 208.226562 150.175781 208.425781 C 150.367188 208.621094 150.578125 208.800781 150.808594 208.957031 C 151.035156 209.113281 151.277344 209.246094 151.53125 209.359375 C 151.785156 209.46875 152.050781 209.550781 152.320312 209.609375 C 152.589844 209.667969 152.863281 209.699219 153.140625 209.707031 Z M 153.140625 209.707031"/><path d="M 263.429688 281.519531 C 263.152344 281.527344 262.878906 281.558594 262.609375 281.617188 C 262.339844 281.675781 262.074219 281.761719 261.820312 281.871094 C 261.566406 281.980469 261.324219 282.113281 261.097656 282.269531 C 260.867188 282.425781 260.65625 282.605469 260.464844 282.800781 C 260.269531 283 260.097656 283.214844 259.945312 283.445312 C 259.792969 283.679688 259.664062 283.921875 259.558594 284.179688 C 259.453125 284.4375 259.375 284.699219 259.320312 284.972656 C 259.269531 285.246094 259.242188 285.519531 259.242188 285.796875 C 259.242188 286.074219 259.269531 286.347656 259.320312 286.621094 C 259.375 286.894531 259.453125 287.15625 259.558594 287.414062 C 259.664062 287.671875 259.792969 287.914062 259.945312 288.148438 C 260.097656 288.378906 260.269531 288.59375 260.464844 288.792969 C 260.65625 288.992188 260.867188 289.167969 261.097656 289.324219 C 261.324219 289.480469 261.566406 289.613281 261.820312 289.726562 C 262.078125 289.835938 262.339844 289.917969 262.609375 289.976562 C 262.878906 290.035156 263.15625 290.070312 263.429688 290.074219 C 263.707031 290.070312 263.980469 290.035156 264.253906 289.976562 C 264.523438 289.917969 264.785156 289.835938 265.039062 289.726562 C 265.296875 289.613281 265.535156 289.480469 265.765625 289.324219 C 265.992188 289.167969 266.203125 288.992188 266.398438 288.792969 C 266.59375 288.59375 266.765625 288.378906 266.917969 288.148438 C 267.070312 287.914062 267.199219 287.671875 267.304688 287.414062 C 267.410156 287.15625 267.488281 286.894531 267.539062 286.621094 C 267.59375 286.347656 267.621094 286.074219 267.621094 285.796875 C 267.621094 285.519531 267.59375 285.246094 267.539062 284.972656 C 267.488281 284.699219 267.410156 284.4375 267.304688 284.179688 C 267.199219 283.921875 267.070312 283.679688 266.917969 283.445312 C 266.765625 283.214844 266.59375 283 266.398438 282.800781 C 266.203125 282.605469 265.992188 282.425781 265.765625 282.269531 C 265.535156 282.113281 265.296875 281.980469 265.039062 281.871094 C 264.785156 281.761719 264.523438 281.675781 264.253906 281.617188 C 263.980469 281.558594 263.707031 281.527344 263.429688 281.519531 Z M 263.429688 281.519531"/><path d="M 243.246094 188.558594 C 242.855469 183.519531 242.726562 178.472656 242.859375 173.417969 L 131.78125 173.417969 C 131.925781 178.46875 131.808594 183.515625 131.4375 188.558594 Z M 243.246094 188.558594"/><path d="M 97.601562 110.25 L 123.234375 110.25 L 123.234375 118.800781 L 97.601562 118.800781 Z M 97.601562 110.25"/></svg>