<svg xmlns="http://www.w3.org/2000/svg" width="375" viewBox="0 0 375 375" height="375" version="1.0"><defs><clipPath id="a"><path d="M 8.28125 8.28125 L 366.78125 8.28125 L 366.78125 366.78125 L 8.28125 366.78125 Z M 8.28125 8.28125"/></clipPath><clipPath id="b"><path d="M 86 85.160156 L 193 85.160156 L 193 192 L 86 192 Z M 86 85.160156"/></clipPath><clipPath id="c"><path d="M 185 184.234375 L 291.59375 184.234375 L 291.59375 289.910156 L 185 289.910156 Z M 185 184.234375"/></clipPath><clipPath id="d"><path d="M 83.75 94.597656 L 280 94.597656 L 280 289.910156 L 83.75 289.910156 Z M 83.75 94.597656"/></clipPath></defs><g clip-path="url(#a)"><path fill="#FB0" d="M 366.78125 187.53125 C 366.78125 190.464844 366.710938 193.398438 366.566406 196.328125 C 366.421875 199.257812 366.207031 202.183594 365.917969 205.101562 C 365.632812 208.019531 365.273438 210.929688 364.84375 213.832031 C 364.410156 216.734375 363.910156 219.625 363.335938 222.5 C 362.765625 225.378906 362.121094 228.242188 361.410156 231.085938 C 360.695312 233.933594 359.914062 236.757812 359.0625 239.566406 C 358.210938 242.371094 357.292969 245.15625 356.304688 247.917969 C 355.316406 250.679688 354.261719 253.417969 353.136719 256.128906 C 352.015625 258.839844 350.828125 261.519531 349.570312 264.171875 C 348.316406 266.824219 347 269.441406 345.617188 272.03125 C 344.234375 274.617188 342.789062 277.167969 341.28125 279.683594 C 339.773438 282.199219 338.203125 284.679688 336.574219 287.117188 C 334.941406 289.558594 333.253906 291.953125 331.507812 294.3125 C 329.757812 296.667969 327.957031 298.980469 326.09375 301.246094 C 324.234375 303.515625 322.316406 305.734375 320.347656 307.910156 C 318.378906 310.082031 316.355469 312.207031 314.28125 314.28125 C 312.207031 316.355469 310.082031 318.378906 307.910156 320.347656 C 305.734375 322.316406 303.515625 324.234375 301.246094 326.09375 C 298.980469 327.957031 296.667969 329.757812 294.3125 331.507812 C 291.953125 333.253906 289.558594 334.941406 287.117188 336.574219 C 284.679688 338.203125 282.199219 339.773438 279.683594 341.28125 C 277.167969 342.789062 274.617188 344.234375 272.03125 345.617188 C 269.441406 347 266.824219 348.316406 264.171875 349.570312 C 261.519531 350.828125 258.839844 352.015625 256.128906 353.136719 C 253.417969 354.261719 250.679688 355.316406 247.917969 356.304688 C 245.15625 357.292969 242.371094 358.210938 239.566406 359.0625 C 236.757812 359.914062 233.933594 360.699219 231.085938 361.410156 C 228.242188 362.121094 225.378906 362.765625 222.5 363.335938 C 219.625 363.910156 216.734375 364.410156 213.832031 364.84375 C 210.929688 365.273438 208.019531 365.632812 205.101562 365.917969 C 202.183594 366.207031 199.257812 366.421875 196.328125 366.566406 C 193.398438 366.710938 190.464844 366.78125 187.53125 366.78125 C 184.597656 366.78125 181.667969 366.710938 178.738281 366.566406 C 175.804688 366.421875 172.882812 366.207031 169.960938 365.917969 C 167.042969 365.632812 164.132812 365.273438 161.230469 364.84375 C 158.328125 364.410156 155.4375 363.910156 152.5625 363.335938 C 149.683594 362.765625 146.824219 362.121094 143.976562 361.410156 C 141.132812 360.695312 138.304688 359.914062 135.5 359.0625 C 132.691406 358.210938 129.90625 357.292969 127.144531 356.304688 C 124.382812 355.316406 121.644531 354.261719 118.9375 353.136719 C 116.226562 352.015625 113.542969 350.828125 110.894531 349.570312 C 108.242188 348.316406 105.621094 347 103.035156 345.617188 C 100.445312 344.234375 97.894531 342.789062 95.378906 341.28125 C 92.863281 339.773438 90.386719 338.203125 87.945312 336.574219 C 85.507812 334.941406 83.109375 333.253906 80.753906 331.507812 C 78.398438 329.757812 76.085938 327.957031 73.816406 326.09375 C 71.550781 324.234375 69.328125 322.316406 67.15625 320.347656 C 64.980469 318.378906 62.855469 316.355469 60.78125 314.28125 C 58.707031 312.207031 56.6875 310.082031 54.714844 307.910156 C 52.746094 305.734375 50.832031 303.515625 48.96875 301.246094 C 47.109375 298.980469 45.304688 296.667969 43.558594 294.3125 C 41.808594 291.953125 40.121094 289.558594 38.492188 287.117188 C 36.859375 284.679688 35.292969 282.199219 33.785156 279.683594 C 32.277344 277.167969 30.832031 274.617188 29.449219 272.03125 C 28.066406 269.441406 26.746094 266.824219 25.492188 264.171875 C 24.238281 261.519531 23.050781 258.839844 21.925781 256.128906 C 20.804688 253.417969 19.75 250.679688 18.761719 247.917969 C 17.773438 245.15625 16.851562 242.371094 16 239.566406 C 15.148438 236.757812 14.367188 233.933594 13.652344 231.085938 C 12.941406 228.242188 12.296875 225.378906 11.726562 222.5 C 11.152344 219.625 10.652344 216.734375 10.222656 213.832031 C 9.792969 210.929688 9.433594 208.019531 9.144531 205.101562 C 8.859375 202.183594 8.640625 199.257812 8.496094 196.328125 C 8.355469 193.398438 8.28125 190.464844 8.28125 187.53125 C 8.28125 184.597656 8.355469 181.667969 8.496094 178.738281 C 8.640625 175.804688 8.859375 172.882812 9.144531 169.960938 C 9.433594 167.042969 9.792969 164.132812 10.222656 161.230469 C 10.652344 158.328125 11.152344 155.4375 11.726562 152.5625 C 12.296875 149.683594 12.941406 146.824219 13.652344 143.976562 C 14.367188 141.132812 15.148438 138.304688 16 135.5 C 16.851562 132.691406 17.773438 129.90625 18.761719 127.144531 C 19.75 124.382812 20.804688 121.644531 21.925781 118.9375 C 23.050781 116.226562 24.238281 113.542969 25.492188 110.894531 C 26.746094 108.242188 28.066406 105.621094 29.449219 103.035156 C 30.832031 100.445312 32.277344 97.894531 33.785156 95.378906 C 35.292969 92.863281 36.859375 90.386719 38.492188 87.945312 C 40.121094 85.507812 41.808594 83.109375 43.558594 80.753906 C 45.304688 78.398438 47.109375 76.085938 48.96875 73.816406 C 50.832031 71.550781 52.746094 69.328125 54.714844 67.15625 C 56.6875 64.980469 58.707031 62.859375 60.78125 60.78125 C 62.855469 58.707031 64.980469 56.6875 67.15625 54.714844 C 69.328125 52.746094 71.550781 50.832031 73.816406 48.96875 C 76.085938 47.109375 78.398438 45.304688 80.753906 43.558594 C 83.109375 41.808594 85.507812 40.121094 87.945312 38.492188 C 90.386719 36.859375 92.863281 35.292969 95.378906 33.785156 C 97.894531 32.277344 100.445312 30.832031 103.035156 29.449219 C 105.621094 28.066406 108.242188 26.746094 110.894531 25.492188 C 113.542969 24.238281 116.226562 23.050781 118.9375 21.925781 C 121.644531 20.804688 124.382812 19.75 127.144531 18.761719 C 129.90625 17.773438 132.691406 16.851562 135.5 16 C 138.304688 15.148438 141.132812 14.367188 143.976562 13.652344 C 146.824219 12.941406 149.683594 12.296875 152.5625 11.726562 C 155.4375 11.152344 158.328125 10.652344 161.230469 10.222656 C 164.132812 9.792969 167.042969 9.433594 169.960938 9.144531 C 172.882812 8.859375 175.804688 8.640625 178.738281 8.496094 C 181.667969 8.355469 184.597656 8.28125 187.53125 8.28125 C 190.464844 8.28125 193.398438 8.355469 196.328125 8.496094 C 199.257812 8.640625 202.183594 8.859375 205.101562 9.144531 C 208.019531 9.433594 210.929688 9.792969 213.832031 10.222656 C 216.734375 10.652344 219.625 11.152344 222.5 11.726562 C 225.378906 12.296875 228.242188 12.941406 231.085938 13.652344 C 233.933594 14.367188 236.757812 15.148438 239.566406 16 C 242.371094 16.851562 245.15625 17.773438 247.917969 18.761719 C 250.679688 19.75 253.417969 20.804688 256.128906 21.925781 C 258.839844 23.050781 261.519531 24.238281 264.171875 25.492188 C 266.824219 26.746094 269.441406 28.066406 272.03125 29.449219 C 274.617188 30.832031 277.167969 32.277344 279.683594 33.785156 C 282.199219 35.292969 284.679688 36.859375 287.117188 38.492188 C 289.558594 40.121094 291.953125 41.808594 294.3125 43.558594 C 296.667969 45.304688 298.980469 47.109375 301.246094 48.96875 C 303.515625 50.832031 305.734375 52.746094 307.910156 54.714844 C 310.082031 56.6875 312.207031 58.707031 314.28125 60.78125 C 316.355469 62.859375 318.378906 64.980469 320.347656 67.15625 C 322.316406 69.328125 324.234375 71.550781 326.09375 73.816406 C 327.957031 76.085938 329.757812 78.398438 331.507812 80.753906 C 333.253906 83.109375 334.941406 85.507812 336.574219 87.945312 C 338.203125 90.386719 339.773438 92.863281 341.28125 95.378906 C 342.789062 97.894531 344.234375 100.445312 345.617188 103.035156 C 347 105.621094 348.316406 108.242188 349.570312 110.894531 C 350.828125 113.542969 352.015625 116.226562 353.136719 118.9375 C 354.261719 121.644531 355.316406 124.382812 356.304688 127.144531 C 357.292969 129.90625 358.210938 132.691406 359.0625 135.5 C 359.914062 138.304688 360.695312 141.132812 361.410156 143.976562 C 362.121094 146.824219 362.765625 149.683594 363.335938 152.5625 C 363.910156 155.4375 364.410156 158.328125 364.84375 161.230469 C 365.273438 164.132812 365.632812 167.042969 365.917969 169.960938 C 366.207031 172.882812 366.421875 175.804688 366.566406 178.738281 C 366.710938 181.667969 366.78125 184.597656 366.78125 187.53125 Z M 366.78125 187.53125"/></g><path fill="#FB0" d="M 194.203125 107.140625 L 189.449219 115.082031 L 189.394531 112.101562 C 189.289062 110.894531 188.464844 109.65625 187.113281 109.65625 L 180.125 109.195312 L 185.363281 101.15625 L 185.394531 104.328125 C 185.394531 105.75 186.515625 106.636719 187.824219 106.769531 Z M 194.203125 107.140625"/><path fill="#FB0" d="M 220.75 118.5 C 226.800781 120.539062 228.121094 122.511719 228.121094 123.085938 C 228.121094 123.8125 226.328125 126.203125 218.128906 128.476562 C 217.296875 128.707031 216.449219 128.925781 215.609375 129.113281 C 215.457031 129.148438 215.300781 129.183594 215.148438 129.226562 C 215.089844 129.234375 215.035156 129.246094 214.980469 129.269531 C 207.25 131.003906 197.347656 131.964844 187.089844 131.964844 C 176.820312 131.964844 167.003906 131.011719 159.300781 129.289062 C 159.070312 129.15625 158.808594 129.058594 158.523438 129.007812 C 158.332031 128.976562 158.136719 128.96875 157.957031 128.976562 C 156.984375 128.742188 156.023438 128.484375 155.070312 128.199219 C 147.667969 125.992188 146.050781 123.757812 146.050781 123.078125 C 146.050781 122.414062 147.417969 120.664062 152.585938 118.792969 C 152.59375 118.785156 152.605469 118.785156 152.613281 118.785156 C 152.65625 118.773438 152.695312 118.75 152.746094 118.730469 C 152.933594 118.648438 153.101562 118.542969 153.25 118.421875 C 153.292969 118.386719 153.335938 118.351562 153.382812 118.3125 C 153.40625 118.289062 153.433594 118.269531 153.453125 118.242188 C 153.566406 118.128906 153.664062 118.015625 153.746094 117.882812 C 153.84375 117.742188 153.929688 117.601562 153.992188 117.441406 C 154.125 117.128906 154.195312 116.792969 154.1875 116.441406 C 154.585938 98.957031 169.125 84.742188 186.644531 84.742188 C 204.289062 84.742188 218.523438 98.53125 219.082031 116.148438 C 219.082031 116.175781 219.082031 116.203125 219.089844 116.230469 C 219.089844 116.316406 219.097656 116.398438 219.109375 116.476562 C 219.144531 116.796875 219.25 117.097656 219.40625 117.371094 C 219.476562 117.503906 219.566406 117.632812 219.671875 117.75 C 219.761719 117.871094 219.875 117.972656 220 118.074219 C 220.054688 118.121094 220.113281 118.15625 220.175781 118.199219 C 220.316406 118.289062 220.460938 118.375 220.628906 118.429688 C 220.664062 118.472656 220.699219 118.484375 220.75 118.5 Z M 200.480469 106.183594 C 200.917969 105.449219 200.941406 104.539062 200.542969 103.78125 C 200.140625 103.019531 199.371094 102.535156 198.519531 102.484375 L 190.261719 102.011719 L 190.164062 93.027344 C 190.152344 91.949219 189.4375 91.003906 188.394531 90.710938 C 187.363281 90.40625 186.25 90.820312 185.664062 91.722656 L 173.730469 110.035156 C 173.253906 110.761719 173.199219 111.6875 173.589844 112.464844 C 173.976562 113.242188 174.753906 113.753906 175.613281 113.816406 L 184.527344 114.402344 L 184.6875 123.730469 C 184.710938 124.824219 185.453125 125.769531 186.503906 126.046875 C 186.710938 126.105469 186.921875 126.132812 187.132812 126.132812 C 187.980469 126.132812 188.785156 125.691406 189.234375 124.941406 Z M 200.480469 106.183594"/><path fill="#FB0" d="M 214.230469 135.96875 C 214.355469 137.378906 214.417969 138.796875 214.417969 140.207031 C 214.417969 153.523438 208.929688 165.183594 200.792969 171.441406 C 200.722656 171.484375 200.652344 171.539062 200.589844 171.601562 C 196.605469 174.605469 192 176.320312 187.097656 176.320312 C 182.554688 176.320312 178.261719 174.851562 174.496094 172.246094 C 174.488281 172.238281 174.488281 172.238281 174.488281 172.238281 C 174.390625 172.164062 174.292969 172.085938 174.1875 172.03125 C 165.609375 165.929688 159.777344 153.957031 159.777344 140.21875 C 159.777344 138.828125 159.839844 137.410156 159.964844 136.027344 C 159.972656 136.019531 159.972656 136.003906 159.972656 135.996094 C 159.972656 135.984375 159.972656 135.96875 159.972656 135.949219 C 160.015625 135.464844 160.070312 134.976562 160.132812 134.484375 C 167.871094 136.046875 177.308594 136.886719 187.113281 136.886719 C 196.878906 136.886719 206.351562 136.039062 214.089844 134.484375 C 214.125 134.960938 214.1875 135.464844 214.230469 135.96875 Z M 214.230469 135.96875"/><path fill="#FB0" d="M 199.703125 177.933594 L 199.703125 186.46875 L 187.53125 200.570312 L 175.363281 186.460938 L 175.363281 178.394531 C 179.003906 180.207031 182.953125 181.203125 187.089844 181.203125 C 191.558594 181.203125 195.824219 180.039062 199.703125 177.933594 Z M 199.703125 177.933594"/><path fill="#FB0" d="M 251.535156 224.734375 L 251.535156 287.910156 C 251.535156 289.226562 250.464844 290.300781 249.148438 290.300781 L 233.480469 290.300781 L 233.480469 199.574219 C 244.304688 203.214844 251.535156 213.242188 251.535156 224.734375 Z M 251.535156 224.734375"/><path fill="#FB0" d="M 141.835938 199.492188 L 141.835938 290.300781 L 125.914062 290.300781 C 124.597656 290.300781 123.527344 289.226562 123.527344 287.910156 L 123.527344 224.734375 C 123.527344 213.160156 130.863281 203.070312 141.835938 199.492188 Z M 141.835938 199.492188"/><path fill="#FB0" d="M 172.070312 190.144531 L 183.898438 203.855469 L 172.625 211.652344 L 162.074219 193.230469 Z M 172.070312 190.144531"/><path fill="#FB0" d="M 212.992188 193.230469 L 202.4375 211.652344 L 191.164062 203.855469 L 202.992188 190.144531 Z M 212.992188 193.230469"/><path fill="#FB0" d="M 228.585938 198.054688 L 228.585938 290.308594 L 146.722656 290.308594 L 146.722656 197.980469 L 157.277344 194.714844 L 169.699219 216.402344 C 170.035156 216.996094 170.609375 217.417969 171.28125 217.570312 C 171.953125 217.71875 172.652344 217.585938 173.214844 217.191406 L 187.53125 207.292969 L 201.851562 217.191406 C 202.265625 217.480469 202.746094 217.625 203.246094 217.625 C 203.425781 217.625 203.609375 217.605469 203.789062 217.570312 C 204.457031 217.417969 205.03125 216.988281 205.371094 216.402344 L 217.792969 194.714844 Z M 228.585938 198.054688"/><g clip-path="url(#b)"><path fill="#040606" d="M 128.476562 153.992188 C 130.855469 154.027344 134.730469 155.539062 136.464844 157.273438 L 169.3125 190.074219 C 169.992188 190.738281 170.859375 191.070312 171.730469 191.070312 C 172.597656 191.070312 173.480469 190.738281 174.144531 190.074219 C 175.472656 188.75 175.472656 186.59375 174.144531 185.265625 L 141.300781 152.460938 C 138.273438 149.441406 132.792969 147.171875 128.511719 147.171875 C 128.496094 147.171875 128.476562 147.171875 128.457031 147.171875 C 128.238281 147.191406 110.136719 147.171875 101.664062 138.714844 C 94.96875 132.023438 93.546875 119.199219 93.25 114.113281 L 105.464844 126.292969 C 109.175781 129.996094 115.210938 129.996094 118.898438 126.292969 L 127.535156 117.6875 C 129.324219 115.898438 130.304688 113.523438 130.304688 110.980469 C 130.304688 108.4375 129.324219 106.058594 127.535156 104.273438 L 115.320312 92.070312 C 120.414062 92.367188 133.253906 93.765625 139.953125 100.457031 C 148.386719 108.898438 148.441406 127.050781 148.441406 127.214844 C 148.421875 131.507812 150.691406 137.019531 153.71875 140.042969 L 186.5625 172.84375 C 187.894531 174.171875 190.050781 174.171875 191.378906 172.84375 C 192.726562 171.519531 192.726562 169.363281 191.378906 168.035156 L 158.535156 135.230469 C 156.820312 133.5 155.25 129.703125 155.25 127.253906 C 155.269531 126.386719 155.230469 106.078125 144.789062 95.648438 C 134.324219 85.199219 113.917969 85.179688 113.125 85.179688 C 108.804688 85.214844 107.367188 87.574219 106.960938 88.589844 C 106.535156 89.601562 105.890625 92.273438 108.953125 95.332031 L 122.71875 109.082031 C 123.769531 110.113281 123.769531 111.828125 122.71875 112.878906 L 114.101562 121.484375 C 113.050781 122.535156 111.335938 122.535156 110.28125 121.484375 L 96.535156 107.734375 C 93.472656 104.695312 90.777344 105.339844 89.765625 105.746094 C 88.75 106.167969 86.386719 107.605469 86.367188 111.917969 C 86.367188 112.785156 86.386719 133.074219 96.847656 143.523438 C 107.292969 153.972656 127.644531 153.992188 128.476562 153.992188"/></g><g clip-path="url(#c)"><path fill="#040606" d="M 281.113281 231.816406 C 270.835938 221.550781 251.035156 221.347656 249.542969 221.347656 C 249.484375 221.347656 249.46875 221.347656 249.449219 221.347656 C 246.996094 221.347656 243.210938 219.78125 241.496094 218.070312 L 208.632812 185.265625 C 207.304688 183.9375 205.144531 183.9375 203.816406 185.265625 C 202.488281 186.59375 202.488281 188.75 203.816406 190.074219 L 236.660156 222.878906 C 239.6875 225.902344 245.167969 228.148438 249.449219 228.148438 C 249.46875 228.148438 249.484375 228.148438 249.503906 228.148438 C 249.78125 228.203125 267.828125 228.167969 276.296875 236.625 C 282.996094 243.316406 284.398438 256.140625 284.691406 261.230469 L 272.496094 249.027344 C 270.707031 247.242188 268.324219 246.265625 265.761719 246.265625 C 263.214844 246.265625 260.835938 247.242188 259.042969 249.027344 L 250.425781 257.652344 C 246.71875 261.359375 246.71875 267.382812 250.425781 271.070312 L 262.625 283.269531 C 257.53125 282.972656 244.726562 281.59375 238.007812 274.882812 C 229.558594 266.445312 229.519531 248.292969 229.519531 248.105469 C 229.539062 243.832031 227.269531 238.320312 224.242188 235.300781 L 191.378906 202.476562 C 190.070312 201.152344 187.894531 201.152344 186.5625 202.476562 C 185.234375 203.824219 185.234375 205.960938 186.5625 207.304688 L 219.410156 240.109375 C 221.160156 241.839844 222.710938 245.636719 222.695312 248.089844 C 222.695312 248.9375 222.710938 269.246094 233.175781 279.695312 C 243.453125 289.941406 263.25 290.144531 264.765625 290.144531 C 264.800781 290.144531 264.820312 290.144531 264.839844 290.144531 C 269.136719 290.125 270.578125 287.765625 271 286.753906 C 271.40625 285.738281 272.054688 283.046875 269.007812 280.007812 L 255.242188 266.257812 C 254.191406 265.210938 254.191406 263.515625 255.242188 262.464844 L 263.878906 253.855469 C 264.914062 252.808594 266.628906 252.808594 267.679688 253.855469 L 281.425781 267.585938 C 284.472656 270.628906 287.183594 270 288.199219 269.578125 C 289.214844 269.171875 291.574219 267.734375 291.59375 263.421875 C 291.59375 262.554688 291.574219 242.246094 281.113281 231.816406"/></g><g clip-path="url(#d)"><path fill="#040606" d="M 168.460938 226.5625 L 162.246094 232.773438 L 141.191406 211.746094 L 147.410156 205.554688 C 147.90625 205.039062 148.589844 204.761719 149.308594 204.761719 C 150.027344 204.761719 150.691406 205.039062 151.210938 205.554688 L 168.460938 222.769531 C 169.515625 223.816406 169.515625 225.53125 168.460938 226.5625 Z M 112.40625 282.550781 C 111.390625 283.5625 109.617188 283.5625 108.605469 282.550781 L 91.351562 265.320312 C 90.835938 264.820312 90.558594 264.140625 90.558594 263.421875 C 90.558594 262.722656 90.835938 262.039062 91.351562 261.523438 L 136.375 216.558594 L 157.429688 237.585938 Z M 250.886719 119.417969 L 265.722656 104.601562 L 269.542969 108.398438 L 254.707031 123.214844 C 253.675781 124.230469 251.902344 124.230469 250.886719 123.214844 C 250.390625 122.699219 250.09375 122.035156 250.09375 121.316406 C 250.09375 120.597656 250.390625 119.917969 250.886719 119.417969 Z M 167.058594 211.746094 L 248.933594 129.980469 C 250.132812 130.515625 251.441406 130.808594 252.789062 130.808594 C 255.335938 130.808594 257.714844 129.832031 259.523438 128.027344 L 279.15625 108.398438 L 265.722656 94.964844 L 246.074219 114.589844 C 244.265625 116.398438 243.285156 118.773438 243.285156 121.316406 C 243.285156 122.664062 243.582031 123.953125 244.117188 125.167969 L 162.246094 206.9375 L 156.027344 200.726562 C 154.234375 198.941406 151.855469 197.945312 149.308594 197.945312 C 146.761719 197.945312 144.382812 198.941406 142.59375 200.726562 L 86.535156 256.714844 C 84.726562 258.519531 83.75 260.898438 83.75 263.441406 C 83.75 265.964844 84.746094 268.359375 86.535156 270.128906 L 103.789062 287.359375 C 105.578125 289.167969 107.957031 290.144531 110.503906 290.144531 C 113.03125 290.144531 115.429688 289.167969 117.222656 287.359375 L 173.277344 231.390625 C 176.988281 227.6875 176.988281 221.664062 173.277344 217.957031 L 167.058594 211.746094"/></g></svg>