<svg xmlns="http://www.w3.org/2000/svg" width="375" viewBox="0 0 375 375" height="375" version="1.0"><defs><clipPath id="a"><path d="M 8.28125 8.28125 L 366.78125 8.28125 L 366.78125 366.78125 L 8.28125 366.78125 Z M 8.28125 8.28125"/></clipPath><clipPath id="b"><path d="M 70.304688 70.890625 L 305 70.890625 L 305 304.140625 L 70.304688 304.140625 Z M 70.304688 70.890625"/></clipPath></defs><g clip-path="url(#a)"><path fill="#FB0" d="M 366.78125 187.53125 C 366.78125 190.464844 366.710938 193.398438 366.566406 196.328125 C 366.421875 199.257812 366.207031 202.183594 365.917969 205.101562 C 365.632812 208.019531 365.273438 210.929688 364.84375 213.832031 C 364.410156 216.734375 363.910156 219.625 363.335938 222.5 C 362.765625 225.378906 362.121094 228.242188 361.410156 231.085938 C 360.695312 233.933594 359.914062 236.757812 359.0625 239.566406 C 358.210938 242.371094 357.292969 245.15625 356.304688 247.917969 C 355.316406 250.679688 354.261719 253.417969 353.136719 256.128906 C 352.015625 258.839844 350.828125 261.519531 349.570312 264.171875 C 348.316406 266.824219 347 269.441406 345.617188 272.03125 C 344.234375 274.617188 342.789062 277.167969 341.28125 279.683594 C 339.773438 282.199219 338.203125 284.679688 336.574219 287.117188 C 334.941406 289.558594 333.253906 291.953125 331.507812 294.3125 C 329.757812 296.667969 327.957031 298.980469 326.09375 301.246094 C 324.234375 303.515625 322.316406 305.734375 320.347656 307.910156 C 318.378906 310.082031 316.355469 312.207031 314.28125 314.28125 C 312.207031 316.355469 310.082031 318.378906 307.910156 320.347656 C 305.734375 322.316406 303.515625 324.234375 301.246094 326.09375 C 298.980469 327.953125 296.667969 329.757812 294.3125 331.507812 C 291.953125 333.253906 289.558594 334.941406 287.117188 336.574219 C 284.679688 338.203125 282.199219 339.773438 279.683594 341.28125 C 277.167969 342.789062 274.617188 344.234375 272.03125 345.617188 C 269.441406 347 266.824219 348.316406 264.171875 349.570312 C 261.519531 350.824219 258.839844 352.015625 256.128906 353.136719 C 253.417969 354.261719 250.679688 355.316406 247.917969 356.304688 C 245.15625 357.292969 242.371094 358.210938 239.566406 359.0625 C 236.757812 359.914062 233.933594 360.695312 231.085938 361.410156 C 228.242188 362.121094 225.378906 362.765625 222.5 363.335938 C 219.625 363.910156 216.734375 364.410156 213.832031 364.839844 C 210.929688 365.273438 208.019531 365.632812 205.101562 365.917969 C 202.183594 366.207031 199.257812 366.421875 196.328125 366.566406 C 193.398438 366.710938 190.464844 366.78125 187.53125 366.78125 C 184.597656 366.78125 181.667969 366.710938 178.738281 366.566406 C 175.804688 366.421875 172.882812 366.207031 169.960938 365.917969 C 167.042969 365.632812 164.132812 365.273438 161.230469 364.839844 C 158.328125 364.410156 155.4375 363.910156 152.5625 363.335938 C 149.683594 362.765625 146.824219 362.121094 143.976562 361.410156 C 141.132812 360.695312 138.304688 359.914062 135.5 359.0625 C 132.691406 358.210938 129.90625 357.292969 127.144531 356.304688 C 124.382812 355.316406 121.644531 354.261719 118.9375 353.136719 C 116.226562 352.015625 113.542969 350.824219 110.894531 349.570312 C 108.242188 348.316406 105.621094 347 103.035156 345.617188 C 100.445312 344.234375 97.894531 342.789062 95.378906 341.28125 C 92.863281 339.773438 90.386719 338.203125 87.945312 336.574219 C 85.507812 334.941406 83.109375 333.253906 80.753906 331.507812 C 78.398438 329.757812 76.085938 327.953125 73.816406 326.09375 C 71.550781 324.234375 69.328125 322.316406 67.15625 320.347656 C 64.980469 318.378906 62.855469 316.355469 60.78125 314.28125 C 58.707031 312.207031 56.6875 310.082031 54.714844 307.910156 C 52.746094 305.734375 50.832031 303.515625 48.96875 301.246094 C 47.109375 298.980469 45.304688 296.667969 43.558594 294.3125 C 41.808594 291.953125 40.121094 289.558594 38.492188 287.117188 C 36.859375 284.679688 35.292969 282.199219 33.785156 279.683594 C 32.277344 277.167969 30.832031 274.617188 29.449219 272.03125 C 28.066406 269.441406 26.746094 266.824219 25.492188 264.171875 C 24.238281 261.519531 23.050781 258.839844 21.925781 256.128906 C 20.804688 253.417969 19.75 250.679688 18.761719 247.917969 C 17.773438 245.15625 16.851562 242.371094 16 239.566406 C 15.148438 236.757812 14.367188 233.933594 13.652344 231.085938 C 12.941406 228.242188 12.296875 225.378906 11.726562 222.5 C 11.152344 219.625 10.652344 216.734375 10.222656 213.832031 C 9.792969 210.929688 9.433594 208.019531 9.144531 205.101562 C 8.859375 202.183594 8.640625 199.257812 8.496094 196.328125 C 8.355469 193.398438 8.28125 190.464844 8.28125 187.53125 C 8.28125 184.597656 8.355469 181.667969 8.496094 178.738281 C 8.640625 175.804688 8.859375 172.882812 9.144531 169.960938 C 9.433594 167.042969 9.792969 164.132812 10.222656 161.230469 C 10.652344 158.328125 11.152344 155.4375 11.726562 152.5625 C 12.296875 149.683594 12.941406 146.824219 13.652344 143.976562 C 14.367188 141.132812 15.148438 138.304688 16 135.5 C 16.851562 132.691406 17.773438 129.90625 18.761719 127.144531 C 19.75 124.382812 20.804688 121.644531 21.925781 118.9375 C 23.050781 116.226562 24.238281 113.542969 25.492188 110.894531 C 26.746094 108.242188 28.066406 105.621094 29.449219 103.035156 C 30.832031 100.445312 32.277344 97.894531 33.785156 95.378906 C 35.292969 92.863281 36.859375 90.386719 38.492188 87.945312 C 40.121094 85.507812 41.808594 83.109375 43.558594 80.753906 C 45.304688 78.398438 47.109375 76.085938 48.96875 73.816406 C 50.832031 71.550781 52.746094 69.328125 54.714844 67.15625 C 56.6875 64.980469 58.707031 62.855469 60.78125 60.78125 C 62.855469 58.707031 64.980469 56.6875 67.15625 54.714844 C 69.328125 52.746094 71.550781 50.832031 73.816406 48.96875 C 76.085938 47.109375 78.398438 45.304688 80.753906 43.558594 C 83.109375 41.808594 85.507812 40.121094 87.945312 38.492188 C 90.386719 36.859375 92.863281 35.292969 95.378906 33.785156 C 97.894531 32.277344 100.445312 30.832031 103.035156 29.449219 C 105.621094 28.066406 108.242188 26.746094 110.894531 25.492188 C 113.542969 24.238281 116.226562 23.050781 118.9375 21.925781 C 121.644531 20.804688 124.382812 19.75 127.144531 18.761719 C 129.90625 17.773438 132.691406 16.851562 135.5 16 C 138.304688 15.148438 141.132812 14.367188 143.976562 13.652344 C 146.824219 12.941406 149.683594 12.296875 152.5625 11.726562 C 155.4375 11.152344 158.328125 10.652344 161.230469 10.222656 C 164.132812 9.792969 167.042969 9.433594 169.960938 9.144531 C 172.882812 8.859375 175.804688 8.640625 178.738281 8.496094 C 181.667969 8.355469 184.597656 8.28125 187.53125 8.28125 C 190.464844 8.28125 193.398438 8.355469 196.328125 8.496094 C 199.257812 8.640625 202.183594 8.859375 205.101562 9.144531 C 208.019531 9.433594 210.929688 9.792969 213.832031 10.222656 C 216.734375 10.652344 219.625 11.152344 222.5 11.726562 C 225.378906 12.296875 228.242188 12.941406 231.085938 13.652344 C 233.933594 14.367188 236.757812 15.148438 239.566406 16 C 242.371094 16.851562 245.15625 17.773438 247.917969 18.761719 C 250.679688 19.75 253.417969 20.804688 256.128906 21.925781 C 258.839844 23.050781 261.519531 24.238281 264.171875 25.492188 C 266.824219 26.746094 269.441406 28.066406 272.03125 29.449219 C 274.617188 30.832031 277.167969 32.277344 279.683594 33.785156 C 282.199219 35.292969 284.679688 36.859375 287.117188 38.492188 C 289.558594 40.121094 291.953125 41.808594 294.3125 43.558594 C 296.667969 45.304688 298.980469 47.109375 301.246094 48.96875 C 303.515625 50.832031 305.734375 52.746094 307.910156 54.714844 C 310.082031 56.6875 312.207031 58.707031 314.28125 60.78125 C 316.355469 62.855469 318.378906 64.980469 320.347656 67.15625 C 322.316406 69.328125 324.234375 71.550781 326.09375 73.816406 C 327.957031 76.085938 329.757812 78.398438 331.507812 80.753906 C 333.253906 83.109375 334.941406 85.507812 336.574219 87.945312 C 338.203125 90.386719 339.773438 92.863281 341.28125 95.378906 C 342.789062 97.894531 344.234375 100.445312 345.617188 103.035156 C 347 105.621094 348.316406 108.242188 349.570312 110.894531 C 350.828125 113.542969 352.015625 116.226562 353.136719 118.9375 C 354.261719 121.644531 355.316406 124.382812 356.304688 127.144531 C 357.292969 129.90625 358.210938 132.691406 359.0625 135.5 C 359.914062 138.304688 360.695312 141.132812 361.410156 143.976562 C 362.121094 146.824219 362.765625 149.683594 363.335938 152.5625 C 363.910156 155.4375 364.410156 158.328125 364.84375 161.230469 C 365.273438 164.132812 365.632812 167.042969 365.917969 169.960938 C 366.207031 172.882812 366.421875 175.804688 366.566406 178.738281 C 366.710938 181.667969 366.78125 184.597656 366.78125 187.53125 Z M 366.78125 187.53125"/></g><path fill="#FB0" d="M 194.203125 107.140625 L 189.449219 115.082031 L 189.394531 112.101562 C 189.289062 110.894531 188.464844 109.65625 187.113281 109.65625 L 180.125 109.195312 L 185.363281 101.15625 L 185.394531 104.328125 C 185.394531 105.75 186.515625 106.636719 187.824219 106.769531 Z M 194.203125 107.140625"/><path fill="#FB0" d="M 220.75 118.5 C 226.800781 120.539062 228.121094 122.511719 228.121094 123.085938 C 228.121094 123.8125 226.328125 126.203125 218.128906 128.476562 C 217.296875 128.707031 216.449219 128.925781 215.609375 129.113281 C 215.457031 129.148438 215.300781 129.183594 215.148438 129.226562 C 215.089844 129.234375 215.035156 129.246094 214.980469 129.269531 C 207.25 131.003906 197.347656 131.964844 187.089844 131.964844 C 176.820312 131.964844 167.003906 131.011719 159.300781 129.289062 C 159.070312 129.15625 158.808594 129.058594 158.523438 129.007812 C 158.332031 128.972656 158.136719 128.96875 157.957031 128.972656 C 156.984375 128.742188 156.023438 128.484375 155.070312 128.199219 C 147.667969 125.992188 146.050781 123.757812 146.050781 123.078125 C 146.050781 122.414062 147.417969 120.664062 152.585938 118.792969 C 152.59375 118.785156 152.605469 118.785156 152.613281 118.785156 C 152.65625 118.773438 152.695312 118.75 152.746094 118.730469 C 152.933594 118.648438 153.101562 118.542969 153.25 118.421875 C 153.292969 118.386719 153.335938 118.351562 153.382812 118.3125 C 153.40625 118.289062 153.433594 118.269531 153.453125 118.242188 C 153.566406 118.128906 153.664062 118.015625 153.746094 117.882812 C 153.84375 117.742188 153.929688 117.601562 153.992188 117.441406 C 154.125 117.128906 154.195312 116.792969 154.1875 116.441406 C 154.585938 98.957031 169.125 84.742188 186.644531 84.742188 C 204.289062 84.742188 218.523438 98.53125 219.082031 116.148438 C 219.082031 116.175781 219.082031 116.203125 219.089844 116.230469 C 219.089844 116.316406 219.097656 116.398438 219.109375 116.476562 C 219.144531 116.796875 219.25 117.097656 219.40625 117.371094 C 219.476562 117.503906 219.566406 117.632812 219.671875 117.75 C 219.761719 117.871094 219.875 117.972656 220 118.074219 C 220.054688 118.121094 220.113281 118.15625 220.175781 118.199219 C 220.316406 118.289062 220.460938 118.375 220.628906 118.429688 C 220.664062 118.472656 220.699219 118.484375 220.75 118.5 Z M 200.480469 106.183594 C 200.917969 105.449219 200.941406 104.539062 200.542969 103.78125 C 200.140625 103.019531 199.371094 102.535156 198.519531 102.484375 L 190.261719 102.011719 L 190.164062 93.027344 C 190.152344 91.949219 189.4375 91.003906 188.394531 90.707031 C 187.363281 90.40625 186.25 90.820312 185.664062 91.722656 L 173.730469 110.035156 C 173.253906 110.761719 173.199219 111.6875 173.589844 112.464844 C 173.976562 113.242188 174.753906 113.753906 175.613281 113.816406 L 184.527344 114.402344 L 184.6875 123.730469 C 184.710938 124.824219 185.453125 125.769531 186.503906 126.046875 C 186.710938 126.105469 186.921875 126.132812 187.132812 126.132812 C 187.980469 126.132812 188.785156 125.691406 189.234375 124.941406 Z M 200.480469 106.183594"/><path fill="#FB0" d="M 214.230469 135.96875 C 214.355469 137.375 214.417969 138.796875 214.417969 140.207031 C 214.417969 153.523438 208.929688 165.183594 200.792969 171.441406 C 200.722656 171.484375 200.652344 171.539062 200.589844 171.601562 C 196.605469 174.605469 192 176.320312 187.097656 176.320312 C 182.554688 176.320312 178.261719 174.851562 174.496094 172.246094 C 174.488281 172.238281 174.488281 172.238281 174.488281 172.238281 C 174.390625 172.164062 174.292969 172.085938 174.1875 172.03125 C 165.609375 165.929688 159.777344 153.957031 159.777344 140.21875 C 159.777344 138.828125 159.839844 137.410156 159.964844 136.027344 C 159.972656 136.019531 159.972656 136.003906 159.972656 135.996094 C 159.972656 135.984375 159.972656 135.96875 159.972656 135.949219 C 160.015625 135.464844 160.070312 134.976562 160.132812 134.484375 C 167.871094 136.046875 177.308594 136.886719 187.113281 136.886719 C 196.878906 136.886719 206.351562 136.039062 214.089844 134.484375 C 214.125 134.960938 214.1875 135.464844 214.230469 135.96875 Z M 214.230469 135.96875"/><path fill="#FB0" d="M 199.703125 177.933594 L 199.703125 186.46875 L 187.53125 200.570312 L 175.363281 186.460938 L 175.363281 178.394531 C 179.003906 180.207031 182.953125 181.203125 187.089844 181.203125 C 191.558594 181.203125 195.824219 180.039062 199.703125 177.933594 Z M 199.703125 177.933594"/><path fill="#FB0" d="M 251.535156 224.734375 L 251.535156 287.910156 C 251.535156 289.226562 250.464844 290.300781 249.148438 290.300781 L 233.480469 290.300781 L 233.480469 199.574219 C 244.304688 203.214844 251.535156 213.242188 251.535156 224.734375 Z M 251.535156 224.734375"/><path fill="#FB0" d="M 141.835938 199.492188 L 141.835938 290.300781 L 125.914062 290.300781 C 124.597656 290.300781 123.527344 289.226562 123.527344 287.910156 L 123.527344 224.734375 C 123.527344 213.160156 130.863281 203.070312 141.835938 199.492188 Z M 141.835938 199.492188"/><path fill="#FB0" d="M 172.070312 190.144531 L 183.898438 203.851562 L 172.625 211.652344 L 162.074219 193.230469 Z M 172.070312 190.144531"/><path fill="#FB0" d="M 212.992188 193.230469 L 202.4375 211.652344 L 191.164062 203.851562 L 202.992188 190.144531 Z M 212.992188 193.230469"/><path fill="#FB0" d="M 228.585938 198.054688 L 228.585938 290.304688 L 146.722656 290.304688 L 146.722656 197.980469 L 157.277344 194.714844 L 169.699219 216.402344 C 170.035156 216.996094 170.609375 217.417969 171.28125 217.570312 C 171.953125 217.71875 172.652344 217.585938 173.214844 217.191406 L 187.53125 207.292969 L 201.851562 217.191406 C 202.265625 217.480469 202.746094 217.625 203.246094 217.625 C 203.425781 217.625 203.609375 217.605469 203.789062 217.570312 C 204.457031 217.417969 205.03125 216.988281 205.371094 216.402344 L 217.792969 194.714844 Z M 228.585938 198.054688"/><path fill="#FB0" d="M 290.992188 268.628906 C 296.335938 263.296875 296.335938 254.648438 290.992188 249.3125 L 125.492188 84.042969 C 120.148438 78.710938 111.492188 78.710938 106.148438 84.042969 L 98.898438 91.289062 L 283.738281 275.871094 Z M 290.992188 268.628906"/><path fill="#FB0" d="M 290.992188 268.628906 C 296.335938 263.296875 296.335938 254.648438 290.992188 249.3125 L 125.492188 84.042969 C 120.148438 78.710938 111.492188 78.710938 106.148438 84.042969 L 274.066406 251.730469 C 278.074219 255.730469 278.074219 262.214844 274.066406 266.214844 L 283.738281 275.871094 Z M 290.992188 268.628906"/><path fill="#FB0" d="M 298.621094 76.425781 L 298.617188 76.429688 L 133.046875 208.351562 C 133.046875 208.351562 126.492188 214.089844 122.714844 217.5 C 112.472656 204.878906 93.550781 203.9375 82.105469 215.363281 C 71.417969 226.035156 71.414062 243.308594 82.105469 253.980469 C 92.828125 264.683594 110.351562 264.660156 121.023438 253.734375 L 166.292969 241.972656 C 166.328125 242 166.308594 241.988281 166.292969 241.972656 C 212.003906 191.191406 256.449219 139.039062 299.144531 85.679688 C 301.355469 82.914062 301.128906 78.929688 298.621094 76.425781 Z M 111.117188 244.328125 C 105.785156 249.652344 97.109375 249.652344 91.777344 244.328125 C 86.433594 238.992188 86.429688 230.355469 91.777344 225.019531 C 97.109375 219.695312 105.785156 219.695312 111.117188 225.019531 C 116.449219 230.34375 116.449219 239.003906 111.117188 244.328125 Z M 111.117188 244.328125"/><path fill="#FB0" d="M 157.332031 252.117188 C 160.390625 248.742188 163.242188 245.359375 166.292969 241.972656 C 165.015625 240.898438 163.882812 239.910156 162.5 239.011719 C 158.703125 236.535156 156.253906 232.46875 155.726562 227.96875 C 155.71875 227.902344 155.707031 227.835938 155.703125 227.769531 C 155.109375 222.921875 156.757812 218.0625 160.214844 214.609375 L 298.621094 76.425781 C 296.113281 73.921875 292.121094 73.695312 289.351562 75.90625 C 239.476562 115.695312 190.699219 156.824219 143.066406 199.238281 C 143.066406 199.238281 143.066406 199.242188 143.0625 199.242188 C 139.664062 202.269531 136.4375 205.3125 133.046875 208.351562 C 133.105469 208.421875 132.992188 208.285156 133.046875 208.351562 C 141.609375 218.648438 140.785156 234.007812 131.308594 243.46875 L 121.023438 253.734375 C 120.941406 253.820312 120.871094 253.902344 120.789062 253.984375 C 120.785156 253.984375 120.785156 253.988281 120.78125 253.988281 L 120.78125 254.035156 L 120.789062 254.042969 C 115.125 259.695312 112.25 267.394531 112.859375 275.472656 C 113.289062 281.195312 115.550781 286.664062 119.277344 291.027344 C 124.757812 297.4375 132.441406 300.644531 140.128906 300.644531 C 147.132812 300.644531 154.136719 297.984375 159.46875 292.660156 C 164.636719 287.503906 167.480469 280.644531 167.480469 273.347656 C 167.480469 266.054688 164.636719 259.199219 159.46875 254.042969 C 158.785156 253.359375 158.070312 252.71875 157.332031 252.117188 Z M 130.460938 283.003906 C 121.929688 274.484375 127.898438 259.695312 140.128906 259.695312 C 147.6875 259.695312 153.808594 265.800781 153.808594 273.347656 C 153.808594 285.421875 139.082031 291.613281 130.460938 283.003906 Z M 130.460938 283.003906"/><g clip-path="url(#b)"><path d="M 301.035156 74.011719 C 301.023438 74 301.011719 73.988281 301 73.980469 C 299.070312 72.066406 296.410156 70.972656 293.695312 70.972656 L 293.679688 70.972656 C 291.332031 70.972656 289.035156 71.777344 287.210938 73.238281 C 262.386719 93.039062 237.476562 113.472656 213.160156 133.980469 C 207.246094 138.964844 201.328125 143.988281 195.414062 149.039062 L 127.910156 81.628906 C 121.246094 74.972656 110.398438 74.976562 103.734375 81.628906 L 71.671875 113.648438 C 70.335938 114.980469 70.335938 117.140625 71.671875 118.476562 C 73.007812 119.808594 75.171875 119.808594 76.507812 118.476562 L 98.898438 96.117188 L 103.789062 101.003906 L 81.398438 123.363281 C 80.066406 124.695312 80.066406 126.855469 81.398438 128.1875 C 82.066406 128.855469 82.941406 129.191406 83.816406 129.191406 C 84.691406 129.191406 85.566406 128.855469 86.234375 128.1875 L 108.625 105.832031 L 113.519531 110.71875 L 91.128906 133.074219 C 89.792969 134.410156 89.792969 136.570312 91.128906 137.90625 C 91.792969 138.574219 92.671875 138.902344 93.542969 138.902344 C 94.421875 138.902344 95.292969 138.574219 95.964844 137.90625 L 118.355469 115.546875 L 123.246094 120.429688 L 100.855469 142.789062 C 99.519531 144.125 99.519531 146.285156 100.855469 147.621094 C 101.523438 148.285156 102.398438 148.617188 103.273438 148.617188 C 104.148438 148.617188 105.023438 148.285156 105.691406 147.621094 L 128.082031 125.261719 L 132.972656 130.148438 L 110.585938 152.503906 C 109.25 153.839844 109.25 156.003906 110.585938 157.335938 C 111.253906 158 112.125 158.335938 113.003906 158.335938 C 113.875 158.335938 114.753906 158 115.421875 157.335938 L 137.8125 134.976562 L 142.703125 139.863281 L 120.3125 162.222656 C 118.976562 163.554688 118.976562 165.714844 120.3125 167.050781 C 120.980469 167.714844 121.855469 168.050781 122.730469 168.050781 C 123.605469 168.050781 124.480469 167.714844 125.148438 167.050781 L 147.539062 144.691406 L 152.433594 149.578125 L 130.042969 171.9375 C 128.703125 173.269531 128.703125 175.429688 130.042969 176.765625 C 130.707031 177.433594 131.582031 177.765625 132.457031 177.765625 C 133.332031 177.765625 134.207031 177.433594 134.875 176.765625 L 157.265625 154.40625 L 162.160156 159.292969 L 139.769531 181.648438 C 138.433594 182.984375 138.433594 185.148438 139.769531 186.480469 C 140.4375 187.144531 141.3125 187.480469 142.1875 187.480469 C 143.0625 187.480469 143.9375 187.144531 144.605469 186.480469 L 166.996094 164.121094 L 172.0625 169.179688 C 161.5625 178.308594 151.117188 187.492188 140.789062 196.6875 C 140.785156 196.6875 140.785156 196.6875 140.785156 196.695312 C 137.71875 199.417969 134.371094 202.554688 131.070312 205.527344 C 129.050781 206.988281 129.433594 209.558594 130.4375 210.5625 C 130.4375 210.5625 130.4375 210.566406 130.441406 210.566406 C 133.734375 214.542969 135.550781 219.625 135.550781 224.878906 C 135.550781 231.019531 133.1875 236.761719 128.886719 241.054688 C 128.84375 241.09375 118.621094 251.304688 118.574219 251.351562 C 103.707031 266.542969 77.523438 256.175781 77.507812 234.65625 C 77.515625 221.59375 88.082031 210.800781 101.433594 210.792969 C 108.703125 210.796875 115.492188 214.03125 120.054688 219.652344 C 121.292969 221.175781 123.5625 221.339844 125.003906 220.035156 C 125.023438 220.019531 125.039062 220.007812 125.054688 219.988281 L 125.089844 219.960938 C 126.6875 218.523438 126.578125 215.933594 124.785156 214.652344 C 118.941406 207.859375 110.441406 203.964844 101.457031 203.964844 L 101.410156 203.964844 C 84.316406 203.964844 70.652344 217.867188 70.667969 234.65625 C 70.65625 247.308594 78.398438 258.488281 89.851562 263.132812 C 96.65625 265.882812 104.105469 266.074219 110.835938 263.917969 C 104.421875 283.847656 119.351562 304.058594 140.105469 304.058594 L 140.140625 304.058594 C 157.097656 304.058594 170.917969 290.351562 170.898438 273.347656 C 170.90625 265.269531 167.789062 257.644531 162.132812 251.871094 C 162.136719 251.863281 169.113281 243.941406 169.113281 243.941406 C 181.429688 230.257812 193.617188 216.503906 205.652344 202.722656 L 210.804688 207.867188 L 188.414062 230.226562 C 187.078125 231.558594 187.078125 233.722656 188.414062 235.054688 C 189.082031 235.71875 189.957031 236.054688 190.832031 236.054688 C 191.707031 236.054688 192.582031 235.71875 193.25 235.054688 L 215.640625 212.695312 L 220.53125 217.582031 L 198.140625 239.941406 C 196.808594 241.277344 196.808594 243.4375 198.140625 244.769531 C 198.8125 245.4375 199.683594 245.769531 200.5625 245.769531 C 201.433594 245.769531 202.3125 245.4375 202.976562 244.769531 L 225.367188 222.410156 L 230.261719 227.296875 L 207.871094 249.65625 C 206.535156 250.988281 206.535156 253.148438 207.871094 254.484375 C 208.539062 255.152344 209.414062 255.484375 210.289062 255.484375 C 211.164062 255.484375 212.039062 255.152344 212.707031 254.484375 L 235.097656 232.125 L 239.992188 237.011719 L 217.601562 259.371094 C 216.265625 260.703125 216.265625 262.863281 217.601562 264.199219 C 218.265625 264.867188 219.144531 265.199219 220.015625 265.199219 C 220.894531 265.199219 221.765625 264.867188 222.4375 264.199219 L 244.828125 241.839844 L 249.71875 246.726562 L 227.328125 269.082031 C 225.992188 270.417969 225.992188 272.582031 227.328125 273.914062 C 227.996094 274.578125 228.871094 274.914062 229.746094 274.914062 C 230.621094 274.914062 231.496094 274.578125 232.164062 273.914062 L 254.554688 251.554688 L 259.449219 256.441406 L 237.058594 278.796875 C 235.722656 280.132812 235.722656 282.296875 237.058594 283.628906 C 237.726562 284.292969 238.601562 284.628906 239.476562 284.628906 C 240.351562 284.628906 241.226562 284.292969 241.894531 283.628906 L 264.28125 261.269531 L 269.175781 266.15625 L 246.785156 288.515625 C 245.453125 289.847656 245.453125 292.007812 246.785156 293.34375 C 247.453125 294.007812 248.328125 294.34375 249.203125 294.34375 C 250.078125 294.34375 250.957031 294.007812 251.621094 293.34375 L 274.011719 270.984375 L 278.90625 275.871094 L 256.515625 298.230469 C 255.179688 299.5625 255.179688 301.722656 256.515625 303.054688 C 257.183594 303.722656 258.058594 304.058594 258.933594 304.058594 C 259.808594 304.058594 260.683594 303.722656 261.351562 303.054688 L 286.15625 278.285156 C 286.160156 278.285156 286.160156 278.28125 286.164062 278.277344 L 293.410156 271.039062 C 296.640625 267.816406 298.417969 263.527344 298.417969 258.96875 C 298.417969 254.410156 296.640625 250.121094 293.410156 246.898438 L 225.832031 179.414062 C 252.046875 148.878906 277.460938 118.246094 301.808594 87.8125 C 305.113281 83.683594 304.78125 77.75 301.035156 74.011719 Z M 103.734375 91.289062 L 108.566406 86.457031 C 112.566406 82.464844 119.074219 82.464844 123.074219 86.457031 L 190.210938 153.503906 C 185.878906 157.21875 181.550781 160.945312 177.234375 164.683594 Z M 288.574219 251.730469 C 290.511719 253.664062 291.578125 256.234375 291.578125 258.972656 C 291.578125 261.707031 290.511719 264.28125 288.574219 266.214844 L 283.742188 271.042969 L 210.152344 197.558594 C 213.90625 193.246094 217.644531 188.933594 221.367188 184.613281 Z M 165.929688 237.257812 C 164.273438 235.992188 159.855469 233.796875 159.117188 227.570312 C 158.914062 225.847656 157.457031 224.554688 155.734375 224.554688 C 153.667969 224.554688 152.09375 226.34375 152.324219 228.371094 C 152.328125 228.371094 152.328125 228.371094 152.328125 228.371094 C 152.984375 233.9375 156.011719 238.859375 160.632812 241.867188 C 160.875 242.027344 161.117188 242.191406 161.367188 242.375 C 158.996094 245.074219 157.039062 247.351562 154.792969 249.824219 C 154.167969 250.519531 153.851562 251.449219 153.921875 252.378906 C 153.988281 253.304688 154.449219 254.179688 155.175781 254.769531 C 160.914062 259.449219 164.054688 266.179688 164.0625 273.347656 C 164.050781 286.507812 153.4375 297.222656 140.128906 297.230469 C 126.972656 297.214844 116.195312 286.628906 116.195312 273.347656 C 116.207031 262.542969 123.054688 256.753906 123.578125 256.011719 L 133.722656 245.882812 C 139.3125 240.304688 142.394531 232.75 142.394531 224.878906 C 142.398438 219.121094 140.746094 213.566406 137.628906 208.8125 C 140.304688 206.367188 142.636719 204.199219 145.335938 201.792969 L 145.351562 201.773438 C 219.484375 135.765625 290.605469 79.023438 291.941406 78.261719 C 291.027344 79.175781 157.625 212.335938 157.007812 213.027344 C 155.753906 214.441406 155.886719 216.601562 157.292969 217.847656 C 158.710938 219.109375 160.878906 218.960938 162.125 217.5625 C 162.53125 217.097656 295.804688 84.0625 296.777344 83.085938 C 296.5 83.578125 241.4375 153.226562 165.929688 237.257812 Z M 165.929688 237.257812"/></g><path d="M 84.347656 234.675781 C 84.347656 239.230469 86.128906 243.515625 89.359375 246.742188 C 92.691406 250.074219 97.066406 251.734375 101.445312 251.734375 C 105.824219 251.734375 110.199219 250.070312 113.535156 246.742188 C 120.207031 240.082031 120.210938 229.269531 113.535156 222.605469 C 102.75 211.835938 84.347656 219.59375 84.347656 234.675781 Z M 108.699219 241.914062 C 104.699219 245.90625 98.195312 245.90625 94.191406 241.914062 C 87.789062 235.519531 92.273438 224.4375 101.445312 224.4375 C 110.648438 224.4375 115.074219 235.546875 108.699219 241.914062 Z M 108.699219 241.914062"/><path d="M 140.128906 256.28125 C 133.097656 256.28125 127.058594 260.3125 124.367188 266.800781 C 121.664062 273.324219 123.070312 280.457031 128.042969 285.421875 C 131.34375 288.714844 135.59375 290.441406 139.988281 290.441406 C 142.207031 290.441406 144.460938 290 146.644531 289.097656 C 153.171875 286.398438 157.222656 280.367188 157.222656 273.347656 C 157.222656 263.9375 149.554688 256.28125 140.128906 256.28125 Z M 144.027344 282.789062 C 140.96875 284.054688 136.433594 284.140625 132.875 280.589844 C 129.316406 277.035156 129.410156 272.488281 130.683594 269.414062 C 131.949219 266.367188 135.09375 263.109375 140.128906 263.109375 C 145.785156 263.109375 150.386719 267.703125 150.386719 273.347656 C 150.386719 278.371094 147.101562 281.519531 144.027344 282.789062 Z M 144.027344 282.789062"/></svg>