<svg xmlns="http://www.w3.org/2000/svg" width="375" viewBox="0 0 375 375" height="375" version="1.0"><defs><clipPath id="a"><path d="M 8.28125 8.28125 L 366.78125 8.28125 L 366.78125 366.78125 L 8.28125 366.78125 Z M 8.28125 8.28125"/></clipPath><clipPath id="b"><path d="M 81.046875 75 L 294.046875 75 L 294.046875 300 L 81.046875 300 Z M 81.046875 75"/></clipPath></defs><g clip-path="url(#a)"><path fill="#FB0" d="M 366.78125 187.53125 C 366.78125 190.464844 366.710938 193.398438 366.566406 196.328125 C 366.421875 199.257812 366.207031 202.183594 365.917969 205.101562 C 365.632812 208.019531 365.273438 210.929688 364.84375 213.832031 C 364.410156 216.734375 363.910156 219.625 363.335938 222.5 C 362.765625 225.378906 362.121094 228.242188 361.410156 231.085938 C 360.695312 233.933594 359.914062 236.757812 359.0625 239.566406 C 358.210938 242.371094 357.292969 245.15625 356.304688 247.917969 C 355.316406 250.679688 354.261719 253.417969 353.136719 256.128906 C 352.015625 258.839844 350.828125 261.519531 349.570312 264.171875 C 348.316406 266.824219 347 269.441406 345.617188 272.03125 C 344.234375 274.617188 342.789062 277.167969 341.28125 279.683594 C 339.773438 282.199219 338.203125 284.679688 336.574219 287.117188 C 334.941406 289.558594 333.253906 291.953125 331.507812 294.3125 C 329.757812 296.667969 327.957031 298.980469 326.09375 301.246094 C 324.234375 303.515625 322.316406 305.734375 320.347656 307.910156 C 318.378906 310.082031 316.355469 312.207031 314.28125 314.28125 C 312.207031 316.355469 310.082031 318.378906 307.910156 320.347656 C 305.734375 322.316406 303.515625 324.234375 301.246094 326.09375 C 298.980469 327.957031 296.667969 329.757812 294.3125 331.507812 C 291.953125 333.253906 289.558594 334.941406 287.117188 336.574219 C 284.679688 338.203125 282.199219 339.773438 279.683594 341.28125 C 277.167969 342.789062 274.617188 344.234375 272.03125 345.617188 C 269.441406 347 266.824219 348.316406 264.171875 349.570312 C 261.519531 350.828125 258.839844 352.015625 256.128906 353.136719 C 253.417969 354.261719 250.679688 355.316406 247.917969 356.304688 C 245.15625 357.292969 242.371094 358.210938 239.566406 359.0625 C 236.757812 359.914062 233.933594 360.695312 231.085938 361.410156 C 228.242188 362.121094 225.378906 362.765625 222.5 363.335938 C 219.625 363.910156 216.734375 364.410156 213.832031 364.84375 C 210.929688 365.273438 208.019531 365.632812 205.101562 365.917969 C 202.183594 366.207031 199.257812 366.421875 196.328125 366.566406 C 193.398438 366.710938 190.464844 366.78125 187.53125 366.78125 C 184.597656 366.78125 181.667969 366.710938 178.738281 366.566406 C 175.804688 366.421875 172.882812 366.207031 169.960938 365.917969 C 167.042969 365.632812 164.132812 365.273438 161.230469 364.84375 C 158.328125 364.410156 155.4375 363.910156 152.5625 363.335938 C 149.683594 362.765625 146.824219 362.121094 143.976562 361.410156 C 141.132812 360.695312 138.304688 359.914062 135.5 359.0625 C 132.691406 358.210938 129.90625 357.292969 127.144531 356.304688 C 124.382812 355.316406 121.644531 354.261719 118.9375 353.136719 C 116.226562 352.015625 113.542969 350.828125 110.894531 349.570312 C 108.242188 348.316406 105.621094 347 103.035156 345.617188 C 100.445312 344.234375 97.894531 342.789062 95.378906 341.28125 C 92.863281 339.773438 90.386719 338.203125 87.945312 336.574219 C 85.507812 334.941406 83.109375 333.253906 80.753906 331.507812 C 78.398438 329.757812 76.085938 327.957031 73.816406 326.09375 C 71.550781 324.234375 69.328125 322.316406 67.15625 320.347656 C 64.980469 318.378906 62.855469 316.355469 60.78125 314.28125 C 58.707031 312.207031 56.6875 310.082031 54.714844 307.910156 C 52.746094 305.734375 50.832031 303.515625 48.96875 301.246094 C 47.109375 298.980469 45.304688 296.667969 43.558594 294.3125 C 41.808594 291.953125 40.121094 289.558594 38.492188 287.117188 C 36.859375 284.679688 35.292969 282.199219 33.785156 279.683594 C 32.277344 277.167969 30.832031 274.617188 29.449219 272.03125 C 28.066406 269.441406 26.746094 266.824219 25.492188 264.171875 C 24.238281 261.519531 23.050781 258.839844 21.925781 256.128906 C 20.804688 253.417969 19.75 250.679688 18.761719 247.917969 C 17.773438 245.15625 16.851562 242.371094 16 239.566406 C 15.148438 236.757812 14.367188 233.933594 13.652344 231.085938 C 12.941406 228.242188 12.296875 225.378906 11.726562 222.5 C 11.152344 219.625 10.652344 216.734375 10.222656 213.832031 C 9.792969 210.929688 9.433594 208.019531 9.144531 205.101562 C 8.859375 202.183594 8.640625 199.257812 8.496094 196.328125 C 8.355469 193.398438 8.28125 190.464844 8.28125 187.53125 C 8.28125 184.597656 8.355469 181.667969 8.496094 178.738281 C 8.640625 175.804688 8.859375 172.882812 9.144531 169.960938 C 9.433594 167.042969 9.792969 164.132812 10.222656 161.230469 C 10.652344 158.328125 11.152344 155.4375 11.726562 152.5625 C 12.296875 149.683594 12.941406 146.824219 13.652344 143.976562 C 14.367188 141.132812 15.148438 138.304688 16 135.5 C 16.851562 132.691406 17.773438 129.90625 18.761719 127.144531 C 19.75 124.382812 20.804688 121.644531 21.925781 118.9375 C 23.050781 116.226562 24.238281 113.542969 25.492188 110.894531 C 26.746094 108.242188 28.066406 105.621094 29.449219 103.035156 C 30.832031 100.445312 32.277344 97.894531 33.785156 95.378906 C 35.292969 92.863281 36.859375 90.386719 38.492188 87.945312 C 40.121094 85.507812 41.808594 83.109375 43.558594 80.753906 C 45.304688 78.398438 47.109375 76.085938 48.96875 73.816406 C 50.832031 71.550781 52.746094 69.328125 54.714844 67.15625 C 56.6875 64.980469 58.707031 62.855469 60.78125 60.78125 C 62.855469 58.707031 64.980469 56.6875 67.15625 54.714844 C 69.328125 52.746094 71.550781 50.832031 73.816406 48.96875 C 76.085938 47.109375 78.398438 45.304688 80.753906 43.558594 C 83.109375 41.808594 85.507812 40.121094 87.945312 38.492188 C 90.386719 36.859375 92.863281 35.292969 95.378906 33.785156 C 97.894531 32.277344 100.445312 30.832031 103.035156 29.449219 C 105.621094 28.066406 108.242188 26.746094 110.894531 25.492188 C 113.542969 24.238281 116.226562 23.050781 118.9375 21.925781 C 121.644531 20.804688 124.382812 19.75 127.144531 18.761719 C 129.90625 17.773438 132.691406 16.851562 135.5 16 C 138.304688 15.148438 141.132812 14.367188 143.976562 13.652344 C 146.824219 12.941406 149.683594 12.296875 152.5625 11.726562 C 155.4375 11.152344 158.328125 10.652344 161.230469 10.222656 C 164.132812 9.792969 167.042969 9.433594 169.960938 9.144531 C 172.882812 8.859375 175.804688 8.640625 178.738281 8.496094 C 181.667969 8.355469 184.597656 8.28125 187.53125 8.28125 C 190.464844 8.28125 193.398438 8.355469 196.328125 8.496094 C 199.257812 8.640625 202.183594 8.859375 205.101562 9.144531 C 208.019531 9.433594 210.929688 9.792969 213.832031 10.222656 C 216.734375 10.652344 219.625 11.152344 222.5 11.726562 C 225.378906 12.296875 228.242188 12.941406 231.085938 13.652344 C 233.933594 14.367188 236.757812 15.148438 239.566406 16 C 242.371094 16.851562 245.15625 17.773438 247.917969 18.761719 C 250.679688 19.75 253.417969 20.804688 256.128906 21.925781 C 258.839844 23.050781 261.519531 24.238281 264.171875 25.492188 C 266.824219 26.746094 269.441406 28.066406 272.03125 29.449219 C 274.617188 30.832031 277.167969 32.277344 279.683594 33.785156 C 282.199219 35.292969 284.679688 36.859375 287.117188 38.492188 C 289.558594 40.121094 291.953125 41.808594 294.3125 43.558594 C 296.667969 45.304688 298.980469 47.109375 301.246094 48.96875 C 303.515625 50.832031 305.734375 52.746094 307.910156 54.714844 C 310.082031 56.6875 312.207031 58.707031 314.28125 60.78125 C 316.355469 62.855469 318.378906 64.980469 320.347656 67.15625 C 322.316406 69.328125 324.234375 71.550781 326.09375 73.816406 C 327.957031 76.085938 329.757812 78.398438 331.507812 80.753906 C 333.253906 83.109375 334.941406 85.507812 336.574219 87.945312 C 338.203125 90.386719 339.773438 92.863281 341.28125 95.378906 C 342.789062 97.894531 344.234375 100.445312 345.617188 103.035156 C 347 105.621094 348.316406 108.242188 349.570312 110.894531 C 350.828125 113.542969 352.015625 116.226562 353.136719 118.9375 C 354.261719 121.644531 355.316406 124.382812 356.304688 127.144531 C 357.292969 129.90625 358.210938 132.691406 359.0625 135.5 C 359.914062 138.304688 360.695312 141.132812 361.410156 143.976562 C 362.121094 146.824219 362.765625 149.683594 363.335938 152.5625 C 363.910156 155.4375 364.410156 158.328125 364.84375 161.230469 C 365.273438 164.132812 365.632812 167.042969 365.917969 169.960938 C 366.207031 172.882812 366.421875 175.804688 366.566406 178.738281 C 366.710938 181.667969 366.78125 184.597656 366.78125 187.53125 Z M 366.78125 187.53125"/></g><path fill="#FB0" d="M 194.203125 107.140625 L 189.449219 115.082031 L 189.394531 112.101562 C 189.289062 110.894531 188.464844 109.65625 187.113281 109.65625 L 180.125 109.195312 L 185.363281 101.15625 L 185.394531 104.328125 C 185.394531 105.75 186.515625 106.636719 187.824219 106.769531 Z M 194.203125 107.140625"/><path fill="#FB0" d="M 220.75 118.5 C 226.800781 120.539062 228.121094 122.511719 228.121094 123.085938 C 228.121094 123.8125 226.328125 126.203125 218.128906 128.476562 C 217.296875 128.707031 216.449219 128.925781 215.609375 129.113281 C 215.457031 129.148438 215.300781 129.183594 215.148438 129.226562 C 215.089844 129.234375 215.035156 129.246094 214.980469 129.269531 C 207.25 131.003906 197.347656 131.964844 187.089844 131.964844 C 176.820312 131.964844 167.003906 131.011719 159.300781 129.289062 C 159.070312 129.15625 158.808594 129.058594 158.523438 129.007812 C 158.332031 128.976562 158.136719 128.96875 157.957031 128.976562 C 156.984375 128.742188 156.023438 128.484375 155.070312 128.199219 C 147.667969 125.992188 146.050781 123.757812 146.050781 123.078125 C 146.050781 122.414062 147.417969 120.664062 152.585938 118.792969 C 152.59375 118.785156 152.605469 118.785156 152.613281 118.785156 C 152.65625 118.773438 152.695312 118.75 152.746094 118.730469 C 152.933594 118.648438 153.101562 118.542969 153.25 118.421875 C 153.292969 118.386719 153.335938 118.351562 153.382812 118.3125 C 153.40625 118.289062 153.433594 118.269531 153.453125 118.242188 C 153.566406 118.128906 153.664062 118.015625 153.746094 117.882812 C 153.84375 117.742188 153.929688 117.601562 153.992188 117.441406 C 154.125 117.128906 154.195312 116.792969 154.1875 116.441406 C 154.585938 98.957031 169.125 84.742188 186.644531 84.742188 C 204.289062 84.742188 218.523438 98.53125 219.082031 116.148438 C 219.082031 116.175781 219.082031 116.203125 219.089844 116.230469 C 219.089844 116.316406 219.097656 116.398438 219.109375 116.476562 C 219.144531 116.796875 219.25 117.097656 219.40625 117.371094 C 219.476562 117.503906 219.566406 117.632812 219.671875 117.75 C 219.761719 117.871094 219.875 117.972656 220 118.074219 C 220.054688 118.121094 220.113281 118.15625 220.175781 118.199219 C 220.316406 118.289062 220.460938 118.375 220.628906 118.429688 C 220.664062 118.472656 220.699219 118.484375 220.75 118.5 Z M 200.480469 106.183594 C 200.917969 105.449219 200.941406 104.539062 200.542969 103.78125 C 200.140625 103.019531 199.371094 102.535156 198.519531 102.484375 L 190.261719 102.011719 L 190.164062 93.027344 C 190.152344 91.949219 189.4375 91.003906 188.394531 90.707031 C 187.363281 90.40625 186.25 90.820312 185.664062 91.722656 L 173.730469 110.035156 C 173.253906 110.761719 173.199219 111.6875 173.589844 112.464844 C 173.976562 113.242188 174.753906 113.753906 175.613281 113.816406 L 184.527344 114.402344 L 184.6875 123.730469 C 184.710938 124.824219 185.453125 125.769531 186.503906 126.046875 C 186.710938 126.105469 186.921875 126.132812 187.132812 126.132812 C 187.980469 126.132812 188.785156 125.691406 189.234375 124.941406 Z M 200.480469 106.183594"/><path fill="#FB0" d="M 214.230469 135.96875 C 214.355469 137.378906 214.417969 138.796875 214.417969 140.207031 C 214.417969 153.523438 208.929688 165.183594 200.792969 171.441406 C 200.722656 171.484375 200.652344 171.539062 200.589844 171.601562 C 196.605469 174.605469 192 176.320312 187.097656 176.320312 C 182.554688 176.320312 178.261719 174.851562 174.496094 172.246094 C 174.488281 172.238281 174.488281 172.238281 174.488281 172.238281 C 174.390625 172.164062 174.292969 172.085938 174.1875 172.03125 C 165.609375 165.929688 159.777344 153.957031 159.777344 140.21875 C 159.777344 138.828125 159.839844 137.410156 159.964844 136.027344 C 159.972656 136.019531 159.972656 136.003906 159.972656 135.996094 C 159.972656 135.984375 159.972656 135.96875 159.972656 135.949219 C 160.015625 135.464844 160.070312 134.976562 160.132812 134.484375 C 167.871094 136.046875 177.308594 136.886719 187.113281 136.886719 C 196.878906 136.886719 206.351562 136.039062 214.089844 134.484375 C 214.125 134.960938 214.1875 135.464844 214.230469 135.96875 Z M 214.230469 135.96875"/><path fill="#FB0" d="M 199.703125 177.933594 L 199.703125 186.46875 L 187.53125 200.570312 L 175.363281 186.460938 L 175.363281 178.394531 C 179.003906 180.207031 182.953125 181.203125 187.089844 181.203125 C 191.558594 181.203125 195.824219 180.039062 199.703125 177.933594 Z M 199.703125 177.933594"/><path fill="#FB0" d="M 251.535156 224.734375 L 251.535156 287.910156 C 251.535156 289.226562 250.464844 290.300781 249.148438 290.300781 L 233.480469 290.300781 L 233.480469 199.574219 C 244.304688 203.214844 251.535156 213.242188 251.535156 224.734375 Z M 251.535156 224.734375"/><path fill="#FB0" d="M 141.835938 199.492188 L 141.835938 290.300781 L 125.914062 290.300781 C 124.597656 290.300781 123.527344 289.226562 123.527344 287.910156 L 123.527344 224.734375 C 123.527344 213.160156 130.863281 203.070312 141.835938 199.492188 Z M 141.835938 199.492188"/><path fill="#FB0" d="M 172.070312 190.144531 L 183.898438 203.851562 L 172.625 211.652344 L 162.074219 193.230469 Z M 172.070312 190.144531"/><path fill="#FB0" d="M 212.992188 193.230469 L 202.4375 211.652344 L 191.164062 203.851562 L 202.992188 190.144531 Z M 212.992188 193.230469"/><path fill="#FB0" d="M 228.585938 198.054688 L 228.585938 290.304688 L 146.722656 290.304688 L 146.722656 197.980469 L 157.277344 194.714844 L 169.699219 216.402344 C 170.035156 216.996094 170.609375 217.417969 171.28125 217.570312 C 171.953125 217.71875 172.652344 217.585938 173.214844 217.191406 L 187.53125 207.292969 L 201.851562 217.191406 C 202.265625 217.480469 202.746094 217.625 203.246094 217.625 C 203.425781 217.625 203.609375 217.605469 203.789062 217.570312 C 204.457031 217.417969 205.03125 216.988281 205.371094 216.402344 L 217.792969 194.714844 Z M 228.585938 198.054688"/><path d="M 215.140625 144.644531 C 215.140625 145.117188 215.046875 145.570312 214.867188 146.007812 C 214.6875 146.445312 214.429688 146.832031 214.09375 147.167969 C 213.757812 147.503906 213.371094 147.761719 212.933594 147.941406 C 212.496094 148.125 212.039062 148.214844 211.566406 148.214844 C 211.09375 148.214844 210.636719 148.125 210.199219 147.941406 C 209.761719 147.761719 209.375 147.503906 209.039062 147.167969 C 208.703125 146.832031 208.445312 146.445312 208.265625 146.007812 C 208.085938 145.570312 207.992188 145.117188 207.992188 144.644531 C 207.992188 144.167969 208.085938 143.714844 208.265625 143.277344 C 208.445312 142.839844 208.703125 142.453125 209.039062 142.117188 C 209.375 141.78125 209.761719 141.523438 210.199219 141.34375 C 210.636719 141.160156 211.09375 141.070312 211.566406 141.070312 C 212.039062 141.070312 212.496094 141.160156 212.933594 141.34375 C 213.371094 141.523438 213.757812 141.78125 214.09375 142.117188 C 214.429688 142.453125 214.6875 142.839844 214.867188 143.277344 C 215.046875 143.714844 215.140625 144.167969 215.140625 144.644531 Z M 215.140625 144.644531"/><path d="M 179.410156 144.644531 C 179.410156 145.117188 179.320312 145.570312 179.136719 146.007812 C 178.957031 146.445312 178.699219 146.832031 178.363281 147.167969 C 178.027344 147.503906 177.640625 147.761719 177.203125 147.941406 C 176.765625 148.125 176.308594 148.214844 175.835938 148.214844 C 175.363281 148.214844 174.90625 148.125 174.46875 147.941406 C 174.03125 147.761719 173.644531 147.503906 173.308594 147.167969 C 172.976562 146.832031 172.714844 146.445312 172.535156 146.007812 C 172.355469 145.570312 172.261719 145.117188 172.261719 144.644531 C 172.261719 144.167969 172.355469 143.714844 172.535156 143.277344 C 172.714844 142.839844 172.976562 142.453125 173.308594 142.117188 C 173.644531 141.78125 174.03125 141.523438 174.46875 141.34375 C 174.90625 141.160156 175.363281 141.070312 175.835938 141.070312 C 176.308594 141.070312 176.765625 141.160156 177.203125 141.34375 C 177.640625 141.523438 178.027344 141.78125 178.363281 142.117188 C 178.699219 142.453125 178.957031 142.839844 179.136719 143.277344 C 179.320312 143.714844 179.410156 144.167969 179.410156 144.644531 Z M 179.410156 144.644531"/><path d="M 218.445312 126.289062 C 213.988281 123.148438 208.082031 124.144531 207.832031 124.1875 C 206.859375 124.359375 206.214844 125.28125 206.382812 126.25 C 206.550781 127.222656 207.476562 127.871094 208.445312 127.707031 C 208.492188 127.699219 213.160156 126.933594 216.386719 129.210938 C 216.699219 129.429688 217.058594 129.535156 217.414062 129.535156 C 217.976562 129.535156 218.527344 129.273438 218.878906 128.777344 C 219.445312 127.972656 219.253906 126.859375 218.445312 126.289062 Z M 218.445312 126.289062"/><path d="M 179.5625 124.1875 C 179.3125 124.144531 173.40625 123.148438 168.945312 126.289062 C 168.140625 126.859375 167.949219 127.972656 168.515625 128.777344 C 168.863281 129.273438 169.417969 129.535156 169.976562 129.535156 C 170.332031 129.535156 170.691406 129.429688 171.003906 129.210938 C 174.222656 126.941406 178.867188 127.691406 178.945312 127.707031 C 179.917969 127.875 180.839844 127.226562 181.011719 126.257812 C 181.183594 125.285156 180.535156 124.359375 179.5625 124.1875 Z M 179.5625 124.1875"/><path d="M 187.855469 159.890625 C 189.785156 160.4375 191.753906 160.714844 193.703125 160.714844 C 195.652344 160.714844 197.617188 160.4375 199.546875 159.890625 C 200.496094 159.625 201.046875 158.636719 200.78125 157.6875 C 200.511719 156.738281 199.523438 156.1875 198.574219 156.457031 C 195.347656 157.367188 192.054688 157.367188 188.828125 156.457031 C 187.875 156.1875 186.890625 156.738281 186.625 157.6875 C 186.355469 158.636719 186.90625 159.625 187.855469 159.890625 Z M 187.855469 159.890625"/><g clip-path="url(#b)"><path d="M 294.054688 206 C 294.054688 205.996094 294.050781 205.992188 294.050781 205.988281 C 294.050781 205.886719 294.039062 205.789062 294.023438 205.691406 C 294.015625 205.652344 294.007812 205.617188 294 205.578125 C 293.980469 205.511719 293.960938 205.449219 293.9375 205.386719 C 293.925781 205.347656 293.914062 205.3125 293.898438 205.277344 C 293.859375 205.195312 293.816406 205.117188 293.769531 205.039062 C 293.742188 205 293.714844 204.960938 293.683594 204.921875 C 293.652344 204.882812 293.621094 204.84375 293.589844 204.808594 C 293.554688 204.769531 293.519531 204.730469 293.480469 204.695312 C 293.445312 204.664062 293.410156 204.636719 293.375 204.609375 C 293.292969 204.542969 293.207031 204.488281 293.113281 204.4375 C 293.089844 204.421875 293.066406 204.40625 293.039062 204.394531 C 293.035156 204.390625 293.03125 204.390625 293.027344 204.390625 C 292.96875 204.363281 292.910156 204.339844 292.851562 204.320312 C 292.816406 204.308594 292.78125 204.296875 292.746094 204.289062 C 292.6875 204.269531 292.625 204.253906 292.5625 204.246094 C 292.523438 204.238281 292.484375 204.234375 292.441406 204.230469 C 292.382812 204.226562 292.328125 204.214844 292.265625 204.214844 L 206.199219 204.214844 L 206.203125 197.699219 C 217.464844 193.597656 226.695312 184.808594 230.957031 177.703125 C 231.996094 175.980469 232.976562 173.867188 233.878906 171.417969 C 239.140625 171.34375 244.089844 167.511719 246.25 161.65625 C 248.988281 154.207031 246.101562 146.109375 239.820312 143.613281 C 239.707031 143.570312 239.59375 143.527344 239.476562 143.488281 C 239.503906 143.183594 239.535156 142.878906 239.558594 142.574219 C 244.058594 130.859375 243.121094 110.15625 232.488281 94.53125 C 226.425781 85.621094 214.773438 75 193.699219 75 C 172.480469 75 160.796875 85.652344 154.734375 94.585938 C 144.257812 110.019531 143.339844 130.378906 147.777344 141.878906 C 147.789062 142.035156 147.804688 142.1875 147.816406 142.320312 C 147.847656 142.714844 147.882812 143.101562 147.917969 143.488281 C 147.804688 143.527344 147.691406 143.570312 147.582031 143.613281 C 141.292969 146.113281 138.40625 154.207031 141.144531 161.65625 C 143.304688 167.515625 148.253906 171.34375 153.515625 171.417969 C 154.421875 173.871094 155.402344 175.980469 156.4375 177.703125 C 160.699219 184.808594 169.929688 193.597656 181.191406 197.699219 L 181.195312 204.214844 L 171.761719 204.214844 L 171.761719 195.746094 C 171.761719 195.167969 171.480469 194.621094 171.007812 194.289062 C 170.535156 193.953125 169.929688 193.871094 169.382812 194.0625 L 140.625 204.214844 L 106.3125 204.214844 C 105.90625 204.214844 105.511719 204.351562 105.195312 204.605469 L 81.828125 223.300781 C 81.804688 223.320312 81.789062 223.34375 81.765625 223.363281 C 81.71875 223.402344 81.675781 223.449219 81.632812 223.492188 C 81.59375 223.535156 81.558594 223.578125 81.523438 223.621094 C 81.488281 223.667969 81.457031 223.714844 81.425781 223.765625 C 81.398438 223.8125 81.367188 223.863281 81.34375 223.914062 C 81.316406 223.964844 81.296875 224.019531 81.277344 224.074219 C 81.257812 224.125 81.238281 224.179688 81.222656 224.234375 C 81.207031 224.289062 81.199219 224.34375 81.1875 224.402344 C 81.179688 224.460938 81.167969 224.523438 81.167969 224.582031 C 81.164062 224.609375 81.15625 224.632812 81.15625 224.660156 L 81.050781 230.054688 C 81.050781 230.058594 81.050781 230.066406 81.050781 230.070312 C 81.050781 230.078125 81.050781 230.082031 81.050781 230.089844 L 81.050781 260.339844 C 81.050781 264.195312 84.117188 268.507812 88.230469 268.535156 C 88.230469 268.535156 88.234375 268.535156 88.234375 268.535156 C 88.816406 268.546875 89.445312 268.558594 90.113281 268.558594 C 94.664062 268.558594 100.988281 267.976562 105.351562 262.515625 C 105.351562 262.515625 105.355469 262.511719 105.355469 262.511719 C 105.355469 262.511719 105.359375 262.507812 105.359375 262.507812 L 110.539062 255.945312 L 126.675781 250.441406 C 126.695312 250.433594 126.714844 250.421875 126.730469 250.414062 C 126.792969 250.390625 126.851562 250.363281 126.90625 250.335938 C 126.957031 250.308594 127.007812 250.285156 127.050781 250.257812 C 127.101562 250.226562 127.144531 250.191406 127.191406 250.15625 C 127.238281 250.121094 127.285156 250.082031 127.328125 250.042969 C 127.367188 250.003906 127.402344 249.964844 127.4375 249.921875 C 127.476562 249.878906 127.515625 249.835938 127.550781 249.785156 C 127.585938 249.738281 127.613281 249.691406 127.640625 249.640625 C 127.667969 249.589844 127.699219 249.542969 127.722656 249.492188 C 127.746094 249.441406 127.761719 249.386719 127.78125 249.332031 C 127.800781 249.277344 127.820312 249.21875 127.835938 249.164062 C 127.847656 249.109375 127.855469 249.058594 127.859375 249.003906 C 127.871094 248.9375 127.878906 248.875 127.882812 248.808594 C 127.882812 248.789062 127.886719 248.769531 127.886719 248.75 L 127.886719 242.523438 L 132.242188 235.378906 L 136.890625 238.296875 C 136.96875 238.347656 137.046875 238.386719 137.128906 238.421875 C 137.152344 238.429688 137.171875 238.4375 137.195312 238.445312 C 137.273438 238.476562 137.351562 238.5 137.433594 238.519531 C 137.460938 238.527344 137.488281 238.53125 137.515625 238.539062 C 137.617188 238.558594 137.722656 238.570312 137.824219 238.570312 C 137.832031 238.570312 137.835938 238.570312 137.84375 238.570312 L 143.429688 238.570312 C 135.140625 250.0625 129.027344 264.25 125.246094 280.820312 C 124.003906 286.253906 122.996094 292.03125 122.25 297.992188 C 122.1875 298.5 122.34375 299.011719 122.683594 299.394531 C 123.023438 299.78125 123.511719 300 124.023438 300 L 263.371094 300 C 263.882812 300 264.371094 299.78125 264.710938 299.394531 C 265.046875 299.011719 265.207031 298.5 265.144531 297.992188 C 264.578125 293.457031 263.851562 288.992188 262.988281 284.710938 C 259.289062 266.449219 252.894531 250.953125 243.964844 238.570312 L 269.007812 238.570312 C 269.085938 238.570312 269.160156 238.558594 269.234375 238.546875 C 269.257812 238.542969 269.285156 238.542969 269.308594 238.539062 C 269.378906 238.527344 269.449219 238.507812 269.515625 238.488281 C 269.550781 238.476562 269.585938 238.46875 269.621094 238.453125 C 269.6875 238.429688 269.746094 238.402344 269.804688 238.375 C 269.84375 238.355469 269.878906 238.335938 269.917969 238.3125 C 269.972656 238.28125 270.023438 238.246094 270.074219 238.207031 C 270.09375 238.195312 270.109375 238.183594 270.125 238.171875 L 293.386719 219.480469 C 293.808594 219.140625 294.050781 218.628906 294.050781 218.089844 L 294.050781 206.003906 C 294.050781 206.003906 294.050781 206.003906 294.050781 206 C 294.054688 206 294.054688 206 294.054688 206 Z M 287.199219 207.785156 L 268.378906 222.910156 L 229.347656 222.910156 C 227.175781 221.128906 224.902344 219.453125 222.570312 217.9375 C 222.570312 217.933594 222.570312 217.933594 222.566406 217.933594 C 222.558594 217.929688 222.554688 217.925781 222.546875 217.917969 C 220.722656 216.730469 218.84375 215.625 216.929688 214.605469 C 227.617188 214.949219 237.601562 215.644531 240.917969 216.519531 C 240.324219 216.847656 239.371094 217.082031 238.730469 217.148438 C 237.75 217.238281 237.027344 218.109375 237.121094 219.09375 C 237.210938 220.015625 237.988281 220.710938 238.898438 220.710938 C 238.953125 220.710938 239.011719 220.707031 239.070312 220.703125 C 239.65625 220.644531 242.660156 220.273438 244.152344 218.414062 C 244.808594 217.597656 245.082031 216.613281 244.949219 215.566406 C 244.703125 213.621094 242.355469 212.96875 237.820312 212.382812 C 234.871094 212.003906 230.800781 211.675781 225.722656 211.410156 C 218.027344 211.003906 210.28125 210.863281 208.671875 210.839844 C 207.859375 210.527344 207.03125 210.234375 206.195312 209.953125 L 206.195312 207.785156 Z M 238.996094 237.890625 C 248.488281 249.988281 255.28125 265.539062 259.203125 284.113281 C 253.503906 286.9375 246.773438 288.140625 238.71875 287.78125 L 238.71875 263.113281 C 238.71875 262.125 237.917969 261.324219 236.929688 261.324219 C 235.945312 261.324219 235.144531 262.125 235.144531 263.113281 L 235.144531 271.425781 L 223.355469 262.238281 L 223.355469 222.8125 C 224.800781 223.847656 226.21875 224.9375 227.585938 226.078125 C 231.71875 229.535156 235.558594 233.507812 238.996094 237.890625 Z M 139.480469 226.480469 L 153.988281 226.480469 C 151.214844 229.097656 148.589844 231.949219 146.144531 235 L 139.601562 235 Z M 148.402344 237.886719 C 151.855469 233.488281 155.699219 229.511719 159.824219 226.070312 C 161.183594 224.933594 162.59375 223.847656 164.035156 222.808594 L 164.035156 262.238281 L 152.246094 271.425781 L 152.246094 263.113281 C 152.246094 262.125 151.445312 261.324219 150.460938 261.324219 C 149.472656 261.324219 148.671875 262.125 148.671875 263.113281 L 148.671875 287.578125 C 141 287.046875 134.394531 284.675781 128.992188 280.523438 C 133.003906 263.539062 139.527344 249.195312 148.402344 237.886719 Z M 202.625 205.988281 C 202.625 205.992188 202.625 205.996094 202.625 206 C 202.625 206.003906 202.625 206.007812 202.625 206.011719 L 202.621094 210.414062 C 196.527344 215.480469 190.824219 215.484375 184.773438 210.417969 L 184.769531 206.007812 C 184.769531 206.003906 184.773438 206.003906 184.773438 206 C 184.773438 205.996094 184.769531 205.996094 184.769531 205.992188 L 184.765625 198.8125 C 187.765625 199.597656 190.761719 200 193.699219 200 C 196.632812 200 199.625 199.597656 202.628906 198.8125 Z M 182.59375 213.25 C 186.222656 216.242188 189.945312 217.742188 193.675781 217.742188 C 197.40625 217.742188 201.144531 216.242188 204.796875 213.25 C 205.773438 213.578125 206.746094 213.917969 207.695312 214.285156 C 208.382812 214.550781 209.082031 214.839844 209.78125 215.136719 L 209.777344 261.324219 L 177.617188 261.324219 L 177.617188 215.140625 C 179.257812 214.441406 180.921875 213.808594 182.59375 213.25 Z M 220.476562 278.136719 C 220.476562 279.824219 219.105469 281.195312 217.417969 281.195312 C 215.730469 281.195312 214.359375 279.824219 214.359375 278.136719 C 214.359375 276.453125 215.730469 275.082031 217.417969 275.082031 C 219.105469 275.082031 220.476562 276.453125 220.476562 278.136719 Z M 169.976562 275.082031 C 171.664062 275.082031 173.035156 276.453125 173.035156 278.136719 C 173.035156 279.824219 171.664062 281.195312 169.976562 281.195312 C 168.289062 281.195312 166.917969 279.824219 166.917969 278.136719 C 166.917969 276.453125 168.289062 275.082031 169.976562 275.082031 Z M 242.894531 160.421875 C 241.46875 164.296875 238.402344 167.070312 235.121094 167.710938 C 236.695312 162.507812 237.972656 156.234375 238.839844 149.382812 C 238.933594 148.671875 239.019531 147.949219 239.101562 147.21875 C 243.167969 149.296875 244.875 155.039062 242.894531 160.421875 Z M 200.285156 145.109375 C 199.945312 144.753906 199.480469 144.554688 198.988281 144.554688 L 188.34375 144.554688 C 187.367188 144.554688 186.570312 145.351562 186.554688 146.324219 C 186.542969 147.085938 186.140625 153.75 175.835938 153.75 C 166.132812 153.75 161.367188 149.664062 160.066406 148.324219 L 160.066406 141.035156 C 182.371094 133.15625 204.992188 133.15625 227.347656 141.035156 L 227.347656 146.789062 C 226.292969 148.261719 221.6875 153.75 211.457031 153.75 C 207.421875 153.75 204.464844 152.808594 202.660156 150.945312 C 200.71875 148.941406 200.773438 146.515625 200.773438 146.425781 C 200.796875 145.9375 200.621094 145.460938 200.285156 145.109375 Z M 157.742188 138.078125 L 151.851562 139.703125 C 154.714844 129.304688 159.386719 120.695312 165.769531 114.058594 C 166.371094 116.160156 166.003906 118.613281 164.660156 121.710938 C 164.367188 122.390625 164.523438 123.183594 165.054688 123.699219 C 165.585938 124.214844 166.378906 124.351562 167.050781 124.042969 C 174.804688 120.457031 180.136719 115.738281 182.96875 109.96875 C 185.859375 115.859375 191.398438 120.367188 199.5 123.410156 C 200.1875 123.667969 200.960938 123.480469 201.453125 122.9375 C 201.945312 122.394531 202.054688 121.605469 201.730469 120.949219 C 200.390625 118.226562 199.785156 115.886719 199.90625 113.785156 C 205.722656 119.234375 212.675781 122.949219 220.621094 124.839844 C 221.207031 124.980469 221.824219 124.8125 222.261719 124.402344 C 222.703125 123.988281 222.902344 123.378906 222.792969 122.789062 C 222.371094 120.417969 222.644531 118.738281 223.222656 117.261719 C 227.992188 122.226562 231.835938 129.433594 235.128906 139.585938 L 229.667969 138.078125 C 205.78125 129.375 181.582031 129.375 157.742188 138.078125 Z M 152.0625 148.613281 C 151.898438 147.289062 151.742188 145.964844 151.617188 144.632812 C 151.578125 144.261719 151.542969 143.882812 151.507812 143.503906 L 156.492188 142.125 L 156.492188 147.582031 Z M 230.917969 142.128906 L 235.890625 143.503906 C 235.859375 143.816406 235.835938 144.132812 235.804688 144.441406 C 235.78125 144.5625 235.765625 144.6875 235.765625 144.816406 C 235.765625 144.824219 235.765625 144.828125 235.765625 144.835938 C 235.691406 145.550781 235.617188 146.261719 235.535156 146.96875 L 230.917969 145.90625 Z M 144.5 160.425781 C 142.515625 155.035156 144.226562 149.289062 148.296875 147.214844 C 148.441406 148.496094 148.597656 149.777344 148.773438 151.042969 C 149.632812 157.234375 150.832031 162.933594 152.277344 167.710938 C 148.992188 167.074219 145.925781 164.296875 144.5 160.425781 Z M 159.5 175.867188 C 158.417969 174.066406 157.386719 171.753906 156.441406 168.996094 C 156.429688 168.964844 156.421875 168.9375 156.410156 168.90625 C 156.40625 168.898438 156.40625 168.886719 156.402344 168.878906 C 154.828125 164.277344 153.503906 158.53125 152.546875 152.167969 L 157.675781 150.972656 C 159.636719 152.90625 165.277344 157.320312 175.835938 157.320312 C 186.40625 157.320312 189.160156 151.234375 189.878906 148.125 L 197.375 148.125 C 197.640625 149.550781 198.324219 151.570312 200.03125 153.367188 C 202.53125 155.992188 206.375 157.320312 211.457031 157.320312 C 222.457031 157.320312 227.996094 151.773438 229.898438 149.335938 L 235.082031 150.53125 C 234.113281 157.554688 232.707031 163.863281 230.996094 168.867188 C 230.980469 168.902344 230.972656 168.941406 230.960938 168.976562 C 230.957031 168.984375 230.957031 168.988281 230.953125 168.996094 C 230.003906 171.753906 228.976562 174.066406 227.894531 175.867188 C 223.949219 182.441406 214.742188 191.148438 203.859375 194.730469 C 200.433594 195.855469 197.015625 196.429688 193.699219 196.429688 C 190.378906 196.429688 186.960938 195.859375 183.535156 194.730469 C 172.652344 191.148438 163.445312 182.441406 159.5 175.867188 Z M 181.199219 209.949219 C 179.160156 210.640625 177.125 211.433594 175.140625 212.316406 C 175.140625 212.320312 175.136719 212.320312 175.132812 212.320312 C 175.125 212.324219 175.113281 212.328125 175.105469 212.332031 C 171.582031 213.902344 168.128906 215.78125 164.851562 217.917969 C 164.847656 217.917969 164.84375 217.921875 164.84375 217.921875 C 164.832031 217.929688 164.820312 217.9375 164.808594 217.945312 C 162.476562 219.464844 160.207031 221.136719 158.050781 222.910156 L 144.523438 222.910156 L 170.664062 207.785156 L 181.199219 207.785156 Z M 106.9375 207.785156 L 130.511719 207.785156 L 125.503906 209.550781 C 125.503906 209.550781 125.503906 209.554688 125.503906 209.554688 C 125.503906 209.554688 125.503906 209.554688 125.5 209.554688 L 88.09375 222.863281 Z M 117.53125 225.585938 L 117.53125 240.632812 L 111.011719 242.863281 C 110.699219 242.46875 110.289062 242.082031 109.753906 241.785156 C 109.019531 241.371094 107.78125 240.988281 106.0625 241.511719 C 104.363281 242.039062 103.222656 243.292969 102.46875 244.558594 C 101.152344 243.3125 99.453125 242.550781 97.394531 242.261719 L 97.394531 232.457031 Z M 108.886719 252.734375 C 108.5625 252.84375 108.273438 253.046875 108.0625 253.316406 L 102.558594 260.289062 C 98.953125 264.796875 93.757812 265.070312 88.304688 264.964844 C 88.300781 264.964844 88.292969 264.964844 88.289062 264.964844 C 88.28125 264.964844 88.273438 264.964844 88.265625 264.964844 C 86.335938 264.964844 84.621094 262.378906 84.621094 260.339844 L 84.621094 230.101562 L 84.695312 226.480469 L 88.261719 226.480469 C 88.261719 226.480469 88.265625 226.480469 88.265625 226.480469 C 88.269531 226.480469 88.269531 226.480469 88.269531 226.480469 L 90.160156 226.480469 C 90.714844 226.480469 91.273438 226.613281 91.789062 226.867188 C 93.023438 227.46875 93.824219 228.734375 93.824219 230.089844 L 93.824219 251.6875 C 93.824219 252.671875 94.621094 253.472656 95.609375 253.472656 C 96.59375 253.472656 97.394531 252.671875 97.394531 251.6875 L 97.394531 245.875 C 99.269531 246.253906 100.503906 247.261719 101.285156 249.011719 C 101.574219 249.660156 102.214844 250.066406 102.914062 250.066406 C 102.980469 250.066406 103.042969 250.066406 103.109375 250.058594 C 103.882812 249.972656 104.511719 249.398438 104.667969 248.636719 C 104.832031 247.820312 105.644531 245.382812 107.113281 244.921875 C 107.824219 244.707031 108.035156 244.902344 108.125 244.984375 C 108.308594 245.15625 108.421875 245.425781 108.4375 245.480469 C 108.5625 245.964844 108.882812 246.371094 109.320312 246.609375 C 109.757812 246.84375 110.277344 246.886719 110.746094 246.726562 L 119.894531 243.601562 C 119.914062 243.59375 119.929688 243.582031 119.945312 243.574219 C 120.007812 243.550781 120.066406 243.523438 120.121094 243.496094 C 120.171875 243.46875 120.222656 243.445312 120.265625 243.417969 C 120.316406 243.386719 120.359375 243.351562 120.40625 243.316406 C 120.453125 243.28125 120.5 243.246094 120.542969 243.203125 C 120.582031 243.164062 120.617188 243.121094 120.65625 243.082031 C 120.691406 243.035156 120.730469 242.996094 120.765625 242.949219 C 120.796875 242.902344 120.828125 242.847656 120.855469 242.796875 C 120.882812 242.75 120.914062 242.703125 120.9375 242.652344 C 120.960938 242.601562 120.980469 242.542969 120.996094 242.488281 C 121.015625 242.433594 121.035156 242.378906 121.050781 242.324219 C 121.0625 242.269531 121.070312 242.21875 121.078125 242.164062 C 121.085938 242.097656 121.09375 242.035156 121.097656 241.96875 C 121.097656 241.949219 121.101562 241.933594 121.101562 241.910156 L 121.101562 223.089844 C 121.101562 222.515625 120.824219 221.972656 120.355469 221.636719 C 119.886719 221.300781 119.28125 221.214844 118.738281 221.398438 L 97.257812 228.730469 C 96.914062 226.996094 95.929688 225.433594 94.511719 224.371094 L 124.3125 213.769531 L 124.3125 241.992188 C 124.3125 242.011719 124.3125 242.03125 124.3125 242.050781 L 124.3125 247.472656 Z M 132.605469 231.394531 C 132.203125 231.140625 131.710938 231.058594 131.246094 231.167969 C 130.78125 231.277344 130.378906 231.570312 130.132812 231.976562 L 127.886719 235.660156 L 127.886719 226.496094 L 130.375 228.21875 C 130.679688 228.425781 131.035156 228.535156 131.394531 228.535156 C 131.546875 228.535156 131.703125 228.515625 131.855469 228.472656 C 132.363281 228.339844 132.785156 227.984375 133.011719 227.507812 L 134.84375 223.605469 L 135.886719 225.324219 L 136.007812 233.527344 Z M 128.144531 284.332031 C 133.910156 288.359375 140.796875 290.652344 148.671875 291.160156 L 148.671875 296.429688 L 126.058594 296.429688 C 126.625 292.269531 127.328125 288.222656 128.144531 284.332031 Z M 238.71875 296.429688 L 238.71875 291.351562 C 239.644531 291.390625 240.558594 291.417969 241.453125 291.417969 C 248.496094 291.417969 254.589844 290.195312 259.929688 287.722656 C 260.460938 290.566406 260.933594 293.476562 261.335938 296.429688 Z M 267.21875 235 L 241.253906 235 C 238.8125 231.953125 236.1875 229.105469 233.40625 226.480469 L 267.21875 226.480469 Z M 290.480469 217.234375 L 270.792969 233.054688 L 270.792969 225.550781 L 290.480469 209.730469 Z M 290.480469 217.234375"/></g><path d="M 268.878906 218.480469 C 269.863281 218.480469 270.664062 217.683594 270.664062 216.695312 C 270.664062 215.710938 269.863281 214.910156 268.878906 214.910156 C 265.074219 214.910156 262.316406 214.4375 260.777344 213.964844 C 262.316406 213.492188 265.074219 213.019531 268.878906 213.019531 L 276.152344 213.019531 C 277.140625 213.019531 277.9375 212.21875 277.9375 211.230469 C 277.9375 210.246094 277.140625 209.445312 276.152344 209.445312 L 268.878906 209.445312 C 265.875 209.445312 256.078125 209.773438 256.078125 213.964844 C 256.078125 218.15625 265.875 218.480469 268.878906 218.480469 Z M 268.878906 218.480469"/></svg>