<svg xmlns="http://www.w3.org/2000/svg" width="375" viewBox="0 0 375 375" height="375" version="1.0"><defs><clipPath id="a"><path d="M 8.28125 8.28125 L 366.78125 8.28125 L 366.78125 366.78125 L 8.28125 366.78125 Z M 8.28125 8.28125"/></clipPath><clipPath id="b"><path d="M 92 72 L 283 72 L 283 304.476562 L 92 304.476562 Z M 92 72"/></clipPath></defs><g clip-path="url(#a)"><path fill="#FB0" d="M 366.78125 187.53125 C 366.78125 190.464844 366.710938 193.398438 366.566406 196.328125 C 366.421875 199.257812 366.207031 202.183594 365.917969 205.101562 C 365.632812 208.019531 365.273438 210.929688 364.84375 213.832031 C 364.410156 216.734375 363.910156 219.625 363.335938 222.5 C 362.765625 225.378906 362.121094 228.242188 361.410156 231.085938 C 360.695312 233.933594 359.914062 236.757812 359.0625 239.566406 C 358.210938 242.371094 357.292969 245.15625 356.304688 247.917969 C 355.316406 250.679688 354.261719 253.417969 353.136719 256.128906 C 352.015625 258.839844 350.828125 261.519531 349.570312 264.171875 C 348.316406 266.824219 347 269.441406 345.617188 272.03125 C 344.234375 274.617188 342.789062 277.167969 341.28125 279.683594 C 339.773438 282.199219 338.203125 284.679688 336.574219 287.117188 C 334.941406 289.558594 333.253906 291.953125 331.507812 294.3125 C 329.757812 296.667969 327.957031 298.980469 326.09375 301.246094 C 324.234375 303.515625 322.316406 305.734375 320.347656 307.910156 C 318.378906 310.082031 316.355469 312.207031 314.28125 314.28125 C 312.207031 316.355469 310.082031 318.378906 307.910156 320.347656 C 305.734375 322.316406 303.515625 324.234375 301.246094 326.09375 C 298.980469 327.953125 296.667969 329.757812 294.3125 331.507812 C 291.953125 333.253906 289.558594 334.941406 287.117188 336.574219 C 284.679688 338.203125 282.199219 339.773438 279.683594 341.28125 C 277.167969 342.789062 274.617188 344.234375 272.03125 345.617188 C 269.441406 347 266.824219 348.316406 264.171875 349.570312 C 261.519531 350.824219 258.839844 352.015625 256.128906 353.136719 C 253.417969 354.261719 250.679688 355.316406 247.917969 356.304688 C 245.15625 357.292969 242.371094 358.210938 239.566406 359.0625 C 236.757812 359.914062 233.933594 360.695312 231.085938 361.410156 C 228.242188 362.121094 225.378906 362.765625 222.5 363.335938 C 219.625 363.910156 216.734375 364.410156 213.832031 364.839844 C 210.929688 365.273438 208.019531 365.632812 205.101562 365.917969 C 202.183594 366.207031 199.257812 366.421875 196.328125 366.566406 C 193.398438 366.710938 190.464844 366.78125 187.53125 366.78125 C 184.597656 366.78125 181.667969 366.710938 178.738281 366.566406 C 175.804688 366.421875 172.882812 366.207031 169.960938 365.917969 C 167.042969 365.632812 164.132812 365.273438 161.230469 364.839844 C 158.328125 364.410156 155.4375 363.910156 152.5625 363.335938 C 149.683594 362.765625 146.824219 362.121094 143.976562 361.410156 C 141.132812 360.695312 138.304688 359.914062 135.5 359.0625 C 132.691406 358.210938 129.90625 357.292969 127.144531 356.304688 C 124.382812 355.316406 121.644531 354.261719 118.9375 353.136719 C 116.226562 352.015625 113.542969 350.824219 110.894531 349.570312 C 108.242188 348.316406 105.621094 347 103.035156 345.617188 C 100.445312 344.234375 97.894531 342.789062 95.378906 341.28125 C 92.863281 339.773438 90.386719 338.203125 87.945312 336.574219 C 85.507812 334.941406 83.109375 333.253906 80.753906 331.507812 C 78.398438 329.757812 76.085938 327.953125 73.816406 326.09375 C 71.550781 324.234375 69.328125 322.316406 67.15625 320.347656 C 64.980469 318.378906 62.855469 316.355469 60.78125 314.28125 C 58.707031 312.207031 56.6875 310.082031 54.714844 307.910156 C 52.746094 305.734375 50.832031 303.515625 48.96875 301.246094 C 47.109375 298.980469 45.304688 296.667969 43.558594 294.3125 C 41.808594 291.953125 40.121094 289.558594 38.492188 287.117188 C 36.859375 284.679688 35.292969 282.199219 33.785156 279.683594 C 32.277344 277.167969 30.832031 274.617188 29.449219 272.03125 C 28.066406 269.441406 26.746094 266.824219 25.492188 264.171875 C 24.238281 261.519531 23.050781 258.839844 21.925781 256.128906 C 20.804688 253.417969 19.75 250.679688 18.761719 247.917969 C 17.773438 245.15625 16.851562 242.371094 16 239.566406 C 15.148438 236.757812 14.367188 233.933594 13.652344 231.085938 C 12.941406 228.242188 12.296875 225.378906 11.726562 222.5 C 11.152344 219.625 10.652344 216.734375 10.222656 213.832031 C 9.792969 210.929688 9.433594 208.019531 9.144531 205.101562 C 8.859375 202.183594 8.640625 199.257812 8.496094 196.328125 C 8.355469 193.398438 8.28125 190.464844 8.28125 187.53125 C 8.28125 184.597656 8.355469 181.667969 8.496094 178.738281 C 8.640625 175.804688 8.859375 172.882812 9.144531 169.960938 C 9.433594 167.042969 9.792969 164.132812 10.222656 161.230469 C 10.652344 158.328125 11.152344 155.4375 11.726562 152.5625 C 12.296875 149.683594 12.941406 146.824219 13.652344 143.976562 C 14.367188 141.132812 15.148438 138.304688 16 135.5 C 16.851562 132.691406 17.773438 129.90625 18.761719 127.144531 C 19.75 124.382812 20.804688 121.644531 21.925781 118.9375 C 23.050781 116.226562 24.238281 113.542969 25.492188 110.894531 C 26.746094 108.242188 28.066406 105.621094 29.449219 103.035156 C 30.832031 100.445312 32.277344 97.894531 33.785156 95.378906 C 35.292969 92.863281 36.859375 90.386719 38.492188 87.945312 C 40.121094 85.507812 41.808594 83.109375 43.558594 80.753906 C 45.304688 78.398438 47.109375 76.085938 48.96875 73.816406 C 50.832031 71.550781 52.746094 69.328125 54.714844 67.15625 C 56.6875 64.980469 58.707031 62.855469 60.78125 60.78125 C 62.855469 58.707031 64.980469 56.6875 67.15625 54.714844 C 69.328125 52.746094 71.550781 50.832031 73.816406 48.96875 C 76.085938 47.109375 78.398438 45.304688 80.753906 43.558594 C 83.109375 41.808594 85.507812 40.121094 87.945312 38.492188 C 90.386719 36.859375 92.863281 35.292969 95.378906 33.785156 C 97.894531 32.277344 100.445312 30.832031 103.035156 29.449219 C 105.621094 28.066406 108.242188 26.746094 110.894531 25.492188 C 113.542969 24.238281 116.226562 23.050781 118.9375 21.925781 C 121.644531 20.804688 124.382812 19.75 127.144531 18.761719 C 129.90625 17.773438 132.691406 16.851562 135.5 16 C 138.304688 15.148438 141.132812 14.367188 143.976562 13.652344 C 146.824219 12.941406 149.683594 12.296875 152.5625 11.726562 C 155.4375 11.152344 158.328125 10.652344 161.230469 10.222656 C 164.132812 9.792969 167.042969 9.433594 169.960938 9.144531 C 172.882812 8.859375 175.804688 8.640625 178.738281 8.496094 C 181.667969 8.355469 184.597656 8.28125 187.53125 8.28125 C 190.464844 8.28125 193.398438 8.355469 196.328125 8.496094 C 199.257812 8.640625 202.183594 8.859375 205.101562 9.144531 C 208.019531 9.433594 210.929688 9.792969 213.832031 10.222656 C 216.734375 10.652344 219.625 11.152344 222.5 11.726562 C 225.378906 12.296875 228.242188 12.941406 231.085938 13.652344 C 233.933594 14.367188 236.757812 15.148438 239.566406 16 C 242.371094 16.851562 245.15625 17.773438 247.917969 18.761719 C 250.679688 19.75 253.417969 20.804688 256.128906 21.925781 C 258.839844 23.050781 261.519531 24.238281 264.171875 25.492188 C 266.824219 26.746094 269.441406 28.066406 272.03125 29.449219 C 274.617188 30.832031 277.167969 32.277344 279.683594 33.785156 C 282.199219 35.292969 284.679688 36.859375 287.117188 38.492188 C 289.558594 40.121094 291.953125 41.808594 294.3125 43.558594 C 296.667969 45.304688 298.980469 47.109375 301.246094 48.96875 C 303.515625 50.832031 305.734375 52.746094 307.910156 54.714844 C 310.082031 56.6875 312.207031 58.707031 314.28125 60.78125 C 316.355469 62.855469 318.378906 64.980469 320.347656 67.15625 C 322.316406 69.328125 324.234375 71.550781 326.09375 73.816406 C 327.957031 76.085938 329.757812 78.398438 331.507812 80.753906 C 333.253906 83.109375 334.941406 85.507812 336.574219 87.945312 C 338.203125 90.386719 339.773438 92.863281 341.28125 95.378906 C 342.789062 97.894531 344.234375 100.445312 345.617188 103.035156 C 347 105.621094 348.316406 108.242188 349.570312 110.894531 C 350.828125 113.542969 352.015625 116.226562 353.136719 118.9375 C 354.261719 121.644531 355.316406 124.382812 356.304688 127.144531 C 357.292969 129.90625 358.210938 132.691406 359.0625 135.5 C 359.914062 138.304688 360.695312 141.132812 361.410156 143.976562 C 362.121094 146.824219 362.765625 149.683594 363.335938 152.5625 C 363.910156 155.4375 364.410156 158.328125 364.84375 161.230469 C 365.273438 164.132812 365.632812 167.042969 365.917969 169.960938 C 366.207031 172.882812 366.421875 175.804688 366.566406 178.738281 C 366.710938 181.667969 366.78125 184.597656 366.78125 187.53125 Z M 366.78125 187.53125"/></g><path fill="#FB0" d="M 194.203125 107.140625 L 189.449219 115.082031 L 189.394531 112.101562 C 189.289062 110.894531 188.464844 109.65625 187.113281 109.65625 L 180.125 109.195312 L 185.363281 101.15625 L 185.394531 104.328125 C 185.394531 105.75 186.515625 106.636719 187.824219 106.769531 Z M 194.203125 107.140625"/><path fill="#FB0" d="M 220.75 118.5 C 226.800781 120.539062 228.121094 122.511719 228.121094 123.085938 C 228.121094 123.8125 226.328125 126.203125 218.128906 128.476562 C 217.296875 128.707031 216.449219 128.925781 215.609375 129.113281 C 215.457031 129.148438 215.300781 129.183594 215.148438 129.226562 C 215.089844 129.234375 215.035156 129.246094 214.980469 129.269531 C 207.25 131.003906 197.347656 131.964844 187.089844 131.964844 C 176.820312 131.964844 167.003906 131.011719 159.300781 129.289062 C 159.070312 129.15625 158.808594 129.058594 158.523438 129.007812 C 158.332031 128.972656 158.136719 128.96875 157.957031 128.972656 C 156.984375 128.742188 156.023438 128.484375 155.070312 128.199219 C 147.667969 125.992188 146.050781 123.757812 146.050781 123.078125 C 146.050781 122.414062 147.417969 120.664062 152.585938 118.792969 C 152.59375 118.785156 152.605469 118.785156 152.613281 118.785156 C 152.65625 118.773438 152.695312 118.75 152.746094 118.730469 C 152.933594 118.648438 153.101562 118.542969 153.25 118.421875 C 153.292969 118.386719 153.335938 118.351562 153.382812 118.3125 C 153.40625 118.289062 153.433594 118.269531 153.453125 118.242188 C 153.566406 118.128906 153.664062 118.015625 153.746094 117.882812 C 153.84375 117.742188 153.929688 117.601562 153.992188 117.441406 C 154.125 117.128906 154.195312 116.792969 154.1875 116.441406 C 154.585938 98.957031 169.125 84.742188 186.644531 84.742188 C 204.289062 84.742188 218.523438 98.53125 219.082031 116.148438 C 219.082031 116.175781 219.082031 116.203125 219.089844 116.230469 C 219.089844 116.316406 219.097656 116.398438 219.109375 116.476562 C 219.144531 116.796875 219.25 117.097656 219.40625 117.371094 C 219.476562 117.503906 219.566406 117.632812 219.671875 117.75 C 219.761719 117.871094 219.875 117.972656 220 118.074219 C 220.054688 118.121094 220.113281 118.15625 220.175781 118.199219 C 220.316406 118.289062 220.460938 118.375 220.628906 118.429688 C 220.664062 118.472656 220.699219 118.484375 220.75 118.5 Z M 200.480469 106.183594 C 200.917969 105.449219 200.941406 104.539062 200.542969 103.78125 C 200.140625 103.019531 199.371094 102.535156 198.519531 102.484375 L 190.261719 102.011719 L 190.164062 93.027344 C 190.152344 91.949219 189.4375 91.003906 188.394531 90.707031 C 187.363281 90.40625 186.25 90.820312 185.664062 91.722656 L 173.730469 110.035156 C 173.253906 110.761719 173.199219 111.6875 173.589844 112.464844 C 173.976562 113.242188 174.753906 113.753906 175.613281 113.816406 L 184.527344 114.402344 L 184.6875 123.730469 C 184.710938 124.824219 185.453125 125.769531 186.503906 126.046875 C 186.710938 126.105469 186.921875 126.132812 187.132812 126.132812 C 187.980469 126.132812 188.785156 125.691406 189.234375 124.941406 Z M 200.480469 106.183594"/><path fill="#FB0" d="M 214.230469 135.96875 C 214.355469 137.375 214.417969 138.796875 214.417969 140.207031 C 214.417969 153.523438 208.929688 165.183594 200.792969 171.441406 C 200.722656 171.484375 200.652344 171.539062 200.589844 171.601562 C 196.605469 174.605469 192 176.320312 187.097656 176.320312 C 182.554688 176.320312 178.261719 174.851562 174.496094 172.246094 C 174.488281 172.238281 174.488281 172.238281 174.488281 172.238281 C 174.390625 172.164062 174.292969 172.085938 174.1875 172.03125 C 165.609375 165.929688 159.777344 153.957031 159.777344 140.21875 C 159.777344 138.828125 159.839844 137.410156 159.964844 136.027344 C 159.972656 136.019531 159.972656 136.003906 159.972656 135.996094 C 159.972656 135.984375 159.972656 135.96875 159.972656 135.949219 C 160.015625 135.464844 160.070312 134.976562 160.132812 134.484375 C 167.871094 136.046875 177.308594 136.886719 187.113281 136.886719 C 196.878906 136.886719 206.351562 136.039062 214.089844 134.484375 C 214.125 134.960938 214.1875 135.464844 214.230469 135.96875 Z M 214.230469 135.96875"/><path fill="#FB0" d="M 199.703125 177.933594 L 199.703125 186.46875 L 187.53125 200.570312 L 175.363281 186.460938 L 175.363281 178.394531 C 179.003906 180.207031 182.953125 181.203125 187.089844 181.203125 C 191.558594 181.203125 195.824219 180.039062 199.703125 177.933594 Z M 199.703125 177.933594"/><path fill="#FB0" d="M 251.535156 224.734375 L 251.535156 287.910156 C 251.535156 289.226562 250.464844 290.300781 249.148438 290.300781 L 233.480469 290.300781 L 233.480469 199.574219 C 244.304688 203.214844 251.535156 213.242188 251.535156 224.734375 Z M 251.535156 224.734375"/><path fill="#FB0" d="M 141.835938 199.492188 L 141.835938 290.300781 L 125.914062 290.300781 C 124.597656 290.300781 123.527344 289.226562 123.527344 287.910156 L 123.527344 224.734375 C 123.527344 213.160156 130.863281 203.070312 141.835938 199.492188 Z M 141.835938 199.492188"/><path fill="#FB0" d="M 172.070312 190.144531 L 183.898438 203.851562 L 172.625 211.652344 L 162.074219 193.230469 Z M 172.070312 190.144531"/><path fill="#FB0" d="M 212.992188 193.230469 L 202.4375 211.652344 L 191.164062 203.851562 L 202.992188 190.144531 Z M 212.992188 193.230469"/><path fill="#FB0" d="M 228.585938 198.054688 L 228.585938 290.304688 L 146.722656 290.304688 L 146.722656 197.980469 L 157.277344 194.714844 L 169.699219 216.402344 C 170.035156 216.996094 170.609375 217.417969 171.28125 217.570312 C 171.953125 217.71875 172.652344 217.585938 173.214844 217.191406 L 187.53125 207.292969 L 201.851562 217.191406 C 202.265625 217.480469 202.746094 217.625 203.246094 217.625 C 203.425781 217.625 203.609375 217.605469 203.789062 217.570312 C 204.457031 217.417969 205.03125 216.988281 205.371094 216.402344 L 217.792969 194.714844 Z M 228.585938 198.054688"/><path d="M 233.261719 161.574219 L 182.003906 161.574219 C 180.984375 161.574219 180.160156 162.398438 180.160156 163.417969 L 180.160156 179.238281 L 176.859375 179.238281 C 175.835938 179.238281 175.011719 180.0625 175.011719 181.082031 C 175.011719 182.101562 175.835938 182.925781 176.859375 182.925781 L 180.160156 182.925781 L 180.160156 238.539062 L 176.859375 238.539062 C 175.835938 238.539062 175.011719 239.363281 175.011719 240.382812 C 175.011719 241.402344 175.835938 242.226562 176.859375 242.226562 L 180.160156 242.226562 L 180.160156 258.03125 C 180.160156 259.050781 180.984375 259.875 182.003906 259.875 L 233.261719 259.875 C 234.28125 259.875 235.105469 259.050781 235.105469 258.03125 L 235.105469 163.417969 C 235.105469 162.398438 234.28125 161.574219 233.261719 161.574219 Z M 231.417969 256.1875 L 183.847656 256.1875 L 183.847656 242.226562 L 187.855469 242.226562 C 188.875 242.226562 189.699219 241.402344 189.699219 240.382812 C 189.699219 239.363281 188.875 238.539062 187.855469 238.539062 L 183.847656 238.539062 L 183.847656 182.925781 L 187.855469 182.925781 C 188.875 182.925781 189.699219 182.101562 189.699219 181.082031 C 189.699219 180.0625 188.875 179.238281 187.855469 179.238281 L 183.847656 179.238281 L 183.847656 165.261719 L 231.417969 165.261719 Z M 231.417969 256.1875"/><path d="M 226.179688 219.824219 C 227.199219 219.824219 228.023438 219 228.023438 217.980469 L 228.023438 203.488281 C 228.023438 202.46875 227.199219 201.644531 226.179688 201.644531 C 225.15625 201.644531 224.332031 202.46875 224.332031 203.488281 L 224.332031 217.980469 C 224.332031 218.996094 225.15625 219.824219 226.179688 219.824219 Z M 226.179688 219.824219"/><g clip-path="url(#b)"><path d="M 281.179688 117.691406 L 279.035156 115.027344 C 277.132812 112.691406 273.671875 112.320312 271.316406 114.199219 L 244.070312 135.976562 L 228.960938 135.976562 C 231.4375 133.828125 233.980469 130.675781 234.710938 126.40625 C 235.449219 122.128906 234.183594 116.957031 232.71875 110.96875 C 231.382812 105.507812 229.890625 99.351562 229.910156 93.285156 C 231.789062 91.714844 236.203125 87.273438 235.273438 80.835938 C 234.3125 74.316406 227.257812 72.898438 223.210938 73.011719 C 218.019531 70.5625 211.6875 75.316406 210.453125 76.3125 C 202.117188 79.492188 202.214844 91.316406 202.324219 101.785156 C 202.367188 106.261719 202.410156 110.488281 201.878906 113.941406 C 200.246094 124.648438 192.324219 133.742188 190.238281 135.976562 L 184.792969 135.976562 L 184.792969 120.027344 L 194.53125 120.027344 C 195.417969 120.027344 196.175781 119.402344 196.34375 118.535156 L 198.21875 108.839844 C 198.21875 108.839844 198.21875 108.839844 198.21875 108.835938 L 200.101562 99.691406 C 200.308594 98.691406 199.664062 97.71875 198.667969 97.511719 C 197.671875 97.308594 196.695312 97.949219 196.488281 98.949219 L 194.910156 106.621094 L 192.550781 106.621094 L 193.519531 99.570312 C 193.65625 98.558594 192.949219 97.628906 191.941406 97.492188 C 190.933594 97.359375 190 98.058594 189.863281 99.066406 L 188.828125 106.621094 L 186.859375 106.621094 L 186.859375 99.316406 C 186.859375 98.296875 186.035156 97.472656 185.011719 97.472656 C 183.992188 97.472656 183.167969 98.296875 183.167969 99.316406 L 183.167969 106.621094 L 181.007812 106.621094 L 181.007812 99.316406 C 181.007812 98.296875 180.183594 97.472656 179.164062 97.472656 C 178.144531 97.472656 177.320312 98.296875 177.320312 99.316406 L 177.320312 106.621094 L 175.140625 106.621094 L 175.140625 99.316406 C 175.140625 98.296875 174.316406 97.472656 173.292969 97.472656 C 172.273438 97.472656 171.449219 98.296875 171.449219 99.316406 L 171.449219 106.621094 L 169.492188 106.621094 L 168.441406 99.0625 C 168.300781 98.054688 167.371094 97.339844 166.359375 97.492188 C 165.351562 97.632812 164.648438 98.5625 164.785156 99.570312 L 165.769531 106.617188 L 163.394531 106.617188 L 161.816406 98.945312 C 161.613281 97.945312 160.632812 97.304688 159.636719 97.511719 C 158.640625 97.714844 157.996094 98.691406 158.203125 99.6875 L 160.085938 108.835938 L 161.960938 118.53125 C 162.128906 119.398438 162.886719 120.027344 163.773438 120.027344 L 173.515625 120.027344 L 173.515625 135.976562 L 169.769531 135.976562 C 168.75 135.976562 167.921875 136.800781 167.921875 137.820312 L 167.921875 263.875 L 159.378906 263.875 L 159.378906 234.488281 C 163.238281 230.714844 164.65625 226.902344 164.65625 224.710938 C 164.65625 220.453125 161.296875 218.230469 159.378906 217.304688 L 159.378906 211.046875 C 159.378906 210.027344 158.554688 209.203125 157.535156 209.203125 L 108.660156 209.203125 C 107.640625 209.203125 106.816406 210.027344 106.816406 211.046875 L 106.816406 217.304688 C 104.890625 218.226562 101.519531 220.449219 101.519531 224.710938 C 101.519531 226.917969 102.945312 230.742188 106.816406 234.511719 L 106.816406 263.875 L 102.015625 263.875 C 98.890625 263.875 95.980469 265.417969 94.226562 267.996094 C 92.472656 270.578125 92.117188 273.847656 93.273438 276.746094 L 95.0625 281.222656 C 96.214844 284.136719 99.101562 286.097656 102.238281 286.097656 L 103.710938 286.097656 C 103.507812 287.035156 103.402344 287.996094 103.402344 288.953125 C 103.402344 296.464844 109.519531 302.582031 117.035156 302.582031 C 124.554688 302.582031 130.675781 296.46875 130.675781 288.953125 C 130.675781 287.996094 130.566406 287.035156 130.367188 286.097656 L 205.882812 286.097656 C 206.820312 296.46875 215.558594 304.628906 226.179688 304.628906 C 237.421875 304.628906 246.566406 295.488281 246.566406 284.25 L 246.566406 203.316406 L 275.3125 203.316406 C 276.335938 203.316406 277.160156 202.492188 277.160156 201.472656 L 277.160156 193.972656 C 277.160156 192.953125 276.335938 192.128906 275.3125 192.128906 L 246.566406 192.128906 L 246.566406 173.910156 L 248.023438 173.910156 C 252.410156 173.910156 255.976562 170.34375 255.976562 165.960938 L 255.976562 148.441406 C 255.976562 146.207031 256.984375 144.117188 258.734375 142.710938 L 280.351562 125.421875 C 282.714844 123.503906 283.082031 120.035156 281.179688 117.691406 Z M 203.527344 135.976562 C 206.023438 132.402344 209.863281 126.125 211.195312 119.683594 C 212.007812 115.773438 211.9375 109.804688 211.863281 104.03125 C 211.792969 98.398438 211.664062 87.910156 213.441406 86.941406 C 213.988281 86.648438 214.238281 86.75 214.351562 86.808594 C 215.09375 87.144531 215.800781 88.425781 216.296875 89.710938 C 216.039062 89.785156 215.78125 89.84375 215.515625 89.929688 C 214.632812 90.214844 214.101562 91.113281 214.269531 92.023438 L 216.167969 102.152344 L 215.828125 107.878906 C 215.828125 107.886719 215.832031 107.890625 215.832031 107.894531 C 215.832031 107.898438 215.828125 107.902344 215.828125 107.90625 C 215.820312 107.960938 215.8125 108.019531 215.808594 108.074219 C 215.039062 120.449219 212.058594 129.570312 206.738281 135.980469 L 203.527344 135.980469 Z M 224.875 93.226562 C 225.175781 93.308594 225.476562 93.394531 225.78125 93.496094 L 223.742188 99.988281 C 222.855469 99.730469 221.957031 99.601562 221.058594 99.601562 C 220.53125 99.601562 220.003906 99.644531 219.472656 99.734375 L 218.214844 93.03125 C 218.453125 92.988281 218.695312 92.949219 218.9375 92.917969 C 220.917969 92.605469 222.914062 92.710938 224.875 93.226562 Z M 214.484375 130.5 L 214.160156 135.976562 L 211.382812 135.976562 C 212.542969 134.296875 213.570312 132.464844 214.484375 130.5 Z M 231.074219 125.78125 C 230.359375 129.9375 227.21875 132.84375 224.847656 134.496094 L 226.730469 102.773438 L 226.988281 101.957031 C 227.566406 105.402344 228.371094 108.730469 229.132812 111.839844 C 230.5 117.429688 231.683594 122.257812 231.074219 125.78125 Z M 231.621094 81.363281 C 232.253906 85.753906 229.175781 89.019531 227.734375 90.285156 C 227.675781 90.261719 227.617188 90.238281 227.554688 90.214844 C 228.199219 87.308594 229.085938 81.429688 227.117188 77.109375 C 229.152344 77.636719 231.246094 78.804688 231.621094 81.363281 Z M 221.90625 76.460938 C 224.066406 77.722656 224.6875 80.6875 224.660156 83.695312 C 223.378906 81.054688 221.53125 78.363281 218.9375 76.839844 C 218.605469 76.644531 218.265625 76.472656 217.921875 76.324219 C 219.339844 75.890625 220.773438 75.796875 221.90625 76.460938 Z M 205.527344 114.496094 C 206.105469 110.75 206.058594 106.378906 206.015625 101.746094 C 205.914062 91.90625 205.8125 81.730469 212.019531 79.640625 C 213.910156 79.011719 215.558594 79.132812 217.0625 80.015625 C 219.980469 81.726562 221.878906 86.039062 222.851562 89.15625 C 221.902344 89.066406 220.949219 89.039062 220.003906 89.101562 C 219.394531 87.257812 218.144531 84.476562 215.882812 83.449219 C 214.953125 83.023438 213.46875 82.726562 211.683594 83.703125 C 208.125 85.628906 208.03125 92.699219 208.175781 104.078125 C 208.246094 109.648438 208.316406 115.414062 207.582031 118.9375 C 206.0625 126.300781 200.652344 133.769531 198.953125 135.976562 L 195.148438 135.976562 C 198.589844 131.78125 204.105469 123.820312 205.527344 114.496094 Z M 110.503906 224.027344 L 155.691406 224.027344 L 155.691406 232.894531 C 151.808594 236.234375 144.847656 239.957031 133.089844 239.957031 C 121.390625 239.957031 114.414062 236.246094 110.503906 232.910156 Z M 110.503906 237.539062 C 115.144531 240.703125 122.339844 243.648438 133.089844 243.648438 C 143.878906 243.648438 151.070312 240.703125 155.691406 237.535156 L 155.691406 263.875 L 110.503906 263.875 Z M 160.972656 224.710938 C 160.972656 225.53125 160.503906 227.015625 159.382812 228.753906 L 159.382812 221.667969 C 160.226562 222.378906 160.972656 223.367188 160.972656 224.710938 Z M 105.210938 224.710938 C 105.210938 223.363281 105.964844 222.371094 106.816406 221.660156 L 106.816406 228.789062 C 105.683594 227.039062 105.210938 225.542969 105.210938 224.710938 Z M 120.15625 288.953125 C 120.15625 290.671875 118.757812 292.070312 117.039062 292.070312 C 115.320312 292.070312 113.921875 290.671875 113.921875 288.953125 C 113.921875 287.238281 115.320312 285.835938 117.039062 285.835938 C 118.757812 285.835938 120.15625 287.234375 120.15625 288.953125 Z M 232.636719 284.25 C 232.636719 287.8125 229.738281 290.707031 226.179688 290.707031 C 222.617188 290.707031 219.71875 287.8125 219.71875 284.25 C 219.71875 280.683594 222.617188 277.78125 226.179688 277.78125 C 229.738281 277.78125 232.636719 280.683594 232.636719 284.25 Z M 226.179688 263.875 C 215.558594 263.875 206.820312 272.035156 205.882812 282.40625 L 128.960938 282.40625 C 126.589844 278.082031 122.054688 275.328125 117.039062 275.328125 C 112.023438 275.328125 107.488281 278.082031 105.117188 282.40625 L 102.242188 282.40625 C 100.601562 282.40625 99.097656 281.386719 98.492188 279.863281 L 96.703125 275.378906 C 95.992188 273.59375 96.203125 271.65625 97.28125 270.066406 C 98.363281 268.476562 100.089844 267.5625 102.015625 267.5625 L 169.769531 267.5625 C 170.792969 267.5625 171.617188 266.738281 171.617188 265.71875 L 171.617188 139.667969 L 242.875 139.667969 L 242.875 272.597656 C 239.1875 267.332031 233.082031 263.875 226.179688 263.875 Z M 226.179688 263.875"/></g></svg>