<svg xmlns="http://www.w3.org/2000/svg" width="375" viewBox="0 0 375 375" height="375" version="1.0"><defs><clipPath id="a"><path d="M 8.28125 8.28125 L 366.78125 8.28125 L 366.78125 366.78125 L 8.28125 366.78125 Z M 8.28125 8.28125"/></clipPath><clipPath id="b"><path d="M 222 93.578125 L 273 93.578125 L 273 144 L 222 144 Z M 222 93.578125"/></clipPath><clipPath id="c"><path d="M 163 93.578125 L 214 93.578125 L 214 144 L 163 144 Z M 163 93.578125"/></clipPath><clipPath id="d"><path d="M 90.671875 147 L 156 147 L 156 281.078125 L 90.671875 281.078125 Z M 90.671875 147"/></clipPath></defs><g clip-path="url(#a)"><path fill="#FB0" d="M 366.78125 187.53125 C 366.78125 190.464844 366.710938 193.398438 366.566406 196.328125 C 366.421875 199.257812 366.207031 202.183594 365.917969 205.101562 C 365.632812 208.019531 365.273438 210.929688 364.84375 213.832031 C 364.410156 216.734375 363.910156 219.625 363.335938 222.5 C 362.765625 225.378906 362.121094 228.242188 361.410156 231.085938 C 360.695312 233.933594 359.914062 236.757812 359.0625 239.566406 C 358.210938 242.371094 357.292969 245.15625 356.304688 247.917969 C 355.316406 250.679688 354.261719 253.417969 353.136719 256.128906 C 352.015625 258.839844 350.828125 261.519531 349.570312 264.171875 C 348.316406 266.824219 347 269.441406 345.617188 272.03125 C 344.234375 274.617188 342.789062 277.167969 341.28125 279.683594 C 339.773438 282.199219 338.203125 284.679688 336.574219 287.117188 C 334.941406 289.558594 333.253906 291.953125 331.507812 294.3125 C 329.757812 296.667969 327.957031 298.980469 326.09375 301.246094 C 324.234375 303.515625 322.316406 305.734375 320.347656 307.910156 C 318.378906 310.082031 316.355469 312.207031 314.28125 314.28125 C 312.207031 316.355469 310.082031 318.378906 307.910156 320.347656 C 305.734375 322.316406 303.515625 324.234375 301.246094 326.09375 C 298.980469 327.953125 296.667969 329.757812 294.3125 331.507812 C 291.953125 333.253906 289.558594 334.941406 287.117188 336.574219 C 284.679688 338.203125 282.199219 339.773438 279.683594 341.28125 C 277.167969 342.789062 274.617188 344.234375 272.03125 345.617188 C 269.441406 347 266.824219 348.316406 264.171875 349.570312 C 261.519531 350.824219 258.839844 352.015625 256.128906 353.136719 C 253.417969 354.261719 250.679688 355.316406 247.917969 356.304688 C 245.15625 357.292969 242.371094 358.210938 239.566406 359.0625 C 236.757812 359.914062 233.933594 360.695312 231.085938 361.410156 C 228.242188 362.121094 225.378906 362.765625 222.5 363.335938 C 219.625 363.910156 216.734375 364.410156 213.832031 364.839844 C 210.929688 365.273438 208.019531 365.632812 205.101562 365.917969 C 202.183594 366.207031 199.257812 366.421875 196.328125 366.566406 C 193.398438 366.710938 190.464844 366.78125 187.53125 366.78125 C 184.597656 366.78125 181.667969 366.710938 178.738281 366.566406 C 175.804688 366.421875 172.882812 366.207031 169.960938 365.917969 C 167.042969 365.632812 164.132812 365.273438 161.230469 364.839844 C 158.328125 364.410156 155.4375 363.910156 152.5625 363.335938 C 149.683594 362.765625 146.824219 362.121094 143.976562 361.410156 C 141.132812 360.695312 138.304688 359.914062 135.5 359.0625 C 132.691406 358.210938 129.90625 357.292969 127.144531 356.304688 C 124.382812 355.316406 121.644531 354.261719 118.9375 353.136719 C 116.226562 352.015625 113.542969 350.824219 110.894531 349.570312 C 108.242188 348.316406 105.621094 347 103.035156 345.617188 C 100.445312 344.234375 97.894531 342.789062 95.378906 341.28125 C 92.863281 339.773438 90.386719 338.203125 87.945312 336.574219 C 85.507812 334.941406 83.109375 333.253906 80.753906 331.507812 C 78.398438 329.757812 76.085938 327.953125 73.816406 326.09375 C 71.550781 324.234375 69.328125 322.316406 67.15625 320.347656 C 64.980469 318.378906 62.855469 316.355469 60.78125 314.28125 C 58.707031 312.207031 56.6875 310.082031 54.714844 307.910156 C 52.746094 305.734375 50.832031 303.515625 48.96875 301.246094 C 47.109375 298.980469 45.304688 296.667969 43.558594 294.3125 C 41.808594 291.953125 40.121094 289.558594 38.492188 287.117188 C 36.859375 284.679688 35.292969 282.199219 33.785156 279.683594 C 32.277344 277.167969 30.832031 274.617188 29.449219 272.03125 C 28.066406 269.441406 26.746094 266.824219 25.492188 264.171875 C 24.238281 261.519531 23.050781 258.839844 21.925781 256.128906 C 20.804688 253.417969 19.75 250.679688 18.761719 247.917969 C 17.773438 245.15625 16.851562 242.371094 16 239.566406 C 15.148438 236.757812 14.367188 233.933594 13.652344 231.085938 C 12.941406 228.242188 12.296875 225.378906 11.726562 222.5 C 11.152344 219.625 10.652344 216.734375 10.222656 213.832031 C 9.792969 210.929688 9.433594 208.019531 9.144531 205.101562 C 8.859375 202.183594 8.640625 199.257812 8.496094 196.328125 C 8.355469 193.398438 8.28125 190.464844 8.28125 187.53125 C 8.28125 184.597656 8.355469 181.667969 8.496094 178.738281 C 8.640625 175.804688 8.859375 172.882812 9.144531 169.960938 C 9.433594 167.042969 9.792969 164.132812 10.222656 161.230469 C 10.652344 158.328125 11.152344 155.4375 11.726562 152.5625 C 12.296875 149.683594 12.941406 146.824219 13.652344 143.976562 C 14.367188 141.132812 15.148438 138.304688 16 135.5 C 16.851562 132.691406 17.773438 129.90625 18.761719 127.144531 C 19.75 124.382812 20.804688 121.644531 21.925781 118.9375 C 23.050781 116.226562 24.238281 113.542969 25.492188 110.894531 C 26.746094 108.242188 28.066406 105.621094 29.449219 103.035156 C 30.832031 100.445312 32.277344 97.894531 33.785156 95.378906 C 35.292969 92.863281 36.859375 90.386719 38.492188 87.945312 C 40.121094 85.507812 41.808594 83.109375 43.558594 80.753906 C 45.304688 78.398438 47.109375 76.085938 48.96875 73.816406 C 50.832031 71.550781 52.746094 69.328125 54.714844 67.15625 C 56.6875 64.980469 58.707031 62.855469 60.78125 60.78125 C 62.855469 58.707031 64.980469 56.6875 67.15625 54.714844 C 69.328125 52.746094 71.550781 50.832031 73.816406 48.96875 C 76.085938 47.109375 78.398438 45.304688 80.753906 43.558594 C 83.109375 41.808594 85.507812 40.121094 87.945312 38.492188 C 90.386719 36.859375 92.863281 35.292969 95.378906 33.785156 C 97.894531 32.277344 100.445312 30.832031 103.035156 29.449219 C 105.621094 28.066406 108.242188 26.746094 110.894531 25.492188 C 113.542969 24.238281 116.226562 23.050781 118.9375 21.925781 C 121.644531 20.804688 124.382812 19.75 127.144531 18.761719 C 129.90625 17.773438 132.691406 16.851562 135.5 16 C 138.304688 15.148438 141.132812 14.367188 143.976562 13.652344 C 146.824219 12.941406 149.683594 12.296875 152.5625 11.726562 C 155.4375 11.152344 158.328125 10.652344 161.230469 10.222656 C 164.132812 9.792969 167.042969 9.433594 169.960938 9.144531 C 172.882812 8.859375 175.804688 8.640625 178.738281 8.496094 C 181.667969 8.355469 184.597656 8.28125 187.53125 8.28125 C 190.464844 8.28125 193.398438 8.355469 196.328125 8.496094 C 199.257812 8.640625 202.183594 8.859375 205.101562 9.144531 C 208.019531 9.433594 210.929688 9.792969 213.832031 10.222656 C 216.734375 10.652344 219.625 11.152344 222.5 11.726562 C 225.378906 12.296875 228.242188 12.941406 231.085938 13.652344 C 233.933594 14.367188 236.757812 15.148438 239.566406 16 C 242.371094 16.851562 245.15625 17.773438 247.917969 18.761719 C 250.679688 19.75 253.417969 20.804688 256.128906 21.925781 C 258.839844 23.050781 261.519531 24.238281 264.171875 25.492188 C 266.824219 26.746094 269.441406 28.066406 272.03125 29.449219 C 274.617188 30.832031 277.167969 32.277344 279.683594 33.785156 C 282.199219 35.292969 284.679688 36.859375 287.117188 38.492188 C 289.558594 40.121094 291.953125 41.808594 294.3125 43.558594 C 296.667969 45.304688 298.980469 47.109375 301.246094 48.96875 C 303.515625 50.832031 305.734375 52.746094 307.910156 54.714844 C 310.082031 56.6875 312.207031 58.707031 314.28125 60.78125 C 316.355469 62.855469 318.378906 64.980469 320.347656 67.15625 C 322.316406 69.328125 324.234375 71.550781 326.09375 73.816406 C 327.957031 76.085938 329.757812 78.398438 331.507812 80.753906 C 333.253906 83.109375 334.941406 85.507812 336.574219 87.945312 C 338.203125 90.386719 339.773438 92.863281 341.28125 95.378906 C 342.789062 97.894531 344.234375 100.445312 345.617188 103.035156 C 347 105.621094 348.316406 108.242188 349.570312 110.894531 C 350.828125 113.542969 352.015625 116.226562 353.136719 118.9375 C 354.261719 121.644531 355.316406 124.382812 356.304688 127.144531 C 357.292969 129.90625 358.210938 132.691406 359.0625 135.5 C 359.914062 138.304688 360.695312 141.132812 361.410156 143.976562 C 362.121094 146.824219 362.765625 149.683594 363.335938 152.5625 C 363.910156 155.4375 364.410156 158.328125 364.84375 161.230469 C 365.273438 164.132812 365.632812 167.042969 365.917969 169.960938 C 366.207031 172.882812 366.421875 175.804688 366.566406 178.738281 C 366.710938 181.667969 366.78125 184.597656 366.78125 187.53125 Z M 366.78125 187.53125"/></g><path fill="#FB0" d="M 194.203125 107.140625 L 189.449219 115.082031 L 189.394531 112.101562 C 189.289062 110.894531 188.464844 109.65625 187.113281 109.65625 L 180.125 109.195312 L 185.363281 101.15625 L 185.394531 104.328125 C 185.394531 105.75 186.515625 106.636719 187.824219 106.769531 Z M 194.203125 107.140625"/><path fill="#FB0" d="M 220.75 118.5 C 226.800781 120.539062 228.121094 122.511719 228.121094 123.085938 C 228.121094 123.8125 226.328125 126.203125 218.128906 128.476562 C 217.296875 128.707031 216.449219 128.925781 215.609375 129.113281 C 215.457031 129.148438 215.300781 129.183594 215.148438 129.226562 C 215.089844 129.234375 215.035156 129.246094 214.980469 129.269531 C 207.25 131.003906 197.347656 131.964844 187.089844 131.964844 C 176.820312 131.964844 167.003906 131.011719 159.300781 129.289062 C 159.070312 129.15625 158.808594 129.058594 158.523438 129.007812 C 158.332031 128.972656 158.136719 128.96875 157.957031 128.972656 C 156.984375 128.742188 156.023438 128.484375 155.070312 128.199219 C 147.667969 125.992188 146.050781 123.757812 146.050781 123.078125 C 146.050781 122.414062 147.417969 120.664062 152.585938 118.792969 C 152.59375 118.785156 152.605469 118.785156 152.613281 118.785156 C 152.65625 118.773438 152.695312 118.75 152.746094 118.730469 C 152.933594 118.648438 153.101562 118.542969 153.25 118.421875 C 153.292969 118.386719 153.335938 118.351562 153.382812 118.3125 C 153.40625 118.289062 153.433594 118.269531 153.453125 118.242188 C 153.566406 118.128906 153.664062 118.015625 153.746094 117.882812 C 153.84375 117.742188 153.929688 117.601562 153.992188 117.441406 C 154.125 117.128906 154.195312 116.792969 154.1875 116.441406 C 154.585938 98.957031 169.125 84.742188 186.644531 84.742188 C 204.289062 84.742188 218.523438 98.53125 219.082031 116.148438 C 219.082031 116.175781 219.082031 116.203125 219.089844 116.230469 C 219.089844 116.316406 219.097656 116.398438 219.109375 116.476562 C 219.144531 116.796875 219.25 117.097656 219.40625 117.371094 C 219.476562 117.503906 219.566406 117.632812 219.671875 117.75 C 219.761719 117.871094 219.875 117.972656 220 118.074219 C 220.054688 118.121094 220.113281 118.15625 220.175781 118.199219 C 220.316406 118.289062 220.460938 118.375 220.628906 118.429688 C 220.664062 118.472656 220.699219 118.484375 220.75 118.5 Z M 200.480469 106.183594 C 200.917969 105.449219 200.941406 104.539062 200.542969 103.78125 C 200.140625 103.019531 199.371094 102.535156 198.519531 102.484375 L 190.261719 102.011719 L 190.164062 93.027344 C 190.152344 91.949219 189.4375 91.003906 188.394531 90.707031 C 187.363281 90.40625 186.25 90.820312 185.664062 91.722656 L 173.730469 110.035156 C 173.253906 110.761719 173.199219 111.6875 173.589844 112.464844 C 173.976562 113.242188 174.753906 113.753906 175.613281 113.816406 L 184.527344 114.402344 L 184.6875 123.730469 C 184.710938 124.824219 185.453125 125.769531 186.503906 126.046875 C 186.710938 126.105469 186.921875 126.132812 187.132812 126.132812 C 187.980469 126.132812 188.785156 125.691406 189.234375 124.941406 Z M 200.480469 106.183594"/><path fill="#FB0" d="M 214.230469 135.96875 C 214.355469 137.375 214.417969 138.796875 214.417969 140.207031 C 214.417969 153.523438 208.929688 165.183594 200.792969 171.441406 C 200.722656 171.484375 200.652344 171.539062 200.589844 171.601562 C 196.605469 174.605469 192 176.320312 187.097656 176.320312 C 182.554688 176.320312 178.261719 174.851562 174.496094 172.246094 C 174.488281 172.238281 174.488281 172.238281 174.488281 172.238281 C 174.390625 172.164062 174.292969 172.085938 174.1875 172.03125 C 165.609375 165.929688 159.777344 153.957031 159.777344 140.21875 C 159.777344 138.828125 159.839844 137.410156 159.964844 136.027344 C 159.972656 136.019531 159.972656 136.003906 159.972656 135.996094 C 159.972656 135.984375 159.972656 135.96875 159.972656 135.949219 C 160.015625 135.464844 160.070312 134.976562 160.132812 134.484375 C 167.871094 136.046875 177.308594 136.886719 187.113281 136.886719 C 196.878906 136.886719 206.351562 136.039062 214.089844 134.484375 C 214.125 134.960938 214.1875 135.464844 214.230469 135.96875 Z M 214.230469 135.96875"/><path fill="#FB0" d="M 199.703125 177.933594 L 199.703125 186.46875 L 187.53125 200.570312 L 175.363281 186.460938 L 175.363281 178.394531 C 179.003906 180.207031 182.953125 181.203125 187.089844 181.203125 C 191.558594 181.203125 195.824219 180.039062 199.703125 177.933594 Z M 199.703125 177.933594"/><path fill="#FB0" d="M 251.535156 224.734375 L 251.535156 287.910156 C 251.535156 289.226562 250.464844 290.300781 249.148438 290.300781 L 233.480469 290.300781 L 233.480469 199.574219 C 244.304688 203.214844 251.535156 213.242188 251.535156 224.734375 Z M 251.535156 224.734375"/><path fill="#FB0" d="M 141.835938 199.492188 L 141.835938 290.300781 L 125.914062 290.300781 C 124.597656 290.300781 123.527344 289.226562 123.527344 287.910156 L 123.527344 224.734375 C 123.527344 213.160156 130.863281 203.070312 141.835938 199.492188 Z M 141.835938 199.492188"/><path fill="#FB0" d="M 172.070312 190.144531 L 183.898438 203.851562 L 172.625 211.652344 L 162.074219 193.230469 Z M 172.070312 190.144531"/><path fill="#FB0" d="M 212.992188 193.230469 L 202.4375 211.652344 L 191.164062 203.851562 L 202.992188 190.144531 Z M 212.992188 193.230469"/><path fill="#FB0" d="M 228.585938 198.054688 L 228.585938 290.304688 L 146.722656 290.304688 L 146.722656 197.980469 L 157.277344 194.714844 L 169.699219 216.402344 C 170.035156 216.996094 170.609375 217.417969 171.28125 217.570312 C 171.953125 217.71875 172.652344 217.585938 173.214844 217.191406 L 187.53125 207.292969 L 201.851562 217.191406 C 202.265625 217.480469 202.746094 217.625 203.246094 217.625 C 203.425781 217.625 203.609375 217.605469 203.789062 217.570312 C 204.457031 217.417969 205.03125 216.988281 205.371094 216.402344 L 217.792969 194.714844 Z M 228.585938 198.054688"/><g clip-path="url(#b)"><path d="M 272.34375 93.578125 L 222.238281 93.578125 L 222.238281 143.636719 L 272.34375 143.636719 Z M 268.050781 139.34375 L 226.53125 139.34375 L 226.53125 97.867188 L 268.050781 97.867188 Z M 268.050781 139.34375"/></g><path d="M 257.433594 108.476562 L 237.152344 108.476562 L 237.152344 128.738281 L 257.433594 128.738281 Z M 256 127.308594 L 238.582031 127.308594 L 238.582031 109.90625 L 256 109.90625 Z M 256 127.308594"/><path d="M 248.695312 113.699219 C 248.695312 114.09375 248.660156 114.46875 248.585938 114.832031 C 248.515625 115.195312 248.414062 115.515625 248.285156 115.792969 C 248.152344 116.070312 248 116.285156 247.828125 116.433594 C 247.65625 116.585938 247.476562 116.660156 247.292969 116.660156 C 247.105469 116.660156 246.925781 116.585938 246.753906 116.433594 C 246.582031 116.285156 246.429688 116.070312 246.300781 115.792969 C 246.167969 115.515625 246.066406 115.195312 245.996094 114.832031 C 245.921875 114.46875 245.886719 114.09375 245.886719 113.699219 C 245.886719 113.308594 245.921875 112.929688 245.996094 112.566406 C 246.066406 112.203125 246.167969 111.886719 246.300781 111.605469 C 246.429688 111.328125 246.582031 111.117188 246.753906 110.964844 C 246.925781 110.816406 247.105469 110.742188 247.292969 110.742188 C 247.476562 110.742188 247.65625 110.816406 247.828125 110.964844 C 248 111.117188 248.152344 111.328125 248.285156 111.605469 C 248.414062 111.886719 248.515625 112.203125 248.585938 112.566406 C 248.660156 112.929688 248.695312 113.308594 248.695312 113.699219 Z M 248.695312 113.699219"/><path d="M 248.695312 123.511719 C 248.695312 123.90625 248.660156 124.285156 248.585938 124.644531 C 248.515625 125.007812 248.414062 125.328125 248.285156 125.605469 C 248.152344 125.882812 248 126.097656 247.828125 126.246094 C 247.65625 126.398438 247.476562 126.472656 247.292969 126.472656 C 247.105469 126.472656 246.925781 126.398438 246.753906 126.246094 C 246.582031 126.097656 246.429688 125.882812 246.300781 125.605469 C 246.167969 125.328125 246.066406 125.007812 245.996094 124.644531 C 245.921875 124.285156 245.886719 123.90625 245.886719 123.511719 C 245.886719 123.121094 245.921875 122.742188 245.996094 122.382812 C 246.066406 122.019531 246.167969 121.699219 246.300781 121.421875 C 246.429688 121.144531 246.582031 120.929688 246.753906 120.78125 C 246.925781 120.628906 247.105469 120.554688 247.292969 120.554688 C 247.476562 120.554688 247.65625 120.628906 247.828125 120.78125 C 248 120.929688 248.152344 121.144531 248.285156 121.421875 C 248.414062 121.699219 248.515625 122.019531 248.585938 122.382812 C 248.660156 122.742188 248.695312 123.121094 248.695312 123.511719 Z M 248.695312 123.511719"/><path d="M 244.808594 114.140625 C 245.085938 114.417969 245.328125 114.710938 245.535156 115.015625 C 245.742188 115.324219 245.894531 115.621094 246 115.910156 C 246.101562 116.199219 246.148438 116.457031 246.132812 116.683594 C 246.117188 116.914062 246.042969 117.09375 245.910156 117.222656 C 245.78125 117.355469 245.601562 117.429688 245.371094 117.445312 C 245.144531 117.460938 244.886719 117.414062 244.597656 117.3125 C 244.304688 117.210938 244.007812 117.054688 243.703125 116.847656 C 243.394531 116.640625 243.101562 116.402344 242.824219 116.125 C 242.546875 115.84375 242.304688 115.554688 242.097656 115.246094 C 241.890625 114.941406 241.738281 114.640625 241.632812 114.351562 C 241.53125 114.0625 241.484375 113.804688 241.5 113.578125 C 241.515625 113.351562 241.589844 113.171875 241.722656 113.039062 C 241.851562 112.90625 242.03125 112.832031 242.261719 112.820312 C 242.488281 112.804688 242.746094 112.847656 243.035156 112.949219 C 243.328125 113.054688 243.625 113.207031 243.929688 113.414062 C 244.238281 113.621094 244.53125 113.863281 244.808594 114.140625 Z M 244.808594 114.140625"/><path d="M 251.753906 121.085938 C 252.03125 121.363281 252.273438 121.652344 252.480469 121.960938 C 252.6875 122.265625 252.839844 122.566406 252.945312 122.855469 C 253.046875 123.144531 253.089844 123.402344 253.078125 123.628906 C 253.0625 123.855469 252.988281 124.035156 252.855469 124.167969 C 252.726562 124.300781 252.546875 124.371094 252.316406 124.386719 C 252.089844 124.402344 251.832031 124.359375 251.542969 124.257812 C 251.25 124.152344 250.953125 124 250.648438 123.792969 C 250.339844 123.585938 250.046875 123.34375 249.769531 123.066406 C 249.492188 122.789062 249.25 122.496094 249.042969 122.191406 C 248.835938 121.882812 248.683594 121.585938 248.578125 121.296875 C 248.476562 121.007812 248.433594 120.75 248.445312 120.523438 C 248.460938 120.292969 248.535156 120.113281 248.667969 119.984375 C 248.796875 119.851562 248.976562 119.777344 249.207031 119.761719 C 249.433594 119.75 249.691406 119.792969 249.980469 119.894531 C 250.273438 120 250.570312 120.152344 250.875 120.359375 C 251.183594 120.566406 251.476562 120.808594 251.753906 121.085938 Z M 251.753906 121.085938"/><path d="M 245.34375 118.605469 C 245.34375 118.792969 245.265625 118.972656 245.117188 119.144531 C 244.964844 119.316406 244.753906 119.46875 244.472656 119.597656 C 244.195312 119.730469 243.875 119.832031 243.511719 119.902344 C 243.152344 119.972656 242.773438 120.007812 242.378906 120.007812 C 241.988281 120.007812 241.609375 119.972656 241.246094 119.902344 C 240.882812 119.832031 240.5625 119.730469 240.285156 119.597656 C 240.007812 119.46875 239.792969 119.316406 239.644531 119.144531 C 239.492188 118.972656 239.417969 118.792969 239.417969 118.605469 C 239.417969 118.421875 239.492188 118.242188 239.644531 118.070312 C 239.792969 117.898438 240.007812 117.746094 240.285156 117.617188 C 240.5625 117.484375 240.882812 117.382812 241.246094 117.3125 C 241.609375 117.242188 241.988281 117.207031 242.378906 117.207031 C 242.773438 117.207031 243.152344 117.242188 243.511719 117.3125 C 243.875 117.382812 244.195312 117.484375 244.472656 117.617188 C 244.753906 117.746094 244.964844 117.898438 245.117188 118.070312 C 245.265625 118.242188 245.34375 118.421875 245.34375 118.605469 Z M 245.34375 118.605469"/><path d="M 255.167969 118.605469 C 255.167969 118.792969 255.089844 118.972656 254.941406 119.144531 C 254.789062 119.316406 254.574219 119.464844 254.296875 119.597656 C 254.019531 119.730469 253.699219 119.832031 253.335938 119.902344 C 252.972656 119.972656 252.597656 120.007812 252.203125 120.007812 C 251.808594 120.007812 251.433594 119.972656 251.070312 119.902344 C 250.707031 119.832031 250.386719 119.730469 250.109375 119.597656 C 249.832031 119.464844 249.617188 119.316406 249.464844 119.144531 C 249.316406 118.972656 249.242188 118.792969 249.242188 118.605469 C 249.242188 118.421875 249.316406 118.242188 249.464844 118.070312 C 249.617188 117.898438 249.832031 117.746094 250.109375 117.617188 C 250.386719 117.484375 250.707031 117.382812 251.070312 117.3125 C 251.433594 117.242188 251.808594 117.203125 252.203125 117.203125 C 252.597656 117.203125 252.972656 117.242188 253.335938 117.3125 C 253.699219 117.382812 254.019531 117.484375 254.296875 117.617188 C 254.574219 117.746094 254.789062 117.898438 254.941406 118.070312 C 255.089844 118.242188 255.167969 118.421875 255.167969 118.605469 Z M 255.167969 118.605469"/><path d="M 245.917969 119.992188 C 246.046875 120.125 246.121094 120.304688 246.136719 120.53125 C 246.152344 120.757812 246.105469 121.019531 246.003906 121.308594 C 245.902344 121.597656 245.746094 121.894531 245.539062 122.199219 C 245.332031 122.507812 245.089844 122.800781 244.8125 123.078125 C 244.535156 123.355469 244.242188 123.597656 243.9375 123.800781 C 243.628906 124.007812 243.332031 124.164062 243.042969 124.265625 C 242.753906 124.367188 242.492188 124.414062 242.265625 124.398438 C 242.039062 124.382812 241.859375 124.308594 241.726562 124.175781 C 241.59375 124.046875 241.523438 123.867188 241.507812 123.640625 C 241.492188 123.410156 241.535156 123.152344 241.636719 122.863281 C 241.742188 122.574219 241.898438 122.277344 242.101562 121.96875 C 242.308594 121.664062 242.550781 121.371094 242.828125 121.09375 C 243.105469 120.816406 243.398438 120.574219 243.707031 120.367188 C 244.011719 120.164062 244.3125 120.007812 244.601562 119.90625 C 244.890625 119.800781 245.148438 119.757812 245.378906 119.773438 C 245.605469 119.789062 245.785156 119.863281 245.917969 119.992188 Z M 245.917969 119.992188"/><path d="M 252.851562 113.039062 C 252.984375 113.171875 253.054688 113.351562 253.070312 113.578125 C 253.085938 113.804688 253.042969 114.0625 252.941406 114.351562 C 252.835938 114.640625 252.683594 114.941406 252.476562 115.246094 C 252.269531 115.554688 252.027344 115.84375 251.75 116.121094 C 251.472656 116.402344 251.179688 116.640625 250.871094 116.847656 C 250.566406 117.054688 250.265625 117.210938 249.976562 117.3125 C 249.6875 117.414062 249.429688 117.460938 249.203125 117.445312 C 248.972656 117.429688 248.792969 117.355469 248.664062 117.222656 C 248.53125 117.09375 248.457031 116.914062 248.441406 116.683594 C 248.425781 116.457031 248.472656 116.199219 248.574219 115.910156 C 248.675781 115.621094 248.832031 115.324219 249.039062 115.015625 C 249.246094 114.710938 249.488281 114.417969 249.765625 114.140625 C 250.042969 113.863281 250.335938 113.621094 250.640625 113.414062 C 250.949219 113.207031 251.246094 113.054688 251.535156 112.949219 C 251.824219 112.847656 252.082031 112.804688 252.3125 112.820312 C 252.539062 112.832031 252.71875 112.90625 252.851562 113.039062 Z M 252.851562 113.039062"/><g clip-path="url(#c)"><path d="M 213.191406 93.578125 L 163.082031 93.578125 L 163.082031 143.636719 L 213.191406 143.636719 Z M 208.894531 139.34375 L 167.375 139.34375 L 167.375 97.867188 L 208.894531 97.867188 Z M 208.894531 139.34375"/></g><path d="M 198.277344 108.476562 L 177.996094 108.476562 L 177.996094 128.738281 L 198.277344 128.738281 Z M 196.84375 127.308594 L 179.425781 127.308594 L 179.425781 109.90625 L 196.84375 109.90625 Z M 196.84375 127.308594"/><path d="M 189.539062 113.699219 C 189.539062 114.09375 189.503906 114.46875 189.429688 114.832031 C 189.359375 115.195312 189.257812 115.515625 189.128906 115.792969 C 188.996094 116.070312 188.84375 116.285156 188.671875 116.433594 C 188.5 116.585938 188.320312 116.660156 188.136719 116.660156 C 187.949219 116.660156 187.769531 116.585938 187.597656 116.433594 C 187.425781 116.285156 187.273438 116.070312 187.144531 115.792969 C 187.011719 115.515625 186.910156 115.195312 186.839844 114.832031 C 186.769531 114.46875 186.730469 114.09375 186.730469 113.699219 C 186.730469 113.308594 186.769531 112.929688 186.839844 112.566406 C 186.910156 112.203125 187.011719 111.886719 187.144531 111.605469 C 187.273438 111.328125 187.425781 111.117188 187.597656 110.964844 C 187.769531 110.816406 187.949219 110.742188 188.136719 110.742188 C 188.320312 110.742188 188.5 110.816406 188.671875 110.964844 C 188.84375 111.117188 188.996094 111.328125 189.128906 111.605469 C 189.257812 111.886719 189.359375 112.203125 189.429688 112.566406 C 189.503906 112.929688 189.539062 113.308594 189.539062 113.699219 Z M 189.539062 113.699219"/><path d="M 189.539062 123.511719 C 189.539062 123.90625 189.503906 124.285156 189.429688 124.644531 C 189.359375 125.007812 189.257812 125.328125 189.128906 125.605469 C 188.996094 125.882812 188.84375 126.097656 188.671875 126.246094 C 188.5 126.398438 188.320312 126.472656 188.136719 126.472656 C 187.949219 126.472656 187.769531 126.398438 187.597656 126.246094 C 187.425781 126.097656 187.273438 125.882812 187.144531 125.605469 C 187.011719 125.328125 186.910156 125.007812 186.839844 124.644531 C 186.769531 124.285156 186.730469 123.90625 186.730469 123.511719 C 186.730469 123.121094 186.769531 122.742188 186.839844 122.382812 C 186.910156 122.019531 187.011719 121.699219 187.144531 121.421875 C 187.273438 121.144531 187.425781 120.929688 187.597656 120.78125 C 187.769531 120.628906 187.949219 120.554688 188.136719 120.554688 C 188.320312 120.554688 188.5 120.628906 188.671875 120.78125 C 188.84375 120.929688 188.996094 121.144531 189.128906 121.421875 C 189.257812 121.699219 189.359375 122.019531 189.429688 122.382812 C 189.503906 122.742188 189.539062 123.121094 189.539062 123.511719 Z M 189.539062 123.511719"/><path d="M 185.652344 114.144531 C 185.929688 114.421875 186.171875 114.714844 186.378906 115.023438 C 186.585938 115.328125 186.738281 115.625 186.84375 115.914062 C 186.945312 116.203125 186.992188 116.464844 186.976562 116.691406 C 186.960938 116.917969 186.886719 117.097656 186.753906 117.230469 C 186.625 117.359375 186.445312 117.433594 186.214844 117.449219 C 185.988281 117.464844 185.730469 117.421875 185.441406 117.316406 C 185.148438 117.214844 184.851562 117.058594 184.546875 116.855469 C 184.238281 116.648438 183.945312 116.40625 183.667969 116.128906 C 183.390625 115.851562 183.148438 115.558594 182.941406 115.253906 C 182.734375 114.945312 182.582031 114.648438 182.476562 114.359375 C 182.375 114.070312 182.332031 113.8125 182.34375 113.582031 C 182.359375 113.355469 182.433594 113.175781 182.566406 113.046875 C 182.699219 112.914062 182.878906 112.839844 183.105469 112.824219 C 183.332031 112.808594 183.59375 112.851562 183.882812 112.957031 C 184.171875 113.058594 184.46875 113.214844 184.777344 113.421875 C 185.082031 113.625 185.375 113.867188 185.652344 114.144531 Z M 185.652344 114.144531"/><path d="M 192.597656 121.085938 C 192.875 121.363281 193.117188 121.65625 193.324219 121.960938 C 193.53125 122.269531 193.6875 122.566406 193.789062 122.855469 C 193.890625 123.144531 193.9375 123.402344 193.921875 123.628906 C 193.90625 123.859375 193.832031 124.035156 193.699219 124.167969 C 193.570312 124.300781 193.390625 124.375 193.160156 124.386719 C 192.933594 124.402344 192.675781 124.359375 192.386719 124.257812 C 192.097656 124.152344 191.796875 124 191.492188 123.792969 C 191.183594 123.585938 190.890625 123.34375 190.613281 123.066406 C 190.335938 122.789062 190.09375 122.496094 189.886719 122.191406 C 189.683594 121.882812 189.527344 121.585938 189.425781 121.296875 C 189.320312 121.007812 189.277344 120.75 189.292969 120.523438 C 189.308594 120.292969 189.378906 120.117188 189.511719 119.984375 C 189.644531 119.851562 189.824219 119.777344 190.050781 119.765625 C 190.277344 119.75 190.539062 119.792969 190.828125 119.894531 C 191.117188 120 191.414062 120.152344 191.722656 120.359375 C 192.027344 120.566406 192.320312 120.808594 192.597656 121.085938 Z M 192.597656 121.085938"/><path d="M 186.1875 118.605469 C 186.1875 118.792969 186.109375 118.972656 185.960938 119.144531 C 185.808594 119.316406 185.597656 119.46875 185.320312 119.597656 C 185.039062 119.730469 184.71875 119.832031 184.359375 119.902344 C 183.996094 119.972656 183.617188 120.007812 183.222656 120.007812 C 182.832031 120.007812 182.453125 119.972656 182.089844 119.902344 C 181.726562 119.832031 181.40625 119.730469 181.128906 119.597656 C 180.851562 119.46875 180.636719 119.316406 180.488281 119.144531 C 180.335938 118.972656 180.261719 118.792969 180.261719 118.605469 C 180.261719 118.421875 180.335938 118.242188 180.488281 118.070312 C 180.636719 117.898438 180.851562 117.746094 181.128906 117.617188 C 181.40625 117.484375 181.726562 117.382812 182.089844 117.3125 C 182.453125 117.242188 182.832031 117.207031 183.222656 117.207031 C 183.617188 117.207031 183.996094 117.242188 184.359375 117.3125 C 184.71875 117.382812 185.039062 117.484375 185.320312 117.617188 C 185.597656 117.746094 185.808594 117.898438 185.960938 118.070312 C 186.109375 118.242188 186.1875 118.421875 186.1875 118.605469 Z M 186.1875 118.605469"/><path d="M 196.011719 118.605469 C 196.011719 118.792969 195.933594 118.972656 195.785156 119.144531 C 195.632812 119.316406 195.421875 119.464844 195.140625 119.597656 C 194.863281 119.730469 194.542969 119.832031 194.179688 119.902344 C 193.816406 119.972656 193.441406 120.007812 193.046875 120.007812 C 192.65625 120.007812 192.277344 119.972656 191.914062 119.902344 C 191.550781 119.832031 191.230469 119.730469 190.953125 119.597656 C 190.675781 119.464844 190.460938 119.316406 190.308594 119.144531 C 190.160156 118.972656 190.085938 118.792969 190.085938 118.605469 C 190.085938 118.421875 190.160156 118.242188 190.308594 118.070312 C 190.460938 117.898438 190.675781 117.746094 190.953125 117.617188 C 191.230469 117.484375 191.550781 117.382812 191.914062 117.3125 C 192.277344 117.242188 192.65625 117.203125 193.046875 117.203125 C 193.441406 117.203125 193.816406 117.242188 194.179688 117.3125 C 194.542969 117.382812 194.863281 117.484375 195.140625 117.617188 C 195.421875 117.746094 195.632812 117.898438 195.785156 118.070312 C 195.933594 118.242188 196.011719 118.421875 196.011719 118.605469 Z M 196.011719 118.605469"/><path d="M 186.753906 119.984375 C 186.886719 120.117188 186.960938 120.296875 186.976562 120.523438 C 186.992188 120.753906 186.945312 121.011719 186.84375 121.300781 C 186.738281 121.589844 186.585938 121.886719 186.378906 122.191406 C 186.171875 122.5 185.929688 122.792969 185.652344 123.070312 C 185.375 123.347656 185.082031 123.589844 184.777344 123.792969 C 184.46875 124 184.171875 124.15625 183.882812 124.257812 C 183.589844 124.363281 183.332031 124.40625 183.105469 124.390625 C 182.878906 124.375 182.699219 124.300781 182.566406 124.171875 C 182.433594 124.039062 182.359375 123.859375 182.347656 123.632812 C 182.332031 123.40625 182.375 123.144531 182.476562 122.855469 C 182.582031 122.566406 182.734375 122.269531 182.941406 121.964844 C 183.148438 121.65625 183.390625 121.363281 183.667969 121.085938 C 183.945312 120.808594 184.238281 120.566406 184.546875 120.363281 C 184.851562 120.15625 185.152344 120 185.441406 119.898438 C 185.730469 119.792969 185.988281 119.75 186.214844 119.765625 C 186.445312 119.78125 186.625 119.855469 186.753906 119.984375 Z M 186.753906 119.984375"/><path d="M 193.699219 113.042969 C 193.832031 113.171875 193.902344 113.351562 193.917969 113.578125 C 193.933594 113.808594 193.890625 114.066406 193.789062 114.355469 C 193.683594 114.644531 193.53125 114.941406 193.324219 115.25 C 193.117188 115.554688 192.875 115.847656 192.597656 116.125 C 192.320312 116.402344 192.027344 116.644531 191.71875 116.851562 C 191.414062 117.058594 191.113281 117.210938 190.824219 117.316406 C 190.535156 117.417969 190.277344 117.460938 190.050781 117.445312 C 189.820312 117.429688 189.640625 117.359375 189.511719 117.226562 C 189.378906 117.09375 189.304688 116.914062 189.289062 116.6875 C 189.273438 116.460938 189.320312 116.203125 189.421875 115.914062 C 189.523438 115.625 189.679688 115.324219 189.886719 115.019531 C 190.09375 114.710938 190.335938 114.421875 190.613281 114.140625 C 190.890625 113.863281 191.183594 113.625 191.488281 113.417969 C 191.796875 113.210938 192.09375 113.054688 192.382812 112.953125 C 192.671875 112.851562 192.929688 112.804688 193.160156 112.820312 C 193.386719 112.835938 193.566406 112.910156 193.699219 113.042969 Z M 193.699219 113.042969"/><path d="M 159.566406 222.390625 L 193.085938 222.390625 L 193.085938 225.25 L 159.566406 225.25 Z M 159.566406 222.390625"/><path d="M 208.335938 222.390625 L 233.28125 222.390625 L 233.28125 225.25 L 208.335938 225.25 Z M 208.335938 222.390625"/><path d="M 249.496094 222.390625 L 283.996094 222.390625 L 283.996094 225.25 L 249.496094 225.25 Z M 249.496094 222.390625"/><path d="M 191.21875 167.230469 L 249.496094 167.230469 L 249.496094 171.246094 L 191.21875 171.246094 Z M 191.21875 167.230469"/><path d="M 191.21875 200.722656 L 249.496094 200.722656 L 249.496094 204.738281 L 191.21875 204.738281 Z M 191.21875 200.722656"/><path d="M 202.15625 257.769531 L 204.230469 207.179688 L 196.394531 207.179688 L 198.46875 257.769531 Z M 202.15625 257.769531"/><path d="M 242.246094 257.769531 L 244.320312 207.179688 L 236.484375 207.179688 L 238.558594 257.769531 Z M 242.246094 257.769531"/><path d="M 194.433594 173.691406 L 194.433594 198.28125 L 246.28125 198.28125 L 246.28125 173.691406 Z M 220.355469 185.835938 C 218.441406 185.835938 216.890625 184.285156 216.890625 182.371094 C 216.890625 180.460938 218.441406 178.910156 220.355469 178.910156 C 222.273438 178.910156 223.824219 180.460938 223.824219 182.371094 C 223.824219 184.285156 222.273438 185.835938 220.355469 185.835938 Z M 220.355469 185.835938"/><path d="M 156.117188 166.859375 C 156.261719 167.21875 156.402344 167.585938 156.546875 167.976562 C 158.5625 173.5625 160.261719 182.730469 160.253906 197.039062 C 160.253906 199.625 160.191406 202.394531 160.078125 205.324219 C 161.519531 205.589844 163.394531 205.699219 165.246094 205.695312 C 167.644531 205.695312 170.003906 205.535156 171.535156 205.402344 C 171.648438 202.46875 171.707031 199.671875 171.707031 197.039062 C 171.679688 175.457031 168.226562 163.511719 163.519531 156.328125 C 161.5 153.261719 159.183594 151.148438 156.960938 149.808594 C 156.394531 152.949219 155.898438 157.003906 155.898438 161.644531 C 155.898438 163.3125 155.972656 165.058594 156.117188 166.859375 Z M 156.117188 166.859375"/><path d="M 159.984375 207.484375 C 159.941406 208.335938 159.902344 209.1875 159.851562 210.070312 C 159.664062 213.222656 162.074219 215.929688 165.230469 216.113281 C 165.347656 216.121094 165.460938 216.125 165.574219 216.125 C 168.582031 216.125 171.105469 213.777344 171.285156 210.738281 C 171.347656 209.65625 171.398438 208.605469 171.449219 207.5625 C 169.878906 207.691406 167.585938 207.839844 165.25 207.839844 C 163.425781 207.835938 161.585938 207.753906 159.984375 207.484375 Z M 159.984375 207.484375"/><path d="M 152.015625 127.574219 C 152.015625 128.097656 151.992188 128.625 151.9375 129.148438 C 151.886719 129.675781 151.808594 130.195312 151.707031 130.710938 C 151.605469 131.226562 151.476562 131.738281 151.324219 132.242188 C 151.167969 132.746094 150.992188 133.242188 150.789062 133.730469 C 150.589844 134.214844 150.363281 134.691406 150.113281 135.15625 C 149.867188 135.621094 149.59375 136.074219 149.300781 136.511719 C 149.007812 136.949219 148.695312 137.371094 148.359375 137.78125 C 148.027344 138.1875 147.671875 138.578125 147.300781 138.949219 C 146.925781 139.324219 146.535156 139.675781 146.128906 140.011719 C 145.71875 140.34375 145.296875 140.65625 144.859375 140.949219 C 144.417969 141.242188 143.96875 141.515625 143.503906 141.761719 C 143.039062 142.011719 142.5625 142.234375 142.074219 142.4375 C 141.585938 142.640625 141.089844 142.816406 140.585938 142.96875 C 140.082031 143.121094 139.570312 143.25 139.050781 143.351562 C 138.535156 143.457031 138.015625 143.535156 137.488281 143.585938 C 136.964844 143.636719 136.4375 143.664062 135.910156 143.664062 C 135.382812 143.664062 134.855469 143.636719 134.332031 143.585938 C 133.804688 143.535156 133.285156 143.457031 132.769531 143.351562 C 132.25 143.25 131.738281 143.121094 131.234375 142.96875 C 130.730469 142.816406 130.234375 142.640625 129.746094 142.4375 C 129.257812 142.234375 128.78125 142.011719 128.316406 141.761719 C 127.851562 141.515625 127.402344 141.242188 126.960938 140.949219 C 126.523438 140.65625 126.101562 140.34375 125.691406 140.011719 C 125.285156 139.675781 124.894531 139.324219 124.519531 138.949219 C 124.148438 138.578125 123.792969 138.1875 123.460938 137.78125 C 123.125 137.371094 122.8125 136.949219 122.519531 136.511719 C 122.226562 136.074219 121.953125 135.621094 121.707031 135.15625 C 121.457031 134.691406 121.230469 134.214844 121.03125 133.730469 C 120.828125 133.242188 120.648438 132.746094 120.496094 132.242188 C 120.34375 131.738281 120.214844 131.226562 120.113281 130.710938 C 120.011719 130.195312 119.933594 129.675781 119.882812 129.148438 C 119.828125 128.625 119.804688 128.097656 119.804688 127.574219 C 119.804688 127.046875 119.828125 126.519531 119.882812 125.996094 C 119.933594 125.472656 120.011719 124.949219 120.113281 124.433594 C 120.214844 123.917969 120.34375 123.40625 120.496094 122.902344 C 120.648438 122.398438 120.828125 121.902344 121.03125 121.414062 C 121.230469 120.929688 121.457031 120.453125 121.707031 119.988281 C 121.953125 119.523438 122.226562 119.070312 122.519531 118.632812 C 122.8125 118.195312 123.125 117.773438 123.460938 117.367188 C 123.792969 116.957031 124.148438 116.566406 124.519531 116.195312 C 124.894531 115.824219 125.285156 115.46875 125.691406 115.136719 C 126.101562 114.800781 126.523438 114.488281 126.960938 114.195312 C 127.402344 113.902344 127.851562 113.632812 128.316406 113.382812 C 128.78125 113.132812 129.257812 112.910156 129.746094 112.707031 C 130.234375 112.503906 130.730469 112.328125 131.234375 112.175781 C 131.738281 112.023438 132.25 111.894531 132.769531 111.792969 C 133.285156 111.6875 133.804688 111.613281 134.332031 111.558594 C 134.855469 111.507812 135.382812 111.484375 135.910156 111.484375 C 136.4375 111.484375 136.964844 111.507812 137.488281 111.558594 C 138.015625 111.613281 138.535156 111.6875 139.050781 111.792969 C 139.570312 111.894531 140.082031 112.023438 140.585938 112.175781 C 141.089844 112.328125 141.585938 112.503906 142.074219 112.707031 C 142.5625 112.910156 143.039062 113.132812 143.503906 113.382812 C 143.96875 113.632812 144.417969 113.902344 144.859375 114.195312 C 145.296875 114.488281 145.71875 114.800781 146.128906 115.136719 C 146.535156 115.46875 146.925781 115.824219 147.300781 116.195312 C 147.671875 116.566406 148.027344 116.957031 148.359375 117.367188 C 148.695312 117.773438 149.007812 118.195312 149.300781 118.632812 C 149.59375 119.070312 149.867188 119.523438 150.113281 119.988281 C 150.363281 120.453125 150.589844 120.929688 150.789062 121.414062 C 150.992188 121.902344 151.167969 122.398438 151.324219 122.902344 C 151.476562 123.40625 151.605469 123.917969 151.707031 124.433594 C 151.808594 124.949219 151.886719 125.472656 151.9375 125.996094 C 151.992188 126.519531 152.015625 127.046875 152.015625 127.574219 Z M 152.015625 127.574219"/><g clip-path="url(#d)"><path d="M 116.550781 222.101562 L 116.550781 272.253906 C 116.550781 277.136719 120.511719 281.09375 125.398438 281.09375 C 129.179688 281.09375 132.398438 278.722656 133.667969 275.390625 C 134.039062 274.414062 134.25 273.359375 134.25 272.253906 L 134.25 213.71875 L 137.570312 213.71875 L 137.570312 272.253906 C 137.570312 277.136719 141.53125 281.09375 146.417969 281.09375 C 151.308594 281.09375 155.269531 277.136719 155.269531 272.253906 L 155.269531 198.90625 C 152.03125 199.820312 143.554688 202.003906 135.910156 202.011719 C 133.070312 202.007812 130.113281 201.703125 127.351562 201.277344 L 125.6875 198.820312 C 128.914062 199.40625 132.535156 199.867188 135.910156 199.863281 C 140.496094 199.867188 145.539062 199.019531 149.414062 198.164062 C 152.109375 197.570312 154.226562 196.980469 155.269531 196.675781 L 155.269531 175.574219 C 154.164062 170.621094 153.753906 165.894531 153.753906 161.644531 C 153.753906 156.53125 154.332031 152.109375 154.96875 148.785156 C 152.8125 147.871094 150.957031 147.675781 149.839844 147.679688 C 149.382812 147.679688 149.042969 147.710938 148.824219 147.734375 C 148.820312 147.738281 148.816406 147.738281 148.8125 147.738281 L 146.410156 147.738281 L 145.035156 158.472656 L 138.058594 150.070312 L 140.164062 147.738281 L 131.65625 147.738281 L 133.761719 150.070312 L 126.78125 158.472656 L 125.410156 147.738281 L 123.003906 147.738281 C 123 147.738281 122.996094 147.738281 122.992188 147.734375 C 122.777344 147.710938 122.4375 147.679688 121.980469 147.679688 C 120.867188 147.675781 119.007812 147.871094 116.851562 148.785156 C 117.488281 152.109375 118.066406 156.535156 118.066406 161.644531 C 118.066406 165.894531 117.65625 170.621094 116.550781 175.574219 L 116.550781 189.285156 L 111.621094 192.617188 C 111.945312 179.867188 113.742188 171.765625 115.703125 166.839844 C 115.847656 165.046875 115.917969 163.304688 115.917969 161.640625 C 115.917969 157.007812 115.425781 152.945312 114.859375 149.804688 C 111.328125 151.925781 107.671875 155.976562 105.035156 162.679688 C 102.097656 170.101562 100.121094 180.835938 100.113281 197.039062 C 100.113281 198.128906 100.121094 199.246094 100.140625 200.386719 L 90.820312 206.691406 L 106.074219 229.191406 Z M 100.199219 202.9375 C 100.222656 203.742188 100.253906 204.570312 100.285156 205.398438 C 100.523438 205.421875 100.78125 205.441406 101.058594 205.464844 C 102.554688 205.578125 104.554688 205.691406 106.570312 205.691406 C 108.425781 205.699219 110.296875 205.589844 111.742188 205.320312 C 111.625 202.394531 111.566406 199.625 111.566406 197.039062 C 111.566406 196.429688 111.566406 195.832031 111.574219 195.242188 L 117.808594 191.023438 L 130.652344 209.96875 L 106.648438 226.207031 L 93.804688 207.261719 Z M 100.199219 202.9375"/></g><path d="M 115.039062 198.71875 L 116.214844 197.898438 L 124.089844 209.160156 L 122.914062 209.980469 Z M 115.039062 198.71875"/><path d="M 111.96875 210.070312 C 111.917969 209.1875 111.878906 208.335938 111.835938 207.484375 C 110.230469 207.753906 108.394531 207.835938 106.570312 207.839844 C 104.230469 207.835938 101.945312 207.691406 100.371094 207.5625 C 100.421875 208.605469 100.472656 209.65625 100.535156 210.738281 C 100.714844 213.777344 103.238281 216.125 106.246094 216.125 C 106.359375 216.125 106.472656 216.121094 106.589844 216.113281 C 109.746094 215.929688 112.15625 213.222656 111.96875 210.070312 Z M 111.96875 210.070312"/></svg>