<svg xmlns="http://www.w3.org/2000/svg" width="375" viewBox="0 0 375 375" height="375" version="1.0"><defs><clipPath id="a"><path d="M 8.28125 8.28125 L 366.78125 8.28125 L 366.78125 366.78125 L 8.28125 366.78125 Z M 8.28125 8.28125"/></clipPath><clipPath id="b"><path d="M 84.964844 84.964844 L 289.714844 84.964844 L 289.714844 143 L 84.964844 143 Z M 84.964844 84.964844"/></clipPath><clipPath id="c"><path d="M 84.964844 164 L 289.714844 164 L 289.714844 289.714844 L 84.964844 289.714844 Z M 84.964844 164"/></clipPath></defs><g clip-path="url(#a)"><path fill="#FB0" d="M 366.78125 187.53125 C 366.78125 190.464844 366.710938 193.398438 366.566406 196.328125 C 366.421875 199.257812 366.207031 202.183594 365.917969 205.101562 C 365.632812 208.019531 365.273438 210.929688 364.84375 213.832031 C 364.410156 216.734375 363.910156 219.625 363.335938 222.5 C 362.765625 225.378906 362.121094 228.242188 361.410156 231.085938 C 360.695312 233.933594 359.914062 236.757812 359.0625 239.566406 C 358.210938 242.371094 357.292969 245.15625 356.304688 247.917969 C 355.316406 250.679688 354.261719 253.417969 353.136719 256.128906 C 352.015625 258.839844 350.828125 261.519531 349.570312 264.171875 C 348.316406 266.824219 347 269.441406 345.617188 272.03125 C 344.234375 274.617188 342.789062 277.167969 341.28125 279.683594 C 339.773438 282.199219 338.203125 284.679688 336.574219 287.117188 C 334.941406 289.558594 333.253906 291.953125 331.507812 294.3125 C 329.757812 296.667969 327.957031 298.980469 326.09375 301.246094 C 324.234375 303.515625 322.316406 305.734375 320.347656 307.910156 C 318.378906 310.082031 316.355469 312.207031 314.28125 314.28125 C 312.207031 316.355469 310.082031 318.378906 307.910156 320.347656 C 305.734375 322.316406 303.515625 324.234375 301.246094 326.09375 C 298.980469 327.953125 296.667969 329.757812 294.3125 331.507812 C 291.953125 333.253906 289.558594 334.941406 287.117188 336.574219 C 284.679688 338.203125 282.199219 339.773438 279.683594 341.28125 C 277.167969 342.789062 274.617188 344.234375 272.03125 345.617188 C 269.441406 347 266.824219 348.316406 264.171875 349.570312 C 261.519531 350.824219 258.839844 352.015625 256.128906 353.136719 C 253.417969 354.261719 250.679688 355.316406 247.917969 356.304688 C 245.15625 357.292969 242.371094 358.210938 239.566406 359.0625 C 236.757812 359.914062 233.933594 360.695312 231.085938 361.410156 C 228.242188 362.121094 225.378906 362.765625 222.5 363.335938 C 219.625 363.910156 216.734375 364.410156 213.832031 364.839844 C 210.929688 365.273438 208.019531 365.632812 205.101562 365.917969 C 202.183594 366.207031 199.257812 366.421875 196.328125 366.566406 C 193.398438 366.710938 190.464844 366.78125 187.53125 366.78125 C 184.597656 366.78125 181.667969 366.710938 178.738281 366.566406 C 175.804688 366.421875 172.882812 366.207031 169.960938 365.917969 C 167.042969 365.632812 164.132812 365.273438 161.230469 364.839844 C 158.328125 364.410156 155.4375 363.910156 152.5625 363.335938 C 149.683594 362.765625 146.824219 362.121094 143.976562 361.410156 C 141.132812 360.695312 138.304688 359.914062 135.5 359.0625 C 132.691406 358.210938 129.90625 357.292969 127.144531 356.304688 C 124.382812 355.316406 121.644531 354.261719 118.9375 353.136719 C 116.226562 352.015625 113.542969 350.824219 110.894531 349.570312 C 108.242188 348.316406 105.621094 347 103.035156 345.617188 C 100.445312 344.234375 97.894531 342.789062 95.378906 341.28125 C 92.863281 339.773438 90.386719 338.203125 87.945312 336.574219 C 85.507812 334.941406 83.109375 333.253906 80.753906 331.507812 C 78.398438 329.757812 76.085938 327.953125 73.816406 326.09375 C 71.550781 324.234375 69.328125 322.316406 67.15625 320.347656 C 64.980469 318.378906 62.855469 316.355469 60.78125 314.28125 C 58.707031 312.207031 56.6875 310.082031 54.714844 307.910156 C 52.746094 305.734375 50.832031 303.515625 48.96875 301.246094 C 47.109375 298.980469 45.304688 296.667969 43.558594 294.3125 C 41.808594 291.953125 40.121094 289.558594 38.492188 287.117188 C 36.859375 284.679688 35.292969 282.199219 33.785156 279.683594 C 32.277344 277.167969 30.832031 274.617188 29.449219 272.03125 C 28.066406 269.441406 26.746094 266.824219 25.492188 264.171875 C 24.238281 261.519531 23.050781 258.839844 21.925781 256.128906 C 20.804688 253.417969 19.75 250.679688 18.761719 247.917969 C 17.773438 245.15625 16.851562 242.371094 16 239.566406 C 15.148438 236.757812 14.367188 233.933594 13.652344 231.085938 C 12.941406 228.242188 12.296875 225.378906 11.726562 222.5 C 11.152344 219.625 10.652344 216.734375 10.222656 213.832031 C 9.792969 210.929688 9.433594 208.019531 9.144531 205.101562 C 8.859375 202.183594 8.640625 199.257812 8.496094 196.328125 C 8.355469 193.398438 8.28125 190.464844 8.28125 187.53125 C 8.28125 184.597656 8.355469 181.667969 8.496094 178.738281 C 8.640625 175.804688 8.859375 172.882812 9.144531 169.960938 C 9.433594 167.042969 9.792969 164.132812 10.222656 161.230469 C 10.652344 158.328125 11.152344 155.4375 11.726562 152.5625 C 12.296875 149.683594 12.941406 146.824219 13.652344 143.976562 C 14.367188 141.132812 15.148438 138.304688 16 135.5 C 16.851562 132.691406 17.773438 129.90625 18.761719 127.144531 C 19.75 124.382812 20.804688 121.644531 21.925781 118.9375 C 23.050781 116.226562 24.238281 113.542969 25.492188 110.894531 C 26.746094 108.242188 28.066406 105.621094 29.449219 103.035156 C 30.832031 100.445312 32.277344 97.894531 33.785156 95.378906 C 35.292969 92.863281 36.859375 90.386719 38.492188 87.945312 C 40.121094 85.507812 41.808594 83.109375 43.558594 80.753906 C 45.304688 78.398438 47.109375 76.085938 48.96875 73.816406 C 50.832031 71.550781 52.746094 69.328125 54.714844 67.15625 C 56.6875 64.980469 58.707031 62.855469 60.78125 60.78125 C 62.855469 58.707031 64.980469 56.6875 67.15625 54.714844 C 69.328125 52.746094 71.550781 50.832031 73.816406 48.96875 C 76.085938 47.109375 78.398438 45.304688 80.753906 43.558594 C 83.109375 41.808594 85.507812 40.121094 87.945312 38.492188 C 90.386719 36.859375 92.863281 35.292969 95.378906 33.785156 C 97.894531 32.277344 100.445312 30.832031 103.035156 29.449219 C 105.621094 28.066406 108.242188 26.746094 110.894531 25.492188 C 113.542969 24.238281 116.226562 23.050781 118.9375 21.925781 C 121.644531 20.804688 124.382812 19.75 127.144531 18.761719 C 129.90625 17.773438 132.691406 16.851562 135.5 16 C 138.304688 15.148438 141.132812 14.367188 143.976562 13.652344 C 146.824219 12.941406 149.683594 12.296875 152.5625 11.726562 C 155.4375 11.152344 158.328125 10.652344 161.230469 10.222656 C 164.132812 9.792969 167.042969 9.433594 169.960938 9.144531 C 172.882812 8.859375 175.804688 8.640625 178.738281 8.496094 C 181.667969 8.355469 184.597656 8.28125 187.53125 8.28125 C 190.464844 8.28125 193.398438 8.355469 196.328125 8.496094 C 199.257812 8.640625 202.183594 8.859375 205.101562 9.144531 C 208.019531 9.433594 210.929688 9.792969 213.832031 10.222656 C 216.734375 10.652344 219.625 11.152344 222.5 11.726562 C 225.378906 12.296875 228.242188 12.941406 231.085938 13.652344 C 233.933594 14.367188 236.757812 15.148438 239.566406 16 C 242.371094 16.851562 245.15625 17.773438 247.917969 18.761719 C 250.679688 19.75 253.417969 20.804688 256.128906 21.925781 C 258.839844 23.050781 261.519531 24.238281 264.171875 25.492188 C 266.824219 26.746094 269.441406 28.066406 272.03125 29.449219 C 274.617188 30.832031 277.167969 32.277344 279.683594 33.785156 C 282.199219 35.292969 284.679688 36.859375 287.117188 38.492188 C 289.558594 40.121094 291.953125 41.808594 294.3125 43.558594 C 296.667969 45.304688 298.980469 47.109375 301.246094 48.96875 C 303.515625 50.832031 305.734375 52.746094 307.910156 54.714844 C 310.082031 56.6875 312.207031 58.707031 314.28125 60.78125 C 316.355469 62.855469 318.378906 64.980469 320.347656 67.15625 C 322.316406 69.328125 324.234375 71.550781 326.09375 73.816406 C 327.957031 76.085938 329.757812 78.398438 331.507812 80.753906 C 333.253906 83.109375 334.941406 85.507812 336.574219 87.945312 C 338.203125 90.386719 339.773438 92.863281 341.28125 95.378906 C 342.789062 97.894531 344.234375 100.445312 345.617188 103.035156 C 347 105.621094 348.316406 108.242188 349.570312 110.894531 C 350.828125 113.542969 352.015625 116.226562 353.136719 118.9375 C 354.261719 121.644531 355.316406 124.382812 356.304688 127.144531 C 357.292969 129.90625 358.210938 132.691406 359.0625 135.5 C 359.914062 138.304688 360.695312 141.132812 361.410156 143.976562 C 362.121094 146.824219 362.765625 149.683594 363.335938 152.5625 C 363.910156 155.4375 364.410156 158.328125 364.84375 161.230469 C 365.273438 164.132812 365.632812 167.042969 365.917969 169.960938 C 366.207031 172.882812 366.421875 175.804688 366.566406 178.738281 C 366.710938 181.667969 366.78125 184.597656 366.78125 187.53125 Z M 366.78125 187.53125"/></g><path fill="#FB0" d="M 194.203125 107.140625 L 189.449219 115.082031 L 189.394531 112.101562 C 189.289062 110.894531 188.464844 109.65625 187.113281 109.65625 L 180.125 109.195312 L 185.363281 101.15625 L 185.394531 104.328125 C 185.394531 105.75 186.515625 106.636719 187.824219 106.769531 Z M 194.203125 107.140625"/><path fill="#FB0" d="M 220.75 118.5 C 226.800781 120.539062 228.121094 122.511719 228.121094 123.085938 C 228.121094 123.8125 226.328125 126.203125 218.128906 128.476562 C 217.296875 128.707031 216.449219 128.925781 215.609375 129.113281 C 215.457031 129.148438 215.300781 129.183594 215.148438 129.226562 C 215.089844 129.234375 215.035156 129.246094 214.980469 129.269531 C 207.25 131.003906 197.347656 131.964844 187.089844 131.964844 C 176.820312 131.964844 167.003906 131.011719 159.300781 129.289062 C 159.070312 129.15625 158.808594 129.058594 158.523438 129.007812 C 158.332031 128.972656 158.136719 128.96875 157.957031 128.972656 C 156.984375 128.742188 156.023438 128.484375 155.070312 128.199219 C 147.667969 125.992188 146.050781 123.757812 146.050781 123.078125 C 146.050781 122.414062 147.417969 120.664062 152.585938 118.792969 C 152.59375 118.785156 152.605469 118.785156 152.613281 118.785156 C 152.65625 118.773438 152.695312 118.75 152.746094 118.730469 C 152.933594 118.648438 153.101562 118.542969 153.25 118.421875 C 153.292969 118.386719 153.335938 118.351562 153.382812 118.3125 C 153.40625 118.289062 153.433594 118.269531 153.453125 118.242188 C 153.566406 118.128906 153.664062 118.015625 153.746094 117.882812 C 153.84375 117.742188 153.929688 117.601562 153.992188 117.441406 C 154.125 117.128906 154.195312 116.792969 154.1875 116.441406 C 154.585938 98.957031 169.125 84.742188 186.644531 84.742188 C 204.289062 84.742188 218.523438 98.53125 219.082031 116.148438 C 219.082031 116.175781 219.082031 116.203125 219.089844 116.230469 C 219.089844 116.316406 219.097656 116.398438 219.109375 116.476562 C 219.144531 116.796875 219.25 117.097656 219.40625 117.371094 C 219.476562 117.503906 219.566406 117.632812 219.671875 117.75 C 219.761719 117.871094 219.875 117.972656 220 118.074219 C 220.054688 118.121094 220.113281 118.15625 220.175781 118.199219 C 220.316406 118.289062 220.460938 118.375 220.628906 118.429688 C 220.664062 118.472656 220.699219 118.484375 220.75 118.5 Z M 200.480469 106.183594 C 200.917969 105.449219 200.941406 104.539062 200.542969 103.78125 C 200.140625 103.019531 199.371094 102.535156 198.519531 102.484375 L 190.261719 102.011719 L 190.164062 93.027344 C 190.152344 91.949219 189.4375 91.003906 188.394531 90.707031 C 187.363281 90.40625 186.25 90.820312 185.664062 91.722656 L 173.730469 110.035156 C 173.253906 110.761719 173.199219 111.6875 173.589844 112.464844 C 173.976562 113.242188 174.753906 113.753906 175.613281 113.816406 L 184.527344 114.402344 L 184.6875 123.730469 C 184.710938 124.824219 185.453125 125.769531 186.503906 126.046875 C 186.710938 126.105469 186.921875 126.132812 187.132812 126.132812 C 187.980469 126.132812 188.785156 125.691406 189.234375 124.941406 Z M 200.480469 106.183594"/><path fill="#FB0" d="M 214.230469 135.96875 C 214.355469 137.375 214.417969 138.796875 214.417969 140.207031 C 214.417969 153.523438 208.929688 165.183594 200.792969 171.441406 C 200.722656 171.484375 200.652344 171.539062 200.589844 171.601562 C 196.605469 174.605469 192 176.320312 187.097656 176.320312 C 182.554688 176.320312 178.261719 174.851562 174.496094 172.246094 C 174.488281 172.238281 174.488281 172.238281 174.488281 172.238281 C 174.390625 172.164062 174.292969 172.085938 174.1875 172.03125 C 165.609375 165.929688 159.777344 153.957031 159.777344 140.21875 C 159.777344 138.828125 159.839844 137.410156 159.964844 136.027344 C 159.972656 136.019531 159.972656 136.003906 159.972656 135.996094 C 159.972656 135.984375 159.972656 135.96875 159.972656 135.949219 C 160.015625 135.464844 160.070312 134.976562 160.132812 134.484375 C 167.871094 136.046875 177.308594 136.886719 187.113281 136.886719 C 196.878906 136.886719 206.351562 136.039062 214.089844 134.484375 C 214.125 134.960938 214.1875 135.464844 214.230469 135.96875 Z M 214.230469 135.96875"/><path fill="#FB0" d="M 199.703125 177.933594 L 199.703125 186.46875 L 187.53125 200.570312 L 175.363281 186.460938 L 175.363281 178.394531 C 179.003906 180.207031 182.953125 181.203125 187.089844 181.203125 C 191.558594 181.203125 195.824219 180.039062 199.703125 177.933594 Z M 199.703125 177.933594"/><path fill="#FB0" d="M 251.535156 224.734375 L 251.535156 287.910156 C 251.535156 289.226562 250.464844 290.300781 249.148438 290.300781 L 233.480469 290.300781 L 233.480469 199.574219 C 244.304688 203.214844 251.535156 213.242188 251.535156 224.734375 Z M 251.535156 224.734375"/><path fill="#FB0" d="M 141.835938 199.492188 L 141.835938 290.300781 L 125.914062 290.300781 C 124.597656 290.300781 123.527344 289.226562 123.527344 287.910156 L 123.527344 224.734375 C 123.527344 213.160156 130.863281 203.070312 141.835938 199.492188 Z M 141.835938 199.492188"/><path fill="#FB0" d="M 172.070312 190.144531 L 183.898438 203.851562 L 172.625 211.652344 L 162.074219 193.230469 Z M 172.070312 190.144531"/><path fill="#FB0" d="M 212.992188 193.230469 L 202.4375 211.652344 L 191.164062 203.851562 L 202.992188 190.144531 Z M 212.992188 193.230469"/><path fill="#FB0" d="M 228.585938 198.054688 L 228.585938 290.304688 L 146.722656 290.304688 L 146.722656 197.980469 L 157.277344 194.714844 L 169.699219 216.402344 C 170.035156 216.996094 170.609375 217.417969 171.28125 217.570312 C 171.953125 217.71875 172.652344 217.585938 173.214844 217.191406 L 187.53125 207.292969 L 201.851562 217.191406 C 202.265625 217.480469 202.746094 217.625 203.246094 217.625 C 203.425781 217.625 203.609375 217.605469 203.789062 217.570312 C 204.457031 217.417969 205.03125 216.988281 205.371094 216.402344 L 217.792969 194.714844 Z M 228.585938 198.054688"/><g clip-path="url(#b)"><path d="M 100.960938 104.160156 L 110.558594 104.160156 L 110.558594 123.355469 L 100.960938 123.355469 C 99.199219 123.355469 97.761719 124.792969 97.761719 126.554688 C 97.761719 135.351562 104.957031 142.550781 113.757812 142.550781 C 122.554688 142.550781 129.753906 135.351562 129.753906 126.554688 C 129.753906 124.792969 128.3125 123.355469 126.554688 123.355469 L 116.957031 123.355469 L 116.957031 104.160156 L 184.140625 104.160156 L 184.140625 123.355469 L 174.542969 123.355469 C 172.78125 123.355469 171.34375 124.792969 171.34375 126.554688 C 171.34375 135.351562 178.539062 142.550781 187.339844 142.550781 C 196.136719 142.550781 203.335938 135.351562 203.335938 126.554688 C 203.335938 124.792969 201.894531 123.355469 200.136719 123.355469 L 190.539062 123.355469 L 190.539062 104.160156 L 257.722656 104.160156 L 257.722656 123.355469 L 248.125 123.355469 C 246.363281 123.355469 244.925781 124.792969 244.925781 126.554688 C 244.925781 135.351562 252.121094 142.550781 260.921875 142.550781 C 269.71875 142.550781 276.917969 135.351562 276.917969 126.554688 C 276.917969 124.792969 275.476562 123.355469 273.71875 123.355469 L 264.121094 123.355469 L 264.121094 104.160156 L 273.71875 104.160156 C 282.515625 104.160156 289.714844 96.960938 289.714844 88.164062 C 289.714844 86.402344 288.273438 84.964844 286.515625 84.964844 L 88.164062 84.964844 C 86.402344 84.964844 84.964844 86.402344 84.964844 88.164062 C 84.964844 96.960938 92.160156 104.160156 100.960938 104.160156 Z M 100.960938 104.160156"/></g><path d="M 233.726562 216.132812 L 203.335938 216.132812 C 201.574219 216.132812 200.136719 217.570312 200.136719 219.332031 L 200.136719 270.519531 C 200.136719 272.277344 201.574219 273.71875 203.335938 273.71875 L 233.726562 273.71875 Z M 233.726562 216.132812"/><path d="M 270.519531 216.132812 L 240.125 216.132812 L 240.125 273.71875 L 270.519531 273.71875 C 272.277344 273.71875 273.71875 272.277344 273.71875 270.519531 L 273.71875 219.332031 C 273.71875 217.570312 272.277344 216.132812 270.519531 216.132812 Z M 270.519531 216.132812"/><g clip-path="url(#c)"><path d="M 283.316406 200.136719 L 273.71875 200.136719 L 273.71875 177.742188 C 273.71875 170.703125 267.957031 164.945312 260.921875 164.945312 C 253.882812 164.945312 248.125 170.703125 248.125 177.742188 C 248.125 179.5 249.5625 180.941406 251.324219 180.941406 C 253.082031 180.941406 254.523438 179.5 254.523438 177.742188 C 254.523438 174.222656 257.402344 171.34375 260.921875 171.34375 C 264.441406 171.34375 267.320312 174.222656 267.320312 177.742188 L 267.320312 200.136719 L 91.363281 200.136719 C 87.84375 200.136719 84.964844 203.015625 84.964844 206.535156 L 84.964844 283.316406 C 84.964844 286.835938 87.84375 289.714844 91.363281 289.714844 L 283.316406 289.714844 C 286.835938 289.714844 289.714844 286.835938 289.714844 283.316406 L 289.714844 206.535156 C 289.714844 203.015625 286.835938 200.136719 283.316406 200.136719 Z M 169.742188 216.132812 C 171.503906 216.132812 172.941406 217.570312 172.941406 219.332031 C 172.941406 221.089844 171.503906 222.53125 169.742188 222.53125 C 167.984375 222.53125 166.542969 221.089844 166.542969 219.332031 C 166.542969 217.570312 167.984375 216.132812 169.742188 216.132812 Z M 153.746094 216.132812 C 155.507812 216.132812 156.945312 217.570312 156.945312 219.332031 C 156.945312 221.089844 155.507812 222.53125 153.746094 222.53125 C 151.988281 222.53125 150.546875 221.089844 150.546875 219.332031 C 150.546875 217.570312 151.988281 216.132812 153.746094 216.132812 Z M 152.148438 238.527344 L 152.148438 241.726562 C 152.148438 243.484375 150.707031 244.925781 148.949219 244.925781 L 126.554688 244.925781 C 124.792969 244.925781 123.355469 243.484375 123.355469 241.726562 L 123.355469 238.527344 Z M 137.75 216.132812 C 139.511719 216.132812 140.949219 217.570312 140.949219 219.332031 C 140.949219 221.089844 139.511719 222.53125 137.75 222.53125 C 135.992188 222.53125 134.550781 221.089844 134.550781 219.332031 C 134.550781 217.570312 135.992188 216.132812 137.75 216.132812 Z M 121.753906 216.132812 C 123.515625 216.132812 124.953125 217.570312 124.953125 219.332031 C 124.953125 221.089844 123.515625 222.53125 121.753906 222.53125 C 119.996094 222.53125 118.554688 221.089844 118.554688 219.332031 C 118.554688 217.570312 119.996094 216.132812 121.753906 216.132812 Z M 105.757812 216.132812 C 107.519531 216.132812 108.957031 217.570312 108.957031 219.332031 C 108.957031 221.089844 107.519531 222.53125 105.757812 222.53125 C 104 222.53125 102.558594 221.089844 102.558594 219.332031 C 102.558594 217.570312 104 216.132812 105.757812 216.132812 Z M 184.140625 283.316406 L 91.363281 283.316406 L 91.363281 238.527344 L 116.957031 238.527344 L 116.957031 241.726562 C 116.957031 247.003906 121.273438 251.324219 126.554688 251.324219 L 148.949219 251.324219 C 154.226562 251.324219 158.546875 247.003906 158.546875 241.726562 L 158.546875 238.527344 L 184.140625 238.527344 Z M 190.539062 283.316406 L 190.539062 206.535156 L 283.316406 206.535156 L 283.316406 283.316406 Z M 190.539062 283.316406"/></g><path d="M 104.160156 180.941406 L 108.957031 180.941406 L 108.957031 184.140625 C 108.957031 187.660156 109.757812 191.019531 111.195312 193.898438 L 164.144531 193.898438 C 165.582031 190.859375 166.382812 187.660156 166.382812 184.140625 L 166.382812 180.941406 L 171.183594 180.941406 C 172.941406 180.941406 174.382812 179.5 174.382812 177.742188 C 174.382812 175.980469 172.941406 174.542969 171.183594 174.542969 L 148.949219 174.542969 L 148.949219 172.941406 C 148.949219 166.703125 143.988281 161.746094 137.75 161.746094 C 131.511719 161.746094 126.554688 166.703125 126.554688 172.941406 L 126.554688 174.542969 L 104.160156 174.542969 C 102.398438 174.542969 100.960938 175.980469 100.960938 177.742188 C 100.960938 179.5 102.398438 180.941406 104.160156 180.941406 Z M 132.953125 172.941406 C 132.953125 170.222656 135.03125 168.144531 137.75 168.144531 C 140.46875 168.144531 142.550781 170.222656 142.550781 172.941406 L 142.550781 174.542969 L 132.953125 174.542969 Z M 132.953125 172.941406"/></svg>