<svg xmlns="http://www.w3.org/2000/svg" width="375" viewBox="0 0 375 375" height="375" version="1.0"><defs><clipPath id="a"><path d="M 8.28125 8.28125 L 366.78125 8.28125 L 366.78125 366.78125 L 8.28125 366.78125 Z M 8.28125 8.28125"/></clipPath><clipPath id="b"><path d="M 175 194 L 283.082031 194 L 283.082031 303 L 175 303 Z M 175 194"/></clipPath><clipPath id="c"><path d="M 153 72.0625 L 190 72.0625 L 190 91 L 153 91 Z M 153 72.0625"/></clipPath></defs><g clip-path="url(#a)"><path fill="#FB0" d="M 366.78125 187.53125 C 366.78125 190.464844 366.710938 193.398438 366.566406 196.328125 C 366.421875 199.257812 366.207031 202.183594 365.917969 205.101562 C 365.632812 208.019531 365.273438 210.933594 364.84375 213.832031 C 364.410156 216.734375 363.910156 219.625 363.335938 222.503906 C 362.765625 225.378906 362.121094 228.242188 361.410156 231.085938 C 360.695312 233.933594 359.914062 236.757812 359.0625 239.566406 C 358.210938 242.371094 357.292969 245.15625 356.304688 247.917969 C 355.316406 250.683594 354.261719 253.417969 353.136719 256.128906 C 352.015625 258.839844 350.828125 261.519531 349.570312 264.171875 C 348.316406 266.824219 347 269.441406 345.617188 272.03125 C 344.234375 274.617188 342.789062 277.167969 341.28125 279.683594 C 339.773438 282.203125 338.203125 284.679688 336.574219 287.117188 C 334.941406 289.558594 333.253906 291.953125 331.507812 294.3125 C 329.757812 296.667969 327.957031 298.980469 326.09375 301.246094 C 324.234375 303.515625 322.316406 305.734375 320.347656 307.910156 C 318.378906 310.082031 316.355469 312.207031 314.28125 314.28125 C 312.207031 316.355469 310.082031 318.378906 307.910156 320.347656 C 305.734375 322.316406 303.515625 324.234375 301.246094 326.09375 C 298.980469 327.957031 296.667969 329.757812 294.3125 331.507812 C 291.953125 333.253906 289.558594 334.941406 287.117188 336.574219 C 284.679688 338.203125 282.199219 339.773438 279.683594 341.28125 C 277.167969 342.789062 274.617188 344.234375 272.03125 345.617188 C 269.441406 347 266.824219 348.316406 264.171875 349.570312 C 261.519531 350.828125 258.839844 352.015625 256.128906 353.136719 C 253.417969 354.261719 250.679688 355.316406 247.917969 356.304688 C 245.15625 357.292969 242.371094 358.210938 239.566406 359.0625 C 236.757812 359.914062 233.933594 360.699219 231.085938 361.410156 C 228.242188 362.121094 225.378906 362.765625 222.5 363.335938 C 219.625 363.910156 216.734375 364.410156 213.832031 364.84375 C 210.929688 365.273438 208.019531 365.632812 205.101562 365.917969 C 202.183594 366.207031 199.257812 366.421875 196.328125 366.566406 C 193.398438 366.710938 190.464844 366.78125 187.53125 366.78125 C 184.597656 366.78125 181.667969 366.710938 178.738281 366.566406 C 175.804688 366.421875 172.882812 366.207031 169.960938 365.917969 C 167.042969 365.632812 164.132812 365.273438 161.230469 364.84375 C 158.328125 364.410156 155.4375 363.910156 152.5625 363.335938 C 149.683594 362.765625 146.824219 362.121094 143.976562 361.410156 C 141.132812 360.699219 138.304688 359.914062 135.5 359.0625 C 132.691406 358.210938 129.90625 357.292969 127.144531 356.304688 C 124.382812 355.316406 121.644531 354.261719 118.9375 353.136719 C 116.226562 352.015625 113.542969 350.828125 110.894531 349.570312 C 108.242188 348.316406 105.621094 347 103.035156 345.617188 C 100.445312 344.234375 97.894531 342.789062 95.378906 341.28125 C 92.863281 339.773438 90.386719 338.203125 87.945312 336.574219 C 85.507812 334.941406 83.109375 333.253906 80.753906 331.507812 C 78.398438 329.757812 76.085938 327.957031 73.816406 326.09375 C 71.550781 324.234375 69.328125 322.316406 67.15625 320.347656 C 64.980469 318.378906 62.855469 316.355469 60.78125 314.28125 C 58.707031 312.207031 56.6875 310.082031 54.714844 307.910156 C 52.746094 305.734375 50.832031 303.515625 48.96875 301.246094 C 47.109375 298.980469 45.304688 296.667969 43.558594 294.3125 C 41.808594 291.953125 40.121094 289.558594 38.492188 287.117188 C 36.859375 284.679688 35.292969 282.203125 33.785156 279.683594 C 32.277344 277.167969 30.832031 274.617188 29.449219 272.03125 C 28.066406 269.441406 26.746094 266.824219 25.492188 264.171875 C 24.238281 261.519531 23.050781 258.839844 21.925781 256.128906 C 20.804688 253.417969 19.75 250.683594 18.761719 247.917969 C 17.773438 245.15625 16.851562 242.371094 16 239.566406 C 15.148438 236.757812 14.367188 233.933594 13.652344 231.085938 C 12.941406 228.242188 12.296875 225.378906 11.726562 222.503906 C 11.152344 219.625 10.652344 216.734375 10.222656 213.832031 C 9.792969 210.933594 9.433594 208.019531 9.144531 205.101562 C 8.859375 202.183594 8.640625 199.257812 8.496094 196.328125 C 8.355469 193.398438 8.28125 190.464844 8.28125 187.53125 C 8.28125 184.597656 8.355469 181.667969 8.496094 178.738281 C 8.640625 175.808594 8.859375 172.882812 9.144531 169.960938 C 9.433594 167.042969 9.792969 164.132812 10.222656 161.230469 C 10.652344 158.328125 11.152344 155.4375 11.726562 152.5625 C 12.296875 149.683594 12.941406 146.824219 13.652344 143.976562 C 14.367188 141.132812 15.148438 138.304688 16 135.5 C 16.851562 132.691406 17.773438 129.90625 18.761719 127.144531 C 19.75 124.382812 20.804688 121.644531 21.925781 118.9375 C 23.050781 116.226562 24.238281 113.542969 25.492188 110.894531 C 26.746094 108.242188 28.066406 105.621094 29.449219 103.035156 C 30.832031 100.445312 32.277344 97.894531 33.785156 95.378906 C 35.292969 92.863281 36.859375 90.386719 38.492188 87.945312 C 40.121094 85.507812 41.808594 83.109375 43.558594 80.753906 C 45.304688 78.398438 47.109375 76.085938 48.96875 73.816406 C 50.832031 71.550781 52.746094 69.328125 54.714844 67.15625 C 56.6875 64.980469 58.707031 62.859375 60.78125 60.785156 C 62.855469 58.707031 64.980469 56.6875 67.15625 54.714844 C 69.328125 52.746094 71.550781 50.832031 73.816406 48.96875 C 76.085938 47.109375 78.398438 45.304688 80.753906 43.558594 C 83.109375 41.808594 85.507812 40.121094 87.945312 38.492188 C 90.386719 36.863281 92.863281 35.292969 95.378906 33.785156 C 97.894531 32.277344 100.445312 30.832031 103.035156 29.449219 C 105.621094 28.066406 108.242188 26.746094 110.894531 25.492188 C 113.542969 24.238281 116.226562 23.050781 118.9375 21.925781 C 121.644531 20.804688 124.382812 19.75 127.144531 18.761719 C 129.90625 17.773438 132.691406 16.851562 135.5 16 C 138.304688 15.148438 141.132812 14.367188 143.976562 13.652344 C 146.824219 12.941406 149.683594 12.296875 152.5625 11.726562 C 155.4375 11.152344 158.328125 10.652344 161.230469 10.222656 C 164.132812 9.792969 167.042969 9.433594 169.960938 9.144531 C 172.882812 8.859375 175.804688 8.640625 178.738281 8.496094 C 181.667969 8.355469 184.597656 8.28125 187.53125 8.28125 C 190.464844 8.28125 193.398438 8.355469 196.328125 8.496094 C 199.257812 8.640625 202.183594 8.859375 205.101562 9.144531 C 208.019531 9.433594 210.929688 9.792969 213.832031 10.222656 C 216.734375 10.652344 219.625 11.152344 222.5 11.726562 C 225.378906 12.296875 228.242188 12.941406 231.085938 13.652344 C 233.933594 14.367188 236.757812 15.148438 239.566406 16 C 242.371094 16.851562 245.15625 17.773438 247.917969 18.761719 C 250.679688 19.75 253.417969 20.804688 256.128906 21.925781 C 258.839844 23.050781 261.519531 24.238281 264.171875 25.492188 C 266.824219 26.746094 269.441406 28.066406 272.03125 29.449219 C 274.617188 30.832031 277.167969 32.277344 279.683594 33.785156 C 282.199219 35.292969 284.679688 36.863281 287.117188 38.492188 C 289.558594 40.121094 291.953125 41.808594 294.3125 43.558594 C 296.667969 45.304688 298.980469 47.109375 301.246094 48.96875 C 303.515625 50.832031 305.734375 52.746094 307.910156 54.714844 C 310.082031 56.6875 312.207031 58.707031 314.28125 60.785156 C 316.355469 62.859375 318.378906 64.980469 320.347656 67.15625 C 322.316406 69.328125 324.234375 71.550781 326.09375 73.816406 C 327.957031 76.085938 329.757812 78.398438 331.507812 80.753906 C 333.253906 83.109375 334.941406 85.507812 336.574219 87.945312 C 338.203125 90.386719 339.773438 92.863281 341.28125 95.378906 C 342.789062 97.894531 344.234375 100.445312 345.617188 103.035156 C 347 105.621094 348.316406 108.242188 349.570312 110.894531 C 350.828125 113.542969 352.015625 116.226562 353.136719 118.9375 C 354.261719 121.644531 355.316406 124.382812 356.304688 127.144531 C 357.292969 129.90625 358.210938 132.691406 359.0625 135.5 C 359.914062 138.304688 360.695312 141.132812 361.410156 143.976562 C 362.121094 146.824219 362.765625 149.683594 363.335938 152.5625 C 363.910156 155.4375 364.410156 158.328125 364.84375 161.230469 C 365.273438 164.132812 365.632812 167.042969 365.917969 169.960938 C 366.207031 172.882812 366.421875 175.808594 366.566406 178.738281 C 366.710938 181.667969 366.78125 184.597656 366.78125 187.53125 Z M 366.78125 187.53125"/></g><path fill="#FB0" d="M 194.203125 107.144531 L 189.449219 115.082031 L 189.394531 112.101562 C 189.289062 110.894531 188.464844 109.65625 187.113281 109.65625 L 180.125 109.195312 L 185.363281 101.15625 L 185.394531 104.328125 C 185.394531 105.75 186.515625 106.636719 187.824219 106.773438 Z M 194.203125 107.144531"/><path fill="#FB0" d="M 220.75 118.5 C 226.800781 120.539062 228.121094 122.511719 228.121094 123.085938 C 228.121094 123.8125 226.328125 126.203125 218.128906 128.476562 C 217.296875 128.707031 216.449219 128.925781 215.609375 129.113281 C 215.457031 129.148438 215.300781 129.183594 215.148438 129.226562 C 215.089844 129.234375 215.035156 129.246094 214.980469 129.269531 C 207.25 131.003906 197.347656 131.964844 187.089844 131.964844 C 176.820312 131.964844 167.003906 131.011719 159.300781 129.289062 C 159.070312 129.15625 158.808594 129.058594 158.523438 129.011719 C 158.332031 128.976562 158.136719 128.96875 157.957031 128.976562 C 156.984375 128.742188 156.023438 128.484375 155.070312 128.199219 C 147.667969 125.992188 146.050781 123.757812 146.050781 123.078125 C 146.050781 122.414062 147.417969 120.664062 152.585938 118.792969 C 152.59375 118.785156 152.605469 118.785156 152.613281 118.785156 C 152.65625 118.773438 152.695312 118.75 152.746094 118.730469 C 152.933594 118.648438 153.101562 118.542969 153.25 118.421875 C 153.292969 118.386719 153.335938 118.351562 153.382812 118.3125 C 153.40625 118.289062 153.433594 118.269531 153.453125 118.242188 C 153.566406 118.128906 153.664062 118.015625 153.746094 117.882812 C 153.84375 117.742188 153.929688 117.605469 153.992188 117.441406 C 154.125 117.128906 154.195312 116.792969 154.1875 116.441406 C 154.585938 98.957031 169.125 84.742188 186.644531 84.742188 C 204.289062 84.742188 218.523438 98.53125 219.082031 116.148438 C 219.082031 116.175781 219.082031 116.203125 219.089844 116.230469 C 219.089844 116.316406 219.097656 116.398438 219.109375 116.476562 C 219.144531 116.796875 219.25 117.097656 219.40625 117.371094 C 219.476562 117.503906 219.566406 117.632812 219.671875 117.75 C 219.761719 117.871094 219.875 117.976562 220 118.074219 C 220.054688 118.121094 220.113281 118.15625 220.175781 118.199219 C 220.316406 118.289062 220.460938 118.375 220.628906 118.429688 C 220.664062 118.472656 220.699219 118.484375 220.75 118.5 Z M 200.480469 106.183594 C 200.917969 105.449219 200.941406 104.539062 200.542969 103.78125 C 200.140625 103.019531 199.371094 102.535156 198.519531 102.488281 L 190.261719 102.011719 L 190.164062 93.027344 C 190.152344 91.949219 189.4375 91.003906 188.394531 90.710938 C 187.363281 90.40625 186.25 90.820312 185.664062 91.722656 L 173.730469 110.035156 C 173.253906 110.761719 173.199219 111.6875 173.589844 112.464844 C 173.976562 113.242188 174.753906 113.753906 175.613281 113.816406 L 184.527344 114.402344 L 184.6875 123.730469 C 184.710938 124.824219 185.453125 125.769531 186.503906 126.046875 C 186.710938 126.105469 186.921875 126.132812 187.132812 126.132812 C 187.980469 126.132812 188.785156 125.691406 189.234375 124.941406 Z M 200.480469 106.183594"/><path fill="#FB0" d="M 214.230469 135.96875 C 214.355469 137.378906 214.417969 138.796875 214.417969 140.207031 C 214.417969 153.523438 208.929688 165.183594 200.792969 171.441406 C 200.722656 171.484375 200.652344 171.539062 200.589844 171.601562 C 196.605469 174.605469 192 176.320312 187.097656 176.320312 C 182.554688 176.320312 178.261719 174.851562 174.496094 172.246094 C 174.488281 172.238281 174.488281 172.238281 174.488281 172.238281 C 174.390625 172.164062 174.292969 172.085938 174.1875 172.03125 C 165.609375 165.929688 159.777344 153.957031 159.777344 140.21875 C 159.777344 138.828125 159.839844 137.414062 159.964844 136.027344 C 159.972656 136.019531 159.972656 136.003906 159.972656 135.996094 C 159.972656 135.984375 159.972656 135.96875 159.972656 135.949219 C 160.015625 135.464844 160.070312 134.976562 160.132812 134.484375 C 167.871094 136.046875 177.308594 136.886719 187.113281 136.886719 C 196.878906 136.886719 206.351562 136.039062 214.089844 134.484375 C 214.125 134.960938 214.1875 135.464844 214.230469 135.96875 Z M 214.230469 135.96875"/><path fill="#FB0" d="M 199.703125 177.933594 L 199.703125 186.46875 L 187.53125 200.570312 L 175.363281 186.460938 L 175.363281 178.394531 C 179.003906 180.207031 182.953125 181.203125 187.089844 181.203125 C 191.558594 181.203125 195.824219 180.039062 199.703125 177.933594 Z M 199.703125 177.933594"/><path fill="#FB0" d="M 251.535156 224.734375 L 251.535156 287.914062 C 251.535156 289.226562 250.464844 290.300781 249.148438 290.300781 L 233.480469 290.300781 L 233.480469 199.574219 C 244.304688 203.214844 251.535156 213.242188 251.535156 224.734375 Z M 251.535156 224.734375"/><path fill="#FB0" d="M 141.835938 199.492188 L 141.835938 290.300781 L 125.914062 290.300781 C 124.597656 290.300781 123.527344 289.226562 123.527344 287.910156 L 123.527344 224.734375 C 123.527344 213.160156 130.863281 203.070312 141.835938 199.492188 Z M 141.835938 199.492188"/><path fill="#FB0" d="M 172.070312 190.144531 L 183.898438 203.855469 L 172.625 211.652344 L 162.074219 193.230469 Z M 172.070312 190.144531"/><path fill="#FB0" d="M 212.992188 193.230469 L 202.4375 211.652344 L 191.164062 203.855469 L 202.992188 190.144531 Z M 212.992188 193.230469"/><path fill="#FB0" d="M 228.585938 198.054688 L 228.585938 290.308594 L 146.722656 290.308594 L 146.722656 197.980469 L 157.277344 194.714844 L 169.699219 216.402344 C 170.035156 216.996094 170.609375 217.417969 171.28125 217.570312 C 171.953125 217.71875 172.652344 217.585938 173.214844 217.191406 L 187.53125 207.292969 L 201.851562 217.191406 C 202.265625 217.480469 202.746094 217.625 203.246094 217.625 C 203.425781 217.625 203.609375 217.605469 203.789062 217.570312 C 204.457031 217.417969 205.03125 216.988281 205.371094 216.402344 L 217.792969 194.714844 Z M 228.585938 198.054688"/><path fill="#FB0" d="M 157.023438 75.765625 L 185.835938 75.765625 L 185.835938 86.582031 L 157.023438 86.582031 Z M 157.023438 75.765625"/><path fill="#FB0" d="M 243.464844 252.496094 C 243.472656 248.757812 242.789062 245.152344 241.410156 241.679688 C 240.953125 240.46875 240.402344 239.300781 239.753906 238.183594 L 264.714844 213.199219 C 265.882812 214.367188 266.988281 215.589844 268.035156 216.867188 C 269.085938 218.144531 270.066406 219.472656 270.984375 220.847656 C 271.902344 222.222656 272.75 223.636719 273.527344 225.09375 C 274.308594 226.554688 275.011719 228.046875 275.644531 229.574219 C 276.277344 231.101562 276.832031 232.65625 277.3125 234.238281 C 277.792969 235.820312 278.191406 237.421875 278.515625 239.042969 C 278.835938 240.664062 279.078125 242.296875 279.242188 243.941406 C 279.402344 245.585938 279.484375 247.238281 279.484375 248.890625 C 279.484375 250.542969 279.402344 252.191406 279.242188 253.835938 C 279.078125 255.480469 278.835938 257.117188 278.515625 258.738281 C 278.191406 260.359375 277.792969 261.960938 277.3125 263.542969 C 276.832031 265.125 276.277344 266.679688 275.644531 268.207031 C 275.011719 269.734375 274.308594 271.226562 273.527344 272.683594 C 272.75 274.140625 271.902344 275.558594 270.984375 276.933594 C 270.066406 278.308594 269.085938 279.632812 268.039062 280.910156 C 266.988281 282.1875 265.882812 283.414062 264.714844 284.582031 C 263.546875 285.75 262.324219 286.859375 261.046875 287.90625 C 259.769531 288.957031 258.445312 289.941406 257.074219 290.859375 C 255.699219 291.777344 254.285156 292.625 252.828125 293.40625 C 251.371094 294.183594 249.878906 294.890625 248.355469 295.523438 C 246.828125 296.15625 245.277344 296.710938 243.695312 297.191406 C 242.113281 297.671875 240.515625 298.074219 238.894531 298.394531 C 237.273438 298.71875 235.644531 298.960938 234 299.121094 C 232.355469 299.285156 230.707031 299.367188 229.058594 299.367188 C 227.40625 299.367188 225.757812 299.285156 224.113281 299.121094 C 222.472656 298.960938 220.839844 298.71875 219.21875 298.394531 C 217.597656 298.074219 216 297.671875 214.417969 297.191406 C 212.839844 296.710938 211.285156 296.15625 209.757812 295.523438 C 208.234375 294.890625 206.742188 294.183594 205.285156 293.40625 C 203.828125 292.625 202.414062 291.777344 201.042969 290.859375 C 199.667969 289.941406 198.34375 288.957031 197.066406 287.90625 C 195.789062 286.859375 194.566406 285.75 193.398438 284.582031 L 216.164062 261.796875 C 216.714844 263.457031 217.414062 265.054688 218.253906 266.589844 C 219.09375 268.125 220.066406 269.574219 221.167969 270.933594 C 222.269531 272.292969 223.480469 273.546875 224.808594 274.6875 C 226.132812 275.828125 227.550781 276.84375 229.058594 277.730469 C 230.148438 277.085938 231.195312 276.375 232.195312 275.59375 C 233.195312 274.816406 234.140625 273.972656 235.03125 273.070312 C 235.921875 272.167969 236.75 271.210938 237.515625 270.199219 C 238.28125 269.1875 238.980469 268.132812 239.609375 267.027344 C 240.238281 265.925781 240.792969 264.789062 241.273438 263.613281 C 241.757812 262.441406 242.160156 261.242188 242.484375 260.015625 C 242.808594 258.789062 243.054688 257.542969 243.21875 256.285156 C 243.382812 255.027344 243.464844 253.765625 243.464844 252.496094 Z M 243.464844 252.496094"/><path fill="#FB0" d="M 149.820312 112.214844 L 149.820312 129.84375 L 128.210938 129.84375 L 102.996094 194.738281 L 95.792969 176.710938 L 113.804688 111.816406 Z M 149.820312 112.214844"/><path fill="#FB0" d="M 239.753906 238.183594 C 237.921875 234.921875 235.554688 232.109375 232.660156 229.746094 C 231.515625 228.832031 230.316406 228.003906 229.058594 227.257812 C 227.800781 228.003906 226.597656 228.832031 225.457031 229.746094 C 222.558594 232.109375 220.191406 234.921875 218.359375 238.183594 C 217.714844 239.304688 217.160156 240.46875 216.703125 241.679688 L 241.410156 241.679688 C 240.953125 240.46875 240.402344 239.304688 239.753906 238.183594 Z M 239.753906 238.183594"/><path fill="#FB0" d="M 189.4375 133.449219 L 200.242188 165.898438 L 142.617188 165.898438 L 153.421875 133.449219 Z M 189.4375 133.449219"/><path fill="#FB0" d="M 193.039062 129.84375 L 193.039062 133.449219 L 149.820312 133.449219 L 149.820312 108.210938 L 193.039062 108.210938 Z M 193.039062 129.84375"/><path fill="#FB0" d="M 200.242188 165.898438 C 201.191406 165.894531 202.125 165.988281 203.054688 166.171875 C 203.980469 166.359375 204.882812 166.632812 205.757812 166.992188 C 206.632812 167.355469 207.460938 167.800781 208.25 168.324219 C 209.035156 168.851562 209.761719 169.449219 210.433594 170.121094 C 211.101562 170.789062 211.699219 171.515625 212.222656 172.304688 C 212.75 173.09375 213.191406 173.921875 213.554688 174.796875 C 213.917969 175.671875 214.191406 176.574219 214.375 177.503906 C 214.558594 178.433594 214.652344 179.371094 214.648438 180.316406 L 214.648438 200.507812 C 213.378906 200.886719 212.121094 201.316406 210.882812 201.796875 C 209.644531 202.277344 208.425781 202.804688 207.230469 203.378906 C 206.03125 203.957031 204.859375 204.578125 203.710938 205.246094 C 202.5625 205.914062 201.445312 206.625 200.351562 207.382812 C 199.261719 208.140625 198.199219 208.941406 197.171875 209.78125 C 196.144531 210.621094 195.148438 211.5 194.191406 212.421875 C 193.230469 213.339844 192.308594 214.296875 191.425781 215.289062 C 190.542969 216.28125 189.699219 217.304688 188.894531 218.367188 C 188.09375 219.425781 187.332031 220.511719 186.617188 221.632812 C 185.898438 222.75 185.226562 223.898438 184.601562 225.070312 C 183.976562 226.242188 183.394531 227.4375 182.863281 228.652344 C 182.332031 229.871094 181.847656 231.109375 181.414062 232.367188 C 180.976562 233.621094 180.59375 234.894531 180.257812 236.179688 C 179.925781 237.464844 179.640625 238.765625 179.410156 240.074219 C 179.179688 241.382812 179 242.699219 178.871094 244.019531 C 178.742188 245.34375 178.667969 246.671875 178.644531 248 C 178.621094 249.328125 178.648438 250.65625 178.730469 251.984375 C 178.8125 253.308594 178.945312 254.632812 179.132812 255.949219 C 179.316406 257.265625 179.554688 258.570312 179.84375 259.867188 C 180.132812 261.167969 180.472656 262.449219 180.859375 263.722656 C 181.25 264.992188 181.691406 266.246094 182.179688 267.480469 C 182.667969 268.71875 183.207031 269.933594 183.789062 271.125 C 184.375 272.320312 185.007812 273.488281 185.683594 274.632812 C 186.359375 275.773438 187.082031 276.890625 187.847656 277.976562 C 188.613281 279.0625 189.417969 280.117188 190.265625 281.140625 C 191.117188 282.164062 192.003906 283.152344 192.929688 284.105469 C 193.855469 285.054688 194.816406 285.972656 195.816406 286.847656 C 196.816406 287.722656 197.847656 288.558594 198.910156 289.355469 C 199.976562 290.148438 201.070312 290.902344 202.191406 291.609375 C 203.316406 292.320312 204.464844 292.980469 205.644531 293.597656 C 206.820312 294.214844 208.015625 294.785156 209.238281 295.308594 C 210.460938 295.832031 211.699219 296.304688 212.957031 296.730469 C 212.269531 297.539062 211.445312 298.167969 210.480469 298.613281 C 209.519531 299.058594 208.507812 299.285156 207.445312 299.289062 L 135.414062 299.289062 C 134.941406 299.292969 134.472656 299.246094 134.007812 299.152344 C 133.542969 299.058594 133.09375 298.921875 132.65625 298.742188 C 132.21875 298.5625 131.804688 298.339844 131.410156 298.078125 C 131.015625 297.8125 130.652344 297.515625 130.320312 297.179688 C 129.984375 296.84375 129.6875 296.480469 129.421875 296.085938 C 129.160156 295.691406 128.9375 295.277344 128.757812 294.839844 C 128.578125 294.402344 128.441406 293.953125 128.347656 293.488281 C 128.253906 293.023438 128.210938 292.554688 128.210938 292.082031 L 128.210938 180.316406 C 128.210938 179.371094 128.300781 178.433594 128.484375 177.503906 C 128.671875 176.574219 128.941406 175.671875 129.304688 174.796875 C 129.667969 173.921875 130.109375 173.09375 130.636719 172.304688 C 131.160156 171.515625 131.757812 170.789062 132.429688 170.121094 C 133.097656 169.449219 133.824219 168.851562 134.613281 168.324219 C 135.398438 167.800781 136.226562 167.355469 137.101562 166.992188 C 137.976562 166.632812 138.878906 166.359375 139.804688 166.171875 C 140.734375 165.988281 141.671875 165.894531 142.617188 165.898438 Z M 200.242188 165.898438"/><path fill="#FB0" d="M 232.660156 229.746094 C 231.515625 228.832031 230.316406 228.003906 229.058594 227.257812 C 227.800781 228.003906 226.597656 228.832031 225.457031 229.746094 C 222.558594 232.109375 220.191406 234.921875 218.359375 238.183594 C 217.714844 239.304688 217.160156 240.46875 216.703125 241.679688 C 215.433594 244.894531 214.753906 248.234375 214.660156 251.691406 C 214.566406 255.148438 215.070312 258.515625 216.164062 261.796875 L 193.398438 284.582031 C 192.234375 283.414062 191.125 282.1875 190.078125 280.910156 C 189.027344 279.632812 188.046875 278.308594 187.128906 276.933594 C 186.210938 275.558594 185.363281 274.140625 184.585938 272.683594 C 183.804688 271.226562 183.101562 269.734375 182.46875 268.207031 C 181.835938 266.679688 181.28125 265.125 180.800781 263.542969 C 180.324219 261.960938 179.921875 260.359375 179.601562 258.738281 C 179.277344 257.117188 179.035156 255.480469 178.875 253.835938 C 178.710938 252.191406 178.628906 250.542969 178.628906 248.890625 C 178.628906 247.238281 178.710938 245.585938 178.875 243.941406 C 179.035156 242.296875 179.277344 240.664062 179.601562 239.042969 C 179.921875 237.421875 180.324219 235.820312 180.800781 234.238281 C 181.28125 232.65625 181.835938 231.101562 182.46875 229.574219 C 183.101562 228.046875 183.804688 226.554688 184.585938 225.09375 C 185.363281 223.636719 186.210938 222.222656 187.128906 220.847656 C 188.046875 219.472656 189.027344 218.144531 190.078125 216.867188 C 191.125 215.589844 192.234375 214.367188 193.398438 213.199219 C 194.566406 212.027344 195.789062 210.917969 197.066406 209.871094 C 198.34375 208.820312 199.667969 207.839844 201.042969 206.921875 C 202.414062 206 203.828125 205.152344 205.285156 204.375 C 206.742188 203.59375 208.234375 202.886719 209.757812 202.253906 C 211.285156 201.625 212.839844 201.066406 214.417969 200.585938 C 216 200.105469 217.597656 199.707031 219.21875 199.382812 C 220.839844 199.0625 222.472656 198.820312 224.113281 198.65625 C 225.757812 198.496094 227.40625 198.414062 229.058594 198.414062 C 230.707031 198.414062 232.355469 198.496094 234 198.65625 C 235.644531 198.820312 237.273438 199.0625 238.894531 199.382812 C 240.515625 199.707031 242.113281 200.105469 243.695312 200.585938 C 245.277344 201.066406 246.828125 201.625 248.355469 202.253906 C 249.878906 202.886719 251.371094 203.59375 252.828125 204.375 C 254.285156 205.152344 255.699219 206 257.074219 206.921875 C 258.445312 207.839844 259.769531 208.820312 261.046875 209.871094 C 262.324219 210.917969 263.546875 212.027344 264.714844 213.199219 L 239.753906 238.183594 C 237.921875 234.921875 235.554688 232.109375 232.660156 229.746094 Z M 232.660156 229.746094"/><path fill="#FB0" d="M 243.464844 115.421875 L 243.464844 126.238281 L 225.457031 127.535156 L 225.457031 114.125 Z M 243.464844 115.421875"/><path fill="#FB0" d="M 225.457031 114.125 L 225.457031 127.535156 L 193.039062 129.84375 L 193.039062 111.816406 Z M 225.457031 114.125"/><path fill="#FB0" d="M 241.410156 241.679688 L 216.703125 241.679688 C 216.386719 242.484375 216.101562 243.300781 215.855469 244.128906 C 215.609375 244.957031 215.402344 245.796875 215.230469 246.644531 C 215.058594 247.492188 214.921875 248.34375 214.828125 249.207031 C 214.730469 250.066406 214.671875 250.925781 214.652344 251.792969 C 214.632812 252.65625 214.648438 253.519531 214.707031 254.382812 C 214.761719 255.246094 214.855469 256.105469 214.988281 256.960938 C 215.121094 257.816406 215.289062 258.664062 215.496094 259.503906 C 215.703125 260.34375 215.949219 261.171875 216.226562 261.988281 C 216.507812 262.808594 216.824219 263.613281 217.175781 264.402344 C 217.527344 265.191406 217.914062 265.964844 218.332031 266.722656 C 218.753906 267.476562 219.207031 268.214844 219.691406 268.929688 C 220.175781 269.644531 220.691406 270.339844 221.238281 271.007812 C 221.78125 271.679688 222.359375 272.324219 222.960938 272.941406 C 223.5625 273.5625 224.195312 274.152344 224.847656 274.71875 C 225.503906 275.28125 226.183594 275.8125 226.886719 276.316406 C 227.589844 276.820312 228.3125 277.292969 229.058594 277.730469 C 229.800781 277.292969 230.523438 276.820312 231.226562 276.316406 C 231.929688 275.8125 232.605469 275.277344 233.261719 274.714844 C 233.917969 274.152344 234.546875 273.558594 235.148438 272.941406 C 235.753906 272.320312 236.328125 271.675781 236.871094 271.003906 C 237.417969 270.335938 237.933594 269.640625 238.417969 268.925781 C 238.902344 268.210938 239.355469 267.472656 239.773438 266.71875 C 240.195312 265.960938 240.578125 265.1875 240.929688 264.398438 C 241.28125 263.609375 241.597656 262.804688 241.878906 261.988281 C 242.160156 261.167969 242.402344 260.339844 242.609375 259.5 C 242.816406 258.660156 242.984375 257.8125 243.117188 256.957031 C 243.25 256.105469 243.34375 255.246094 243.402344 254.382812 C 243.457031 253.519531 243.476562 252.65625 243.457031 251.789062 C 243.4375 250.925781 243.378906 250.0625 243.28125 249.203125 C 243.1875 248.34375 243.050781 247.492188 242.882812 246.644531 C 242.710938 245.796875 242.5 244.957031 242.253906 244.128906 C 242.011719 243.300781 241.726562 242.484375 241.410156 241.679688 Z M 241.410156 241.679688"/><g clip-path="url(#b)"><path d="M 229.058594 302.972656 C 227.289062 302.972656 225.523438 302.882812 223.761719 302.710938 C 222 302.535156 220.253906 302.277344 218.515625 301.933594 C 216.78125 301.585938 215.066406 301.15625 213.375 300.640625 C 211.679688 300.128906 210.015625 299.53125 208.382812 298.855469 C 206.746094 298.175781 205.148438 297.421875 203.589844 296.585938 C 202.027344 295.75 200.511719 294.839844 199.042969 293.855469 C 197.570312 292.875 196.152344 291.820312 194.785156 290.695312 C 193.414062 289.570312 192.105469 288.382812 190.855469 287.132812 C 189.605469 285.878906 188.417969 284.570312 187.292969 283.199219 C 186.171875 281.832031 185.121094 280.410156 184.136719 278.9375 C 183.152344 277.464844 182.246094 275.945312 181.410156 274.386719 C 180.578125 272.824219 179.820312 271.222656 179.144531 269.585938 C 178.46875 267.949219 177.871094 266.285156 177.359375 264.589844 C 176.84375 262.894531 176.414062 261.179688 176.070312 259.441406 C 175.722656 257.707031 175.464844 255.957031 175.292969 254.191406 C 175.117188 252.429688 175.03125 250.664062 175.03125 248.890625 C 175.03125 247.121094 175.117188 245.355469 175.292969 243.589844 C 175.464844 241.828125 175.722656 240.078125 176.070312 238.34375 C 176.414062 236.605469 176.84375 234.890625 177.359375 233.195312 C 177.871094 231.5 178.46875 229.832031 179.144531 228.195312 C 179.820312 226.5625 180.578125 224.960938 181.410156 223.398438 C 182.246094 221.835938 183.152344 220.320312 184.136719 218.847656 C 185.121094 217.375 186.171875 215.953125 187.292969 214.585938 C 188.417969 213.214844 189.605469 211.90625 190.855469 210.652344 C 192.105469 209.398438 193.414062 208.210938 194.785156 207.089844 C 196.152344 205.964844 197.570312 204.910156 199.042969 203.925781 C 200.511719 202.941406 202.027344 202.035156 203.589844 201.199219 C 205.148438 200.363281 206.746094 199.609375 208.382812 198.929688 C 210.015625 198.253906 211.679688 197.65625 213.375 197.140625 C 215.066406 196.628906 216.78125 196.199219 218.515625 195.851562 C 220.253906 195.507812 222 195.246094 223.761719 195.074219 C 225.523438 194.898438 227.289062 194.8125 229.058594 194.8125 C 230.828125 194.8125 232.589844 194.898438 234.351562 195.074219 C 236.113281 195.246094 237.863281 195.507812 239.597656 195.851562 C 241.332031 196.199219 243.046875 196.628906 244.738281 197.140625 C 246.433594 197.65625 248.097656 198.253906 249.730469 198.929688 C 251.367188 199.609375 252.964844 200.363281 254.523438 201.199219 C 256.085938 202.035156 257.601562 202.945312 259.070312 203.925781 C 260.542969 204.910156 261.960938 205.964844 263.332031 207.089844 C 264.699219 208.210938 266.007812 209.398438 267.257812 210.652344 C 268.511719 211.90625 269.695312 213.214844 270.820312 214.585938 C 271.941406 215.953125 272.996094 217.375 273.976562 218.847656 C 274.960938 220.320312 275.867188 221.835938 276.703125 223.398438 C 277.539062 224.960938 278.292969 226.5625 278.96875 228.195312 C 279.648438 229.832031 280.242188 231.5 280.757812 233.195312 C 281.269531 234.890625 281.699219 236.605469 282.042969 238.34375 C 282.390625 240.078125 282.648438 241.828125 282.824219 243.589844 C 282.996094 245.355469 283.082031 247.121094 283.082031 248.890625 C 283.082031 250.664062 282.992188 252.429688 282.816406 254.191406 C 282.640625 255.953125 282.382812 257.703125 282.035156 259.4375 C 281.6875 261.175781 281.257812 262.890625 280.742188 264.582031 C 280.226562 266.277344 279.632812 267.941406 278.953125 269.578125 C 278.277344 271.214844 277.519531 272.8125 276.6875 274.375 C 275.851562 275.933594 274.941406 277.449219 273.960938 278.921875 C 272.976562 280.394531 271.921875 281.816406 270.800781 283.183594 C 269.679688 284.550781 268.492188 285.863281 267.242188 287.113281 C 265.992188 288.367188 264.683594 289.554688 263.316406 290.675781 C 261.949219 291.800781 260.527344 292.855469 259.058594 293.839844 C 257.585938 294.824219 256.074219 295.734375 254.511719 296.566406 C 252.953125 297.402344 251.355469 298.160156 249.722656 298.839844 C 248.089844 299.515625 246.425781 300.113281 244.734375 300.628906 C 243.039062 301.144531 241.328125 301.574219 239.59375 301.921875 C 237.859375 302.269531 236.109375 302.53125 234.351562 302.707031 C 232.589844 302.878906 230.824219 302.96875 229.058594 302.972656 Z M 229.058594 202.023438 C 227.523438 202.023438 225.992188 202.097656 224.46875 202.25 C 222.941406 202.398438 221.425781 202.625 219.921875 202.925781 C 218.417969 203.222656 216.933594 203.597656 215.464844 204.042969 C 213.996094 204.488281 212.554688 205.003906 211.140625 205.589844 C 209.722656 206.179688 208.335938 206.835938 206.984375 207.558594 C 205.632812 208.28125 204.320312 209.070312 203.042969 209.921875 C 201.769531 210.777344 200.539062 211.6875 199.351562 212.664062 C 198.167969 213.636719 197.03125 214.664062 195.949219 215.75 C 194.863281 216.835938 193.835938 217.972656 192.863281 219.160156 C 191.890625 220.347656 190.976562 221.578125 190.125 222.855469 C 189.273438 224.128906 188.488281 225.445312 187.765625 226.796875 C 187.039062 228.152344 186.386719 229.539062 185.800781 230.957031 C 185.210938 232.375 184.695312 233.816406 184.25 235.285156 C 183.804688 236.757812 183.433594 238.242188 183.132812 239.75 C 182.835938 241.253906 182.609375 242.769531 182.460938 244.296875 C 182.308594 245.824219 182.234375 247.355469 182.234375 248.890625 C 182.234375 250.425781 182.308594 251.957031 182.460938 253.484375 C 182.609375 255.015625 182.835938 256.53125 183.132812 258.035156 C 183.433594 259.542969 183.804688 261.027344 184.25 262.496094 C 184.695312 263.964844 185.210938 265.410156 185.800781 266.828125 C 186.386719 268.246094 187.039062 269.632812 187.765625 270.984375 C 188.488281 272.339844 189.273438 273.65625 190.125 274.929688 C 190.976562 276.207031 191.890625 277.4375 192.863281 278.625 C 193.835938 279.8125 194.863281 280.949219 195.949219 282.03125 C 197.035156 283.117188 198.167969 284.148438 199.351562 285.121094 C 200.539062 286.09375 201.769531 287.007812 203.042969 287.863281 C 204.320312 288.714844 205.632812 289.503906 206.984375 290.226562 C 208.335938 290.949219 209.722656 291.605469 211.140625 292.191406 C 212.554688 292.78125 213.996094 293.296875 215.464844 293.742188 C 216.933594 294.1875 218.417969 294.558594 219.921875 294.859375 C 221.425781 295.160156 222.941406 295.382812 224.46875 295.535156 C 225.992188 295.683594 227.523438 295.761719 229.058594 295.761719 C 230.589844 295.761719 232.121094 295.683594 233.644531 295.535156 C 235.171875 295.382812 236.6875 295.160156 238.191406 294.859375 C 239.695312 294.558594 241.179688 294.1875 242.648438 293.742188 C 244.117188 293.296875 245.558594 292.78125 246.976562 292.191406 C 248.390625 291.605469 249.777344 290.949219 251.128906 290.226562 C 252.480469 289.503906 253.796875 288.714844 255.070312 287.863281 C 256.34375 287.007812 257.574219 286.09375 258.761719 285.121094 C 259.945312 284.148438 261.082031 283.117188 262.164062 282.03125 C 263.25 280.949219 264.277344 279.8125 265.25 278.625 C 266.222656 277.4375 267.136719 276.207031 267.988281 274.929688 C 268.839844 273.65625 269.628906 272.339844 270.351562 270.984375 C 271.074219 269.632812 271.726562 268.246094 272.316406 266.828125 C 272.902344 265.410156 273.417969 263.964844 273.863281 262.496094 C 274.308594 261.027344 274.679688 259.542969 274.980469 258.035156 C 275.277344 256.53125 275.503906 255.015625 275.652344 253.484375 C 275.804688 251.957031 275.878906 250.425781 275.878906 248.890625 C 275.878906 247.359375 275.800781 245.828125 275.648438 244.300781 C 275.496094 242.773438 275.269531 241.257812 274.96875 239.753906 C 274.671875 238.246094 274.296875 236.761719 273.851562 235.292969 C 273.40625 233.824219 272.886719 232.382812 272.300781 230.964844 C 271.714844 229.546875 271.058594 228.164062 270.335938 226.808594 C 269.609375 225.457031 268.824219 224.140625 267.972656 222.867188 C 267.121094 221.589844 266.207031 220.359375 265.234375 219.175781 C 264.261719 217.988281 263.234375 216.851562 262.148438 215.765625 C 261.066406 214.683594 259.929688 213.652344 258.746094 212.679688 C 257.5625 211.707031 256.332031 210.792969 255.058594 209.9375 C 253.78125 209.085938 252.46875 208.296875 251.117188 207.574219 C 249.765625 206.851562 248.382812 206.195312 246.964844 205.605469 C 245.550781 205.019531 244.109375 204.5 242.644531 204.054688 C 241.175781 203.609375 239.691406 203.234375 238.1875 202.933594 C 236.683594 202.632812 235.171875 202.40625 233.644531 202.253906 C 232.121094 202.101562 230.589844 202.027344 229.058594 202.023438 Z M 229.058594 202.023438"/></g><path d="M 229.058594 281.339844 C 228.40625 281.339844 227.796875 281.175781 227.234375 280.847656 C 226.621094 280.484375 226.023438 280.105469 225.433594 279.703125 C 224.84375 279.304688 224.269531 278.882812 223.710938 278.445312 C 223.148438 278.007812 222.601562 277.554688 222.070312 277.078125 C 221.539062 276.605469 221.023438 276.117188 220.523438 275.609375 C 220.023438 275.101562 219.542969 274.582031 219.074219 274.042969 C 218.609375 273.503906 218.160156 272.953125 217.730469 272.382812 C 217.300781 271.816406 216.890625 271.234375 216.5 270.640625 C 216.105469 270.046875 215.734375 269.441406 215.378906 268.824219 C 215.027344 268.207031 214.695312 267.578125 214.382812 266.9375 C 214.070312 266.296875 213.78125 265.648438 213.507812 264.988281 C 213.238281 264.328125 212.992188 263.664062 212.765625 262.988281 C 212.539062 262.3125 212.332031 261.632812 212.148438 260.945312 C 211.96875 260.253906 211.808594 259.5625 211.667969 258.863281 C 211.53125 258.164062 211.417969 257.460938 211.324219 256.757812 C 211.234375 256.050781 211.164062 255.34375 211.117188 254.632812 C 211.070312 253.921875 211.046875 253.210938 211.046875 252.496094 C 211.046875 251.785156 211.070312 251.074219 211.117188 250.363281 C 211.164062 249.652344 211.234375 248.945312 211.324219 248.238281 C 211.417969 247.53125 211.53125 246.832031 211.667969 246.132812 C 211.808594 245.433594 211.96875 244.738281 212.148438 244.050781 C 212.332031 243.363281 212.539062 242.679688 212.765625 242.007812 C 212.992188 241.332031 213.238281 240.664062 213.507812 240.007812 C 213.78125 239.347656 214.070312 238.699219 214.382812 238.058594 C 214.695312 237.417969 215.027344 236.789062 215.378906 236.171875 C 215.734375 235.554688 216.105469 234.945312 216.5 234.351562 C 216.890625 233.757812 217.300781 233.179688 217.730469 232.609375 C 218.160156 232.042969 218.609375 231.492188 219.074219 230.953125 C 219.542969 230.414062 220.023438 229.890625 220.523438 229.386719 C 221.023438 228.878906 221.539062 228.386719 222.070312 227.914062 C 222.601562 227.441406 223.148438 226.984375 223.710938 226.546875 C 224.269531 226.109375 224.84375 225.691406 225.433594 225.292969 C 226.023438 224.890625 226.621094 224.511719 227.234375 224.148438 C 227.796875 223.820312 228.40625 223.65625 229.058594 223.65625 C 229.707031 223.65625 230.316406 223.820312 230.878906 224.148438 C 231.492188 224.511719 232.09375 224.890625 232.679688 225.292969 C 233.269531 225.691406 233.84375 226.109375 234.40625 226.546875 C 234.964844 226.984375 235.511719 227.441406 236.042969 227.914062 C 236.574219 228.386719 237.089844 228.878906 237.589844 229.386719 C 238.089844 229.890625 238.574219 230.414062 239.039062 230.953125 C 239.503906 231.492188 239.953125 232.042969 240.382812 232.609375 C 240.8125 233.179688 241.222656 233.757812 241.617188 234.351562 C 242.007812 234.945312 242.378906 235.554688 242.734375 236.171875 C 243.085938 236.789062 243.417969 237.417969 243.730469 238.058594 C 244.042969 238.699219 244.335938 239.347656 244.605469 240.007812 C 244.875 240.664062 245.125 241.332031 245.351562 242.007812 C 245.578125 242.679688 245.78125 243.363281 245.964844 244.050781 C 246.148438 244.738281 246.308594 245.433594 246.445312 246.132812 C 246.582031 246.832031 246.695312 247.53125 246.789062 248.238281 C 246.882812 248.945312 246.949219 249.652344 246.996094 250.363281 C 247.042969 251.074219 247.066406 251.785156 247.066406 252.496094 C 247.066406 253.210938 247.042969 253.921875 246.996094 254.632812 C 246.949219 255.34375 246.882812 256.050781 246.789062 256.757812 C 246.695312 257.460938 246.582031 258.164062 246.445312 258.863281 C 246.308594 259.5625 246.148438 260.253906 245.964844 260.945312 C 245.78125 261.632812 245.578125 262.3125 245.351562 262.988281 C 245.121094 263.664062 244.875 264.328125 244.605469 264.988281 C 244.335938 265.648438 244.042969 266.296875 243.730469 266.9375 C 243.417969 267.578125 243.085938 268.207031 242.734375 268.824219 C 242.378906 269.441406 242.007812 270.046875 241.617188 270.640625 C 241.222656 271.234375 240.8125 271.816406 240.382812 272.382812 C 239.953125 272.953125 239.503906 273.503906 239.039062 274.042969 C 238.574219 274.582031 238.089844 275.101562 237.589844 275.609375 C 237.089844 276.117188 236.574219 276.605469 236.042969 277.078125 C 235.511719 277.554688 234.964844 278.007812 234.40625 278.445312 C 233.84375 278.882812 233.269531 279.304688 232.679688 279.703125 C 232.09375 280.105469 231.492188 280.484375 230.878906 280.847656 C 230.316406 281.175781 229.707031 281.339844 229.058594 281.339844 Z M 229.058594 231.550781 C 228.640625 231.84375 228.234375 232.152344 227.835938 232.472656 C 227.441406 232.792969 227.050781 233.125 226.675781 233.464844 C 226.296875 233.808594 225.929688 234.164062 225.574219 234.527344 C 225.214844 234.894531 224.871094 235.269531 224.535156 235.652344 C 224.203125 236.039062 223.878906 236.433594 223.570312 236.839844 C 223.257812 237.242188 222.960938 237.65625 222.675781 238.078125 C 222.386719 238.5 222.113281 238.933594 221.855469 239.371094 C 221.59375 239.808594 221.347656 240.257812 221.113281 240.710938 C 220.878906 241.164062 220.660156 241.625 220.453125 242.089844 C 220.246094 242.554688 220.054688 243.027344 219.875 243.507812 C 219.695312 243.984375 219.53125 244.46875 219.382812 244.957031 C 219.234375 245.445312 219.097656 245.9375 218.976562 246.433594 C 218.855469 246.929688 218.75 247.425781 218.660156 247.929688 C 218.570312 248.433594 218.496094 248.9375 218.433594 249.441406 C 218.375 249.949219 218.328125 250.457031 218.296875 250.96875 C 218.265625 251.476562 218.253906 251.988281 218.25 252.496094 C 218.253906 253.007812 218.265625 253.519531 218.296875 254.027344 C 218.328125 254.535156 218.375 255.046875 218.433594 255.550781 C 218.496094 256.058594 218.570312 256.5625 218.660156 257.066406 C 218.75 257.566406 218.855469 258.066406 218.976562 258.5625 C 219.097656 259.058594 219.234375 259.550781 219.382812 260.039062 C 219.53125 260.527344 219.695312 261.007812 219.875 261.488281 C 220.054688 261.964844 220.246094 262.4375 220.453125 262.90625 C 220.660156 263.371094 220.878906 263.832031 221.113281 264.285156 C 221.347656 264.738281 221.59375 265.183594 221.855469 265.625 C 222.113281 266.0625 222.386719 266.492188 222.675781 266.914062 C 222.960938 267.339844 223.257812 267.75 223.570312 268.15625 C 223.878906 268.5625 224.203125 268.957031 224.535156 269.339844 C 224.871094 269.726562 225.214844 270.101562 225.574219 270.46875 C 225.929688 270.832031 226.296875 271.1875 226.675781 271.527344 C 227.050781 271.871094 227.441406 272.203125 227.835938 272.523438 C 228.234375 272.84375 228.640625 273.148438 229.058594 273.445312 C 229.472656 273.148438 229.878906 272.84375 230.277344 272.523438 C 230.675781 272.203125 231.0625 271.871094 231.4375 271.527344 C 231.816406 271.1875 232.183594 270.832031 232.539062 270.46875 C 232.898438 270.101562 233.242188 269.726562 233.578125 269.339844 C 233.910156 268.957031 234.234375 268.5625 234.542969 268.15625 C 234.855469 267.75 235.152344 267.339844 235.441406 266.914062 C 235.726562 266.492188 236 266.0625 236.261719 265.625 C 236.519531 265.183594 236.765625 264.738281 237 264.285156 C 237.234375 263.832031 237.457031 263.371094 237.664062 262.90625 C 237.867188 262.4375 238.0625 261.964844 238.238281 261.488281 C 238.417969 261.007812 238.582031 260.527344 238.730469 260.039062 C 238.882812 259.550781 239.015625 259.058594 239.136719 258.5625 C 239.257812 258.066406 239.363281 257.566406 239.453125 257.066406 C 239.542969 256.5625 239.621094 256.058594 239.679688 255.550781 C 239.742188 255.046875 239.785156 254.535156 239.816406 254.027344 C 239.847656 253.519531 239.863281 253.007812 239.863281 252.496094 C 239.863281 251.988281 239.847656 251.476562 239.816406 250.96875 C 239.785156 250.457031 239.742188 249.949219 239.679688 249.441406 C 239.621094 248.9375 239.542969 248.433594 239.453125 247.929688 C 239.363281 247.425781 239.257812 246.929688 239.136719 246.433594 C 239.015625 245.9375 238.882812 245.445312 238.730469 244.957031 C 238.582031 244.46875 238.417969 243.984375 238.238281 243.507812 C 238.0625 243.027344 237.867188 242.554688 237.664062 242.089844 C 237.457031 241.625 237.234375 241.164062 237 240.710938 C 236.765625 240.257812 236.519531 239.808594 236.261719 239.371094 C 236 238.933594 235.726562 238.5 235.441406 238.078125 C 235.152344 237.65625 234.855469 237.242188 234.542969 236.839844 C 234.234375 236.433594 233.910156 236.039062 233.578125 235.652344 C 233.242188 235.269531 232.898438 234.894531 232.539062 234.527344 C 232.183594 234.164062 231.816406 233.808594 231.4375 233.464844 C 231.0625 233.125 230.675781 232.792969 230.277344 232.472656 C 229.878906 232.152344 229.472656 231.84375 229.058594 231.550781 Z M 229.058594 231.550781"/><path d="M 241.410156 245.285156 L 216.703125 245.285156 C 216.226562 245.285156 215.765625 245.195312 215.324219 245.011719 C 214.882812 244.828125 214.496094 244.570312 214.15625 244.230469 C 213.820312 243.894531 213.558594 243.503906 213.375 243.0625 C 213.195312 242.621094 213.101562 242.160156 213.101562 241.683594 C 213.101562 241.203125 213.195312 240.742188 213.375 240.300781 C 213.558594 239.859375 213.820312 239.46875 214.15625 239.132812 C 214.496094 238.792969 214.882812 238.535156 215.324219 238.351562 C 215.765625 238.167969 216.226562 238.078125 216.703125 238.078125 L 241.410156 238.078125 C 241.886719 238.078125 242.347656 238.167969 242.789062 238.351562 C 243.230469 238.535156 243.617188 238.792969 243.957031 239.132812 C 244.292969 239.46875 244.554688 239.859375 244.738281 240.300781 C 244.921875 240.742188 245.011719 241.203125 245.011719 241.683594 C 245.011719 242.160156 244.921875 242.621094 244.738281 243.0625 C 244.554688 243.503906 244.292969 243.894531 243.957031 244.230469 C 243.617188 244.570312 243.230469 244.828125 242.789062 245.011719 C 242.347656 245.195312 241.886719 245.285156 241.410156 245.285156 Z M 241.410156 245.285156"/><path d="M 232.660156 233.363281 C 232.359375 233.363281 232.066406 233.324219 231.777344 233.253906 C 231.488281 233.179688 231.214844 233.074219 230.953125 232.933594 C 230.691406 232.792969 230.449219 232.621094 230.226562 232.417969 C 230.007812 232.21875 229.816406 231.992188 229.652344 231.746094 C 229.488281 231.496094 229.355469 231.230469 229.257812 230.949219 C 229.160156 230.667969 229.097656 230.378906 229.070312 230.082031 C 229.042969 229.785156 229.054688 229.488281 229.101562 229.195312 C 229.148438 228.898438 229.226562 228.617188 229.34375 228.339844 L 236.550781 211.425781 C 236.738281 210.984375 237.003906 210.601562 237.34375 210.269531 C 237.683594 209.933594 238.078125 209.679688 238.519531 209.503906 C 238.960938 209.324219 239.421875 209.238281 239.898438 209.246094 C 240.375 209.25 240.832031 209.347656 241.269531 209.535156 C 241.707031 209.71875 242.09375 209.984375 242.425781 210.324219 C 242.761719 210.664062 243.015625 211.054688 243.195312 211.5 C 243.375 211.941406 243.460938 212.398438 243.457031 212.875 C 243.457031 213.355469 243.359375 213.8125 243.175781 214.25 L 235.972656 231.171875 C 235.6875 231.835938 235.246094 232.367188 234.644531 232.765625 C 234.042969 233.164062 233.378906 233.363281 232.660156 233.363281 Z M 232.660156 233.363281"/><path d="M 225.457031 233.367188 C 224.734375 233.367188 224.070312 233.167969 223.46875 232.769531 C 222.867188 232.371094 222.425781 231.835938 222.140625 231.171875 L 214.9375 214.25 C 214.753906 213.8125 214.65625 213.351562 214.652344 212.875 C 214.648438 212.398438 214.738281 211.9375 214.914062 211.496094 C 215.09375 211.054688 215.351562 210.660156 215.683594 210.320312 C 216.019531 209.980469 216.40625 209.714844 216.84375 209.53125 C 217.28125 209.34375 217.742188 209.246094 218.21875 209.242188 C 218.695312 209.238281 219.15625 209.324219 219.597656 209.5 C 220.039062 209.679688 220.429688 209.933594 220.773438 210.269531 C 221.113281 210.601562 221.378906 210.988281 221.566406 211.429688 L 228.769531 228.347656 C 228.886719 228.621094 228.964844 228.90625 229.011719 229.199219 C 229.058594 229.496094 229.066406 229.789062 229.039062 230.085938 C 229.015625 230.382812 228.949219 230.671875 228.851562 230.953125 C 228.753906 231.234375 228.621094 231.5 228.457031 231.75 C 228.292969 231.996094 228.101562 232.222656 227.882812 232.421875 C 227.664062 232.625 227.421875 232.792969 227.160156 232.933594 C 226.898438 233.078125 226.621094 233.183594 226.335938 233.257812 C 226.046875 233.328125 225.753906 233.367188 225.457031 233.367188 Z M 225.457031 233.367188"/><path d="M 257.871094 256.101562 L 243.464844 256.101562 C 242.984375 256.101562 242.527344 256.011719 242.085938 255.828125 C 241.644531 255.644531 241.253906 255.386719 240.917969 255.046875 C 240.578125 254.707031 240.320312 254.320312 240.136719 253.878906 C 239.953125 253.433594 239.863281 252.976562 239.863281 252.496094 C 239.863281 252.019531 239.953125 251.558594 240.136719 251.117188 C 240.320312 250.675781 240.578125 250.285156 240.917969 249.949219 C 241.253906 249.609375 241.644531 249.347656 242.085938 249.167969 C 242.527344 248.984375 242.984375 248.890625 243.464844 248.890625 L 257.871094 248.890625 C 258.347656 248.890625 258.808594 248.984375 259.25 249.167969 C 259.691406 249.347656 260.078125 249.609375 260.417969 249.949219 C 260.753906 250.285156 261.015625 250.675781 261.199219 251.117188 C 261.382812 251.558594 261.472656 252.019531 261.472656 252.496094 C 261.472656 252.976562 261.382812 253.433594 261.199219 253.878906 C 261.015625 254.320312 260.753906 254.707031 260.417969 255.046875 C 260.078125 255.386719 259.691406 255.644531 259.25 255.828125 C 258.808594 256.011719 258.347656 256.101562 257.871094 256.101562 Z M 257.871094 256.101562"/><path d="M 214.648438 256.101562 L 200.242188 256.101562 C 199.765625 256.101562 199.304688 256.011719 198.863281 255.828125 C 198.425781 255.644531 198.035156 255.386719 197.695312 255.046875 C 197.359375 254.707031 197.097656 254.320312 196.914062 253.878906 C 196.734375 253.433594 196.640625 252.976562 196.640625 252.496094 C 196.640625 252.019531 196.734375 251.558594 196.914062 251.117188 C 197.097656 250.675781 197.359375 250.285156 197.695312 249.949219 C 198.035156 249.609375 198.425781 249.347656 198.863281 249.167969 C 199.304688 248.984375 199.765625 248.890625 200.242188 248.890625 L 214.648438 248.890625 C 215.128906 248.890625 215.585938 248.984375 216.027344 249.167969 C 216.46875 249.347656 216.859375 249.609375 217.195312 249.949219 C 217.535156 250.285156 217.796875 250.675781 217.976562 251.117188 C 218.160156 251.558594 218.25 252.019531 218.253906 252.496094 C 218.25 252.976562 218.160156 253.433594 217.976562 253.878906 C 217.796875 254.320312 217.535156 254.707031 217.195312 255.046875 C 216.859375 255.386719 216.46875 255.644531 216.027344 255.828125 C 215.585938 256.011719 215.128906 256.101562 214.648438 256.101562 Z M 214.648438 256.101562"/><path d="M 193.402344 288.1875 C 193.046875 288.1875 192.699219 288.136719 192.355469 288.03125 C 192.015625 287.929688 191.699219 287.777344 191.402344 287.578125 C 191.105469 287.382812 190.84375 287.144531 190.617188 286.867188 C 190.394531 286.59375 190.210938 286.292969 190.074219 285.960938 C 189.9375 285.632812 189.855469 285.289062 189.820312 284.9375 C 189.785156 284.582031 189.800781 284.230469 189.871094 283.878906 C 189.941406 283.53125 190.058594 283.199219 190.226562 282.882812 C 190.394531 282.570312 190.605469 282.285156 190.855469 282.03125 L 262.164062 210.652344 C 262.503906 210.316406 262.890625 210.054688 263.332031 209.871094 C 263.773438 209.6875 264.234375 209.59375 264.710938 209.59375 C 265.191406 209.59375 265.648438 209.6875 266.089844 209.871094 C 266.53125 210.050781 266.921875 210.3125 267.261719 210.652344 C 267.597656 210.988281 267.859375 211.378906 268.042969 211.820312 C 268.222656 212.261719 268.316406 212.722656 268.316406 213.203125 C 268.316406 213.679688 268.222656 214.140625 268.039062 214.582031 C 267.855469 215.023438 267.597656 215.414062 267.257812 215.75 L 195.949219 287.132812 C 195.246094 287.835938 194.398438 288.1875 193.402344 288.1875 Z M 193.402344 288.1875"/><path d="M 254.269531 277.734375 C 253.273438 277.734375 252.425781 277.382812 251.722656 276.679688 L 239.410156 264.355469 C 239.074219 264.015625 238.816406 263.628906 238.632812 263.1875 C 238.449219 262.742188 238.359375 262.285156 238.359375 261.808594 C 238.359375 261.328125 238.449219 260.871094 238.632812 260.429688 C 238.816406 259.988281 239.078125 259.597656 239.414062 259.257812 C 239.75 258.921875 240.140625 258.660156 240.582031 258.476562 C 241.023438 258.296875 241.480469 258.203125 241.960938 258.203125 C 242.4375 258.203125 242.894531 258.292969 243.335938 258.476562 C 243.777344 258.660156 244.167969 258.917969 244.503906 259.257812 L 256.816406 271.578125 C 257.066406 271.832031 257.277344 272.113281 257.445312 272.429688 C 257.613281 272.742188 257.730469 273.074219 257.800781 273.425781 C 257.871094 273.773438 257.886719 274.128906 257.851562 274.480469 C 257.816406 274.835938 257.730469 275.179688 257.597656 275.507812 C 257.460938 275.835938 257.277344 276.140625 257.050781 276.414062 C 256.828125 276.691406 256.566406 276.929688 256.269531 277.125 C 255.972656 277.324219 255.65625 277.476562 255.3125 277.578125 C 254.972656 277.683594 254.625 277.734375 254.269531 277.734375 Z M 254.269531 277.734375"/><path d="M 218.363281 241.792969 C 217.371094 241.796875 216.519531 241.445312 215.816406 240.738281 L 204.902344 229.808594 C 204.558594 229.472656 204.296875 229.082031 204.109375 228.640625 C 203.925781 228.199219 203.832031 227.734375 203.828125 227.257812 C 203.828125 226.777344 203.917969 226.3125 204.101562 225.871094 C 204.285156 225.425781 204.546875 225.035156 204.882812 224.695312 C 205.222656 224.355469 205.613281 224.09375 206.058594 223.914062 C 206.5 223.730469 206.960938 223.636719 207.441406 223.640625 C 207.921875 223.640625 208.382812 223.734375 208.824219 223.921875 C 209.265625 224.105469 209.65625 224.371094 209.992188 224.710938 L 220.910156 235.640625 C 221.164062 235.890625 221.371094 236.175781 221.539062 236.488281 C 221.707031 236.804688 221.828125 237.136719 221.894531 237.484375 C 221.964844 237.835938 221.984375 238.1875 221.949219 238.542969 C 221.914062 238.898438 221.828125 239.238281 221.691406 239.570312 C 221.554688 239.898438 221.375 240.199219 221.148438 240.476562 C 220.921875 240.75 220.660156 240.988281 220.363281 241.1875 C 220.070312 241.386719 219.75 241.535156 219.410156 241.640625 C 219.070312 241.742188 218.71875 241.792969 218.363281 241.792969 Z M 218.363281 241.792969"/><g clip-path="url(#c)"><path d="M 185.832031 90.183594 L 157.019531 90.183594 C 156.542969 90.183594 156.082031 90.089844 155.640625 89.90625 C 155.199219 89.726562 154.808594 89.464844 154.472656 89.125 C 154.132812 88.789062 153.875 88.398438 153.691406 87.957031 C 153.507812 87.515625 153.417969 87.054688 153.417969 86.578125 L 153.417969 75.761719 C 153.417969 75.28125 153.507812 74.824219 153.691406 74.382812 C 153.875 73.9375 154.132812 73.550781 154.472656 73.210938 C 154.808594 72.875 155.199219 72.613281 155.640625 72.429688 C 156.082031 72.246094 156.542969 72.15625 157.019531 72.15625 L 185.832031 72.15625 C 186.3125 72.15625 186.769531 72.246094 187.210938 72.429688 C 187.652344 72.613281 188.042969 72.875 188.378906 73.210938 C 188.71875 73.550781 188.976562 73.9375 189.160156 74.382812 C 189.34375 74.824219 189.433594 75.28125 189.433594 75.761719 L 189.433594 86.578125 C 189.433594 87.054688 189.34375 87.515625 189.160156 87.957031 C 188.976562 88.398438 188.71875 88.789062 188.378906 89.125 C 188.042969 89.464844 187.652344 89.726562 187.210938 89.90625 C 186.769531 90.089844 186.3125 90.183594 185.832031 90.183594 Z M 160.621094 82.972656 L 182.230469 82.972656 L 182.230469 79.367188 L 160.621094 79.367188 Z M 160.621094 82.972656"/></g><path d="M 193.039062 137.050781 L 149.820312 137.050781 C 149.34375 137.050781 148.882812 136.957031 148.441406 136.777344 C 148 136.59375 147.609375 136.332031 147.273438 135.996094 C 146.933594 135.65625 146.675781 135.265625 146.492188 134.824219 C 146.308594 134.382812 146.21875 133.921875 146.21875 133.445312 L 146.21875 108.207031 C 146.21875 107.730469 146.308594 107.269531 146.492188 106.828125 C 146.675781 106.386719 146.933594 105.996094 147.273438 105.660156 C 147.609375 105.320312 148 105.058594 148.441406 104.878906 C 148.882812 104.695312 149.34375 104.601562 149.820312 104.601562 L 193.039062 104.601562 C 193.519531 104.601562 193.976562 104.695312 194.417969 104.878906 C 194.859375 105.058594 195.25 105.320312 195.585938 105.660156 C 195.925781 105.996094 196.183594 106.386719 196.367188 106.828125 C 196.550781 107.269531 196.640625 107.730469 196.640625 108.207031 L 196.640625 133.445312 C 196.640625 133.921875 196.550781 134.382812 196.367188 134.824219 C 196.183594 135.265625 195.925781 135.65625 195.585938 135.996094 C 195.25 136.332031 194.859375 136.59375 194.417969 136.777344 C 193.976562 136.957031 193.519531 137.050781 193.039062 137.050781 Z M 153.421875 129.839844 L 189.4375 129.839844 L 189.4375 111.8125 L 153.421875 111.8125 Z M 153.421875 129.839844"/><path d="M 171.425781 111.8125 C 170.949219 111.8125 170.488281 111.722656 170.046875 111.539062 C 169.605469 111.355469 169.21875 111.097656 168.878906 110.757812 C 168.542969 110.417969 168.28125 110.03125 168.097656 109.589844 C 167.914062 109.144531 167.824219 108.6875 167.824219 108.207031 L 167.824219 86.578125 C 167.824219 86.097656 167.917969 85.640625 168.097656 85.195312 C 168.28125 84.753906 168.542969 84.367188 168.878906 84.027344 C 169.21875 83.6875 169.605469 83.429688 170.046875 83.246094 C 170.488281 83.0625 170.949219 82.972656 171.425781 82.972656 C 171.902344 82.972656 172.363281 83.0625 172.804688 83.246094 C 173.246094 83.429688 173.636719 83.6875 173.972656 84.027344 C 174.3125 84.367188 174.570312 84.753906 174.753906 85.195312 C 174.9375 85.640625 175.027344 86.097656 175.027344 86.578125 L 175.027344 108.207031 C 175.027344 108.6875 174.9375 109.144531 174.753906 109.589844 C 174.570312 110.03125 174.3125 110.417969 173.972656 110.757812 C 173.636719 111.097656 173.246094 111.355469 172.804688 111.539062 C 172.363281 111.722656 171.902344 111.8125 171.425781 111.8125 Z M 171.425781 111.8125"/><path d="M 243.46875 119.023438 C 243.382812 119.023438 243.296875 119.019531 243.207031 119.015625 L 192.785156 115.410156 C 192.308594 115.375 191.855469 115.25 191.429688 115.039062 C 191 114.824219 190.632812 114.535156 190.320312 114.175781 C 190.007812 113.8125 189.773438 113.40625 189.625 112.953125 C 189.472656 112.5 189.414062 112.035156 189.449219 111.554688 C 189.476562 111.078125 189.597656 110.621094 189.808594 110.191406 C 190.019531 109.761719 190.308594 109.390625 190.667969 109.074219 C 191.03125 108.761719 191.441406 108.527344 191.898438 108.378906 C 192.351562 108.230469 192.820312 108.175781 193.296875 108.21875 L 243.71875 111.820312 C 244.1875 111.855469 244.628906 111.976562 245.046875 112.179688 C 245.464844 112.386719 245.832031 112.660156 246.140625 113.007812 C 246.453125 113.355469 246.6875 113.75 246.847656 114.1875 C 247.007812 114.625 247.078125 115.078125 247.0625 115.546875 C 247.046875 116.011719 246.941406 116.457031 246.753906 116.882812 C 246.5625 117.3125 246.300781 117.6875 245.964844 118.011719 C 245.628906 118.335938 245.246094 118.585938 244.816406 118.761719 C 244.382812 118.933594 243.933594 119.023438 243.46875 119.023438 Z M 243.46875 119.023438"/><path d="M 243.464844 129.839844 C 242.984375 129.839844 242.527344 129.75 242.085938 129.566406 C 241.644531 129.382812 241.253906 129.121094 240.917969 128.785156 C 240.578125 128.445312 240.320312 128.054688 240.136719 127.613281 C 239.953125 127.171875 239.863281 126.710938 239.863281 126.234375 L 239.863281 115.417969 C 239.863281 114.941406 239.953125 114.480469 240.136719 114.039062 C 240.320312 113.597656 240.578125 113.207031 240.917969 112.871094 C 241.253906 112.53125 241.644531 112.269531 242.085938 112.085938 C 242.527344 111.90625 242.984375 111.8125 243.464844 111.8125 C 243.941406 111.8125 244.402344 111.90625 244.84375 112.085938 C 245.285156 112.269531 245.671875 112.53125 246.011719 112.871094 C 246.347656 113.207031 246.609375 113.597656 246.792969 114.039062 C 246.972656 114.480469 247.066406 114.941406 247.066406 115.417969 L 247.066406 126.234375 C 247.066406 126.710938 246.972656 127.171875 246.792969 127.613281 C 246.609375 128.054688 246.347656 128.445312 246.011719 128.785156 C 245.671875 129.121094 245.285156 129.382812 244.84375 129.566406 C 244.402344 129.75 243.941406 129.839844 243.464844 129.839844 Z M 243.464844 129.839844"/><path d="M 193.035156 133.445312 C 192.570312 133.445312 192.121094 133.355469 191.6875 133.179688 C 191.257812 133.003906 190.875 132.757812 190.539062 132.429688 C 190.203125 132.105469 189.941406 131.730469 189.75 131.304688 C 189.5625 130.878906 189.457031 130.433594 189.441406 129.964844 C 189.425781 129.5 189.496094 129.046875 189.65625 128.609375 C 189.816406 128.171875 190.050781 127.777344 190.363281 127.429688 C 190.671875 127.082031 191.039062 126.804688 191.457031 126.601562 C 191.875 126.394531 192.316406 126.277344 192.785156 126.242188 L 243.207031 122.636719 C 243.683594 122.605469 244.148438 122.664062 244.601562 122.8125 C 245.054688 122.964844 245.460938 123.199219 245.820312 123.511719 C 246.183594 123.824219 246.46875 124.195312 246.683594 124.621094 C 246.898438 125.046875 247.019531 125.5 247.054688 125.976562 C 247.089844 126.453125 247.03125 126.917969 246.878906 127.371094 C 246.730469 127.828125 246.496094 128.234375 246.183594 128.59375 C 245.871094 128.957031 245.503906 129.242188 245.074219 129.457031 C 244.648438 129.671875 244.195312 129.796875 243.71875 129.832031 L 193.296875 133.4375 C 193.207031 133.441406 193.121094 133.445312 193.035156 133.445312 Z M 193.035156 133.445312"/><path d="M 225.457031 131.128906 C 224.976562 131.128906 224.519531 131.035156 224.078125 130.855469 C 223.636719 130.671875 223.246094 130.410156 222.910156 130.074219 C 222.570312 129.734375 222.308594 129.34375 222.128906 128.902344 C 221.945312 128.460938 221.855469 128 221.855469 127.523438 L 221.855469 114.132812 C 221.855469 113.652344 221.945312 113.195312 222.128906 112.753906 C 222.3125 112.308594 222.570312 111.921875 222.910156 111.582031 C 223.246094 111.246094 223.636719 110.984375 224.078125 110.800781 C 224.519531 110.617188 224.976562 110.527344 225.457031 110.527344 C 225.933594 110.527344 226.390625 110.617188 226.832031 110.800781 C 227.273438 110.984375 227.664062 111.246094 228.003906 111.582031 C 228.339844 111.921875 228.601562 112.308594 228.78125 112.753906 C 228.964844 113.195312 229.058594 113.652344 229.058594 114.132812 L 229.058594 127.523438 C 229.058594 128 228.964844 128.460938 228.78125 128.902344 C 228.601562 129.34375 228.339844 129.734375 228.003906 130.074219 C 227.664062 130.410156 227.273438 130.671875 226.832031 130.855469 C 226.390625 131.035156 225.933594 131.128906 225.457031 131.128906 Z M 225.457031 131.128906"/><path d="M 149.820312 115.828125 L 149.777344 115.828125 L 113.761719 115.417969 C 113.28125 115.414062 112.824219 115.316406 112.386719 115.128906 C 111.945312 114.941406 111.5625 114.675781 111.226562 114.332031 C 110.894531 113.992188 110.636719 113.597656 110.460938 113.15625 C 110.28125 112.710938 110.195312 112.25 110.199219 111.773438 C 110.199219 111.535156 110.21875 111.296875 110.265625 111.0625 C 110.308594 110.828125 110.375 110.601562 110.46875 110.382812 C 110.558594 110.160156 110.671875 109.953125 110.804688 109.753906 C 110.9375 109.558594 111.089844 109.375 111.261719 109.207031 C 111.429688 109.042969 111.617188 108.894531 111.816406 108.765625 C 112.015625 108.636719 112.226562 108.527344 112.449219 108.441406 C 112.671875 108.355469 112.902344 108.292969 113.136719 108.253906 C 113.371094 108.214844 113.605469 108.199219 113.84375 108.207031 L 149.863281 108.617188 C 150.339844 108.621094 150.796875 108.714844 151.238281 108.898438 C 151.679688 109.085938 152.066406 109.347656 152.402344 109.6875 C 152.738281 110.027344 152.996094 110.417969 153.175781 110.863281 C 153.355469 111.304688 153.445312 111.765625 153.441406 112.242188 C 153.441406 112.722656 153.34375 113.179688 153.160156 113.621094 C 152.976562 114.0625 152.710938 114.449219 152.371094 114.785156 C 152.03125 115.121094 151.640625 115.378906 151.199219 115.5625 C 150.757812 115.742188 150.296875 115.828125 149.820312 115.828125 Z M 149.820312 115.828125"/><path d="M 95.796875 180.316406 C 95.519531 180.316406 95.246094 180.28125 94.976562 180.21875 C 94.707031 180.15625 94.445312 180.0625 94.199219 179.9375 C 93.949219 179.8125 93.71875 179.664062 93.503906 179.488281 C 93.289062 179.308594 93.097656 179.109375 92.929688 178.890625 C 92.761719 178.667969 92.621094 178.429688 92.507812 178.175781 C 92.394531 177.921875 92.3125 177.660156 92.257812 177.386719 C 92.207031 177.113281 92.1875 176.839844 92.195312 176.5625 C 92.207031 176.285156 92.25 176.011719 92.324219 175.742188 L 110.332031 110.847656 C 110.460938 110.386719 110.671875 109.96875 110.964844 109.59375 C 111.257812 109.214844 111.613281 108.910156 112.03125 108.675781 C 112.445312 108.4375 112.890625 108.292969 113.363281 108.234375 C 113.839844 108.175781 114.304688 108.210938 114.765625 108.339844 C 115.226562 108.464844 115.644531 108.675781 116.023438 108.972656 C 116.398438 109.265625 116.703125 109.621094 116.9375 110.039062 C 117.175781 110.453125 117.320312 110.898438 117.378906 111.375 C 117.4375 111.847656 117.402344 112.316406 117.273438 112.777344 L 99.265625 177.671875 C 99.160156 178.050781 98.996094 178.40625 98.777344 178.730469 C 98.554688 179.058594 98.289062 179.339844 97.976562 179.578125 C 97.664062 179.816406 97.320312 180 96.949219 180.125 C 96.574219 180.25 96.191406 180.3125 95.796875 180.316406 Z M 95.796875 180.316406"/><path d="M 102.996094 198.339844 C 102.636719 198.339844 102.285156 198.289062 101.941406 198.183594 C 101.597656 198.078125 101.277344 197.921875 100.976562 197.722656 C 100.679688 197.519531 100.417969 197.277344 100.191406 196.996094 C 99.964844 196.714844 99.785156 196.410156 99.652344 196.074219 L 92.449219 178.046875 C 92.273438 177.605469 92.1875 177.144531 92.195312 176.664062 C 92.203125 176.1875 92.300781 175.730469 92.488281 175.292969 C 92.675781 174.851562 92.941406 174.46875 93.28125 174.132812 C 93.625 173.800781 94.015625 173.546875 94.460938 173.367188 C 94.902344 173.191406 95.363281 173.105469 95.839844 173.109375 C 96.316406 173.117188 96.773438 173.210938 97.210938 173.398438 C 97.652344 173.585938 98.039062 173.851562 98.371094 174.191406 C 98.703125 174.535156 98.960938 174.925781 99.140625 175.367188 L 106.34375 193.398438 C 106.519531 193.84375 106.605469 194.304688 106.597656 194.78125 C 106.59375 195.257812 106.496094 195.71875 106.308594 196.15625 C 106.121094 196.597656 105.855469 196.984375 105.511719 197.316406 C 105.171875 197.652344 104.777344 197.90625 104.335938 198.085938 C 103.90625 198.257812 103.460938 198.34375 102.996094 198.339844 Z M 102.996094 198.339844"/><path d="M 102.996094 198.339844 C 102.546875 198.34375 102.113281 198.261719 101.691406 198.09375 C 101.246094 197.921875 100.851562 197.667969 100.507812 197.339844 C 100.164062 197.007812 99.894531 196.625 99.703125 196.1875 C 99.507812 195.75 99.410156 195.292969 99.398438 194.816406 C 99.386719 194.335938 99.46875 193.875 99.640625 193.429688 L 124.855469 128.535156 C 125.027344 128.085938 125.277344 127.691406 125.609375 127.34375 C 125.9375 127 126.320312 126.730469 126.757812 126.535156 C 127.195312 126.34375 127.652344 126.242188 128.132812 126.230469 C 128.609375 126.222656 129.070312 126.300781 129.515625 126.476562 C 129.960938 126.648438 130.355469 126.902344 130.703125 127.230469 C 131.046875 127.5625 131.316406 127.949219 131.507812 128.386719 C 131.699219 128.824219 131.800781 129.28125 131.8125 129.761719 C 131.820312 130.238281 131.738281 130.699219 131.566406 131.144531 L 106.351562 196.042969 C 106.222656 196.378906 106.042969 196.691406 105.820312 196.976562 C 105.59375 197.261719 105.332031 197.507812 105.03125 197.710938 C 104.730469 197.917969 104.410156 198.074219 104.0625 198.179688 C 103.714844 198.289062 103.359375 198.339844 102.996094 198.339844 Z M 102.996094 198.339844"/><path d="M 149.820312 133.445312 L 128.210938 133.445312 C 127.730469 133.445312 127.273438 133.351562 126.832031 133.171875 C 126.390625 132.988281 126 132.726562 125.664062 132.390625 C 125.324219 132.050781 125.066406 131.660156 124.882812 131.21875 C 124.699219 130.777344 124.609375 130.316406 124.609375 129.839844 C 124.609375 129.363281 124.699219 128.902344 124.882812 128.460938 C 125.066406 128.019531 125.324219 127.628906 125.664062 127.289062 C 126 126.953125 126.390625 126.691406 126.832031 126.507812 C 127.273438 126.324219 127.730469 126.234375 128.210938 126.234375 L 149.820312 126.234375 C 150.296875 126.234375 150.757812 126.324219 151.199219 126.507812 C 151.640625 126.691406 152.027344 126.953125 152.367188 127.289062 C 152.703125 127.628906 152.964844 128.019531 153.148438 128.460938 C 153.328125 128.902344 153.421875 129.363281 153.421875 129.839844 C 153.421875 130.316406 153.328125 130.777344 153.148438 131.21875 C 152.964844 131.660156 152.703125 132.050781 152.367188 132.390625 C 152.027344 132.726562 151.640625 132.988281 151.199219 133.171875 C 150.757812 133.351562 150.296875 133.445312 149.820312 133.445312 Z M 149.820312 133.445312"/><path d="M 142.617188 169.5 C 142.332031 169.5 142.050781 169.464844 141.773438 169.398438 C 141.496094 169.332031 141.230469 169.230469 140.976562 169.101562 C 140.722656 168.972656 140.488281 168.8125 140.269531 168.625 C 140.054688 168.441406 139.863281 168.230469 139.695312 168 C 139.527344 167.769531 139.390625 167.519531 139.285156 167.253906 C 139.175781 166.992188 139.101562 166.71875 139.058594 166.433594 C 139.015625 166.152344 139.003906 165.871094 139.03125 165.585938 C 139.054688 165.300781 139.109375 165.023438 139.199219 164.75 L 150.007812 132.304688 C 150.15625 131.851562 150.386719 131.441406 150.699219 131.078125 C 151.011719 130.71875 151.382812 130.429688 151.8125 130.214844 C 152.238281 130 152.691406 129.875 153.167969 129.84375 C 153.644531 129.808594 154.109375 129.867188 154.5625 130.019531 C 155.015625 130.167969 155.425781 130.402344 155.785156 130.714844 C 156.148438 131.03125 156.433594 131.402344 156.648438 131.828125 C 156.859375 132.257812 156.984375 132.710938 157.015625 133.1875 C 157.050781 133.667969 156.988281 134.132812 156.835938 134.585938 L 146.03125 167.03125 C 145.914062 167.390625 145.742188 167.722656 145.515625 168.027344 C 145.292969 168.332031 145.027344 168.597656 144.722656 168.816406 C 144.414062 169.039062 144.082031 169.207031 143.722656 169.324219 C 143.363281 169.441406 142.996094 169.5 142.617188 169.5 Z M 142.617188 169.5"/><path d="M 200.242188 169.5 C 199.867188 169.5 199.496094 169.441406 199.136719 169.324219 C 198.777344 169.207031 198.445312 169.039062 198.136719 168.816406 C 197.832031 168.597656 197.566406 168.332031 197.34375 168.027344 C 197.117188 167.722656 196.949219 167.390625 196.828125 167.03125 L 186.023438 134.585938 C 185.871094 134.132812 185.8125 133.667969 185.84375 133.1875 C 185.878906 132.710938 186 132.257812 186.214844 131.832031 C 186.425781 131.402344 186.714844 131.03125 187.074219 130.71875 C 187.4375 130.402344 187.84375 130.171875 188.296875 130.019531 C 188.75 129.867188 189.214844 129.808594 189.691406 129.84375 C 190.167969 129.878906 190.621094 130 191.046875 130.214844 C 191.476562 130.429688 191.847656 130.71875 192.160156 131.082031 C 192.472656 131.441406 192.703125 131.851562 192.855469 132.304688 L 203.660156 164.75 C 203.75 165.023438 203.804688 165.300781 203.832031 165.585938 C 203.855469 165.871094 203.84375 166.152344 203.800781 166.433594 C 203.757812 166.71875 203.683594 166.992188 203.574219 167.253906 C 203.46875 167.519531 203.332031 167.769531 203.164062 168 C 202.996094 168.230469 202.804688 168.441406 202.589844 168.625 C 202.375 168.8125 202.136719 168.972656 201.882812 169.101562 C 201.628906 169.230469 201.363281 169.332031 201.085938 169.398438 C 200.808594 169.464844 200.527344 169.5 200.242188 169.5 Z M 200.242188 169.5"/><path d="M 200.242188 169.496094 L 142.617188 169.496094 C 142.140625 169.496094 141.679688 169.40625 141.238281 169.222656 C 140.796875 169.039062 140.40625 168.78125 140.070312 168.441406 C 139.730469 168.101562 139.472656 167.714844 139.289062 167.273438 C 139.105469 166.832031 139.015625 166.371094 139.015625 165.890625 C 139.015625 165.414062 139.105469 164.953125 139.289062 164.511719 C 139.472656 164.070312 139.730469 163.679688 140.070312 163.34375 C 140.40625 163.003906 140.796875 162.746094 141.238281 162.5625 C 141.679688 162.378906 142.140625 162.285156 142.617188 162.285156 L 200.242188 162.285156 C 200.722656 162.285156 201.179688 162.378906 201.621094 162.5625 C 202.0625 162.746094 202.453125 163.003906 202.789062 163.34375 C 203.128906 163.679688 203.386719 164.070312 203.570312 164.511719 C 203.753906 164.953125 203.84375 165.414062 203.84375 165.890625 C 203.84375 166.371094 203.753906 166.832031 203.570312 167.273438 C 203.386719 167.714844 203.128906 168.101562 202.789062 168.441406 C 202.453125 168.78125 202.0625 169.039062 201.621094 169.222656 C 201.179688 169.40625 200.722656 169.496094 200.242188 169.496094 Z M 200.242188 169.496094"/><path d="M 214.648438 183.917969 C 214.171875 183.917969 213.714844 183.828125 213.273438 183.644531 C 212.832031 183.460938 212.441406 183.199219 212.101562 182.863281 C 211.765625 182.523438 211.503906 182.136719 211.324219 181.691406 C 211.140625 181.25 211.046875 180.792969 211.046875 180.3125 C 211.046875 179.601562 210.976562 178.898438 210.839844 178.203125 C 210.699219 177.507812 210.496094 176.832031 210.222656 176.175781 C 209.949219 175.519531 209.617188 174.898438 209.222656 174.308594 C 208.828125 173.71875 208.382812 173.171875 207.878906 172.667969 C 207.378906 172.167969 206.832031 171.71875 206.242188 171.324219 C 205.652344 170.929688 205.03125 170.597656 204.375 170.324219 C 203.722656 170.050781 203.046875 169.847656 202.351562 169.707031 C 201.65625 169.566406 200.953125 169.5 200.242188 169.496094 C 199.765625 169.496094 199.304688 169.40625 198.863281 169.222656 C 198.425781 169.039062 198.035156 168.78125 197.695312 168.441406 C 197.359375 168.101562 197.097656 167.714844 196.914062 167.273438 C 196.734375 166.832031 196.640625 166.371094 196.640625 165.890625 C 196.640625 165.414062 196.734375 164.953125 196.914062 164.511719 C 197.097656 164.070312 197.359375 163.679688 197.695312 163.34375 C 198.035156 163.003906 198.425781 162.746094 198.863281 162.5625 C 199.304688 162.378906 199.765625 162.285156 200.242188 162.285156 C 200.832031 162.289062 201.421875 162.316406 202.007812 162.375 C 202.59375 162.433594 203.175781 162.519531 203.753906 162.636719 C 204.332031 162.753906 204.90625 162.894531 205.46875 163.066406 C 206.03125 163.238281 206.585938 163.4375 207.132812 163.664062 C 207.675781 163.890625 208.207031 164.144531 208.726562 164.421875 C 209.25 164.699219 209.753906 165.003906 210.242188 165.332031 C 210.734375 165.660156 211.207031 166.011719 211.664062 166.386719 C 212.117188 166.757812 212.554688 167.15625 212.972656 167.574219 C 213.386719 167.992188 213.785156 168.425781 214.15625 168.882812 C 214.53125 169.339844 214.882812 169.8125 215.210938 170.304688 C 215.539062 170.792969 215.839844 171.300781 216.121094 171.820312 C 216.398438 172.339844 216.648438 172.875 216.875 173.417969 C 217.101562 173.964844 217.300781 174.519531 217.472656 175.082031 C 217.644531 175.648438 217.785156 176.21875 217.902344 176.796875 C 218.019531 177.375 218.105469 177.960938 218.164062 178.546875 C 218.222656 179.132812 218.25 179.722656 218.253906 180.3125 C 218.253906 180.792969 218.160156 181.25 217.976562 181.691406 C 217.796875 182.136719 217.535156 182.523438 217.199219 182.863281 C 216.859375 183.199219 216.46875 183.460938 216.027344 183.644531 C 215.585938 183.828125 215.128906 183.917969 214.648438 183.917969 Z M 214.648438 183.917969"/><path d="M 214.648438 204.117188 C 214.171875 204.117188 213.714844 204.023438 213.273438 203.839844 C 212.832031 203.660156 212.441406 203.398438 212.101562 203.058594 C 211.765625 202.722656 211.503906 202.332031 211.320312 201.890625 C 211.140625 201.449219 211.046875 200.988281 211.046875 200.511719 L 211.046875 180.3125 C 211.046875 179.835938 211.140625 179.375 211.324219 178.933594 C 211.503906 178.492188 211.765625 178.101562 212.101562 177.765625 C 212.441406 177.425781 212.832031 177.164062 213.273438 176.980469 C 213.714844 176.800781 214.171875 176.707031 214.648438 176.707031 C 215.128906 176.707031 215.585938 176.800781 216.027344 176.980469 C 216.46875 177.164062 216.859375 177.425781 217.195312 177.765625 C 217.535156 178.101562 217.796875 178.492188 217.976562 178.933594 C 218.160156 179.375 218.25 179.835938 218.253906 180.3125 L 218.253906 200.511719 C 218.253906 200.988281 218.160156 201.449219 217.976562 201.890625 C 217.796875 202.332031 217.535156 202.722656 217.199219 203.058594 C 216.859375 203.398438 216.46875 203.660156 216.027344 203.839844 C 215.585938 204.023438 215.128906 204.117188 214.648438 204.117188 Z M 214.648438 204.117188"/><path d="M 207.445312 302.894531 C 206.96875 302.894531 206.511719 302.800781 206.070312 302.617188 C 205.628906 302.4375 205.238281 302.175781 204.898438 301.835938 C 204.5625 301.5 204.300781 301.109375 204.121094 300.667969 C 203.9375 300.226562 203.84375 299.765625 203.84375 299.289062 C 203.84375 298.808594 203.9375 298.351562 204.121094 297.910156 C 204.300781 297.46875 204.5625 297.078125 204.898438 296.738281 C 205.238281 296.402344 205.628906 296.140625 206.070312 295.957031 C 206.511719 295.773438 206.96875 295.683594 207.445312 295.683594 C 207.976562 295.683594 208.484375 295.570312 208.964844 295.347656 C 209.445312 295.121094 209.859375 294.808594 210.199219 294.402344 C 210.507812 294.035156 210.875 293.742188 211.300781 293.519531 C 211.726562 293.300781 212.179688 293.167969 212.65625 293.128906 C 213.132812 293.089844 213.601562 293.140625 214.058594 293.289062 C 214.515625 293.433594 214.925781 293.664062 215.292969 293.972656 C 215.65625 294.285156 215.949219 294.652344 216.167969 295.078125 C 216.386719 295.507812 216.511719 295.960938 216.550781 296.4375 C 216.589844 296.914062 216.535156 297.382812 216.386719 297.839844 C 216.238281 298.296875 216.007812 298.707031 215.695312 299.070312 C 214.667969 300.28125 213.433594 301.222656 211.992188 301.890625 C 210.550781 302.558594 209.035156 302.894531 207.445312 302.894531 Z M 207.445312 302.894531"/><path d="M 128.210938 183.917969 C 127.730469 183.917969 127.273438 183.828125 126.832031 183.644531 C 126.390625 183.460938 126 183.199219 125.664062 182.863281 C 125.324219 182.523438 125.066406 182.136719 124.882812 181.691406 C 124.699219 181.25 124.609375 180.792969 124.609375 180.3125 C 124.609375 179.722656 124.636719 179.132812 124.695312 178.546875 C 124.753906 177.960938 124.84375 177.375 124.957031 176.796875 C 125.074219 176.21875 125.214844 175.648438 125.386719 175.082031 C 125.558594 174.519531 125.757812 173.964844 125.984375 173.417969 C 126.210938 172.875 126.460938 172.339844 126.742188 171.820312 C 127.019531 171.300781 127.320312 170.792969 127.648438 170.304688 C 127.976562 169.8125 128.328125 169.339844 128.703125 168.882812 C 129.078125 168.425781 129.472656 167.992188 129.886719 167.574219 C 130.304688 167.15625 130.742188 166.757812 131.199219 166.386719 C 131.652344 166.011719 132.125 165.660156 132.617188 165.332031 C 133.105469 165.003906 133.613281 164.699219 134.132812 164.421875 C 134.652344 164.144531 135.183594 163.890625 135.726562 163.664062 C 136.273438 163.4375 136.828125 163.238281 137.390625 163.066406 C 137.957031 162.894531 138.527344 162.753906 139.105469 162.636719 C 139.683594 162.519531 140.265625 162.433594 140.851562 162.375 C 141.4375 162.316406 142.027344 162.289062 142.617188 162.285156 C 143.09375 162.285156 143.554688 162.378906 143.996094 162.5625 C 144.4375 162.746094 144.824219 163.003906 145.164062 163.34375 C 145.5 163.679688 145.761719 164.070312 145.945312 164.511719 C 146.125 164.953125 146.21875 165.414062 146.21875 165.890625 C 146.21875 166.371094 146.125 166.832031 145.945312 167.273438 C 145.761719 167.714844 145.5 168.101562 145.164062 168.441406 C 144.824219 168.78125 144.4375 169.039062 143.996094 169.222656 C 143.554688 169.40625 143.09375 169.496094 142.617188 169.496094 C 141.90625 169.5 141.203125 169.566406 140.507812 169.707031 C 139.8125 169.847656 139.136719 170.050781 138.484375 170.324219 C 137.828125 170.597656 137.207031 170.929688 136.617188 171.324219 C 136.027344 171.71875 135.480469 172.167969 134.980469 172.667969 C 134.476562 173.171875 134.03125 173.71875 133.636719 174.308594 C 133.242188 174.898438 132.910156 175.519531 132.636719 176.175781 C 132.363281 176.832031 132.160156 177.507812 132.019531 178.203125 C 131.882812 178.898438 131.8125 179.601562 131.8125 180.3125 C 131.8125 180.792969 131.71875 181.25 131.539062 181.691406 C 131.355469 182.136719 131.09375 182.523438 130.757812 182.863281 C 130.417969 183.199219 130.03125 183.460938 129.589844 183.644531 C 129.148438 183.828125 128.6875 183.917969 128.210938 183.917969 Z M 128.210938 183.917969"/><path d="M 128.210938 295.683594 C 127.730469 295.683594 127.273438 295.59375 126.832031 295.410156 C 126.390625 295.226562 126 294.964844 125.664062 294.628906 C 125.324219 294.289062 125.0625 293.898438 124.882812 293.457031 C 124.699219 293.015625 124.609375 292.554688 124.609375 292.078125 L 124.609375 180.3125 C 124.609375 179.835938 124.699219 179.375 124.882812 178.933594 C 125.066406 178.492188 125.324219 178.101562 125.664062 177.765625 C 126 177.425781 126.390625 177.164062 126.832031 176.980469 C 127.273438 176.800781 127.730469 176.707031 128.210938 176.707031 C 128.6875 176.707031 129.148438 176.800781 129.589844 176.980469 C 130.027344 177.164062 130.417969 177.425781 130.757812 177.765625 C 131.09375 178.101562 131.355469 178.492188 131.539062 178.933594 C 131.71875 179.375 131.8125 179.835938 131.8125 180.3125 L 131.8125 292.078125 C 131.8125 292.554688 131.71875 293.015625 131.539062 293.457031 C 131.355469 293.898438 131.09375 294.289062 130.757812 294.628906 C 130.417969 294.964844 130.03125 295.226562 129.589844 295.410156 C 129.148438 295.59375 128.6875 295.683594 128.210938 295.683594 Z M 128.210938 295.683594"/><path d="M 135.414062 302.894531 C 134.703125 302.894531 134 302.824219 133.304688 302.683594 C 132.609375 302.542969 131.933594 302.339844 131.28125 302.066406 C 130.625 301.796875 130.003906 301.460938 129.414062 301.066406 C 128.824219 300.671875 128.277344 300.222656 127.777344 299.722656 C 127.273438 299.21875 126.828125 298.675781 126.433594 298.082031 C 126.039062 297.492188 125.707031 296.871094 125.433594 296.214844 C 125.160156 295.558594 124.957031 294.882812 124.816406 294.1875 C 124.679688 293.492188 124.609375 292.789062 124.609375 292.078125 C 124.609375 291.601562 124.699219 291.140625 124.882812 290.699219 C 125.066406 290.257812 125.324219 289.867188 125.664062 289.527344 C 126 289.191406 126.390625 288.929688 126.832031 288.746094 C 127.273438 288.5625 127.730469 288.472656 128.210938 288.472656 C 128.6875 288.472656 129.148438 288.5625 129.589844 288.746094 C 130.027344 288.929688 130.417969 289.191406 130.757812 289.527344 C 131.09375 289.867188 131.355469 290.257812 131.539062 290.699219 C 131.71875 291.140625 131.8125 291.601562 131.8125 292.078125 C 131.8125 292.554688 131.902344 293.015625 132.085938 293.457031 C 132.269531 293.898438 132.527344 294.289062 132.867188 294.625 C 133.203125 294.964844 133.59375 295.226562 134.035156 295.40625 C 134.476562 295.589844 134.933594 295.683594 135.414062 295.683594 C 135.890625 295.683594 136.351562 295.773438 136.792969 295.957031 C 137.234375 296.140625 137.621094 296.402344 137.960938 296.738281 C 138.296875 297.078125 138.558594 297.46875 138.742188 297.910156 C 138.921875 298.351562 139.015625 298.808594 139.015625 299.289062 C 139.015625 299.765625 138.921875 300.226562 138.742188 300.667969 C 138.558594 301.109375 138.296875 301.5 137.960938 301.835938 C 137.621094 302.175781 137.234375 302.4375 136.792969 302.617188 C 136.351562 302.800781 135.890625 302.894531 135.414062 302.894531 Z M 135.414062 302.894531"/><path d="M 207.445312 302.894531 L 135.414062 302.894531 C 134.933594 302.894531 134.476562 302.800781 134.035156 302.617188 C 133.59375 302.4375 133.203125 302.175781 132.867188 301.835938 C 132.527344 301.5 132.269531 301.109375 132.085938 300.667969 C 131.902344 300.226562 131.8125 299.765625 131.8125 299.289062 C 131.8125 298.808594 131.902344 298.351562 132.085938 297.910156 C 132.269531 297.46875 132.527344 297.078125 132.867188 296.738281 C 133.203125 296.402344 133.59375 296.140625 134.035156 295.957031 C 134.476562 295.773438 134.933594 295.683594 135.414062 295.683594 L 207.445312 295.683594 C 207.925781 295.683594 208.382812 295.773438 208.824219 295.957031 C 209.265625 296.140625 209.65625 296.402344 209.992188 296.738281 C 210.332031 297.078125 210.589844 297.46875 210.773438 297.910156 C 210.957031 298.351562 211.046875 298.808594 211.046875 299.289062 C 211.046875 299.765625 210.957031 300.226562 210.773438 300.667969 C 210.589844 301.109375 210.332031 301.5 209.992188 301.835938 C 209.65625 302.175781 209.265625 302.4375 208.824219 302.617188 C 208.382812 302.800781 207.925781 302.894531 207.445312 302.894531 Z M 207.445312 302.894531"/></svg>