<svg xmlns="http://www.w3.org/2000/svg" width="375" viewBox="0 0 375 375" height="375" version="1.0"><defs><clipPath id="a"><path d="M 8.28125 8.28125 L 366.78125 8.28125 L 366.78125 366.78125 L 8.28125 366.78125 Z M 8.28125 8.28125"/></clipPath></defs><g clip-path="url(#a)"><path fill="#FB0" d="M 366.78125 187.53125 C 366.78125 286.539062 286.539062 366.78125 187.53125 366.78125 C 88.542969 366.78125 8.28125 286.539062 8.28125 187.53125 C 8.28125 88.542969 88.542969 8.28125 187.53125 8.28125 C 286.539062 8.28125 366.78125 88.542969 366.78125 187.53125"/></g><path d="M 261.699219 133.792969 L 261.699219 140.601562 C 261.699219 142.140625 260.632812 143.453125 259.195312 143.839844 L 259.195312 130.554688 C 260.632812 130.9375 261.699219 132.25 261.699219 133.792969 Z M 255.066406 162.011719 C 255.066406 166.246094 251.636719 169.675781 247.398438 169.675781 L 215.398438 169.675781 C 211.164062 169.675781 207.734375 166.246094 207.734375 162.011719 L 207.734375 122.34375 L 255.066406 122.34375 Z M 240.414062 184.152344 L 222.382812 184.152344 L 222.382812 173.808594 L 240.414062 173.808594 Z M 261.769531 188.285156 L 261.769531 231.609375 L 252.457031 231.609375 L 252.457031 188.285156 Z M 280.65625 190.875 C 282.320312 192.554688 283.179688 194.761719 283.179688 197.140625 L 283.179688 260.105469 L 265.761719 260.105469 L 265.761719 234.324219 C 265.832031 234.113281 265.902344 233.902344 265.902344 233.675781 L 265.902344 188.285156 L 274.410156 188.285156 C 276.753906 188.285156 278.976562 189.210938 280.65625 190.875 Z M 265.761719 279.414062 L 265.761719 264.238281 L 283.179688 264.238281 L 283.179688 279.414062 Z M 200.78125 279.414062 L 200.78125 235.742188 L 261.628906 235.742188 L 261.628906 279.414062 Z M 179.480469 264.238281 L 196.632812 264.238281 L 196.632812 279.414062 L 179.480469 279.414062 Z M 188.371094 188.285156 L 196.511719 188.285156 L 196.511719 233.675781 C 196.511719 233.902344 196.582031 234.113281 196.632812 234.324219 L 196.632812 260.105469 L 179.480469 260.105469 L 179.480469 197.105469 C 179.496094 192.242188 183.503906 188.285156 188.371094 188.285156 Z M 209.957031 188.285156 L 209.957031 231.609375 L 200.644531 231.609375 L 200.644531 188.285156 Z M 248.328125 188.285156 L 248.328125 231.609375 L 214.070312 231.609375 L 214.070312 188.285156 Z M 201.097656 140.601562 L 201.097656 133.792969 C 201.097656 132.25 202.167969 130.9375 203.601562 130.554688 L 203.601562 143.839844 C 202.167969 143.453125 201.097656 142.140625 201.097656 140.601562 Z M 225.902344 90.941406 L 228.703125 90.941406 C 223.398438 94.6875 219.984375 100.566406 219.390625 107.027344 L 207.855469 107.027344 C 208.886719 97.996094 216.589844 90.941406 225.902344 90.941406 Z M 254.941406 107.027344 L 243.390625 107.027344 C 242.777344 100.550781 239.382812 94.667969 234.078125 90.941406 L 236.894531 90.941406 C 246.207031 90.941406 253.910156 97.996094 254.941406 107.027344 Z M 286.382812 114.695312 C 286.382812 116.636719 284.804688 118.210938 282.863281 118.210938 L 259.195312 118.210938 L 259.195312 111.175781 L 282.863281 111.175781 C 284.804688 111.175781 286.382812 112.75 286.382812 114.695312 Z M 231.382812 94.089844 C 235.777344 97.03125 238.664062 101.777344 239.277344 107.027344 L 223.503906 107.027344 C 224.101562 101.792969 227.003906 97.050781 231.382812 94.089844 Z M 207.734375 118.210938 L 207.734375 111.175781 L 255.066406 111.175781 L 255.066406 118.210938 Z M 282.863281 122.34375 C 287.082031 122.34375 290.511719 118.914062 290.511719 114.695312 C 290.511719 110.476562 287.082031 107.027344 282.863281 107.027344 L 258.988281 107.027344 C 257.9375 95.71875 248.484375 86.808594 236.894531 86.808594 L 225.902344 86.808594 C 213.613281 86.808594 203.601562 96.804688 203.601562 109.109375 L 203.601562 126.40625 C 199.871094 126.824219 196.96875 129.957031 196.96875 133.792969 L 196.96875 140.601562 C 196.96875 144.433594 199.871094 147.566406 203.601562 147.988281 L 203.601562 162.011719 C 203.601562 168.523438 208.886719 173.808594 215.398438 173.808594 L 218.253906 173.808594 L 218.253906 184.152344 L 188.371094 184.152344 C 181.230469 184.152344 175.347656 189.964844 175.347656 197.105469 L 175.347656 281.480469 C 175.347656 282.039062 175.507812 282.566406 175.890625 282.949219 C 176.277344 283.335938 176.800781 283.546875 177.363281 283.546875 L 285.175781 283.546875 C 286.328125 283.546875 287.308594 282.617188 287.308594 281.480469 L 287.308594 197.140625 C 287.308594 193.675781 286.015625 190.421875 283.5625 187.953125 C 281.128906 185.5 277.855469 184.152344 274.410156 184.152344 L 244.546875 184.152344 L 244.546875 173.808594 L 247.398438 173.808594 C 253.910156 173.808594 259.195312 168.523438 259.195312 162.011719 L 259.195312 147.988281 C 262.925781 147.566406 265.832031 144.433594 265.832031 140.601562 L 265.832031 133.792969 C 265.832031 129.957031 262.925781 126.824219 259.195312 126.40625 L 259.195312 122.34375 L 282.863281 122.34375"/><path d="M 226.359375 141.039062 L 230.507812 141.039062 L 230.507812 132.214844 C 230.507812 131.078125 229.578125 130.152344 228.441406 130.152344 L 212.214844 130.152344 L 212.214844 134.300781 L 226.359375 134.300781 L 226.359375 141.039062"/><path d="M 234.375 134.300781 L 250.601562 134.300781 L 250.601562 130.152344 L 234.375 130.152344 L 234.375 134.300781"/><path d="M 241.5 140.078125 L 245.628906 140.078125 L 245.628906 136.628906 L 241.5 136.628906 L 241.5 140.078125"/><path d="M 217.148438 140.078125 L 221.300781 140.078125 L 221.300781 136.628906 L 217.148438 136.628906 L 217.148438 140.078125"/><path d="M 223.328125 155.761719 L 222.035156 159.683594 C 225.132812 160.714844 228.25 161.222656 231.382812 161.222656 C 234.496094 161.222656 237.632812 160.714844 240.730469 159.683594 L 239.433594 155.761719 C 234.078125 157.527344 228.652344 157.527344 223.328125 155.761719"/><path d="M 142.964844 119.769531 L 138.902344 119.769531 L 138.902344 113.539062 C 138.902344 113.503906 138.921875 113.484375 138.921875 113.453125 L 138.921875 92.515625 C 138.921875 92.480469 138.902344 92.445312 138.902344 92.410156 L 138.902344 86.230469 L 142.964844 86.230469 Z M 119.019531 111.386719 C 116.164062 111.386719 113.855469 113.730469 113.855469 116.636719 L 113.855469 178.375 L 97.050781 178.375 L 97.050781 102.984375 C 97.050781 98.34375 100.832031 94.582031 105.453125 94.582031 L 134.773438 94.582031 L 134.773438 111.386719 Z M 122.222656 186.585938 L 88.683594 186.585938 L 88.683594 182.507812 L 122.222656 182.507812 Z M 113.855469 268.945312 L 97.050781 268.945312 L 97.050781 190.71875 L 113.855469 190.71875 Z M 122.222656 277.15625 L 88.683594 277.15625 L 88.683594 273.078125 L 122.222656 273.078125 Z M 113.855469 288.832031 L 97.050781 288.832031 L 97.050781 281.289062 L 113.855469 281.289062 Z M 145.03125 82.082031 L 136.835938 82.082031 C 135.699219 82.082031 134.773438 83.011719 134.773438 84.164062 L 134.773438 90.449219 L 105.453125 90.449219 C 98.539062 90.449219 92.917969 96.070312 92.917969 102.984375 L 92.917969 178.375 L 86.617188 178.375 C 85.460938 178.375 84.550781 179.304688 84.550781 180.441406 L 84.550781 188.652344 C 84.550781 189.789062 85.460938 190.71875 86.617188 190.71875 L 92.917969 190.71875 L 92.917969 268.945312 L 86.617188 268.945312 C 85.460938 268.945312 84.550781 269.875 84.550781 271.011719 L 84.550781 279.222656 C 84.550781 280.359375 85.460938 281.289062 86.617188 281.289062 L 92.917969 281.289062 L 92.917969 290.914062 C 92.917969 292.054688 93.847656 292.980469 94.984375 292.980469 L 115.917969 292.980469 C 117.058594 292.980469 117.984375 292.054688 117.984375 290.914062 L 117.984375 281.289062 L 124.285156 281.289062 C 125.441406 281.289062 126.351562 280.359375 126.351562 279.222656 L 126.351562 271.011719 C 126.351562 269.875 125.441406 268.945312 124.285156 268.945312 L 117.984375 268.945312 L 117.984375 190.71875 L 124.285156 190.71875 C 125.441406 190.71875 126.351562 189.789062 126.351562 188.652344 L 126.351562 180.441406 C 126.351562 179.304688 125.441406 178.375 124.285156 178.375 L 117.984375 178.375 L 117.984375 116.636719 C 117.984375 116.007812 118.457031 115.515625 119.019531 115.515625 L 134.773438 115.515625 L 134.773438 121.835938 C 134.773438 122.992188 135.699219 123.902344 136.835938 123.902344 L 145.03125 123.902344 C 146.183594 123.902344 147.09375 122.992188 147.09375 121.835938 L 147.09375 84.164062 C 147.09375 83.011719 146.183594 82.082031 145.03125 82.082031"/></svg>