<svg xmlns="http://www.w3.org/2000/svg" width="375" viewBox="0 0 375 375" height="375" version="1.0"><defs><clipPath id="a"><path d="M 8.28125 8.28125 L 366.78125 8.28125 L 366.78125 366.78125 L 8.28125 366.78125 Z M 8.28125 8.28125"/></clipPath><clipPath id="b"><path d="M 103.851562 81.109375 L 271.101562 81.109375 L 271.101562 294.109375 L 103.851562 294.109375 Z M 103.851562 81.109375"/></clipPath></defs><g clip-path="url(#a)"><path fill="#FB0" d="M 366.78125 187.53125 C 366.78125 190.464844 366.710938 193.398438 366.566406 196.328125 C 366.421875 199.257812 366.207031 202.183594 365.917969 205.101562 C 365.632812 208.019531 365.273438 210.929688 364.84375 213.832031 C 364.410156 216.734375 363.910156 219.625 363.335938 222.5 C 362.765625 225.378906 362.121094 228.242188 361.410156 231.085938 C 360.695312 233.933594 359.914062 236.757812 359.0625 239.566406 C 358.210938 242.371094 357.292969 245.15625 356.304688 247.917969 C 355.316406 250.679688 354.261719 253.417969 353.136719 256.128906 C 352.015625 258.839844 350.828125 261.519531 349.570312 264.171875 C 348.316406 266.824219 347 269.441406 345.617188 272.03125 C 344.234375 274.617188 342.789062 277.167969 341.28125 279.683594 C 339.773438 282.199219 338.203125 284.679688 336.574219 287.117188 C 334.941406 289.558594 333.253906 291.953125 331.507812 294.3125 C 329.757812 296.667969 327.957031 298.980469 326.09375 301.246094 C 324.234375 303.515625 322.316406 305.734375 320.347656 307.910156 C 318.378906 310.082031 316.355469 312.207031 314.28125 314.28125 C 312.207031 316.355469 310.082031 318.378906 307.910156 320.347656 C 305.734375 322.316406 303.515625 324.234375 301.246094 326.09375 C 298.980469 327.957031 296.667969 329.757812 294.3125 331.507812 C 291.953125 333.253906 289.558594 334.941406 287.117188 336.574219 C 284.679688 338.203125 282.199219 339.773438 279.683594 341.28125 C 277.167969 342.789062 274.617188 344.234375 272.03125 345.617188 C 269.441406 347 266.824219 348.316406 264.171875 349.570312 C 261.519531 350.828125 258.839844 352.015625 256.128906 353.136719 C 253.417969 354.261719 250.679688 355.316406 247.917969 356.304688 C 245.15625 357.292969 242.371094 358.210938 239.566406 359.0625 C 236.757812 359.914062 233.933594 360.699219 231.085938 361.410156 C 228.242188 362.121094 225.378906 362.765625 222.5 363.335938 C 219.625 363.910156 216.734375 364.410156 213.832031 364.84375 C 210.929688 365.273438 208.019531 365.632812 205.101562 365.917969 C 202.183594 366.207031 199.257812 366.421875 196.328125 366.566406 C 193.398438 366.710938 190.464844 366.78125 187.53125 366.78125 C 184.597656 366.78125 181.667969 366.710938 178.738281 366.566406 C 175.804688 366.421875 172.882812 366.207031 169.960938 365.917969 C 167.042969 365.632812 164.132812 365.273438 161.230469 364.84375 C 158.328125 364.410156 155.4375 363.910156 152.5625 363.335938 C 149.683594 362.765625 146.824219 362.121094 143.976562 361.410156 C 141.132812 360.695312 138.304688 359.914062 135.5 359.0625 C 132.691406 358.210938 129.90625 357.292969 127.144531 356.304688 C 124.382812 355.316406 121.644531 354.261719 118.9375 353.136719 C 116.226562 352.015625 113.542969 350.828125 110.894531 349.570312 C 108.242188 348.316406 105.621094 347 103.035156 345.617188 C 100.445312 344.234375 97.894531 342.789062 95.378906 341.28125 C 92.863281 339.773438 90.386719 338.203125 87.945312 336.574219 C 85.507812 334.941406 83.109375 333.253906 80.753906 331.507812 C 78.398438 329.757812 76.085938 327.957031 73.816406 326.09375 C 71.550781 324.234375 69.328125 322.316406 67.15625 320.347656 C 64.980469 318.378906 62.855469 316.355469 60.78125 314.28125 C 58.707031 312.207031 56.6875 310.082031 54.714844 307.910156 C 52.746094 305.734375 50.832031 303.515625 48.96875 301.246094 C 47.109375 298.980469 45.304688 296.667969 43.558594 294.3125 C 41.808594 291.953125 40.121094 289.558594 38.492188 287.117188 C 36.859375 284.679688 35.292969 282.199219 33.785156 279.683594 C 32.277344 277.167969 30.832031 274.617188 29.449219 272.03125 C 28.066406 269.441406 26.746094 266.824219 25.492188 264.171875 C 24.238281 261.519531 23.050781 258.839844 21.925781 256.128906 C 20.804688 253.417969 19.75 250.679688 18.761719 247.917969 C 17.773438 245.15625 16.851562 242.371094 16 239.566406 C 15.148438 236.757812 14.367188 233.933594 13.652344 231.085938 C 12.941406 228.242188 12.296875 225.378906 11.726562 222.5 C 11.152344 219.625 10.652344 216.734375 10.222656 213.832031 C 9.792969 210.929688 9.433594 208.019531 9.144531 205.101562 C 8.859375 202.183594 8.640625 199.257812 8.496094 196.328125 C 8.355469 193.398438 8.28125 190.464844 8.28125 187.53125 C 8.28125 184.597656 8.355469 181.667969 8.496094 178.738281 C 8.640625 175.804688 8.859375 172.882812 9.144531 169.960938 C 9.433594 167.042969 9.792969 164.132812 10.222656 161.230469 C 10.652344 158.328125 11.152344 155.4375 11.726562 152.5625 C 12.296875 149.683594 12.941406 146.824219 13.652344 143.976562 C 14.367188 141.132812 15.148438 138.304688 16 135.5 C 16.851562 132.691406 17.773438 129.90625 18.761719 127.144531 C 19.75 124.382812 20.804688 121.644531 21.925781 118.9375 C 23.050781 116.226562 24.238281 113.542969 25.492188 110.894531 C 26.746094 108.242188 28.066406 105.621094 29.449219 103.035156 C 30.832031 100.445312 32.277344 97.894531 33.785156 95.378906 C 35.292969 92.863281 36.859375 90.386719 38.492188 87.945312 C 40.121094 85.507812 41.808594 83.109375 43.558594 80.753906 C 45.304688 78.398438 47.109375 76.085938 48.96875 73.816406 C 50.832031 71.550781 52.746094 69.328125 54.714844 67.15625 C 56.6875 64.980469 58.707031 62.859375 60.78125 60.78125 C 62.855469 58.707031 64.980469 56.6875 67.15625 54.714844 C 69.328125 52.746094 71.550781 50.832031 73.816406 48.96875 C 76.085938 47.109375 78.398438 45.304688 80.753906 43.558594 C 83.109375 41.808594 85.507812 40.121094 87.945312 38.492188 C 90.386719 36.859375 92.863281 35.292969 95.378906 33.785156 C 97.894531 32.277344 100.445312 30.832031 103.035156 29.449219 C 105.621094 28.066406 108.242188 26.746094 110.894531 25.492188 C 113.542969 24.238281 116.226562 23.050781 118.9375 21.925781 C 121.644531 20.804688 124.382812 19.75 127.144531 18.761719 C 129.90625 17.773438 132.691406 16.851562 135.5 16 C 138.304688 15.148438 141.132812 14.367188 143.976562 13.652344 C 146.824219 12.941406 149.683594 12.296875 152.5625 11.726562 C 155.4375 11.152344 158.328125 10.652344 161.230469 10.222656 C 164.132812 9.792969 167.042969 9.433594 169.960938 9.144531 C 172.882812 8.859375 175.804688 8.640625 178.738281 8.496094 C 181.667969 8.355469 184.597656 8.28125 187.53125 8.28125 C 190.464844 8.28125 193.398438 8.355469 196.328125 8.496094 C 199.257812 8.640625 202.183594 8.859375 205.101562 9.144531 C 208.019531 9.433594 210.929688 9.792969 213.832031 10.222656 C 216.734375 10.652344 219.625 11.152344 222.5 11.726562 C 225.378906 12.296875 228.242188 12.941406 231.085938 13.652344 C 233.933594 14.367188 236.757812 15.148438 239.566406 16 C 242.371094 16.851562 245.15625 17.773438 247.917969 18.761719 C 250.679688 19.75 253.417969 20.804688 256.128906 21.925781 C 258.839844 23.050781 261.519531 24.238281 264.171875 25.492188 C 266.824219 26.746094 269.441406 28.066406 272.03125 29.449219 C 274.617188 30.832031 277.167969 32.277344 279.683594 33.785156 C 282.199219 35.292969 284.679688 36.859375 287.117188 38.492188 C 289.558594 40.121094 291.953125 41.808594 294.3125 43.558594 C 296.667969 45.304688 298.980469 47.109375 301.246094 48.96875 C 303.515625 50.832031 305.734375 52.746094 307.910156 54.714844 C 310.082031 56.6875 312.207031 58.707031 314.28125 60.78125 C 316.355469 62.859375 318.378906 64.980469 320.347656 67.15625 C 322.316406 69.328125 324.234375 71.550781 326.09375 73.816406 C 327.957031 76.085938 329.757812 78.398438 331.507812 80.753906 C 333.253906 83.109375 334.941406 85.507812 336.574219 87.945312 C 338.203125 90.386719 339.773438 92.863281 341.28125 95.378906 C 342.789062 97.894531 344.234375 100.445312 345.617188 103.035156 C 347 105.621094 348.316406 108.242188 349.570312 110.894531 C 350.828125 113.542969 352.015625 116.226562 353.136719 118.9375 C 354.261719 121.644531 355.316406 124.382812 356.304688 127.144531 C 357.292969 129.90625 358.210938 132.691406 359.0625 135.5 C 359.914062 138.304688 360.695312 141.132812 361.410156 143.976562 C 362.121094 146.824219 362.765625 149.683594 363.335938 152.5625 C 363.910156 155.4375 364.410156 158.328125 364.84375 161.230469 C 365.273438 164.132812 365.632812 167.042969 365.917969 169.960938 C 366.207031 172.882812 366.421875 175.804688 366.566406 178.738281 C 366.710938 181.667969 366.78125 184.597656 366.78125 187.53125 Z M 366.78125 187.53125"/></g><path fill="#FB0" d="M 194.203125 107.140625 L 189.449219 115.082031 L 189.394531 112.101562 C 189.289062 110.894531 188.464844 109.65625 187.113281 109.65625 L 180.125 109.195312 L 185.363281 101.15625 L 185.394531 104.328125 C 185.394531 105.75 186.515625 106.636719 187.824219 106.769531 Z M 194.203125 107.140625"/><path fill="#FB0" d="M 220.75 118.5 C 226.800781 120.539062 228.121094 122.511719 228.121094 123.085938 C 228.121094 123.8125 226.328125 126.203125 218.128906 128.476562 C 217.296875 128.707031 216.449219 128.925781 215.609375 129.113281 C 215.457031 129.148438 215.300781 129.183594 215.148438 129.226562 C 215.089844 129.234375 215.035156 129.246094 214.980469 129.269531 C 207.25 131.003906 197.347656 131.964844 187.089844 131.964844 C 176.820312 131.964844 167.003906 131.011719 159.300781 129.289062 C 159.070312 129.15625 158.808594 129.058594 158.523438 129.007812 C 158.332031 128.976562 158.136719 128.96875 157.957031 128.976562 C 156.984375 128.742188 156.023438 128.484375 155.070312 128.199219 C 147.667969 125.992188 146.050781 123.757812 146.050781 123.078125 C 146.050781 122.414062 147.417969 120.664062 152.585938 118.792969 C 152.59375 118.785156 152.605469 118.785156 152.613281 118.785156 C 152.65625 118.773438 152.695312 118.75 152.746094 118.730469 C 152.933594 118.648438 153.101562 118.542969 153.25 118.421875 C 153.292969 118.386719 153.335938 118.351562 153.382812 118.3125 C 153.40625 118.289062 153.433594 118.269531 153.453125 118.242188 C 153.566406 118.128906 153.664062 118.015625 153.746094 117.882812 C 153.84375 117.742188 153.929688 117.601562 153.992188 117.441406 C 154.125 117.128906 154.195312 116.792969 154.1875 116.441406 C 154.585938 98.957031 169.125 84.742188 186.644531 84.742188 C 204.289062 84.742188 218.523438 98.53125 219.082031 116.148438 C 219.082031 116.175781 219.082031 116.203125 219.089844 116.230469 C 219.089844 116.316406 219.097656 116.398438 219.109375 116.476562 C 219.144531 116.796875 219.25 117.097656 219.40625 117.371094 C 219.476562 117.503906 219.566406 117.632812 219.671875 117.75 C 219.761719 117.871094 219.875 117.972656 220 118.074219 C 220.054688 118.121094 220.113281 118.15625 220.175781 118.199219 C 220.316406 118.289062 220.460938 118.375 220.628906 118.429688 C 220.664062 118.472656 220.699219 118.484375 220.75 118.5 Z M 200.480469 106.183594 C 200.917969 105.449219 200.941406 104.539062 200.542969 103.78125 C 200.140625 103.019531 199.371094 102.535156 198.519531 102.484375 L 190.261719 102.011719 L 190.164062 93.027344 C 190.152344 91.949219 189.4375 91.003906 188.394531 90.710938 C 187.363281 90.40625 186.25 90.820312 185.664062 91.722656 L 173.730469 110.035156 C 173.253906 110.761719 173.199219 111.6875 173.589844 112.464844 C 173.976562 113.242188 174.753906 113.753906 175.613281 113.816406 L 184.527344 114.402344 L 184.6875 123.730469 C 184.710938 124.824219 185.453125 125.769531 186.503906 126.046875 C 186.710938 126.105469 186.921875 126.132812 187.132812 126.132812 C 187.980469 126.132812 188.785156 125.691406 189.234375 124.941406 Z M 200.480469 106.183594"/><path fill="#FB0" d="M 214.230469 135.96875 C 214.355469 137.378906 214.417969 138.796875 214.417969 140.207031 C 214.417969 153.523438 208.929688 165.183594 200.792969 171.441406 C 200.722656 171.484375 200.652344 171.539062 200.589844 171.601562 C 196.605469 174.605469 192 176.320312 187.097656 176.320312 C 182.554688 176.320312 178.261719 174.851562 174.496094 172.246094 C 174.488281 172.238281 174.488281 172.238281 174.488281 172.238281 C 174.390625 172.164062 174.292969 172.085938 174.1875 172.03125 C 165.609375 165.929688 159.777344 153.957031 159.777344 140.21875 C 159.777344 138.828125 159.839844 137.410156 159.964844 136.027344 C 159.972656 136.019531 159.972656 136.003906 159.972656 135.996094 C 159.972656 135.984375 159.972656 135.96875 159.972656 135.949219 C 160.015625 135.464844 160.070312 134.976562 160.132812 134.484375 C 167.871094 136.046875 177.308594 136.886719 187.113281 136.886719 C 196.878906 136.886719 206.351562 136.039062 214.089844 134.484375 C 214.125 134.960938 214.1875 135.464844 214.230469 135.96875 Z M 214.230469 135.96875"/><path fill="#FB0" d="M 199.703125 177.933594 L 199.703125 186.46875 L 187.53125 200.570312 L 175.363281 186.460938 L 175.363281 178.394531 C 179.003906 180.207031 182.953125 181.203125 187.089844 181.203125 C 191.558594 181.203125 195.824219 180.039062 199.703125 177.933594 Z M 199.703125 177.933594"/><path fill="#FB0" d="M 251.535156 224.734375 L 251.535156 287.910156 C 251.535156 289.226562 250.464844 290.300781 249.148438 290.300781 L 233.480469 290.300781 L 233.480469 199.574219 C 244.304688 203.214844 251.535156 213.242188 251.535156 224.734375 Z M 251.535156 224.734375"/><path fill="#FB0" d="M 141.835938 199.492188 L 141.835938 290.300781 L 125.914062 290.300781 C 124.597656 290.300781 123.527344 289.226562 123.527344 287.910156 L 123.527344 224.734375 C 123.527344 213.160156 130.863281 203.070312 141.835938 199.492188 Z M 141.835938 199.492188"/><path fill="#FB0" d="M 172.070312 190.144531 L 183.898438 203.855469 L 172.625 211.652344 L 162.074219 193.230469 Z M 172.070312 190.144531"/><path fill="#FB0" d="M 212.992188 193.230469 L 202.4375 211.652344 L 191.164062 203.855469 L 202.992188 190.144531 Z M 212.992188 193.230469"/><path fill="#FB0" d="M 228.585938 198.054688 L 228.585938 290.308594 L 146.722656 290.308594 L 146.722656 197.980469 L 157.277344 194.714844 L 169.699219 216.402344 C 170.035156 216.996094 170.609375 217.417969 171.28125 217.570312 C 171.953125 217.71875 172.652344 217.585938 173.214844 217.191406 L 187.53125 207.292969 L 201.851562 217.191406 C 202.265625 217.480469 202.746094 217.625 203.246094 217.625 C 203.425781 217.625 203.609375 217.605469 203.789062 217.570312 C 204.457031 217.417969 205.03125 216.988281 205.371094 216.402344 L 217.792969 194.714844 Z M 228.585938 198.054688"/><g clip-path="url(#b)"><path d="M 271.097656 274.941406 C 271.097656 274.898438 271.097656 274.855469 271.09375 274.8125 C 271.09375 274.78125 271.089844 274.75 271.085938 274.714844 C 271.078125 274.660156 271.074219 274.605469 271.066406 274.550781 C 271.0625 274.53125 271.058594 274.511719 271.050781 274.488281 C 271.039062 274.425781 271.027344 274.359375 271.011719 274.296875 C 271.007812 274.28125 271 274.265625 270.996094 274.246094 C 270.976562 274.183594 270.957031 274.117188 270.933594 274.050781 C 270.921875 274.019531 270.90625 273.988281 270.894531 273.957031 C 270.875 273.910156 270.855469 273.863281 270.832031 273.8125 C 270.753906 273.652344 270.660156 273.5 270.546875 273.355469 L 264.023438 264.820312 C 265.378906 263.269531 266.125 261.3125 266.125 259.234375 L 266.125 89.648438 C 266.125 84.964844 262.316406 81.152344 257.640625 81.152344 L 117.3125 81.152344 C 112.632812 81.152344 108.824219 84.964844 108.824219 89.648438 L 108.824219 259.234375 C 108.824219 261.371094 109.625 263.324219 110.929688 264.816406 L 104.40625 273.355469 C 104.292969 273.5 104.199219 273.652344 104.121094 273.8125 C 104.097656 273.859375 104.082031 273.90625 104.0625 273.949219 C 104.046875 273.984375 104.03125 274.015625 104.019531 274.050781 C 103.996094 274.113281 103.976562 274.179688 103.957031 274.242188 C 103.953125 274.261719 103.945312 274.277344 103.941406 274.296875 C 103.925781 274.359375 103.914062 274.421875 103.902344 274.484375 C 103.894531 274.507812 103.890625 274.527344 103.886719 274.550781 C 103.878906 274.605469 103.871094 274.65625 103.867188 274.710938 C 103.863281 274.746094 103.859375 274.777344 103.855469 274.8125 C 103.855469 274.851562 103.855469 274.894531 103.855469 274.933594 C 103.851562 274.980469 103.851562 275.027344 103.851562 275.074219 C 103.851562 275.101562 103.855469 275.128906 103.859375 275.15625 C 103.863281 275.21875 103.867188 275.277344 103.871094 275.335938 C 103.875 275.351562 103.878906 275.371094 103.882812 275.386719 C 103.890625 275.453125 103.902344 275.523438 103.917969 275.589844 C 103.921875 275.605469 103.925781 275.617188 103.929688 275.628906 C 103.945312 275.699219 103.964844 275.769531 103.988281 275.839844 C 103.996094 275.867188 104.007812 275.890625 104.019531 275.917969 C 104.039062 275.972656 104.058594 276.027344 104.082031 276.078125 C 104.15625 276.242188 104.246094 276.398438 104.351562 276.546875 L 116.046875 292.945312 C 116.058594 292.960938 116.070312 292.972656 116.082031 292.988281 C 116.125 293.046875 116.171875 293.105469 116.21875 293.15625 C 116.242188 293.183594 116.265625 293.210938 116.292969 293.238281 C 116.339844 293.285156 116.386719 293.332031 116.433594 293.375 C 116.460938 293.398438 116.484375 293.421875 116.511719 293.445312 C 116.582031 293.503906 116.65625 293.5625 116.734375 293.613281 C 116.757812 293.628906 116.78125 293.640625 116.804688 293.65625 C 116.867188 293.695312 116.925781 293.730469 116.992188 293.765625 C 117.019531 293.777344 117.050781 293.792969 117.078125 293.804688 C 117.140625 293.835938 117.203125 293.863281 117.265625 293.886719 C 117.292969 293.898438 117.324219 293.910156 117.351562 293.917969 C 117.417969 293.941406 117.488281 293.960938 117.558594 293.980469 C 117.585938 293.988281 117.609375 293.996094 117.636719 294 C 117.710938 294.015625 117.789062 294.03125 117.867188 294.042969 C 117.886719 294.042969 117.910156 294.046875 117.929688 294.050781 C 118.027344 294.0625 118.125 294.070312 118.226562 294.070312 L 256.722656 294.070312 C 256.824219 294.070312 256.921875 294.0625 257.019531 294.050781 C 257.042969 294.050781 257.0625 294.042969 257.085938 294.042969 C 257.164062 294.03125 257.238281 294.015625 257.316406 294 C 257.339844 293.996094 257.367188 293.988281 257.394531 293.980469 C 257.460938 293.964844 257.53125 293.941406 257.601562 293.917969 C 257.628906 293.910156 257.65625 293.898438 257.683594 293.886719 C 257.75 293.863281 257.8125 293.835938 257.875 293.804688 C 257.902344 293.792969 257.929688 293.78125 257.960938 293.765625 C 258.023438 293.730469 258.085938 293.695312 258.148438 293.65625 C 258.171875 293.640625 258.195312 293.628906 258.214844 293.613281 C 258.292969 293.5625 258.367188 293.503906 258.441406 293.445312 C 258.464844 293.421875 258.488281 293.398438 258.511719 293.378906 C 258.5625 293.332031 258.613281 293.285156 258.660156 293.234375 C 258.683594 293.210938 258.707031 293.1875 258.730469 293.160156 C 258.78125 293.105469 258.824219 293.046875 258.871094 292.984375 C 258.882812 292.972656 258.894531 292.960938 258.90625 292.945312 L 270.597656 276.550781 C 270.707031 276.402344 270.796875 276.242188 270.871094 276.078125 C 270.886719 276.039062 270.902344 276 270.917969 275.957031 C 270.933594 275.917969 270.949219 275.878906 270.964844 275.835938 C 270.984375 275.773438 271.003906 275.707031 271.019531 275.644531 C 271.023438 275.625 271.027344 275.609375 271.03125 275.589844 C 271.046875 275.527344 271.058594 275.460938 271.066406 275.394531 C 271.070312 275.375 271.078125 275.355469 271.078125 275.335938 C 271.085938 275.277344 271.089844 275.222656 271.09375 275.167969 C 271.09375 275.136719 271.097656 275.105469 271.101562 275.074219 C 271.101562 275.03125 271.097656 274.984375 271.097656 274.941406 Z M 114.1875 89.648438 C 114.1875 87.921875 115.589844 86.519531 117.3125 86.519531 L 257.640625 86.519531 C 259.363281 86.519531 260.765625 87.921875 260.765625 89.648438 L 260.765625 259.234375 C 260.765625 260.960938 259.363281 262.363281 257.640625 262.363281 L 117.3125 262.363281 C 115.589844 262.363281 114.1875 260.960938 114.1875 259.234375 Z M 255.34375 288.703125 L 119.609375 288.703125 L 109.863281 275.042969 L 115.589844 267.554688 C 116.144531 267.671875 116.722656 267.730469 117.3125 267.730469 L 257.640625 267.730469 C 258.226562 267.730469 258.800781 267.667969 259.363281 267.554688 L 265.085938 275.042969 Z M 255.34375 288.703125"/></g><path d="M 223.894531 272.304688 L 151.058594 272.304688 C 149.578125 272.304688 148.378906 273.503906 148.378906 274.988281 C 148.378906 276.46875 149.578125 277.671875 151.058594 277.671875 L 223.894531 277.671875 C 225.375 277.671875 226.574219 276.46875 226.574219 274.988281 C 226.574219 273.503906 225.375 272.304688 223.894531 272.304688 Z M 223.894531 272.304688"/><path d="M 193.089844 212.335938 L 181.859375 212.335938 C 177.289062 212.335938 173.566406 216.058594 173.566406 220.640625 L 173.566406 245.003906 C 173.566406 249.582031 177.289062 253.308594 181.859375 253.308594 L 193.089844 253.308594 C 197.664062 253.308594 201.386719 249.582031 201.386719 245.003906 L 201.386719 220.640625 C 201.386719 216.0625 197.664062 212.335938 193.089844 212.335938 Z M 196.023438 245.003906 C 196.023438 246.625 194.710938 247.941406 193.089844 247.941406 L 181.863281 247.941406 C 180.242188 247.941406 178.925781 246.625 178.925781 245.003906 L 178.925781 220.640625 C 178.925781 219.019531 180.242188 217.703125 181.863281 217.703125 L 193.089844 217.703125 C 194.710938 217.703125 196.023438 219.019531 196.023438 220.640625 Z M 196.023438 245.003906"/><path d="M 136.007812 183.5 L 164.675781 183.5 L 164.675781 186.90625 C 164.675781 191.488281 168.398438 195.214844 172.972656 195.214844 L 179.648438 195.214844 L 179.648438 202.054688 C 179.648438 203.535156 180.847656 204.738281 182.328125 204.738281 L 192.621094 204.738281 C 194.101562 204.738281 195.304688 203.535156 195.304688 202.054688 L 195.304688 195.214844 L 201.980469 195.214844 C 206.554688 195.214844 210.273438 191.488281 210.273438 186.90625 L 210.273438 183.5 L 238.941406 183.5 C 243.515625 183.5 247.238281 179.773438 247.238281 175.195312 L 247.238281 106.792969 C 247.238281 102.210938 243.515625 98.484375 238.941406 98.484375 L 136.007812 98.484375 C 131.433594 98.484375 127.714844 102.210938 127.714844 106.792969 L 127.714844 175.195312 C 127.714844 179.773438 131.433594 183.5 136.007812 183.5 Z M 189.941406 199.371094 L 185.007812 199.371094 L 185.007812 195.214844 L 189.941406 195.214844 Z M 204.914062 186.90625 C 204.914062 188.527344 203.597656 189.847656 201.980469 189.847656 L 172.972656 189.847656 C 171.351562 189.847656 170.035156 188.527344 170.035156 186.90625 L 170.035156 183.5 L 204.914062 183.5 Z M 133.074219 106.792969 C 133.074219 105.171875 134.390625 103.855469 136.007812 103.855469 L 238.945312 103.855469 C 240.5625 103.855469 241.878906 105.171875 241.878906 106.792969 L 241.878906 175.195312 C 241.878906 176.816406 240.5625 178.132812 238.945312 178.132812 L 136.007812 178.132812 C 134.390625 178.132812 133.074219 176.816406 133.074219 175.195312 Z M 133.074219 106.792969"/><path d="M 187.476562 170.382812 C 195.144531 170.382812 201.386719 164.132812 201.386719 156.453125 C 201.386719 149.691406 196.546875 144.042969 190.15625 142.789062 L 190.15625 112.882812 C 190.15625 111.402344 188.957031 110.199219 187.476562 110.199219 C 185.996094 110.199219 184.796875 111.402344 184.796875 112.882812 L 184.796875 142.789062 C 178.402344 144.042969 173.566406 149.691406 173.566406 156.453125 C 173.566406 164.132812 179.804688 170.382812 187.476562 170.382812 Z M 187.476562 147.894531 C 192.191406 147.894531 196.023438 151.734375 196.023438 156.453125 C 196.023438 161.175781 192.191406 165.015625 187.476562 165.015625 C 182.761719 165.015625 178.925781 161.175781 178.925781 156.453125 C 178.925781 151.734375 182.761719 147.894531 187.476562 147.894531 Z M 187.476562 147.894531"/><path d="M 221.039062 138.367188 L 224.785156 138.367188 C 229.355469 138.367188 233.078125 134.640625 233.078125 130.0625 L 233.078125 128.03125 C 233.078125 123.449219 229.355469 119.726562 224.785156 119.726562 L 221.039062 119.726562 C 216.46875 119.726562 212.746094 123.449219 212.746094 128.03125 L 212.746094 130.0625 C 212.746094 134.640625 216.464844 138.367188 221.039062 138.367188 Z M 218.105469 128.03125 C 218.105469 126.410156 219.421875 125.09375 221.039062 125.09375 L 224.78125 125.09375 C 226.402344 125.09375 227.71875 126.410156 227.71875 128.03125 L 227.71875 130.0625 C 227.71875 131.679688 226.402344 133 224.78125 133 L 221.039062 133 C 219.421875 133 218.105469 131.679688 218.105469 130.0625 Z M 218.105469 128.03125"/><path d="M 221.039062 163.777344 L 224.785156 163.777344 C 229.355469 163.777344 233.078125 160.050781 233.078125 155.46875 L 233.078125 153.4375 C 233.078125 148.859375 229.355469 145.132812 224.785156 145.132812 L 221.039062 145.132812 C 216.46875 145.132812 212.746094 148.859375 212.746094 153.4375 L 212.746094 155.46875 C 212.746094 160.050781 216.464844 163.777344 221.039062 163.777344 Z M 218.105469 153.4375 C 218.105469 151.820312 219.421875 150.5 221.039062 150.5 L 224.78125 150.5 C 226.402344 150.5 227.71875 151.820312 227.71875 153.4375 L 227.71875 155.46875 C 227.71875 157.089844 226.402344 158.40625 224.78125 158.40625 L 221.039062 158.40625 C 219.421875 158.40625 218.105469 157.089844 218.105469 155.46875 Z M 218.105469 153.4375"/><path d="M 150.167969 138.367188 L 153.910156 138.367188 C 158.484375 138.367188 162.207031 134.640625 162.207031 130.0625 L 162.207031 128.03125 C 162.207031 123.449219 158.484375 119.726562 153.910156 119.726562 L 150.167969 119.726562 C 145.59375 119.726562 141.875 123.449219 141.875 128.03125 L 141.875 130.0625 C 141.875 134.640625 145.59375 138.367188 150.167969 138.367188 Z M 147.234375 128.03125 C 147.234375 126.410156 148.550781 125.09375 150.167969 125.09375 L 153.910156 125.09375 C 155.53125 125.09375 156.847656 126.410156 156.847656 128.03125 L 156.847656 130.0625 C 156.847656 131.679688 155.53125 133 153.910156 133 L 150.167969 133 C 148.550781 133 147.234375 131.679688 147.234375 130.0625 Z M 147.234375 128.03125"/><path d="M 150.167969 163.777344 L 153.910156 163.777344 C 158.484375 163.777344 162.207031 160.050781 162.207031 155.46875 L 162.207031 153.4375 C 162.207031 148.859375 158.484375 145.132812 153.910156 145.132812 L 150.167969 145.132812 C 145.59375 145.132812 141.875 148.859375 141.875 153.4375 L 141.875 155.46875 C 141.875 160.050781 145.59375 163.777344 150.167969 163.777344 Z M 147.234375 153.4375 C 147.234375 151.820312 148.550781 150.5 150.167969 150.5 L 153.910156 150.5 C 155.53125 150.5 156.847656 151.820312 156.847656 153.4375 L 156.847656 155.46875 C 156.847656 157.089844 155.53125 158.40625 153.910156 158.40625 L 150.167969 158.40625 C 148.550781 158.40625 147.234375 157.089844 147.234375 155.46875 Z M 147.234375 153.4375"/></svg>