<svg xmlns="http://www.w3.org/2000/svg" width="375" viewBox="0 0 375 375" height="375" version="1.0"><defs><clipPath id="a"><path d="M 8.28125 8.28125 L 366.78125 8.28125 L 366.78125 366.78125 L 8.28125 366.78125 Z M 8.28125 8.28125"/></clipPath><clipPath id="b"><path d="M 94.402344 94.632812 L 280.402344 94.632812 L 280.402344 280.632812 L 94.402344 280.632812 Z M 94.402344 94.632812"/></clipPath></defs><g clip-path="url(#a)"><path fill="#FB0" d="M 366.78125 187.53125 C 366.78125 190.464844 366.710938 193.398438 366.566406 196.328125 C 366.421875 199.257812 366.207031 202.183594 365.917969 205.101562 C 365.632812 208.019531 365.273438 210.933594 364.84375 213.832031 C 364.410156 216.734375 363.910156 219.625 363.335938 222.503906 C 362.765625 225.378906 362.121094 228.242188 361.410156 231.085938 C 360.695312 233.933594 359.914062 236.757812 359.0625 239.566406 C 358.210938 242.371094 357.292969 245.15625 356.304688 247.917969 C 355.316406 250.683594 354.261719 253.417969 353.136719 256.128906 C 352.015625 258.839844 350.828125 261.519531 349.570312 264.171875 C 348.316406 266.824219 347 269.441406 345.617188 272.03125 C 344.234375 274.617188 342.789062 277.167969 341.28125 279.683594 C 339.773438 282.203125 338.203125 284.679688 336.574219 287.117188 C 334.941406 289.558594 333.253906 291.953125 331.507812 294.3125 C 329.757812 296.667969 327.957031 298.980469 326.09375 301.246094 C 324.234375 303.515625 322.316406 305.734375 320.347656 307.910156 C 318.378906 310.082031 316.355469 312.207031 314.28125 314.28125 C 312.207031 316.355469 310.082031 318.378906 307.910156 320.347656 C 305.734375 322.316406 303.515625 324.234375 301.246094 326.09375 C 298.980469 327.957031 296.667969 329.757812 294.3125 331.507812 C 291.953125 333.253906 289.558594 334.941406 287.117188 336.574219 C 284.679688 338.203125 282.199219 339.773438 279.683594 341.28125 C 277.167969 342.789062 274.617188 344.234375 272.03125 345.617188 C 269.441406 347 266.824219 348.316406 264.171875 349.570312 C 261.519531 350.828125 258.839844 352.015625 256.128906 353.136719 C 253.417969 354.261719 250.679688 355.316406 247.917969 356.304688 C 245.15625 357.292969 242.371094 358.210938 239.566406 359.0625 C 236.757812 359.914062 233.933594 360.699219 231.085938 361.410156 C 228.242188 362.121094 225.378906 362.765625 222.5 363.335938 C 219.625 363.910156 216.734375 364.410156 213.832031 364.84375 C 210.929688 365.273438 208.019531 365.632812 205.101562 365.917969 C 202.183594 366.207031 199.257812 366.421875 196.328125 366.566406 C 193.398438 366.710938 190.464844 366.78125 187.53125 366.78125 C 184.597656 366.78125 181.667969 366.710938 178.738281 366.566406 C 175.804688 366.421875 172.882812 366.207031 169.960938 365.917969 C 167.042969 365.632812 164.132812 365.273438 161.230469 364.84375 C 158.328125 364.410156 155.4375 363.910156 152.5625 363.335938 C 149.683594 362.765625 146.824219 362.121094 143.976562 361.410156 C 141.132812 360.699219 138.304688 359.914062 135.5 359.0625 C 132.691406 358.210938 129.90625 357.292969 127.144531 356.304688 C 124.382812 355.316406 121.644531 354.261719 118.9375 353.136719 C 116.226562 352.015625 113.542969 350.828125 110.894531 349.570312 C 108.242188 348.316406 105.621094 347 103.035156 345.617188 C 100.445312 344.234375 97.894531 342.789062 95.378906 341.28125 C 92.863281 339.773438 90.386719 338.203125 87.945312 336.574219 C 85.507812 334.941406 83.109375 333.253906 80.753906 331.507812 C 78.398438 329.757812 76.085938 327.957031 73.816406 326.09375 C 71.550781 324.234375 69.328125 322.316406 67.15625 320.347656 C 64.980469 318.378906 62.855469 316.355469 60.78125 314.28125 C 58.707031 312.207031 56.6875 310.082031 54.714844 307.910156 C 52.746094 305.734375 50.832031 303.515625 48.96875 301.246094 C 47.109375 298.980469 45.304688 296.667969 43.558594 294.3125 C 41.808594 291.953125 40.121094 289.558594 38.492188 287.117188 C 36.859375 284.679688 35.292969 282.203125 33.785156 279.683594 C 32.277344 277.167969 30.832031 274.617188 29.449219 272.03125 C 28.066406 269.441406 26.746094 266.824219 25.492188 264.171875 C 24.238281 261.519531 23.050781 258.839844 21.925781 256.128906 C 20.804688 253.417969 19.75 250.683594 18.761719 247.917969 C 17.773438 245.15625 16.851562 242.371094 16 239.566406 C 15.148438 236.757812 14.367188 233.933594 13.652344 231.085938 C 12.941406 228.242188 12.296875 225.378906 11.726562 222.503906 C 11.152344 219.625 10.652344 216.734375 10.222656 213.832031 C 9.792969 210.933594 9.433594 208.019531 9.144531 205.101562 C 8.859375 202.183594 8.640625 199.257812 8.496094 196.328125 C 8.355469 193.398438 8.28125 190.464844 8.28125 187.53125 C 8.28125 184.597656 8.355469 181.667969 8.496094 178.738281 C 8.640625 175.808594 8.859375 172.882812 9.144531 169.960938 C 9.433594 167.042969 9.792969 164.132812 10.222656 161.230469 C 10.652344 158.328125 11.152344 155.4375 11.726562 152.5625 C 12.296875 149.683594 12.941406 146.824219 13.652344 143.976562 C 14.367188 141.132812 15.148438 138.304688 16 135.5 C 16.851562 132.691406 17.773438 129.90625 18.761719 127.144531 C 19.75 124.382812 20.804688 121.644531 21.925781 118.9375 C 23.050781 116.226562 24.238281 113.542969 25.492188 110.894531 C 26.746094 108.242188 28.066406 105.621094 29.449219 103.035156 C 30.832031 100.445312 32.277344 97.894531 33.785156 95.378906 C 35.292969 92.863281 36.859375 90.386719 38.492188 87.945312 C 40.121094 85.507812 41.808594 83.109375 43.558594 80.753906 C 45.304688 78.398438 47.109375 76.085938 48.96875 73.816406 C 50.832031 71.550781 52.746094 69.328125 54.714844 67.15625 C 56.6875 64.980469 58.707031 62.859375 60.78125 60.785156 C 62.855469 58.707031 64.980469 56.6875 67.15625 54.714844 C 69.328125 52.746094 71.550781 50.832031 73.816406 48.96875 C 76.085938 47.109375 78.398438 45.304688 80.753906 43.558594 C 83.109375 41.808594 85.507812 40.121094 87.945312 38.492188 C 90.386719 36.863281 92.863281 35.292969 95.378906 33.785156 C 97.894531 32.277344 100.445312 30.832031 103.035156 29.449219 C 105.621094 28.066406 108.242188 26.746094 110.894531 25.492188 C 113.542969 24.238281 116.226562 23.050781 118.9375 21.925781 C 121.644531 20.804688 124.382812 19.75 127.144531 18.761719 C 129.90625 17.773438 132.691406 16.851562 135.5 16 C 138.304688 15.148438 141.132812 14.367188 143.976562 13.652344 C 146.824219 12.941406 149.683594 12.296875 152.5625 11.726562 C 155.4375 11.152344 158.328125 10.652344 161.230469 10.222656 C 164.132812 9.792969 167.042969 9.433594 169.960938 9.144531 C 172.882812 8.859375 175.804688 8.640625 178.738281 8.496094 C 181.667969 8.355469 184.597656 8.28125 187.53125 8.28125 C 190.464844 8.28125 193.398438 8.355469 196.328125 8.496094 C 199.257812 8.640625 202.183594 8.859375 205.101562 9.144531 C 208.019531 9.433594 210.929688 9.792969 213.832031 10.222656 C 216.734375 10.652344 219.625 11.152344 222.5 11.726562 C 225.378906 12.296875 228.242188 12.941406 231.085938 13.652344 C 233.933594 14.367188 236.757812 15.148438 239.566406 16 C 242.371094 16.851562 245.15625 17.773438 247.917969 18.761719 C 250.679688 19.75 253.417969 20.804688 256.128906 21.925781 C 258.839844 23.050781 261.519531 24.238281 264.171875 25.492188 C 266.824219 26.746094 269.441406 28.066406 272.03125 29.449219 C 274.617188 30.832031 277.167969 32.277344 279.683594 33.785156 C 282.199219 35.292969 284.679688 36.863281 287.117188 38.492188 C 289.558594 40.121094 291.953125 41.808594 294.3125 43.558594 C 296.667969 45.304688 298.980469 47.109375 301.246094 48.96875 C 303.515625 50.832031 305.734375 52.746094 307.910156 54.714844 C 310.082031 56.6875 312.207031 58.707031 314.28125 60.785156 C 316.355469 62.859375 318.378906 64.980469 320.347656 67.15625 C 322.316406 69.328125 324.234375 71.550781 326.09375 73.816406 C 327.957031 76.085938 329.757812 78.398438 331.507812 80.753906 C 333.253906 83.109375 334.941406 85.507812 336.574219 87.945312 C 338.203125 90.386719 339.773438 92.863281 341.28125 95.378906 C 342.789062 97.894531 344.234375 100.445312 345.617188 103.035156 C 347 105.621094 348.316406 108.242188 349.570312 110.894531 C 350.828125 113.542969 352.015625 116.226562 353.136719 118.9375 C 354.261719 121.644531 355.316406 124.382812 356.304688 127.144531 C 357.292969 129.90625 358.210938 132.691406 359.0625 135.5 C 359.914062 138.304688 360.695312 141.132812 361.410156 143.976562 C 362.121094 146.824219 362.765625 149.683594 363.335938 152.5625 C 363.910156 155.4375 364.410156 158.328125 364.84375 161.230469 C 365.273438 164.132812 365.632812 167.042969 365.917969 169.960938 C 366.207031 172.882812 366.421875 175.808594 366.566406 178.738281 C 366.710938 181.667969 366.78125 184.597656 366.78125 187.53125 Z M 366.78125 187.53125"/></g><path fill="#FB0" d="M 194.203125 107.144531 L 189.449219 115.082031 L 189.394531 112.101562 C 189.289062 110.894531 188.464844 109.65625 187.113281 109.65625 L 180.125 109.195312 L 185.363281 101.15625 L 185.394531 104.328125 C 185.394531 105.75 186.515625 106.636719 187.824219 106.773438 Z M 194.203125 107.144531"/><path fill="#FB0" d="M 220.75 118.5 C 226.800781 120.539062 228.121094 122.511719 228.121094 123.085938 C 228.121094 123.8125 226.328125 126.203125 218.128906 128.476562 C 217.296875 128.707031 216.449219 128.925781 215.609375 129.113281 C 215.457031 129.148438 215.300781 129.183594 215.148438 129.226562 C 215.089844 129.234375 215.035156 129.246094 214.980469 129.269531 C 207.25 131.003906 197.347656 131.964844 187.089844 131.964844 C 176.820312 131.964844 167.003906 131.011719 159.300781 129.289062 C 159.070312 129.15625 158.808594 129.058594 158.523438 129.011719 C 158.332031 128.976562 158.136719 128.96875 157.957031 128.976562 C 156.984375 128.742188 156.023438 128.484375 155.070312 128.199219 C 147.667969 125.992188 146.050781 123.757812 146.050781 123.078125 C 146.050781 122.414062 147.417969 120.664062 152.585938 118.792969 C 152.59375 118.785156 152.605469 118.785156 152.613281 118.785156 C 152.65625 118.773438 152.695312 118.75 152.746094 118.730469 C 152.933594 118.648438 153.101562 118.542969 153.25 118.421875 C 153.292969 118.386719 153.335938 118.351562 153.382812 118.3125 C 153.40625 118.289062 153.433594 118.269531 153.453125 118.242188 C 153.566406 118.128906 153.664062 118.015625 153.746094 117.882812 C 153.84375 117.742188 153.929688 117.605469 153.992188 117.441406 C 154.125 117.128906 154.195312 116.792969 154.1875 116.441406 C 154.585938 98.957031 169.125 84.742188 186.644531 84.742188 C 204.289062 84.742188 218.523438 98.53125 219.082031 116.148438 C 219.082031 116.175781 219.082031 116.203125 219.089844 116.230469 C 219.089844 116.316406 219.097656 116.398438 219.109375 116.476562 C 219.144531 116.796875 219.25 117.097656 219.40625 117.371094 C 219.476562 117.503906 219.566406 117.632812 219.671875 117.75 C 219.761719 117.871094 219.875 117.976562 220 118.074219 C 220.054688 118.121094 220.113281 118.15625 220.175781 118.199219 C 220.316406 118.289062 220.460938 118.375 220.628906 118.429688 C 220.664062 118.472656 220.699219 118.484375 220.75 118.5 Z M 200.480469 106.183594 C 200.917969 105.449219 200.941406 104.539062 200.542969 103.78125 C 200.140625 103.019531 199.371094 102.535156 198.519531 102.488281 L 190.261719 102.011719 L 190.164062 93.027344 C 190.152344 91.949219 189.4375 91.003906 188.394531 90.710938 C 187.363281 90.40625 186.25 90.820312 185.664062 91.722656 L 173.730469 110.035156 C 173.253906 110.761719 173.199219 111.6875 173.589844 112.464844 C 173.976562 113.242188 174.753906 113.753906 175.613281 113.816406 L 184.527344 114.402344 L 184.6875 123.730469 C 184.710938 124.824219 185.453125 125.769531 186.503906 126.046875 C 186.710938 126.105469 186.921875 126.132812 187.132812 126.132812 C 187.980469 126.132812 188.785156 125.691406 189.234375 124.941406 Z M 200.480469 106.183594"/><path fill="#FB0" d="M 214.230469 135.96875 C 214.355469 137.378906 214.417969 138.796875 214.417969 140.207031 C 214.417969 153.523438 208.929688 165.183594 200.792969 171.441406 C 200.722656 171.484375 200.652344 171.539062 200.589844 171.601562 C 196.605469 174.605469 192 176.320312 187.097656 176.320312 C 182.554688 176.320312 178.261719 174.851562 174.496094 172.246094 C 174.488281 172.238281 174.488281 172.238281 174.488281 172.238281 C 174.390625 172.164062 174.292969 172.085938 174.1875 172.03125 C 165.609375 165.929688 159.777344 153.957031 159.777344 140.21875 C 159.777344 138.828125 159.839844 137.414062 159.964844 136.027344 C 159.972656 136.019531 159.972656 136.003906 159.972656 135.996094 C 159.972656 135.984375 159.972656 135.96875 159.972656 135.949219 C 160.015625 135.464844 160.070312 134.976562 160.132812 134.484375 C 167.871094 136.046875 177.308594 136.886719 187.113281 136.886719 C 196.878906 136.886719 206.351562 136.039062 214.089844 134.484375 C 214.125 134.960938 214.1875 135.464844 214.230469 135.96875 Z M 214.230469 135.96875"/><path fill="#FB0" d="M 199.703125 177.933594 L 199.703125 186.46875 L 187.53125 200.570312 L 175.363281 186.460938 L 175.363281 178.394531 C 179.003906 180.207031 182.953125 181.203125 187.089844 181.203125 C 191.558594 181.203125 195.824219 180.039062 199.703125 177.933594 Z M 199.703125 177.933594"/><path fill="#FB0" d="M 251.535156 224.734375 L 251.535156 287.914062 C 251.535156 289.226562 250.464844 290.300781 249.148438 290.300781 L 233.480469 290.300781 L 233.480469 199.574219 C 244.304688 203.214844 251.535156 213.242188 251.535156 224.734375 Z M 251.535156 224.734375"/><path fill="#FB0" d="M 141.835938 199.492188 L 141.835938 290.300781 L 125.914062 290.300781 C 124.597656 290.300781 123.527344 289.226562 123.527344 287.910156 L 123.527344 224.734375 C 123.527344 213.160156 130.863281 203.070312 141.835938 199.492188 Z M 141.835938 199.492188"/><path fill="#FB0" d="M 172.070312 190.144531 L 183.898438 203.855469 L 172.625 211.652344 L 162.074219 193.230469 Z M 172.070312 190.144531"/><path fill="#FB0" d="M 212.992188 193.230469 L 202.4375 211.652344 L 191.164062 203.855469 L 202.992188 190.144531 Z M 212.992188 193.230469"/><path fill="#FB0" d="M 228.585938 198.054688 L 228.585938 290.308594 L 146.722656 290.308594 L 146.722656 197.980469 L 157.277344 194.714844 L 169.699219 216.402344 C 170.035156 216.996094 170.609375 217.417969 171.28125 217.570312 C 171.953125 217.71875 172.652344 217.585938 173.214844 217.191406 L 187.53125 207.292969 L 201.851562 217.191406 C 202.265625 217.480469 202.746094 217.625 203.246094 217.625 C 203.425781 217.625 203.609375 217.605469 203.789062 217.570312 C 204.457031 217.417969 205.03125 216.988281 205.371094 216.402344 L 217.792969 194.714844 Z M 228.585938 198.054688"/><g clip-path="url(#b)"><path d="M 243.226562 134.789062 L 278.917969 129.039062 C 279.71875 128.910156 280.265625 128.15625 280.136719 127.351562 C 280.007812 126.546875 279.25 126 278.449219 126.128906 L 242.761719 131.878906 C 239.25 132.445312 236.800781 135.550781 237.058594 139.105469 L 237.988281 151.816406 C 237.40625 151.632812 236.773438 151.546875 236.121094 151.589844 C 234.863281 151.675781 233.707031 152.207031 232.855469 153.085938 C 232.277344 152.621094 231.597656 152.304688 230.875 152.144531 L 230.335938 146.320312 C 231.183594 145.566406 231.765625 144.515625 231.921875 143.3125 C 232.082031 142.027344 231.738281 140.757812 230.949219 139.734375 C 230.160156 138.710938 229.019531 138.058594 227.742188 137.894531 L 227.710938 137.890625 L 230.714844 134.121094 C 232.828125 131.46875 235.832031 129.695312 239.167969 129.125 L 259.269531 125.691406 C 259.273438 125.691406 259.273438 125.691406 259.277344 125.691406 L 278.929688 122.332031 C 279.730469 122.195312 280.269531 121.433594 280.132812 120.632812 C 279.996094 119.828125 279.242188 119.289062 278.4375 119.425781 L 260.554688 122.480469 C 260.4375 119.652344 259.355469 116.347656 257.335938 114.195312 L 261.667969 96.609375 C 261.863281 95.820312 261.378906 95.019531 260.589844 94.824219 C 259.800781 94.628906 259.003906 95.113281 258.808594 95.902344 L 254.476562 113.496094 C 246.316406 115.96875 239.328125 115.800781 233.171875 112.972656 L 235.019531 96.421875 C 235.109375 95.609375 234.527344 94.882812 233.71875 94.789062 C 232.917969 94.699219 232.183594 95.28125 232.09375 96.09375 L 230.90625 106.734375 L 138.992188 106.734375 C 132.613281 106.734375 127.363281 111.296875 126.328125 117.414062 C 125.824219 117.15625 125.367188 116.796875 124.859375 116.394531 C 123.929688 115.660156 122.871094 114.824219 121.324219 114.53125 C 119.804688 114.238281 117.996094 114.582031 115.945312 115.542969 C 115.074219 115.953125 114.078125 115.933594 113.207031 115.492188 C 111.566406 114.65625 109.660156 114.601562 107.972656 115.34375 C 107.40625 115.59375 106.894531 115.929688 106.441406 116.324219 L 96.957031 110.921875 C 96.25 110.519531 95.351562 110.765625 94.949219 111.472656 C 94.546875 112.183594 94.796875 113.082031 95.503906 113.484375 L 104.75 118.753906 C 104.6875 118.921875 104.625 119.085938 104.578125 119.261719 C 103.183594 124.257812 102.605469 129.761719 102.847656 135.640625 L 96.5625 134.171875 C 95.773438 133.988281 94.980469 134.484375 94.796875 135.277344 C 94.613281 136.070312 95.105469 136.863281 95.894531 137.046875 L 103.550781 138.832031 C 103.859375 139.386719 104.265625 139.890625 104.765625 140.304688 C 105.882812 141.234375 107.355469 141.660156 108.789062 141.46875 C 109.824219 141.332031 110.8125 141.917969 111.195312 142.890625 C 111.914062 144.703125 112.890625 146.1875 114.097656 147.3125 C 115.789062 148.886719 121.183594 152.015625 126.136719 154.746094 L 126.136719 177.890625 C 117.652344 179.40625 111.230469 186.222656 111.230469 194.386719 C 111.230469 195.78125 111.421875 197.164062 111.792969 198.503906 C 101.402344 206.992188 94.757812 219.917969 94.757812 234.371094 C 94.757812 259.878906 115.457031 280.632812 140.90625 280.632812 C 154.664062 280.632812 167.03125 274.5625 175.492188 264.957031 L 244.839844 264.957031 L 244.839844 272.902344 C 244.839844 275.460938 246.914062 277.539062 249.46875 277.539062 L 253.285156 277.539062 C 255.835938 277.539062 257.914062 275.460938 257.914062 272.902344 L 257.914062 264.867188 C 263.132812 264.183594 267.175781 259.703125 267.175781 254.289062 L 267.175781 206.542969 C 270.738281 203.441406 272.875 199.09375 272.875 194.386719 C 272.875 186.226562 266.453125 179.40625 257.96875 177.890625 L 257.96875 161.523438 L 278.796875 159.867188 C 279.609375 159.804688 280.214844 159.09375 280.148438 158.28125 C 280.085938 157.46875 279.378906 156.859375 278.566406 156.929688 L 248.1875 159.339844 L 248.023438 156.828125 L 278.796875 154.414062 C 279.605469 154.347656 280.210938 153.640625 280.148438 152.828125 C 280.085938 152.015625 279.375 151.40625 278.566406 151.472656 L 247.558594 153.90625 C 246.789062 152.171875 244.917969 151.007812 242.816406 151.152344 C 242.136719 151.195312 241.5 151.375 240.929688 151.652344 L 239.996094 138.890625 C 239.847656 136.875 241.238281 135.109375 243.226562 134.789062 Z M 234.972656 155.140625 C 235.308594 154.785156 235.789062 154.570312 236.3125 154.535156 C 237.347656 154.464844 238.238281 155.128906 238.296875 156.007812 L 238.296875 156.019531 L 238.703125 162.191406 C 238.757812 163.074219 237.964844 163.84375 236.925781 163.914062 C 235.894531 163.980469 235 163.320312 234.941406 162.4375 L 234.539062 156.253906 C 234.511719 155.855469 234.664062 155.457031 234.972656 155.140625 Z M 231.601562 156.449219 L 232.007812 162.632812 C 232.035156 163.035156 231.878906 163.429688 231.574219 163.75 C 231.234375 164.105469 230.757812 164.316406 230.234375 164.351562 C 229.707031 164.390625 229.207031 164.238281 228.824219 163.929688 C 228.480469 163.65625 228.273438 163.28125 228.25 162.878906 L 227.84375 156.699219 C 227.84375 156.699219 227.84375 156.695312 227.84375 156.695312 C 227.816406 156.296875 227.972656 155.898438 228.277344 155.578125 C 228.617188 155.226562 229.09375 155.011719 229.617188 154.976562 C 230.148438 154.941406 230.644531 155.089844 231.027344 155.398438 C 231.371094 155.675781 231.574219 156.046875 231.601562 156.449219 Z M 225.3125 163.070312 C 225.339844 163.472656 225.183594 163.871094 224.878906 164.191406 C 224.539062 164.542969 224.0625 164.757812 223.539062 164.792969 C 222.5 164.863281 221.613281 164.199219 221.554688 163.320312 L 221.148438 157.136719 C 221.09375 156.253906 221.886719 155.484375 222.921875 155.414062 C 222.972656 155.414062 223.023438 155.410156 223.070312 155.410156 C 224.042969 155.410156 224.851562 156.050781 224.90625 156.890625 Z M 212.65625 171.1875 L 204.074219 171.753906 L 203.828125 167.972656 L 212.410156 167.40625 Z M 202.375 145.757812 C 202.195312 143.007812 203.679688 140.464844 206.160156 139.273438 L 208.910156 137.957031 C 208.964844 140.464844 209.71875 142.941406 211.203125 144.765625 C 212.503906 146.371094 215.679688 147.296875 220.65625 147.550781 L 221.226562 152.808594 C 219.851562 153.34375 218.808594 154.449219 218.398438 155.789062 L 215.644531 156.914062 C 213.359375 157.84375 211.933594 160.128906 212.09375 162.597656 L 212.21875 164.460938 L 203.636719 165.027344 Z M 215.109375 163.609375 L 215.03125 162.40625 C 214.953125 161.207031 215.644531 160.097656 216.753906 159.644531 L 218.324219 159.007812 L 218.523438 162.046875 Z M 227.9375 152.359375 C 227.269531 152.617188 226.660156 153.011719 226.160156 153.527344 C 225.589844 153.074219 224.90625 152.746094 224.160156 152.578125 L 223.621094 147.625 C 224.789062 147.625 226.035156 147.59375 227.351562 147.535156 C 227.398438 147.535156 227.445312 147.527344 227.492188 147.523438 Z M 255.292969 116.332031 C 256.777344 117.996094 257.613281 120.796875 257.621094 122.980469 L 238.671875 126.214844 C 234.625 126.90625 230.980469 129.0625 228.414062 132.28125 L 224.292969 137.453125 L 220.296875 136.941406 C 219.488281 136.839844 218.753906 137.40625 218.648438 138.214844 C 218.546875 139.023438 219.117188 139.761719 219.921875 139.867188 L 227.367188 140.820312 C 228.398438 140.953125 229.132812 141.902344 229 142.9375 C 228.882812 143.855469 228.136719 144.546875 227.222656 144.589844 C 225.304688 144.675781 223.609375 144.691406 222.125 144.652344 C 222.113281 144.652344 222.097656 144.652344 222.082031 144.652344 C 216.769531 144.519531 214.128906 143.699219 213.480469 142.902344 C 211.132812 140.015625 211.339844 134.4375 213.890625 131.847656 C 215.003906 130.71875 216.785156 129.804688 218.667969 128.839844 C 220.902344 127.695312 223.214844 126.511719 224.765625 124.753906 C 225.664062 123.730469 226.664062 123.074219 227.738281 122.800781 L 231.617188 121.8125 C 232.402344 121.609375 232.878906 120.808594 232.679688 120.015625 C 232.476562 119.226562 231.675781 118.75 230.890625 118.953125 L 229.890625 119.207031 C 229.769531 118.582031 229.726562 117.832031 229.949219 117.195312 C 230.226562 116.410156 231.003906 115.820312 231.582031 115.492188 C 238.414062 118.738281 246.386719 119.015625 255.292969 116.332031 Z M 113.933594 141.800781 C 113.046875 139.570312 110.777344 138.230469 108.40625 138.542969 C 107.765625 138.628906 107.140625 138.445312 106.640625 138.035156 C 106.320312 137.765625 106.085938 137.421875 105.953125 137.042969 C 105.949219 137.035156 105.949219 137.03125 105.949219 137.027344 C 105.882812 136.839844 105.84375 136.640625 105.832031 136.4375 C 105.5 130.523438 106.03125 125.011719 107.410156 120.054688 C 107.664062 119.15625 108.300781 118.425781 109.15625 118.046875 C 110.035156 117.660156 111.023438 117.6875 111.875 118.121094 C 113.558594 118.980469 115.496094 119.011719 117.195312 118.214844 C 118.632812 117.539062 119.902344 117.261719 120.773438 117.429688 C 121.617188 117.589844 122.277344 118.109375 123.039062 118.710938 C 124.203125 119.628906 125.644531 120.769531 128.027344 120.769531 C 128.066406 120.769531 128.109375 120.769531 128.148438 120.769531 C 129.535156 120.746094 130.929688 120.359375 132.410156 119.953125 C 134.960938 119.25 137.601562 118.523438 140.707031 119.425781 C 143.578125 120.261719 145.601562 123.222656 146.722656 125.34375 C 144.085938 125.09375 141.789062 125.089844 140.773438 125.109375 L 138.722656 123.511719 C 138.082031 123.007812 137.15625 123.125 136.65625 123.769531 C 136.160156 124.410156 136.273438 125.339844 136.914062 125.839844 L 150.644531 136.542969 C 151.082031 136.886719 151.363281 137.378906 151.429688 137.933594 C 151.5 138.484375 151.347656 139.03125 151.007812 139.472656 C 150.667969 139.914062 150.175781 140.191406 149.625 140.261719 C 149.070312 140.332031 148.527344 140.179688 148.085938 139.839844 L 139.0625 132.800781 C 138.421875 132.300781 137.496094 132.414062 137 133.058594 C 136.5 133.703125 136.613281 134.628906 137.257812 135.128906 L 144.734375 140.960938 C 145.640625 141.667969 145.800781 142.980469 145.097656 143.886719 C 144.757812 144.328125 144.265625 144.609375 143.710938 144.675781 C 143.160156 144.746094 142.617188 144.59375 142.175781 144.253906 L 140.488281 142.9375 L 134.699219 138.421875 C 134.058594 137.921875 133.132812 138.039062 132.636719 138.679688 C 132.136719 139.324219 132.25 140.25 132.894531 140.75 L 138.683594 145.265625 C 139.121094 145.609375 139.402344 146.101562 139.46875 146.652344 C 139.539062 147.207031 139.386719 147.753906 139.046875 148.195312 C 138.707031 148.632812 138.214844 148.914062 137.664062 148.984375 C 137.109375 149.050781 136.566406 148.902344 136.125 148.558594 L 134.238281 147.085938 C 134.234375 147.085938 134.234375 147.085938 134.234375 147.082031 L 130.335938 144.042969 C 129.695312 143.542969 128.769531 143.660156 128.273438 144.300781 C 127.773438 144.945312 127.886719 145.871094 128.53125 146.371094 L 132.429688 149.414062 C 133.464844 150.222656 133.652344 151.726562 132.84375 152.765625 C 132.128906 153.691406 130.863281 153.960938 129.835938 153.40625 C 122.441406 149.398438 117.433594 146.390625 116.101562 145.152344 C 115.21875 144.328125 114.488281 143.203125 113.933594 141.800781 Z M 168.664062 164.371094 C 169.773438 163.914062 171.441406 163.445312 173.042969 163.820312 C 173.941406 164.03125 174.78125 164.671875 175.535156 165.726562 C 176.867188 167.589844 179.167969 168.507812 181.535156 168.125 C 182.226562 168.015625 182.917969 167.992188 183.589844 168.0625 C 185.152344 168.222656 187.238281 170.914062 188.347656 172.9375 C 188.441406 175.800781 188.226562 178.242188 188.0625 179.628906 C 180.902344 179.109375 172.988281 171.042969 168.664062 164.371094 Z M 183.890625 165.128906 C 182.960938 165.035156 182.011719 165.0625 181.066406 165.214844 C 179.808594 165.417969 178.601562 164.953125 177.921875 164.003906 C 176.742188 162.359375 175.328125 161.328125 173.714844 160.949219 C 171.140625 160.34375 168.628906 161.144531 167.140625 161.8125 C 166.332031 160.300781 165.773438 158.945312 165.53125 157.878906 C 164.527344 153.460938 166.09375 149.007812 166.960938 147.027344 C 169.710938 147.960938 176.960938 150.875 183.085938 157.367188 C 185.640625 160.078125 187.015625 163.65625 187.714844 167.203125 C 186.613281 166.136719 185.308594 165.273438 183.890625 165.128906 Z M 162.660156 158.535156 C 164.273438 165.632812 176.800781 182.300781 188.476562 182.601562 L 190.902344 186.949219 L 174.941406 193.207031 C 173.625 192.628906 172.332031 191.996094 171.140625 191.226562 C 166.195312 188.039062 156.011719 171.746094 155.546875 163.152344 C 155.382812 160.152344 155.582031 157.398438 156.132812 154.964844 C 156.941406 151.40625 156.410156 147.671875 154.636719 144.453125 L 153.390625 142.179688 C 156.238281 141.25 158.582031 139.625 160.382812 137.332031 C 162.128906 140.210938 163.660156 143.269531 164.550781 145.207031 C 163.636719 147.117188 161.339844 152.714844 162.660156 158.535156 Z M 222.316406 203.789062 C 222.320312 203.789062 222.320312 203.789062 222.324219 203.789062 C 222.324219 203.789062 222.324219 203.789062 222.328125 203.789062 L 229.324219 203.789062 C 229.328125 203.789062 229.328125 203.789062 229.328125 203.789062 C 229.332031 203.789062 229.332031 203.789062 229.335938 203.789062 L 239.082031 203.789062 C 239.820312 204.789062 240.675781 205.714844 241.640625 206.550781 L 241.640625 225.609375 C 241.640625 229.007812 238.878906 231.773438 235.492188 231.773438 L 186.980469 231.773438 C 186.386719 221.078125 182.152344 211.34375 175.5 203.789062 L 186.917969 203.789062 C 186.917969 203.789062 186.921875 203.789062 186.921875 203.789062 C 186.921875 203.789062 186.921875 203.789062 186.925781 203.789062 L 201.144531 203.789062 C 201.148438 203.789062 201.148438 203.789062 201.148438 203.789062 Z M 187.730469 200.839844 C 185.632812 197.773438 182.285156 196.203125 178.894531 194.824219 L 192.347656 189.550781 L 198.636719 200.839844 Z M 154.367188 138.589844 C 154.496094 136.957031 153.832031 135.292969 152.449219 134.21875 L 144.667969 128.148438 C 147.789062 128.328125 151.886719 128.835938 154.449219 130.214844 C 155.761719 130.921875 157.238281 132.617188 158.667969 134.675781 C 157.535156 136.386719 156.113281 137.683594 154.367188 138.589844 Z M 129.082031 156.296875 C 129.695312 156.53125 130.332031 156.648438 130.96875 156.648438 C 132.5625 156.648438 134.125 155.925781 135.167969 154.578125 C 135.808594 153.75 136.167969 152.789062 136.257812 151.816406 C 136.632812 151.902344 137.015625 151.949219 137.398438 151.949219 C 138.894531 151.949219 140.378906 151.28125 141.367188 150.007812 C 141.9375 149.273438 142.277344 148.421875 142.386719 147.523438 C 142.738281 147.601562 143.09375 147.644531 143.449219 147.644531 C 144.945312 147.644531 146.429688 146.976562 147.417969 145.699219 C 148.003906 144.949219 148.351562 144.066406 148.445312 143.140625 C 148.75 143.195312 149.054688 143.226562 149.359375 143.226562 C 149.75 143.226562 150.144531 143.179688 150.527344 143.089844 L 152.058594 145.878906 C 153.480469 148.464844 153.910156 151.457031 153.261719 154.3125 C 152.648438 157.011719 152.429688 160.042969 152.605469 163.3125 C 153.089844 172.21875 163.527344 189.828125 169.546875 193.710938 C 171.800781 195.160156 174.242188 196.136719 176.601562 197.082031 C 179.414062 198.203125 181.949219 199.222656 183.804688 200.839844 L 172.664062 200.839844 C 165.78125 194.285156 156.882812 189.832031 147.011719 188.515625 C 144.332031 181.9375 137.5 177.574219 129.699219 177.574219 C 129.492188 177.574219 129.289062 177.582031 129.082031 177.589844 Z M 114.175781 194.386719 C 114.175781 186.742188 121.140625 180.523438 129.699219 180.523438 C 135.703125 180.523438 141.011719 183.527344 143.597656 188.191406 C 142.707031 188.140625 141.808594 188.109375 140.90625 188.109375 C 131.03125 188.109375 121.875 191.234375 114.363281 196.550781 C 114.238281 195.835938 114.175781 195.113281 114.175781 194.386719 Z M 140.90625 277.683594 C 117.082031 277.683594 97.699219 258.253906 97.699219 234.371094 C 97.699219 210.488281 117.082031 191.058594 140.90625 191.058594 C 164.351562 191.058594 183.496094 209.878906 184.097656 233.242188 C 184.097656 233.242188 184.09375 233.246094 184.09375 233.25 C 184.09375 233.253906 184.097656 233.257812 184.097656 233.261719 C 184.105469 233.632812 184.109375 234 184.109375 234.371094 C 184.109375 258.253906 164.730469 277.683594 140.90625 277.683594 Z M 253.285156 274.589844 L 249.46875 274.589844 C 248.539062 274.589844 247.785156 273.835938 247.785156 272.902344 L 247.785156 264.960938 L 254.972656 264.960938 L 254.972656 272.902344 C 254.972656 273.835938 254.214844 274.589844 253.285156 274.589844 Z M 269.933594 194.386719 C 269.933594 200.328125 265.703125 205.605469 259.402344 207.515625 C 258.625 207.75 258.183594 208.574219 258.421875 209.355469 C 258.613281 209.992188 259.195312 210.402344 259.828125 210.402344 C 259.96875 210.402344 260.113281 210.382812 260.253906 210.339844 C 261.675781 209.910156 263.007812 209.332031 264.234375 208.632812 L 264.234375 254.289062 C 264.234375 258.546875 260.777344 262.007812 256.53125 262.007812 L 177.890625 262.007812 C 183.578125 254.378906 186.972656 244.941406 187.046875 234.722656 L 234.863281 234.722656 C 236.816406 236.859375 237.675781 239.433594 237.484375 242.570312 C 237.4375 243.382812 238.054688 244.082031 238.867188 244.132812 C 238.894531 244.132812 238.925781 244.132812 238.957031 244.132812 C 239.726562 244.132812 240.375 243.53125 240.421875 242.746094 C 240.617188 239.535156 239.886719 236.703125 238.257812 234.289062 C 239.617188 233.851562 240.832031 233.105469 241.828125 232.132812 C 243.375 233.28125 244.378906 234.878906 244.878906 237 C 245.039062 237.675781 245.644531 238.136719 246.3125 238.136719 C 246.421875 238.136719 246.535156 238.121094 246.648438 238.09375 C 247.441406 237.910156 247.929688 237.113281 247.742188 236.320312 C 247.082031 233.515625 245.683594 231.316406 243.582031 229.753906 C 244.21875 228.507812 244.582031 227.101562 244.582031 225.609375 L 244.582031 208.625 C 245.453125 209.121094 246.375 209.558594 247.347656 209.925781 C 248.109375 210.214844 248.957031 209.828125 249.242188 209.066406 C 249.527344 208.300781 249.140625 207.453125 248.382812 207.164062 C 246.777344 206.5625 245.332031 205.738281 244.082031 204.742188 C 244.03125 204.699219 243.980469 204.652344 243.925781 204.617188 C 242.824219 203.714844 241.875 202.683594 241.109375 201.546875 C 241.089844 201.515625 241.066406 201.480469 241.042969 201.449219 C 239.65625 199.355469 238.882812 196.929688 238.882812 194.386719 C 238.882812 186.742188 245.847656 180.523438 254.40625 180.523438 C 262.96875 180.523438 269.933594 186.742188 269.933594 194.386719 Z M 255.027344 177.589844 C 254.820312 177.582031 254.617188 177.574219 254.40625 177.574219 C 244.222656 177.574219 235.9375 185.117188 235.9375 194.386719 C 235.9375 196.652344 236.433594 198.835938 237.347656 200.839844 L 231.429688 200.839844 L 232.824219 196.996094 C 233.101562 196.230469 232.707031 195.386719 231.941406 195.105469 C 231.179688 194.828125 230.332031 195.222656 230.054688 195.988281 L 228.296875 200.839844 L 224.238281 200.839844 L 226.054688 194.007812 C 226.265625 193.222656 225.800781 192.414062 225.015625 192.203125 C 224.230469 191.992188 223.421875 192.460938 223.214844 193.25 L 221.191406 200.839844 L 202.007812 200.839844 L 190.871094 180.847656 C 191.320312 177.863281 192.988281 163.574219 185.222656 155.339844 C 178.074219 147.757812 169.699219 144.765625 167.242188 144.011719 C 165.875 141.03125 160.652344 130.207031 155.84375 127.617188 C 154.257812 126.761719 152.25 126.195312 150.207031 125.820312 C 149.308594 123.675781 146.511719 118.042969 141.527344 116.59375 C 137.621094 115.457031 134.296875 116.371094 131.628906 117.109375 C 130.769531 117.34375 129.984375 117.5625 129.269531 117.691406 C 130.15625 113.089844 134.152344 109.683594 138.992188 109.683594 L 230.578125 109.683594 L 230.222656 112.871094 C 229.265625 113.394531 227.800781 114.449219 227.175781 116.214844 C 226.707031 117.542969 226.816406 118.910156 227.039062 119.933594 L 227.015625 119.941406 C 225.359375 120.363281 223.859375 121.328125 222.558594 122.800781 C 221.378906 124.140625 219.320312 125.195312 217.332031 126.214844 C 215.320312 127.242188 213.246094 128.304688 211.796875 129.773438 C 210.570312 131.019531 209.726562 132.6875 209.28125 134.507812 L 204.890625 136.613281 C 201.320312 138.324219 199.179688 141.992188 199.4375 145.953125 L 200.796875 166.691406 C 200.796875 166.695312 200.796875 166.695312 200.796875 166.695312 L 201.234375 173.417969 C 201.289062 174.199219 201.933594 174.796875 202.703125 174.796875 C 202.734375 174.796875 202.769531 174.796875 202.800781 174.792969 L 214.320312 174.035156 C 215.128906 173.980469 215.742188 173.28125 215.691406 172.464844 L 215.316406 166.757812 L 219.023438 165.0625 C 219.769531 166.65625 221.460938 167.75 223.390625 167.746094 C 223.503906 167.746094 223.617188 167.742188 223.730469 167.738281 C 224.988281 167.652344 226.144531 167.125 226.996094 166.242188 C 227.949219 167.003906 229.171875 167.378906 230.425781 167.296875 C 231.683594 167.214844 232.84375 166.683594 233.691406 165.800781 C 234.609375 166.53125 235.820312 166.941406 237.121094 166.855469 C 238.417969 166.769531 239.566406 166.203125 240.382812 165.355469 C 241.300781 166.089844 242.515625 166.5 243.8125 166.414062 C 245.078125 166.332031 246.238281 165.796875 247.089844 164.910156 C 247.796875 164.171875 248.214844 163.257812 248.3125 162.289062 L 255.027344 161.757812 Z M 243.007812 154.09375 C 244.042969 154.023438 244.933594 154.6875 244.992188 155.570312 L 245.347656 161.027344 C 245.347656 161.03125 245.347656 161.039062 245.347656 161.046875 C 245.347656 161.050781 245.351562 161.054688 245.351562 161.058594 L 245.398438 161.75 C 245.421875 162.152344 245.269531 162.550781 244.964844 162.867188 C 244.625 163.222656 244.148438 163.4375 243.621094 163.472656 C 242.585938 163.542969 241.695312 162.878906 241.636719 161.996094 L 241.234375 155.816406 C 241.175781 154.933594 241.972656 154.164062 243.007812 154.09375 Z M 243.007812 154.09375"/></g><path d="M 219.769531 187.167969 C 219.019531 187.480469 218.664062 188.34375 218.980469 189.097656 C 219.292969 189.851562 220.152344 190.207031 220.902344 189.890625 C 221.652344 189.578125 222.007812 188.714844 221.695312 187.964844 C 221.382812 187.210938 220.519531 186.855469 219.769531 187.167969 Z M 219.769531 187.167969"/><path d="M 219.433594 182.515625 C 219.121094 181.765625 218.257812 181.410156 217.507812 181.722656 C 216.757812 182.035156 216.402344 182.898438 216.714844 183.652344 C 217.027344 184.402344 217.890625 184.757812 218.640625 184.445312 C 219.390625 184.132812 219.746094 183.269531 219.433594 182.515625 Z M 219.433594 182.515625"/><path d="M 217.167969 177.070312 C 216.855469 176.320312 215.996094 175.960938 215.246094 176.277344 C 214.496094 176.589844 214.140625 177.453125 214.453125 178.207031 C 214.765625 178.957031 215.625 179.3125 216.375 179 C 217.125 178.6875 217.480469 177.824219 217.167969 177.070312 Z M 217.167969 177.070312"/><path d="M 201.449219 188.71875 C 200.652344 188.554688 199.875 189.070312 199.710938 189.867188 C 199.546875 190.667969 200.058594 191.445312 200.855469 191.609375 C 201.652344 191.773438 202.429688 191.261719 202.59375 190.460938 C 202.757812 189.664062 202.246094 188.882812 201.449219 188.71875 Z M 201.449219 188.71875"/><path d="M 202.632812 182.941406 C 201.835938 182.777344 201.058594 183.292969 200.894531 184.089844 C 200.730469 184.886719 201.246094 185.667969 202.039062 185.832031 C 202.835938 185.996094 203.613281 185.480469 203.777344 184.683594 C 203.941406 183.886719 203.429688 183.105469 202.632812 182.941406 Z M 202.632812 182.941406"/><path d="M 203.820312 177.164062 C 203.023438 177 202.246094 177.511719 202.082031 178.308594 C 201.917969 179.109375 202.429688 179.886719 203.226562 180.050781 C 204.023438 180.214844 204.800781 179.703125 204.964844 178.90625 C 205.128906 178.105469 204.613281 177.328125 203.820312 177.164062 Z M 203.820312 177.164062"/><path d="M 210.351562 195.101562 C 209.539062 195.136719 208.90625 195.824219 208.941406 196.636719 C 208.976562 197.453125 209.660156 198.085938 210.472656 198.050781 C 211.285156 198.015625 211.914062 197.328125 211.882812 196.515625 C 211.847656 195.699219 211.160156 195.066406 210.351562 195.101562 Z M 210.351562 195.101562"/><path d="M 210.226562 192.15625 C 211.039062 192.121094 211.667969 191.433594 211.632812 190.617188 C 211.601562 189.804688 210.914062 189.171875 210.101562 189.207031 C 209.289062 189.242188 208.660156 189.929688 208.695312 190.742188 C 208.726562 191.558594 209.414062 192.1875 210.226562 192.15625 Z M 210.226562 192.15625"/><path d="M 209.976562 186.261719 C 210.789062 186.226562 211.421875 185.539062 211.386719 184.722656 C 211.351562 183.910156 210.667969 183.277344 209.855469 183.3125 C 209.042969 183.347656 208.414062 184.035156 208.445312 184.847656 C 208.480469 185.664062 209.167969 186.292969 209.976562 186.261719 Z M 209.976562 186.261719"/><path d="M 209.730469 180.363281 C 210.542969 180.332031 211.171875 179.644531 211.140625 178.828125 C 211.105469 178.015625 210.417969 177.382812 209.605469 177.417969 C 208.796875 177.453125 208.164062 178.140625 208.199219 178.953125 C 208.234375 179.765625 208.917969 180.398438 209.730469 180.363281 Z M 209.730469 180.363281"/><path d="M 146.324219 234.371094 C 146.324219 231.378906 143.894531 228.941406 140.90625 228.941406 C 137.917969 228.941406 135.488281 231.378906 135.488281 234.371094 C 135.488281 237.367188 137.917969 239.804688 140.90625 239.804688 C 143.894531 239.804688 146.324219 237.367188 146.324219 234.371094 Z M 140.90625 236.855469 C 139.539062 236.855469 138.429688 235.742188 138.429688 234.371094 C 138.429688 233.003906 139.539062 231.890625 140.90625 231.890625 C 142.269531 231.890625 143.378906 233.003906 143.378906 234.371094 C 143.378906 235.742188 142.269531 236.855469 140.90625 236.855469 Z M 140.90625 236.855469"/><path d="M 132.03125 234.371094 C 132.03125 231.378906 129.601562 228.941406 126.613281 228.941406 C 123.625 228.941406 121.195312 231.378906 121.195312 234.371094 C 121.195312 237.367188 123.625 239.804688 126.613281 239.804688 C 129.601562 239.804688 132.03125 237.367188 132.03125 234.371094 Z M 126.613281 236.855469 C 125.25 236.855469 124.136719 235.742188 124.136719 234.371094 C 124.136719 233.003906 125.25 231.890625 126.613281 231.890625 C 127.976562 231.890625 129.089844 233.003906 129.089844 234.371094 C 129.089844 235.742188 127.976562 236.855469 126.613281 236.855469 Z M 126.613281 236.855469"/><path d="M 136.46875 242.078125 C 133.878906 240.578125 130.558594 241.472656 129.066406 244.066406 C 128.34375 245.320312 128.152344 246.785156 128.527344 248.1875 C 128.902344 249.589844 129.796875 250.757812 131.050781 251.484375 C 131.902344 251.976562 132.832031 252.210938 133.75 252.210938 C 135.625 252.210938 137.449219 251.238281 138.449219 249.496094 C 139.945312 246.902344 139.054688 243.574219 136.46875 242.078125 Z M 135.902344 248.019531 C 135.222656 249.207031 133.703125 249.613281 132.523438 248.929688 C 131.949219 248.597656 131.539062 248.0625 131.367188 247.421875 C 131.199219 246.78125 131.285156 246.113281 131.617188 245.539062 C 132.074219 244.746094 132.90625 244.300781 133.765625 244.300781 C 134.183594 244.300781 134.609375 244.40625 134.996094 244.632812 C 136.179688 245.316406 136.585938 246.835938 135.902344 248.019531 Z M 135.902344 248.019531"/><path d="M 145.34375 242.078125 C 142.753906 243.574219 141.867188 246.902344 143.359375 249.496094 C 144.363281 251.238281 146.1875 252.210938 148.058594 252.210938 C 148.980469 252.210938 149.910156 251.976562 150.761719 251.484375 C 152.015625 250.757812 152.910156 249.585938 153.285156 248.1875 C 153.660156 246.785156 153.46875 245.320312 152.742188 244.066406 C 151.25 241.472656 147.929688 240.582031 145.34375 242.078125 Z M 150.441406 247.421875 C 150.273438 248.0625 149.863281 248.597656 149.289062 248.929688 C 148.109375 249.613281 146.589844 249.207031 145.910156 248.019531 C 145.226562 246.835938 145.632812 245.316406 146.8125 244.632812 C 147.996094 243.945312 149.511719 244.355469 150.195312 245.539062 C 150.527344 246.113281 150.613281 246.78125 150.441406 247.421875 Z M 150.441406 247.421875"/><path d="M 155.199219 228.941406 C 152.210938 228.941406 149.78125 231.378906 149.78125 234.371094 C 149.78125 237.367188 152.210938 239.804688 155.199219 239.804688 C 158.1875 239.804688 160.617188 237.367188 160.617188 234.371094 C 160.617188 231.378906 158.1875 228.941406 155.199219 228.941406 Z M 155.199219 236.855469 C 153.832031 236.855469 152.722656 235.742188 152.722656 234.371094 C 152.722656 233.003906 153.832031 231.890625 155.199219 231.890625 C 156.5625 231.890625 157.671875 233.003906 157.671875 234.371094 C 157.671875 235.742188 156.5625 236.855469 155.199219 236.855469 Z M 155.199219 236.855469"/><path d="M 145.34375 226.667969 C 146.191406 227.160156 147.125 227.394531 148.042969 227.394531 C 149.917969 227.394531 151.742188 226.421875 152.742188 224.679688 C 154.238281 222.085938 153.347656 218.757812 150.761719 217.261719 C 148.171875 215.765625 144.851562 216.65625 143.359375 219.25 C 141.867188 221.84375 142.753906 225.171875 145.34375 226.667969 Z M 145.910156 220.722656 C 146.238281 220.148438 146.773438 219.738281 147.410156 219.566406 C 147.625 219.511719 147.839844 219.484375 148.054688 219.484375 C 148.484375 219.484375 148.90625 219.59375 149.289062 219.816406 C 150.472656 220.5 150.878906 222.019531 150.195312 223.207031 C 149.515625 224.390625 147.996094 224.796875 146.816406 224.113281 C 145.632812 223.429688 145.226562 221.910156 145.910156 220.722656 Z M 145.910156 220.722656"/><path d="M 133.769531 227.394531 C 134.6875 227.394531 135.617188 227.160156 136.46875 226.667969 C 139.054688 225.171875 139.945312 221.84375 138.453125 219.25 C 136.957031 216.65625 133.636719 215.765625 131.050781 217.261719 C 128.464844 218.757812 127.574219 222.085938 129.066406 224.679688 C 130.070312 226.421875 131.894531 227.394531 133.769531 227.394531 Z M 132.523438 219.816406 C 132.902344 219.59375 133.328125 219.484375 133.753906 219.484375 C 133.972656 219.484375 134.1875 219.511719 134.402344 219.566406 C 135.039062 219.738281 135.574219 220.152344 135.902344 220.722656 C 136.585938 221.910156 136.179688 223.429688 134.996094 224.113281 C 133.816406 224.796875 132.300781 224.390625 131.617188 223.207031 C 130.933594 222.019531 131.339844 220.5 132.523438 219.816406 Z M 132.523438 219.816406"/><path d="M 167.320312 220.789062 C 168.339844 221.785156 169.710938 222.328125 171.109375 222.328125 C 172.027344 222.328125 172.957031 222.09375 173.808594 221.601562 C 175.0625 220.875 175.957031 219.707031 176.332031 218.304688 C 176.707031 216.902344 176.515625 215.4375 175.789062 214.183594 C 175.066406 212.925781 173.898438 212.027344 172.5 211.652344 C 171.101562 211.277344 169.644531 211.46875 168.390625 212.195312 C 166.246094 213.4375 165.269531 215.933594 165.851562 218.230469 L 163.070312 219.839844 C 161.640625 217.65625 159.902344 215.695312 157.914062 214.023438 C 158.789062 213.5625 159.554688 212.855469 160.085938 211.933594 C 160.808594 210.679688 161 209.214844 160.625 207.8125 C 160.25 206.410156 159.355469 205.238281 158.101562 204.515625 C 156.847656 203.789062 155.386719 203.597656 153.992188 203.972656 C 152.59375 204.347656 151.425781 205.246094 150.699219 206.503906 C 150.183594 207.398438 149.945312 208.402344 149.980469 209.414062 C 147.589844 208.535156 145.035156 207.996094 142.375 207.851562 L 142.375 204.644531 C 144.652344 204 146.324219 201.90625 146.324219 199.421875 C 146.324219 196.429688 143.894531 193.992188 140.90625 193.992188 C 137.917969 193.992188 135.488281 196.429688 135.488281 199.421875 C 135.488281 201.90625 137.160156 204 139.433594 204.644531 L 139.433594 207.851562 C 136.777344 207.996094 134.222656 208.535156 131.828125 209.414062 C 131.867188 208.402344 131.628906 207.398438 131.109375 206.503906 C 129.617188 203.910156 126.296875 203.019531 123.710938 204.515625 C 121.121094 206.011719 120.234375 209.339844 121.726562 211.933594 C 122.257812 212.855469 123.019531 213.5625 123.898438 214.023438 C 121.910156 215.695312 120.171875 217.65625 118.742188 219.839844 L 115.960938 218.234375 C 116.1875 217.34375 116.191406 216.40625 115.945312 215.492188 C 115.570312 214.089844 114.675781 212.917969 113.421875 212.195312 C 112.167969 211.46875 110.707031 211.277344 109.308594 211.652344 C 107.914062 212.027344 106.742188 212.925781 106.019531 214.183594 C 105.296875 215.4375 105.105469 216.902344 105.480469 218.304688 C 105.855469 219.707031 106.75 220.875 108.003906 221.601562 C 108.839844 222.085938 109.765625 222.332031 110.703125 222.332031 C 111.175781 222.332031 111.648438 222.269531 112.117188 222.144531 C 113.027344 221.898438 113.835938 221.429688 114.492188 220.789062 L 117.265625 222.394531 C 116.105469 224.6875 115.269531 227.167969 114.8125 229.78125 C 113.976562 229.253906 112.992188 228.941406 111.929688 228.941406 C 108.945312 228.941406 106.511719 231.378906 106.511719 234.375 C 106.511719 237.367188 108.945312 239.804688 111.929688 239.804688 C 112.992188 239.804688 113.976562 239.492188 114.8125 238.964844 C 115.269531 241.578125 116.105469 244.058594 117.265625 246.351562 L 114.492188 247.957031 C 113.835938 247.316406 113.023438 246.847656 112.117188 246.601562 C 110.71875 246.226562 109.257812 246.417969 108.003906 247.144531 C 106.75 247.871094 105.855469 249.042969 105.480469 250.441406 C 105.105469 251.84375 105.296875 253.308594 106.019531 254.5625 C 106.746094 255.820312 107.914062 256.71875 109.308594 257.09375 C 109.777344 257.21875 110.25 257.28125 110.722656 257.28125 C 111.660156 257.28125 112.585938 257.035156 113.421875 256.550781 C 114.675781 255.828125 115.570312 254.65625 115.945312 253.253906 C 116.191406 252.339844 116.191406 251.402344 115.960938 250.511719 L 118.742188 248.902344 C 120.171875 251.089844 121.914062 253.050781 123.902344 254.722656 C 123.023438 255.183594 122.257812 255.886719 121.726562 256.8125 C 121.003906 258.066406 120.8125 259.53125 121.183594 260.933594 C 121.558594 262.335938 122.457031 263.503906 123.710938 264.230469 C 124.558594 264.722656 125.492188 264.957031 126.410156 264.957031 C 128.28125 264.957031 130.109375 263.984375 131.109375 262.242188 C 131.628906 261.34375 131.867188 260.339844 131.828125 259.328125 C 134.222656 260.207031 136.777344 260.746094 139.433594 260.890625 L 139.433594 264.101562 C 137.160156 264.746094 135.488281 266.839844 135.488281 269.324219 C 135.488281 272.316406 137.917969 274.753906 140.90625 274.753906 C 143.894531 274.753906 146.324219 272.316406 146.324219 269.324219 C 146.324219 266.839844 144.652344 264.746094 142.375 264.101562 L 142.375 260.890625 C 145.035156 260.746094 147.589844 260.207031 149.980469 259.328125 C 149.941406 260.339844 150.183594 261.34375 150.699219 262.242188 C 151.425781 263.5 152.59375 264.398438 153.992188 264.773438 C 154.457031 264.898438 154.929688 264.960938 155.402344 264.960938 C 156.339844 264.960938 157.265625 264.714844 158.101562 264.230469 C 159.355469 263.507812 160.25 262.335938 160.625 260.933594 C 161 259.53125 160.808594 258.070312 160.085938 256.8125 C 159.554688 255.886719 158.789062 255.183594 157.90625 254.722656 C 159.898438 253.050781 161.640625 251.089844 163.070312 248.902344 L 165.851562 250.515625 C 165.269531 252.8125 166.246094 255.308594 168.390625 256.550781 C 169.222656 257.035156 170.152344 257.28125 171.089844 257.28125 C 171.558594 257.28125 172.035156 257.21875 172.5 257.09375 C 173.898438 256.71875 175.066406 255.820312 175.789062 254.5625 C 176.515625 253.308594 176.707031 251.84375 176.332031 250.441406 C 175.957031 249.042969 175.0625 247.871094 173.808594 247.144531 C 171.664062 245.902344 169.015625 246.308594 167.324219 247.960938 L 164.542969 246.351562 C 165.703125 244.058594 166.542969 241.578125 167 238.964844 C 167.835938 239.492188 168.820312 239.804688 169.878906 239.804688 C 172.867188 239.804688 175.296875 237.367188 175.296875 234.375 C 175.296875 231.378906 172.867188 228.941406 169.878906 228.941406 C 168.820312 228.941406 167.835938 229.253906 167 229.78125 C 166.542969 227.167969 165.707031 224.6875 164.546875 222.394531 Z M 169.859375 214.75 C 170.242188 214.527344 170.664062 214.414062 171.09375 214.414062 C 171.308594 214.414062 171.527344 214.445312 171.738281 214.5 C 172.378906 214.671875 172.910156 215.082031 173.242188 215.65625 C 173.574219 216.230469 173.660156 216.898438 173.488281 217.539062 C 173.320312 218.179688 172.910156 218.714844 172.335938 219.046875 C 171.15625 219.730469 169.636719 219.324219 168.957031 218.136719 C 168.273438 216.953125 168.679688 215.433594 169.859375 214.75 Z M 153.25 207.976562 C 153.582031 207.402344 154.113281 206.992188 154.753906 206.820312 C 154.964844 206.765625 155.183594 206.734375 155.398438 206.734375 C 155.824219 206.734375 156.25 206.847656 156.628906 207.070312 C 157.203125 207.402344 157.613281 207.9375 157.785156 208.578125 C 157.957031 209.214844 157.867188 209.886719 157.535156 210.457031 C 157.207031 211.03125 156.671875 211.441406 156.035156 211.613281 C 155.394531 211.785156 154.726562 211.699219 154.15625 211.367188 C 153.582031 211.035156 153.171875 210.5 153.003906 209.859375 C 152.832031 209.21875 152.917969 208.550781 153.25 207.976562 Z M 125.179688 207.070312 C 125.570312 206.84375 125.996094 206.738281 126.414062 206.738281 C 127.269531 206.738281 128.105469 207.183594 128.5625 207.976562 C 128.894531 208.550781 128.980469 209.21875 128.808594 209.859375 C 128.636719 210.5 128.230469 211.035156 127.65625 211.367188 C 127.082031 211.699219 126.417969 211.785156 125.777344 211.613281 C 125.140625 211.445312 124.605469 211.03125 124.273438 210.460938 C 123.59375 209.273438 124 207.753906 125.179688 207.070312 Z M 111.351562 219.292969 C 110.714844 219.464844 110.046875 219.378906 109.476562 219.046875 C 108.902344 218.714844 108.492188 218.179688 108.320312 217.539062 C 108.152344 216.898438 108.238281 216.230469 108.570312 215.65625 C 108.898438 215.082031 109.433594 214.671875 110.070312 214.5 C 110.285156 214.445312 110.5 214.414062 110.714844 214.414062 C 111.144531 214.414062 111.570312 214.527344 111.949219 214.75 C 112.523438 215.082031 112.933594 215.617188 113.105469 216.257812 C 113.273438 216.894531 113.1875 217.566406 112.855469 218.140625 C 112.527344 218.710938 111.992188 219.125 111.351562 219.292969 Z M 113.101562 252.488281 C 112.933594 253.128906 112.523438 253.664062 111.949219 253.996094 C 111.378906 254.328125 110.710938 254.414062 110.070312 254.246094 C 109.433594 254.074219 108.898438 253.664062 108.570312 253.089844 C 108.238281 252.515625 108.152344 251.84375 108.320312 251.207031 C 108.492188 250.566406 108.902344 250.03125 109.476562 249.699219 C 109.855469 249.476562 110.28125 249.367188 110.710938 249.367188 C 110.925781 249.367188 111.140625 249.394531 111.355469 249.449219 C 111.992188 249.621094 112.527344 250.03125 112.855469 250.605469 C 113.1875 251.179688 113.273438 251.851562 113.101562 252.488281 Z M 128.5625 260.769531 C 127.878906 261.953125 126.363281 262.359375 125.179688 261.675781 C 124.609375 261.34375 124.199219 260.808594 124.027344 260.167969 C 123.855469 259.53125 123.945312 258.859375 124.273438 258.285156 C 124.734375 257.492188 125.566406 257.046875 126.421875 257.046875 C 126.84375 257.046875 127.265625 257.152344 127.65625 257.378906 C 128.230469 257.710938 128.636719 258.246094 128.808594 258.886719 C 128.980469 259.523438 128.894531 260.195312 128.5625 260.769531 Z M 157.785156 260.167969 C 157.613281 260.808594 157.203125 261.34375 156.628906 261.675781 C 156.058594 262.007812 155.390625 262.09375 154.753906 261.925781 C 154.113281 261.753906 153.578125 261.339844 153.25 260.769531 C 152.917969 260.195312 152.832031 259.523438 153.003906 258.886719 C 153.171875 258.246094 153.582031 257.710938 154.15625 257.378906 C 155.335938 256.695312 156.855469 257.101562 157.535156 258.285156 C 157.867188 258.859375 157.953125 259.527344 157.785156 260.167969 Z M 170.457031 249.449219 C 170.671875 249.394531 170.886719 249.367188 171.101562 249.367188 C 171.53125 249.367188 171.953125 249.476562 172.335938 249.699219 C 172.910156 250.03125 173.320312 250.566406 173.488281 251.207031 C 173.660156 251.84375 173.574219 252.515625 173.242188 253.089844 C 172.910156 253.664062 172.378906 254.074219 171.738281 254.246094 C 171.101562 254.417969 170.433594 254.328125 169.863281 253.996094 C 168.679688 253.3125 168.273438 251.792969 168.953125 250.609375 C 168.953125 250.609375 168.957031 250.605469 168.957031 250.605469 C 169.285156 250.03125 169.820312 249.621094 170.457031 249.449219 Z M 138.429688 199.421875 C 138.429688 198.054688 139.539062 196.941406 140.90625 196.941406 C 142.269531 196.941406 143.378906 198.054688 143.378906 199.421875 C 143.378906 200.792969 142.269531 201.90625 140.90625 201.90625 C 139.539062 201.90625 138.429688 200.792969 138.429688 199.421875 Z M 111.929688 236.855469 C 110.566406 236.855469 109.457031 235.742188 109.457031 234.371094 C 109.457031 233.003906 110.566406 231.890625 111.929688 231.890625 C 113.296875 231.890625 114.40625 233.003906 114.40625 234.371094 C 114.40625 235.742188 113.296875 236.855469 111.929688 236.855469 Z M 143.378906 269.324219 C 143.378906 270.691406 142.269531 271.804688 140.90625 271.804688 C 139.539062 271.804688 138.429688 270.691406 138.429688 269.324219 C 138.429688 267.953125 139.539062 266.839844 140.90625 266.839844 C 142.269531 266.839844 143.378906 267.953125 143.378906 269.324219 Z M 140.90625 257.984375 C 127.917969 257.984375 117.351562 247.390625 117.351562 234.371094 C 117.351562 221.351562 127.917969 210.757812 140.90625 210.757812 C 153.894531 210.757812 164.460938 221.351562 164.460938 234.371094 C 164.460938 247.390625 153.894531 257.984375 140.90625 257.984375 Z M 169.878906 231.890625 C 171.246094 231.890625 172.355469 233.003906 172.355469 234.371094 C 172.355469 235.742188 171.246094 236.855469 169.878906 236.855469 C 168.515625 236.855469 167.40625 235.742188 167.40625 234.371094 C 167.40625 233.003906 168.515625 231.890625 169.878906 231.890625 Z M 169.878906 231.890625"/></svg>